<svg width="22" height="16" viewBox="0 0 22 16" fill="none" xmlns="http://www.w3.org/2000/svg">
<path id="Vector 128" d="M21 15.3807C21 15.3807 21 14.7546 21 13.8807M21 9.88073H1M21 9.88073C21 11.0349 21 12.6884 21 13.8807M21 9.88073C21 8.66755 20.2134 7.93496 19 7.49555M1 9.88073C1.00007 11.0349 1.00006 12.6884 1.00004 13.8807M1 9.88073C0.99992 8.55502 1.93923 7.80319 3.34829 7.3807M1 15.3807C1 15.3807 1.00002 14.7546 1.00004 13.8807M1.00004 13.8807H21M3.34829 7.3807V2.61932C3.34829 1.51476 4.24372 0.619324 5.34829 0.619324H17C18.1046 0.619324 19 1.51475 19 2.61932V7.49555M3.34829 7.3807C4.16538 7.1357 5.14044 7.00144 6.18187 6.93025C7.25099 6.85717 7.39006 6.85055 8.5 6.85879M19 7.49555C18.1635 7.19262 17.1242 7.02904 16 6.94339C14.8787 6.85797 14.673 6.85007 13.4998 6.85879M8.5 6.85879V4.5C8.5 3.94772 8.94772 3.5 9.5 3.5H12.5C13.0523 3.5 13.5 3.94774 13.5 4.50005L13.4998 6.85879M8.5 6.85879C10.1668 6.87117 11.8329 6.87117 13.4998 6.85879" stroke="#515151" stroke-linecap="round"/>
</svg>
