<svg width="24" height="16" viewBox="0 0 24 16" fill="none" xmlns="http://www.w3.org/2000/svg">
<path id="Vector 128" d="M23 15.3807C23 15.3807 23 14.7546 23 13.8807M23 9.88073H1M23 9.88073C23 11.0349 23 12.6884 23 13.8807M23 9.88073C23 8.66755 22.2134 7.93496 21 7.49555M1 9.88073C1.00007 11.0349 1.00006 12.6884 1.00004 13.8807M1 9.88073C0.99992 8.55502 1.93923 7.80319 3.34829 7.3807M1 15.3807C1 15.3807 1.00002 14.7546 1.00004 13.8807M1.00004 13.8807H23M3.34829 7.3807V2.61932C3.34829 1.51476 4.24372 0.619324 5.34829 0.619324H19C20.1046 0.619324 21 1.51475 21 2.61932V7.49555M3.34829 7.3807C4.16538 7.1357 5.14044 7.00144 6.18187 6.93025M21 7.49555C20.1635 7.19262 19.1242 7.02904 18 6.94339M6.18187 6.93025V4.6196C6.18187 4.06731 6.62959 3.6196 7.18187 3.6196H9.5C10.0523 3.6196 10.5 4.06731 10.5 4.6196V6.86896M6.18187 6.93025C7.57554 6.83498 9.08808 6.85265 10.5 6.86896M10.5 6.86896C11.0171 6.87494 11.5207 6.88073 12 6.88073C12.4793 6.88073 12.9829 6.87494 13.5 6.86896M13.5 6.86896V4.6196C13.5 4.06731 13.9477 3.6196 14.5 3.6196H17C17.5523 3.6196 18 4.06731 18 4.6196V6.94339M13.5 6.86896C14.9736 6.85194 16.5567 6.83344 18 6.94339" stroke="#515151" stroke-linecap="round"/>
</svg>
