<svg width="20" height="22" viewBox="0 0 20 22" fill="none" xmlns="http://www.w3.org/2000/svg">
<path id="Vector 151" d="M15.25 4.50006H17.75C18.3023 4.50006 18.75 4.94778 18.75 5.50006V20.0001C18.75 20.5523 18.3023 21.0001 17.75 21.0001H5.75C5.19772 21.0001 4.75 20.5523 4.75 20.0001V17.5001M5.25 5.50006H11.25M5.25 9.50006H11.25M5.25 13.5001H7.75M15.25 2.00006V16.5001C15.25 17.0523 14.8023 17.5001 14.25 17.5001H2.25C1.69772 17.5001 1.25 17.0523 1.25 16.5001V2.00006C1.25 1.44778 1.69772 1.00006 2.25 1.00006H14.25C14.8023 1.00006 15.25 1.44778 15.25 2.00006Z" stroke="#F7F7F7" stroke-linecap="round"/>
</svg>
