<svg width="22" height="22" viewBox="0 0 22 22" fill="none" xmlns="http://www.w3.org/2000/svg">
<g id="Ellipse 634">
<path d="M21 11.0001C21 16.5229 16.5228 21.0001 11 21.0001C5.47715 21.0001 1 16.5229 1 11.0001C1 5.47721 5.47715 1.00006 11 1.00006C16.5228 1.00006 21 5.47721 21 11.0001Z" stroke="#F7F7F7" stroke-linejoin="round"/>
<path d="M12.2584 9.51299V11.6036H14.8445L14.435 14.4197H12.2584V20.9079C11.822 20.9684 11.3755 21.0001 10.9223 21.0001C10.3991 21.0001 9.88538 20.9584 9.3851 20.8777V14.4197H7V11.6036H9.3851V9.04566C9.3851 7.45873 10.6714 6.17171 12.259 6.17171V6.17305C12.2638 6.17305 12.2678 6.17171 12.2725 6.17171H14.8452V8.60723H13.1641C12.6645 8.60723 12.2584 9.01338 12.2584 9.51299Z" stroke="#F7F7F7" stroke-linejoin="round"/>
</g>
</svg>
