<svg width="14" height="4" viewBox="0 0 14 4" fill="none" xmlns="http://www.w3.org/2000/svg">
<g id="Ellipse 636">
<path d="M3.5 2.00006C3.5 2.82849 2.82843 3.50006 2 3.50006C1.17157 3.50006 0.5 2.82849 0.5 2.00006C0.5 1.17163 1.17157 0.500061 2 0.500061C2.82843 0.500061 3.5 1.17163 3.5 2.00006Z" stroke="#F7F7F7"/>
<path d="M8.5 2.00006C8.5 2.82849 7.82843 3.50006 7 3.50006C6.17157 3.50006 5.5 2.82849 5.5 2.00006C5.5 1.17163 6.17157 0.500061 7 0.500061C7.82843 0.500061 8.5 1.17163 8.5 2.00006Z" stroke="#F7F7F7"/>
<path d="M13.5 2.00006C13.5 2.82849 12.8284 3.50006 12 3.50006C11.1716 3.50006 10.5 2.82849 10.5 2.00006C10.5 1.17163 11.1716 0.500061 12 0.500061C12.8284 0.500061 13.5 1.17163 13.5 2.00006Z" stroke="#F7F7F7"/>
</g>
</svg>
