<svg width="20" height="20" viewBox="0 0 20 20" fill="none" xmlns="http://www.w3.org/2000/svg">
<g id="Vector">
<path fill-rule="evenodd" clip-rule="evenodd" d="M7.52024 5.76675C7.33885 5.35316 7.13737 5.34311 6.96603 5.34311C6.81477 5.33307 6.65288 5.33307 6.48154 5.33307C6.32083 5.33307 6.04845 5.39333 5.81684 5.64562C5.58464 5.89732 4.95007 6.4923 4.95007 7.7118C4.95007 8.93193 5.83693 10.1112 5.95805 10.2725C6.07858 10.4338 7.67149 13.014 10.192 14.0125C12.2883 14.8391 12.712 14.6778 13.1657 14.627C13.6189 14.5768 14.6275 14.0326 14.839 13.4477C15.0405 12.8734 15.0405 12.3694 14.9802 12.2683C14.9199 12.1679 14.748 12.107 14.5064 11.9759C14.2541 11.8553 13.0446 11.2503 12.813 11.1694C12.5808 11.089 12.4195 11.0488 12.2582 11.2905C12.0969 11.5428 11.623 12.097 11.4724 12.2583C11.3306 12.4196 11.1799 12.4397 10.9377 12.3186C10.686 12.198 9.8895 11.9357 8.9418 11.089C8.2056 10.4332 7.71167 9.61723 7.56041 9.37563C7.41979 9.12333 7.54032 8.99213 7.67149 8.87103C7.78257 8.76053 7.92378 8.57913 8.0449 8.43793C8.1654 8.29613 8.2056 8.18563 8.2966 8.02433C8.377 7.86305 8.3368 7.7118 8.2765 7.59127C8.2157 7.48019 7.74239 6.26069 7.52024 5.76675Z" stroke="#F7F7F7" stroke-linejoin="round"/>
<path d="M16.5408 3.45934C12.9284 -0.153033 7.07164 -0.153033 3.45927 3.45934C0.332518 6.58609 -0.0878576 11.3945 2.19839 14.9733L1.65639 17.7573C1.58864 18.1053 1.89477 18.4115 2.24277 18.3437L5.02677 17.8017C8.60564 20.088 13.414 19.6676 16.5408 16.5408C20.1531 12.9285 20.1531 7.07172 16.5408 3.45934Z" stroke="#F7F7F7" stroke-linejoin="round"/>
</g>
</svg>
