<svg width="22" height="22" viewBox="0 0 22 22" fill="none" xmlns="http://www.w3.org/2000/svg">
<g id="Vector 152 (Stroke)">
<path fill-rule="evenodd" clip-rule="evenodd" d="M11 1.50006C5.75329 1.50006 1.5 5.75336 1.5 11.0001C1.5 16.2468 5.75329 20.5001 11 20.5001C16.2467 20.5001 20.5 16.2468 20.5 11.0001C20.5 5.75336 16.2467 1.50006 11 1.50006ZM0.5 11.0001C0.5 5.20107 5.20101 0.500061 11 0.500061C16.799 0.500061 21.5 5.20107 21.5 11.0001C21.5 16.7991 16.799 21.5001 11 21.5001C5.20101 21.5001 0.5 16.7991 0.5 11.0001Z" fill="#F7F7F7"/>
<path fill-rule="evenodd" clip-rule="evenodd" d="M5.50002 6.00006H9.09305L11.6662 9.47402L15.4475 6.00006H16.5L12.1645 10.1468L16.5 16.0001H12.907L10.1507 12.2789L6.59728 16.0001H5.5L9.6524 11.6061L5.50002 6.00006ZM7.13021 6.80006L13.352 15.2001H14.8698L8.64797 6.80006H7.13021Z" fill="#F7F7F7"/>
</g>
</svg>
