<svg width="22" height="18" viewBox="0 0 22 18" fill="none" xmlns="http://www.w3.org/2000/svg">
<g id="Icon">
<path d="M8.5 16.7242C6.5961 16.7242 5.86487 15.0801 5.86487 13.5463C5.86487 12.0763 7.22457 10.7322 8.5 9.72424V9.72424C9.69607 8.77895 10.2941 8.30631 10.6391 8.19565C11.1824 8.02133 11.3176 8.02133 11.8609 8.19565C12.2059 8.30631 12.8039 8.77895 14 9.72424V9.72424C15.2754 10.7322 16.6757 12.0763 16.6757 13.5463C16.6757 15.0801 15.9039 16.7242 14 16.7242C12.9069 16.7242 12.2131 15.7808 11.2703 15.7808C10.3275 15.7808 9.59309 16.7242 8.5 16.7242Z" stroke="#F7F7F7" stroke-linecap="round" stroke-linejoin="round"/>
<path d="M10.1892 3.48286C10.1892 4.7017 9.22116 5.68976 8.02703 5.68976C6.8329 5.68976 5.86487 4.7017 5.86487 3.48286C5.86487 2.26403 6.8329 1.27597 8.02703 1.27597C9.22116 1.27597 10.1892 2.26403 10.1892 3.48286Z" stroke="#F7F7F7" stroke-linecap="round" stroke-linejoin="round"/>
<path d="M16.5 3.49963C16.5 4.71847 15.532 5.70653 14.3378 5.70653C13.1437 5.70653 12.1757 4.71847 12.1757 3.49963C12.1757 2.2808 13.1437 1.29274 14.3378 1.29274C15.532 1.29274 16.5 2.2808 16.5 3.49963Z" stroke="#F7F7F7" stroke-linecap="round" stroke-linejoin="round"/>
<path d="M21 7.89666C21 9.11549 20.032 10.1036 18.8378 10.1036C17.6437 10.1036 16.6757 9.11549 16.6757 7.89666C16.6757 6.67782 17.6437 5.68976 18.8378 5.68976C20.032 5.68976 21 6.67782 21 7.89666Z" stroke="#F7F7F7" stroke-linecap="round" stroke-linejoin="round"/>
<path d="M5.32432 8.44838C5.32432 9.66722 4.35629 10.6553 3.16216 10.6553C1.96803 10.6553 0.999999 9.66722 0.999999 8.44838C0.999999 7.22955 1.96803 6.24148 3.16216 6.24148C4.35629 6.24148 5.32432 7.22955 5.32432 8.44838Z" stroke="#F7F7F7" stroke-linecap="round" stroke-linejoin="round"/>
</g>
</svg>
