<svg width="42" height="42" viewBox="0 0 42 42" fill="none" xmlns="http://www.w3.org/2000/svg">
<rect x="0.5" y="0.5" width="41" height="41" rx="4.5" stroke="#F5F5F5"/>
<rect x="5" y="5" width="32" height="32" rx="5" fill="#BAB6B6" fill-opacity="0.5"/>
<path d="M21.0403 11C21.0403 11 17.0403 14 17.0403 21C17.0403 28 20.5403 31 20.5403 31" stroke="#B6CCE3" stroke-width="2" stroke-linecap="round"/>
<path d="M31.0853 20.7854C31.0853 20.7854 27.9956 16.8542 20.9974 17.0125C13.9992 17.1707 11.0791 20.7376 11.0791 20.7376" stroke="#B6CCE3" stroke-width="2" stroke-linecap="round"/>
<path d="M21.0403 11C24.0403 13 24.963 17.292 25.0403 21C24.963 24.708 24.0403 29 21.0403 31M21.0403 11C15.5174 11 11.0403 15.4772 11.0403 21M21.0403 11C26.5631 11 31.0403 15.4772 31.0403 21M21.0403 31C26.5631 31 31.0403 26.5228 31.0403 21M21.0403 31C15.5174 31 11.0403 26.5228 11.0403 21M31.0403 21C29.0403 24 24.7482 24.9228 21.0403 25C17.3323 24.9228 13.0403 24 11.0403 21" stroke="#F5F5F5" stroke-width="2" stroke-linecap="round" stroke-linejoin="round"/>
</svg>
