<svg width="23" height="22" viewBox="0 0 23 22" fill="none" xmlns="http://www.w3.org/2000/svg">
<path d="M11.0403 1.00195C11.0403 1.00195 7.04028 4.00195 7.04028 11.002C7.04028 18.002 10.5403 21.002 10.5403 21.002" stroke="#F7F7F7" stroke-width="2" stroke-linecap="round"/>
<path d="M21.0853 10.7873C21.0853 10.7873 17.9956 6.85617 10.9974 7.0144C3.99922 7.17264 1.0791 10.7396 1.0791 10.7396" stroke="#F7F7F7" stroke-width="2" stroke-linecap="round"/>
<path d="M11.0403 1.00195C14.0403 3.00195 14.963 7.29399 15.0403 11.002C14.963 14.7099 14.0403 19.002 11.0403 21.002M11.0403 1.00195C5.51743 1.00195 1.04028 5.47911 1.04028 11.002M11.0403 1.00195C16.5631 1.00195 21.0403 5.47911 21.0403 11.002M11.0403 21.002C16.5631 21.002 21.0403 16.5248 21.0403 11.002M11.0403 21.002C5.51744 21.002 1.04028 16.5248 1.04028 11.002M21.0403 11.002C19.0403 14.002 14.7482 14.9247 11.0403 15.002C7.33232 14.9247 3.04028 14.002 1.04028 11.002" stroke="#F7F7F7" stroke-width="2" stroke-linecap="round" stroke-linejoin="round"/>
</svg>
