<svg width="178" height="30" viewBox="0 0 178 30" fill="none" xmlns="http://www.w3.org/2000/svg">
<g id="MANDRY">
<path id="Vector" d="M167.835 28.1216C167.835 28.4635 167.634 28.8624 167.233 29.3182C166.859 29.774 166.371 30.002 165.768 30.002C165.165 30.002 164.663 29.774 164.261 29.3182C163.887 28.8624 163.701 28.3495 163.701 27.7797C163.701 27.6658 163.73 27.2954 163.787 26.6686C163.988 24.4749 164.088 21.3552 164.088 17.3096C162.05 14.2612 160.169 11.6686 158.446 9.53187C156.752 7.36663 155.676 5.98486 155.216 5.38657C154.068 3.93358 153.493 2.76549 153.493 1.8823C153.493 0.628734 154.125 0.00195312 155.388 0.00195312C155.934 0.00195312 156.48 0.272608 157.025 0.813918C157.571 1.32674 158.044 1.92503 158.446 2.60879C158.848 3.29255 159.423 4.2897 160.169 5.60025C162.035 8.8766 164.074 11.8681 166.285 14.5746C168.18 12.6943 170.247 9.56036 172.487 5.17289C173.406 3.37802 174.152 2.06748 174.727 1.24127C175.33 0.415058 175.918 0.00195312 176.492 0.00195312C177.497 0.00195312 178 0.514774 178 1.54042C178 2.56606 177.526 3.79113 176.579 5.21563C175.631 6.61164 174.124 8.62019 172.056 11.2413C169.989 13.8339 168.453 15.6572 167.448 16.7114C167.448 21.0133 167.505 23.9051 167.62 25.3866C167.764 26.868 167.835 27.7797 167.835 28.1216Z" fill="#08B1BD"/>
<path id="Vector_2" d="M134.712 0.258363L141.086 0.00195312C142.838 0.00195312 144.56 0.543263 146.254 1.62588C147.116 2.19569 147.819 3.00765 148.365 4.06178C148.939 5.11591 149.226 6.32674 149.226 7.69426C149.226 10.0874 148.523 12.0532 147.116 13.5917C145.709 15.1017 144.044 16.1843 142.12 16.8396C142.953 17.2954 143.771 17.8367 144.575 18.4635C146.757 20.2869 148.351 22.0247 149.355 23.6772C150.389 25.3296 150.906 26.7968 150.906 28.0789C150.906 29.3609 150.303 30.002 149.097 30.002C148.207 30.002 147.374 29.133 146.599 27.3951C146.283 26.6544 145.738 25.6857 144.962 24.4891C144.216 23.2641 143.354 22.1245 142.378 21.0703C140.34 18.9051 138.244 17.4379 136.09 16.6686C136.119 18.9763 136.191 21.2982 136.305 23.6344C136.42 25.9706 136.478 27.3951 136.478 27.9079C136.478 28.3923 136.277 28.8624 135.875 29.3182C135.502 29.774 135.013 30.002 134.41 30.002C133.807 30.002 133.305 29.774 132.903 29.3182C132.53 28.8624 132.343 28.4065 132.343 27.9507C132.343 27.4948 132.401 25.9136 132.515 23.2071C132.659 20.5005 132.731 17.8794 132.731 15.3438C132.731 12.8082 132.702 10.7284 132.645 9.10452C132.587 7.4521 132.515 6.12731 132.429 5.13016C132.372 4.13301 132.343 3.49198 132.343 3.20708H131.568C131.108 3.20708 130.692 3.06463 130.319 2.77973C129.974 2.46634 129.802 2.08173 129.802 1.62588C129.802 1.14155 129.974 0.756939 130.319 0.472038C130.692 0.158648 131.051 0.00195312 131.396 0.00195312C131.769 0.00195312 132.257 0.0446886 132.86 0.130159C133.492 0.215628 134.109 0.258363 134.712 0.258363ZM138.976 2.95067L136.478 2.99341C136.478 3.3068 136.435 3.93358 136.349 4.87375C136.176 7.38087 136.09 10.529 136.09 14.3182C137.526 14.7171 138.574 14.9165 139.234 14.9165C139.895 14.9165 140.555 14.8453 141.215 14.7028C141.904 14.5319 142.637 14.2612 143.412 13.8908C144.216 13.5205 144.876 12.9364 145.393 12.1387C145.91 11.3125 146.168 10.3581 146.168 9.27546C146.168 7.11022 145.465 5.51477 144.058 4.48913C142.68 3.46349 140.986 2.95067 138.976 2.95067Z" fill="#08B1BD"/>
<path id="Vector_3" d="M106.226 0.258363L112.944 0.00195312C115.069 0.00195312 117.194 0.514774 119.319 1.54042C120.582 2.1387 121.702 2.87945 122.678 3.76264C123.654 4.64583 124.473 5.85665 125.133 7.39512C125.793 8.90509 126.124 10.7569 126.124 12.9507C126.124 15.1444 125.65 17.3666 124.702 19.6173C123.755 21.8396 122.52 23.6914 120.998 25.1729C119.477 26.6544 117.768 27.8367 115.873 28.7199C114.007 29.5746 112.097 30.002 110.145 30.002C108.221 30.002 106.699 29.7883 105.58 29.3609C104.489 28.9051 103.943 28.1501 103.943 27.096C103.943 26.5831 104 24.9022 104.115 22.0532C104.259 19.2042 104.331 16.7398 104.331 14.6601C104.331 12.5803 104.302 10.7284 104.244 9.10452C104.187 7.4521 104.115 6.12731 104.029 5.13016C103.972 4.13301 103.943 3.47774 103.943 3.16435C102.852 3.22133 102.105 3.24982 101.703 3.24982C101.301 3.24982 100.914 3.10737 100.541 2.82246C100.196 2.50907 100.024 2.11021 100.024 1.62588C100.024 1.14155 100.196 0.756939 100.541 0.472038C100.914 0.158648 101.33 0.00195312 101.79 0.00195312L106.226 0.258363ZM107.948 4.95922C107.891 5.92788 107.834 7.25267 107.776 8.93358C107.719 10.586 107.69 12.8937 107.69 15.8567C107.69 18.8196 107.819 22.3809 108.078 26.5404C109.025 26.8253 110.245 26.9678 111.739 26.9678C114.524 26.9678 117.093 25.7997 119.448 23.4635C121.802 21.1273 122.98 18.1359 122.98 14.4891C122.98 10.8139 121.874 7.97916 119.663 5.98486C117.452 3.96207 114.308 2.95067 110.231 2.95067C109.226 2.95067 108.508 2.96492 108.078 2.99341C108.078 3.3068 108.035 3.96207 107.948 4.95922Z" fill="#08B1BD"/>
<path id="Vector_4" d="M68.3049 2.0105C68.3049 0.671469 69.2094 0.00195312 71.0183 0.00195312C73.3153 0.00195312 75.799 1.04184 78.4693 3.12161C81.1683 5.17289 83.5228 8.3068 85.5327 12.5233C88.2317 18.2498 90.0119 21.8823 90.8732 23.4208C90.8158 14.8453 90.5718 9.38942 90.1411 7.05324C89.7104 4.68856 89.495 3.1501 89.495 2.43785C89.495 1.7256 89.696 1.14155 90.098 0.685715C90.5287 0.229873 91.0312 0.00195312 91.6054 0.00195312C92.2084 0.00195312 92.6965 0.229873 93.0698 0.685715C93.443 1.14155 93.6297 1.82531 93.6297 2.737C93.6297 3.62019 93.5579 5.25836 93.4143 7.65153C93.1272 13.2356 92.9836 18.7769 92.9836 24.2755C92.9836 24.9592 93.1846 25.6857 93.5866 26.4549C93.9886 27.2242 94.1896 27.8225 94.1896 28.2498C94.1896 28.6487 94.003 29.0475 93.6297 29.4464C93.2564 29.8168 92.7683 30.002 92.1653 30.002C91.1891 30.002 90.3421 29.4037 89.6242 28.2071C88.9064 26.982 87.8584 24.7313 86.4802 21.4549C85.102 18.1786 84.097 15.8139 83.4653 14.3609C80.8525 8.34953 77.45 4.90224 73.2579 4.01905C73.1718 5.89939 73.1287 8.89084 73.1287 12.9934C73.1287 17.096 73.2579 20.5005 73.5163 23.2071C73.8035 25.9136 73.947 27.4948 73.947 27.9507C73.947 28.4065 73.746 28.8624 73.344 29.3182C72.9708 29.774 72.4827 30.002 71.8797 30.002C71.2767 30.002 70.7742 29.774 70.3723 29.3182C69.999 28.8624 69.8124 28.4065 69.8124 27.9507C69.8124 27.4948 69.9416 25.9136 70.2 23.2071C70.4871 20.5005 70.6307 17.8367 70.6307 15.2156C70.6307 12.5945 70.5732 8.77688 70.4584 3.76264C69.8841 3.73415 69.3817 3.57745 68.951 3.29255C68.5203 2.97916 68.3049 2.55181 68.3049 2.0105Z" fill="#08B1BD"/>
<path id="Vector_5" d="M58.541 16.925L51.3915 16.7114L45.9217 16.8396C45.6633 17.4378 45.3761 18.1928 45.0603 19.1045C44.7732 20.0162 44.3855 21.0846 43.8974 22.3096C43.4093 23.5062 42.8494 24.7171 42.2177 25.9421C40.8108 28.6487 39.4613 30.002 38.1692 30.002C37.0494 30.002 36.4895 29.3752 36.4895 28.1216C36.4895 27.3239 37.2791 26.1558 38.8583 24.6173C39.5187 24.019 40.2652 23.0361 41.0979 21.6686C41.9593 20.3011 42.7058 18.7199 43.3375 16.925H41.787C41.3276 16.925 40.9256 16.7968 40.5811 16.5404C40.2652 16.2555 40.1073 15.8709 40.1073 15.3866C40.1073 14.9022 40.2796 14.5034 40.6242 14.19C40.9687 13.8766 41.342 13.7199 41.744 13.7199L44.7588 13.7626C47.1994 8.37802 49.5108 4.66007 51.693 2.60879C50.5732 2.60879 48.8791 2.72275 46.6108 2.95067C44.3425 3.1501 42.9643 3.24982 42.4761 3.24982C42.0167 3.24982 41.6148 3.12161 41.2702 2.8652C40.9256 2.5803 40.7534 2.19568 40.7534 1.71136C40.7534 1.19853 40.9256 0.785429 41.2702 0.472038C41.6435 0.158648 42.0454 0.00195312 42.4761 0.00195312L51.8652 0.258363L62.0727 0.00195312C62.5895 0.00195312 63.0058 0.158648 63.3217 0.472038C63.6375 0.785429 63.7954 1.18429 63.7954 1.66862C63.7954 2.72275 63.2068 3.24982 62.0296 3.24982H60.9959C60.9959 7.80822 61.1826 11.925 61.5558 15.6002C61.9291 19.2755 62.3024 22.1102 62.6756 24.1045C63.0489 26.0988 63.2355 27.3666 63.2355 27.9079C63.2355 28.4208 63.0633 28.9051 62.7187 29.3609C62.4029 29.7883 61.9578 30.002 61.3836 30.002C60.838 30.002 60.3643 29.8025 59.9623 29.4037C59.5603 29.0048 59.3449 28.435 59.3162 27.6943L58.541 16.925ZM57.7657 2.737L56.689 2.69426C53.4445 3.00765 50.286 6.71135 47.2138 13.8054C49.6831 13.8624 51.2048 13.8908 51.7791 13.8908C52.3534 13.8908 54.5355 13.8339 58.3256 13.7199C57.9524 7.4236 57.7657 3.76264 57.7657 2.737Z" fill="#08B1BD"/>
<path id="Vector_6" d="M30.4933 3.50623L29.9765 3.54896C30.2062 12.4663 30.5364 18.8054 30.9671 22.5661C31.0819 23.4777 31.4839 24.4037 32.173 25.3438C32.8908 26.2555 33.2497 27.039 33.2497 27.6943C33.2497 28.321 33.0488 28.8624 32.6468 29.3182C32.2735 29.774 31.7567 30.002 31.0963 30.002C30.4646 30.002 29.9191 29.6173 29.4596 28.8481C29.029 28.0504 28.7705 27.1957 28.6844 26.284C27.9379 16.7398 27.0765 9.54611 26.1002 4.70281C23.4874 6.01335 20.9319 8.27831 18.4339 11.4977C20.7022 15.0589 21.8364 18.0931 21.8364 20.6002C21.8364 23.0789 20.9894 25.2299 19.2953 27.0532C17.6012 28.8481 16.022 29.7455 14.5577 29.7455C13.0933 29.7455 11.9592 29.2755 11.1552 28.3353C10.3799 27.3951 9.99232 26.2413 9.99232 24.8737C9.99232 23.4777 10.4517 21.7256 11.3705 19.6173C12.3181 17.4806 13.5527 15.2584 15.0745 12.9507C13.725 10.9849 12.1889 9.24697 10.4661 7.737C8.74331 6.19853 7.06361 5.1444 5.42698 4.5746C4.73787 9.38942 4.27846 13.0219 4.04876 15.472C3.84777 17.8937 3.68985 20.529 3.575 23.378C3.46014 26.1985 3.38836 27.851 3.35965 28.3353C3.33094 28.7911 3.15866 29.19 2.84282 29.5319C2.52698 29.8453 2.15371 30.002 1.72302 30.002C1.29232 30.002 0.890343 29.8453 0.517076 29.5319C0.172521 29.19 0.000244141 28.7199 0.000244141 28.1216C0.000244141 27.5233 0.215591 25.8282 0.646284 23.0361C1.59381 17.1957 2.125 10.8709 2.23985 4.06178C1.06262 3.80537 0.474006 3.07888 0.474006 1.8823C0.474006 1.34099 0.732422 0.89939 1.24925 0.557509C1.76609 0.187139 2.39777 0.00195312 3.1443 0.00195312C5.35519 0.00195312 7.73836 0.942123 10.2938 2.82246C12.878 4.67432 15.2037 7.0105 17.271 9.83101C19.4532 6.95352 21.7072 4.60309 24.0329 2.77973C26.3587 0.927878 28.5121 0.00195312 30.4933 0.00195312C31.8428 0.00195312 32.5176 0.543263 32.5176 1.62588C32.5176 2.1387 32.2879 2.5803 31.8285 2.95067C31.3978 3.32104 30.9527 3.50623 30.4933 3.50623ZM18.4339 22.096C18.4339 19.9307 17.673 17.4806 16.1512 14.7455C13.8255 18.4492 12.6626 21.2413 12.6626 23.1216C12.6626 24.1473 12.921 25.0447 13.4379 25.8139C13.9834 26.5832 14.6582 26.9678 15.4621 26.9678C16.2661 26.9678 16.9552 26.4692 17.5294 25.472C18.1324 24.4464 18.4339 23.321 18.4339 22.096Z" fill="#08B1BD"/>
</g>
</svg>
