<svg width="178" height="30" viewBox="0 0 178 30" fill="none" xmlns="http://www.w3.org/2000/svg">
<path d="M167.836 28.1197C167.836 28.4615 167.635 28.8604 167.233 29.3162C166.859 29.7721 166.371 30 165.768 30C165.165 30 164.663 29.7721 164.261 29.3162C163.888 28.8604 163.701 28.3476 163.701 27.7778C163.701 27.6638 163.73 27.2934 163.787 26.6667C163.988 24.4729 164.089 21.3533 164.089 17.3077C162.05 14.2593 160.169 11.6667 158.447 9.52991C156.752 7.36467 155.676 5.98291 155.216 5.38461C154.068 3.93162 153.494 2.76353 153.494 1.88034C153.494 0.626781 154.125 0 155.389 0C155.934 0 156.48 0.270655 157.025 0.811965C157.571 1.32479 158.045 1.92308 158.447 2.60684C158.848 3.2906 159.423 4.28775 160.169 5.59829C162.036 8.87464 164.074 11.8661 166.285 14.5726C168.18 12.6923 170.248 9.5584 172.487 5.17094C173.406 3.37607 174.152 2.06553 174.727 1.23932C175.33 0.413105 175.918 0 176.493 0C177.498 0 178 0.512821 178 1.53846C178 2.5641 177.526 3.78918 176.579 5.21368C175.631 6.60969 174.124 8.61823 172.056 11.2393C169.989 13.8319 168.453 15.6553 167.448 16.7094C167.448 21.0114 167.505 23.9031 167.62 25.3846C167.764 26.8661 167.836 27.7778 167.836 28.1197Z" fill="#B6CCE3"/>
<path d="M134.712 0.25641L141.086 0C142.838 0 144.56 0.54131 146.254 1.62393C147.116 2.19373 147.819 3.0057 148.365 4.05983C148.939 5.11396 149.226 6.32479 149.226 7.69231C149.226 10.0855 148.523 12.0513 147.116 13.5897C145.709 15.0997 144.043 16.1823 142.12 16.8376C142.952 17.2934 143.771 17.8348 144.575 18.4615C146.757 20.2849 148.35 22.0228 149.355 23.6752C150.389 25.3276 150.906 26.7949 150.906 28.0769C150.906 29.359 150.303 30 149.097 30C148.207 30 147.374 29.1311 146.599 27.3932C146.283 26.6524 145.738 25.6838 144.962 24.4872C144.216 23.2621 143.354 22.1225 142.378 21.0684C140.34 18.9031 138.243 17.4359 136.09 16.6667C136.119 18.9744 136.191 21.2963 136.305 23.6325C136.42 25.9687 136.478 27.3932 136.478 27.906C136.478 28.3903 136.277 28.8604 135.875 29.3162C135.501 29.7721 135.013 30 134.41 30C133.807 30 133.305 29.7721 132.903 29.3162C132.53 28.8604 132.343 28.4046 132.343 27.9487C132.343 27.4929 132.4 25.9117 132.515 23.2051C132.659 20.4986 132.731 17.8775 132.731 15.3419C132.731 12.8063 132.702 10.7265 132.644 9.10256C132.587 7.45014 132.515 6.12536 132.429 5.1282C132.372 4.13105 132.343 3.49003 132.343 3.20513H131.568C131.108 3.20513 130.692 3.06268 130.319 2.77778C129.974 2.46439 129.802 2.07977 129.802 1.62393C129.802 1.1396 129.974 0.754986 130.319 0.470085C130.692 0.156695 131.051 0 131.395 0C131.769 0 132.257 0.0427355 132.86 0.128206C133.492 0.213675 134.109 0.25641 134.712 0.25641ZM138.976 2.94872L136.478 2.99145C136.478 3.30484 136.435 3.93162 136.348 4.8718C136.176 7.37892 136.09 10.5271 136.09 14.3162C137.526 14.7151 138.574 14.9145 139.234 14.9145C139.894 14.9145 140.555 14.8433 141.215 14.7009C141.904 14.5299 142.637 14.2593 143.412 13.8889C144.216 13.5185 144.876 12.9345 145.393 12.1368C145.91 11.3105 146.168 10.3561 146.168 9.2735C146.168 7.10826 145.465 5.51282 144.058 4.48718C142.68 3.46154 140.986 2.94872 138.976 2.94872Z" fill="#B6CCE3"/>
<path d="M106.226 0.25641L112.944 0C115.069 0 117.194 0.512821 119.319 1.53846C120.582 2.13675 121.702 2.87749 122.678 3.76068C123.654 4.64387 124.473 5.8547 125.133 7.39316C125.793 8.90313 126.124 10.755 126.124 12.9487C126.124 15.1424 125.65 17.3647 124.702 19.6154C123.755 21.8376 122.52 23.6895 120.998 25.1709C119.477 26.6524 117.768 27.8348 115.873 28.7179C114.007 29.5726 112.097 30 110.145 30C108.221 30 106.699 29.7863 105.58 29.359C104.488 28.9031 103.943 28.1481 103.943 27.094C103.943 26.5812 104 24.9003 104.115 22.0513C104.259 19.2023 104.33 16.7379 104.33 14.6581C104.33 12.5783 104.302 10.7265 104.244 9.10256C104.187 7.45014 104.115 6.12536 104.029 5.1282C103.972 4.13105 103.943 3.47578 103.943 3.16239C102.852 3.21937 102.105 3.24786 101.703 3.24786C101.301 3.24786 100.914 3.10541 100.54 2.82051C100.196 2.50712 100.024 2.10826 100.024 1.62393C100.024 1.1396 100.196 0.754986 100.54 0.470085C100.914 0.156695 101.33 0 101.789 0L106.226 0.25641ZM107.948 4.95726C107.891 5.92593 107.833 7.25071 107.776 8.93162C107.719 10.584 107.69 12.8917 107.69 15.8547C107.69 18.8177 107.819 22.3789 108.078 26.5385C109.025 26.8234 110.245 26.9658 111.738 26.9658C114.524 26.9658 117.093 25.7977 119.448 23.4615C121.802 21.1254 122.98 18.1339 122.98 14.4872C122.98 10.812 121.874 7.97721 119.663 5.98291C117.452 3.96011 114.308 2.94872 110.231 2.94872C109.226 2.94872 108.508 2.96296 108.078 2.99145C108.078 3.30484 108.034 3.96011 107.948 4.95726Z" fill="#B6CCE3"/>
<path d="M68.3054 2.00855C68.3054 0.669516 69.2099 0 71.0188 0C73.3158 0 75.7995 1.03989 78.4698 3.11966C81.1688 5.17094 83.5233 8.30484 85.5332 12.5214C88.2322 18.2479 90.0124 21.8803 90.8738 23.4188C90.8163 14.8433 90.5723 9.38746 90.1416 7.05128C89.7109 4.68661 89.4956 3.14815 89.4956 2.4359C89.4956 1.72365 89.6965 1.1396 90.0985 0.683762C90.5292 0.22792 91.0317 0 91.606 0C92.2089 0 92.697 0.22792 93.0703 0.683762C93.4436 1.1396 93.6302 1.82336 93.6302 2.73504C93.6302 3.61823 93.5584 5.25641 93.4149 7.64957C93.1277 13.2336 92.9842 18.7749 92.9842 24.2735C92.9842 24.9573 93.1852 25.6838 93.5871 26.453C93.9891 27.2222 94.1901 27.8205 94.1901 28.2479C94.1901 28.6467 94.0035 29.0456 93.6302 29.4444C93.2569 29.8148 92.7688 30 92.1659 30C91.1896 30 90.3426 29.4017 89.6248 28.2051C88.9069 26.9801 87.8589 24.7293 86.4807 21.453C85.1025 18.1766 84.0975 15.812 83.4658 14.359C80.853 8.34758 77.4505 4.90028 73.2584 4.01709C73.1723 5.89744 73.1292 8.88889 73.1292 12.9915C73.1292 17.094 73.2584 20.4986 73.5168 23.2051C73.8039 25.9117 73.9475 27.4929 73.9475 27.9487C73.9475 28.4046 73.7465 28.8604 73.3445 29.3162C72.9713 29.7721 72.4832 30 71.8802 30C71.2772 30 70.7747 29.7721 70.3728 29.3162C69.9995 28.8604 69.8129 28.4046 69.8129 27.9487C69.8129 27.4929 69.9421 25.9117 70.2005 23.2051C70.4876 20.4986 70.6312 17.8348 70.6312 15.2137C70.6312 12.5926 70.5737 8.77493 70.4589 3.76068C69.8846 3.73219 69.3822 3.5755 68.9515 3.2906C68.5208 2.97721 68.3054 2.54986 68.3054 2.00855Z" fill="#B6CCE3"/>
<path d="M58.541 16.9231L51.3915 16.7094L45.9217 16.8376C45.6633 17.4359 45.3761 18.1909 45.0603 19.1026C44.7732 20.0142 44.3856 21.0826 43.8974 22.3077C43.4093 23.5043 42.8494 24.7151 42.2177 25.9402C40.8108 28.6467 39.4613 30 38.1692 30C37.0494 30 36.4895 29.3732 36.4895 28.1197C36.4895 27.3219 37.2791 26.1538 38.8583 24.6154C39.5187 24.0171 40.2653 23.0342 41.0979 21.6667C41.9593 20.2991 42.7058 18.7179 43.3375 16.9231H41.787C41.3276 16.9231 40.9256 16.7949 40.5811 16.5385C40.2653 16.2536 40.1073 15.8689 40.1073 15.3846C40.1073 14.9003 40.2796 14.5014 40.6242 14.188C40.9687 13.8746 41.342 13.7179 41.744 13.7179L44.7588 13.7607C47.1994 8.37607 49.5108 4.65812 51.693 2.60684C50.5732 2.60684 48.8791 2.7208 46.6108 2.94872C44.3425 3.14815 42.9643 3.24786 42.4761 3.24786C42.0167 3.24786 41.6148 3.11966 41.2702 2.86325C40.9256 2.57835 40.7534 2.19373 40.7534 1.7094C40.7534 1.19658 40.9256 0.783476 41.2702 0.470085C41.6435 0.156695 42.0455 0 42.4761 0L51.8653 0.25641L62.0727 0C62.5895 0 63.0059 0.156695 63.3217 0.470085C63.6376 0.783476 63.7955 1.18234 63.7955 1.66667C63.7955 2.7208 63.2069 3.24786 62.0296 3.24786H60.996C60.996 7.80627 61.1826 11.9231 61.5559 15.5983C61.9291 19.2735 62.3024 22.1083 62.6757 24.1026C63.0489 26.0969 63.2356 27.3647 63.2356 27.906C63.2356 28.4188 63.0633 28.9031 62.7188 29.359C62.4029 29.7863 61.9579 30 61.3836 30C60.8381 30 60.3643 29.8006 59.9623 29.4017C59.5603 29.0028 59.345 28.4331 59.3163 27.6923L58.541 16.9231ZM57.7658 2.73504L56.689 2.69231C53.4445 3.0057 50.2861 6.7094 47.2138 13.8034C49.6831 13.8604 51.2049 13.8889 51.7791 13.8889C52.3534 13.8889 54.5356 13.8319 58.3257 13.7179C57.9524 7.42165 57.7658 3.76068 57.7658 2.73504Z" fill="#B6CCE3"/>
<path d="M30.4931 3.50427L29.9763 3.54701C30.206 12.4644 30.5362 18.8034 30.9669 22.5641C31.0817 23.4758 31.4837 24.4017 32.1728 25.3419C32.8906 26.2536 33.2496 27.037 33.2496 27.6923C33.2496 28.3191 33.0486 28.8604 32.6466 29.3162C32.2733 29.7721 31.7565 30 31.0961 30C30.4644 30 29.9189 29.6154 29.4595 28.8462C29.0288 28.0484 28.7703 27.1937 28.6842 26.282C27.9377 16.7379 27.0763 9.54416 26.1 4.70085C23.4872 6.0114 20.9317 8.27635 18.4337 11.4957C20.702 15.057 21.8362 18.0912 21.8362 20.5983C21.8362 23.0769 20.9891 25.2279 19.2951 27.0513C17.601 28.8462 16.0218 29.7436 14.5574 29.7436C13.0931 29.7436 11.9589 29.2735 11.155 28.3333C10.3797 27.3932 9.99209 26.2393 9.99209 24.8718C9.99209 23.4758 10.4515 21.7236 11.3703 19.6154C12.3178 17.4786 13.5525 15.2564 15.0743 12.9487C13.7248 10.9829 12.1886 9.24501 10.4659 7.73504C8.74308 6.19658 7.06338 5.14245 5.42674 4.57265C4.73763 9.38746 4.27822 13.0199 4.04852 15.4701C3.84753 17.8917 3.68961 20.5271 3.57476 23.3761C3.45991 26.1966 3.38812 27.849 3.35941 28.3333C3.3307 28.7892 3.15842 29.188 2.84258 29.5299C2.52674 29.8433 2.15347 30 1.72277 30C1.29208 30 0.8901 29.8433 0.516832 29.5299C0.172278 29.188 0 28.7179 0 28.1197C0 27.5214 0.215347 25.8262 0.64604 23.0342C1.59357 17.1937 2.12476 10.8689 2.23961 4.05983C1.06238 3.80342 0.473763 3.07692 0.473763 1.88034C0.473763 1.33903 0.732179 0.897437 1.24901 0.555556C1.76584 0.185186 2.39753 0 3.14406 0C5.35496 0 7.73813 0.94017 10.2936 2.82051C12.8777 4.67236 15.2035 7.00855 17.2708 9.82906C19.453 6.95157 21.707 4.60114 24.0327 2.77778C26.3585 0.925925 28.5119 0 30.4931 0C31.8426 0 32.5174 0.54131 32.5174 1.62393C32.5174 2.13675 32.2877 2.57835 31.8283 2.94872C31.3976 3.31909 30.9525 3.50427 30.4931 3.50427ZM18.4337 22.094C18.4337 19.9288 17.6728 17.4786 16.151 14.7436C13.8253 18.4473 12.6624 21.2393 12.6624 23.1197C12.6624 24.1453 12.9208 25.0427 13.4376 25.812C13.9832 26.5812 14.6579 26.9658 15.4619 26.9658C16.2659 26.9658 16.955 26.4672 17.5292 25.4701C18.1322 24.4444 18.4337 23.3191 18.4337 22.094Z" fill="#B6CCE3"/>
</svg>
