<svg width="18" height="20" viewBox="0 0 18 20" fill="none" xmlns="http://www.w3.org/2000/svg">
<g id="Group 1000014499">
<g id="Icon">
<path d="M9.00008 10C11.4854 10 13.5001 7.98528 13.5001 5.5C13.5001 3.01472 11.4854 1 9.00008 1C6.5148 1 4.50008 3.01472 4.50008 5.5C4.50008 7.98528 6.5148 10 9.00008 10Z" stroke="#F7F7F7" stroke-width="2" stroke-linecap="round" stroke-linejoin="round"/>
<path d="M9.00008 13C6.16945 13 3.65362 14.5446 2.05931 16.9383C1.71004 17.4628 1.53541 17.725 1.55551 18.0599C1.57117 18.3207 1.74213 18.64 1.95052 18.7976C2.21816 19 2.58625 19 3.32244 19H14.6777C15.4139 19 15.782 19 16.0496 18.7976C16.258 18.64 16.429 18.3207 16.4446 18.0599C16.4648 17.725 16.2901 17.4628 15.9409 16.9383C14.3465 14.5446 11.8307 13 9.00008 13Z" stroke="#F7F7F7" stroke-width="2" stroke-linecap="round" stroke-linejoin="round"/>
</g>
</g>
</svg>
