<svg width="24" height="24" viewBox="0 0 24 24" fill="none" xmlns="http://www.w3.org/2000/svg">
<g id="user-circle-stroke-rounded 1">
<path id="Vector" d="M12 22C17.5228 22 22 17.5228 22 12C22 6.47715 17.5228 2 12 2C6.47715 2 2 6.47715 2 12C2 17.5228 6.47715 22 12 22Z" stroke="#F7F7F7" stroke-width="2"/>
<path id="Vector_2" d="M6.79785 17.7802C9.49337 14.9569 14.4776 14.824 17.2021 17.7802M14.8844 9.10992C14.8844 10.7061 13.5886 12 11.9902 12C10.3918 12 9.09601 10.7061 9.09601 9.10992C9.09601 7.51377 10.3918 6.21983 11.9902 6.21983C13.5886 6.21983 14.8844 7.51377 14.8844 9.10992Z" stroke="#F7F7F7" stroke-width="2" stroke-linecap="round"/>
</g>
</svg>
