<svg width="42" height="42" viewBox="0 0 42 42" fill="none" xmlns="http://www.w3.org/2000/svg">
<path d="M14.5 28C16.5 26 15.5 26 21 26C26.5 26 25.5 26 27.5 28" stroke="#B6CCE3" stroke-width="2" stroke-linecap="round"/>
<path d="M21 22.5C23.2091 22.5 25 20.7091 25 18.5C25 16.2909 23.2091 14.5 21 14.5C18.7909 14.5 17 16.2909 17 18.5C17 20.7091 18.7909 22.5 21 22.5Z" stroke="#F5F5F5" stroke-width="2" stroke-linecap="round" stroke-linejoin="round"/>
<path d="M21 31C26.5228 31 31 26.5228 31 21C31 15.4772 26.5228 11 21 11C15.4772 11 11 15.4772 11 21C11 26.5228 15.4772 31 21 31Z" stroke="#F5F5F5" stroke-width="2" stroke-linecap="round" stroke-linejoin="round"/>
</svg>
