<svg width="34" height="31" viewBox="0 0 34 31" fill="none" xmlns="http://www.w3.org/2000/svg">
<path d="M30.9195 3.71672L30.4018 3.75986C30.6319 12.7628 30.9626 19.1626 31.3941 22.9593C31.5091 23.8797 31.9118 24.8145 32.6021 25.7637C33.3212 26.6841 33.6808 27.4751 33.6808 28.1367C33.6808 28.7695 33.4794 29.316 33.0767 29.7762C32.7028 30.2364 32.1851 30.4665 31.5235 30.4665C30.8907 30.4665 30.3442 30.0782 29.884 29.3016C29.4526 28.4962 29.1937 27.6333 29.1074 26.7129C28.3596 17.0772 27.4967 9.81452 26.5187 4.92478C23.9013 6.24788 21.3413 8.53456 18.8389 11.7848C21.1112 15.3802 22.2474 18.4435 22.2474 20.9746C22.2474 23.477 21.3989 25.6487 19.7018 27.4895C18.0048 29.3016 16.4228 30.2076 14.9559 30.2076C13.489 30.2076 12.3528 29.733 11.5475 28.7839C10.7709 27.8347 10.3826 26.6698 10.3826 25.2891C10.3826 23.8797 10.8428 22.1108 11.7632 19.9823C12.7124 17.8251 13.9492 15.5815 15.4737 13.2517C14.1218 11.2671 12.5829 9.51251 10.8572 7.98806C9.13136 6.43484 7.44872 5.37061 5.80921 4.79534C5.1189 9.65632 4.65868 13.3236 4.42858 15.7973C4.22724 18.2421 4.06904 20.9027 3.95399 23.7791C3.83893 26.6266 3.76702 28.2949 3.73826 28.7839C3.7095 29.2441 3.53692 29.6468 3.22052 29.9919C2.90413 30.3083 2.53021 30.4665 2.09876 30.4665C1.66731 30.4665 1.26462 30.3083 0.890703 29.9919C0.545545 29.6468 0.372965 29.1722 0.372965 28.5681C0.372965 27.9641 0.588689 26.2527 1.02014 23.4339C1.96932 17.5374 2.50144 11.152 2.6165 4.2776C1.4372 4.01873 0.847558 3.28527 0.847558 2.07722C0.847558 1.53072 1.10643 1.08489 1.62417 0.739728C2.1419 0.365805 2.77469 0.178844 3.52254 0.178844C5.73731 0.178844 8.12465 1.12803 10.6846 3.0264C13.2733 4.89601 15.6031 7.2546 17.674 10.1022C19.86 7.19707 22.118 4.8241 24.4478 2.98326C26.7776 1.11365 28.9348 0.178844 30.9195 0.178844C32.2714 0.178844 32.9473 0.725345 32.9473 1.81835C32.9473 2.33609 32.7172 2.78192 32.257 3.15584C31.8255 3.52976 31.3797 3.71672 30.9195 3.71672ZM18.8389 22.4847C18.8389 20.2987 18.0767 17.8251 16.5523 15.0638C14.2225 18.803 13.0575 21.6218 13.0575 23.5202C13.0575 24.5557 13.3164 25.4617 13.8341 26.2383C14.3807 27.0149 15.0566 27.4032 15.862 27.4032C16.6673 27.4032 17.3576 26.8999 17.9329 25.8932C18.5369 24.8577 18.8389 23.7215 18.8389 22.4847Z" fill="#08B1BD"/>
</svg>
