<svg width="20" height="20" viewBox="0 0 20 20" fill="none" xmlns="http://www.w3.org/2000/svg">
<path id="Vector" d="M16.721 10.5693C16.7096 8.92994 17.5937 7.69441 19.3791 6.78339C18.3805 5.58151 16.8698 4.92048 14.8784 4.79308C12.9928 4.66809 10.9299 5.71612 10.1745 5.71612C9.37625 5.71612 7.55079 4.83635 6.11445 4.83635C3.15021 4.87481 0 6.82185 0 10.7832C0 11.9539 0.254649 13.163 0.763948 14.4081C1.44492 16.0475 3.89986 20.0641 6.46066 19.9992C7.79971 19.9728 8.74678 19.2012 10.4893 19.2012C12.1803 19.2012 13.0558 19.9992 14.5494 19.9992C17.133 19.968 19.3534 16.3167 20 14.6725C16.535 13.3 16.721 10.6534 16.721 10.5693ZM13.7139 3.23785C15.1645 1.7908 15.0329 0.473539 14.99 0C13.7082 0.0624976 12.226 0.733145 11.382 1.55763C10.4521 2.44221 9.90558 3.53592 10.0229 4.76905C11.4077 4.85798 12.6724 4.25945 13.7139 3.23785Z" fill="#515151"/>
</svg>
