<svg width="20" height="20" viewBox="0 0 20 20" fill="none" xmlns="http://www.w3.org/2000/svg">
<g id="Group 1000014496">
<path id="Vector" d="M19.8055 8.0412H19V7.9997H10V11.9995H15.6515C14.827 14.328 12.6115 15.9994 10 15.9994C6.6865 15.9994 4 13.313 4 9.99962C4 6.68625 6.6865 3.99985 10 3.99985C11.5295 3.99985 12.921 4.57683 13.9805 5.51929L16.809 2.6909C15.023 1.02646 12.634 0 10 0C4.4775 0 0 4.47733 0 9.99962C0 15.5219 4.4775 19.9992 10 19.9992C15.5225 19.9992 20 15.5219 20 9.99962C20 9.32915 19.931 8.67467 19.8055 8.0412Z" fill="#FD941A"/>
<path id="Vector_2" d="M1.15234 5.3453L4.43784 7.75471C5.32684 5.55379 7.47984 3.99985 9.99934 3.99985C11.5288 3.99985 12.9203 4.57683 13.9798 5.51929L16.8083 2.6909C15.0223 1.02646 12.6333 0 9.99934 0C6.15834 0 2.82734 2.16842 1.15234 5.3453Z" fill="#FF3D00"/>
<path id="Vector_3" d="M10.0002 20C12.5832 20 14.9302 19.0116 16.7047 17.4041L13.6097 14.7852C12.5719 15.5744 11.3039 16.0012 10.0002 16.0002C7.39916 16.0002 5.19066 14.3418 4.35866 12.0273L1.09766 14.5397C2.75266 17.7781 6.11366 20 10.0002 20Z" fill="#4CAF50"/>
<path id="Vector_4" d="M19.8055 8.04016H19V7.99866H10V11.9985H15.6515C15.2571 13.1067 14.5467 14.075 13.608 14.7839L13.6095 14.7829L16.7045 17.4018C16.4855 17.6008 20 14.9984 20 9.99858C20 9.32811 19.931 8.67363 19.8055 8.04016Z" fill="#1976D2"/>
</g>
</svg>
