<svg width="24" height="24" viewBox="0 0 24 24" fill="none" xmlns="http://www.w3.org/2000/svg">
    <path d="M8.12988 8.15023L11.0099 11.0302L15.8099 6.24023" stroke="#515151" stroke-miterlimit="10" stroke-linecap="round" stroke-linejoin="round"/>
    <path d="M22.5199 13V19.5395C22.5199 20.644 21.6245 21.5395 20.5199 21.5395H3.41992C2.31535 21.5395 1.41992 20.644 1.41992 19.5395V13L4.7812 3.756C5.0686 2.9656 5.81978 2.43945 6.6608 2.43945H17.279C18.1201 2.43945 18.8712 2.9656 19.1586 3.756L22.5199 13Z" stroke="#515151" stroke-miterlimit="10"/>
    <path d="M1.5 13H7.75C7.75 14.0184 8.15457 14.9952 8.87471 15.7153C9.59485 16.4354 10.5716 16.84 11.59 16.84C12.6084 16.84 13.5852 16.4354 14.3053 15.7153C15.0254 14.9952 15.43 14.0184 15.43 13H22.5" stroke="#515151" stroke-miterlimit="10" stroke-linejoin="round"/>
</svg>
