<svg width="24" height="24" viewBox="0 0 24 24" fill="none" xmlns="http://www.w3.org/2000/svg">
    <path d="M19 16C19 16.5304 18.801 17.0391 18.4468 17.4142C18.0925 17.7893 17.6121 18 17.1111 18H5.77778L2 22V6C2 5.46957 2.19901 4.96086 2.55324 4.58579C2.90748 4.21071 3.38792 4 3.88889 4H17.1111C17.6121 4 18.0925 4.21071 18.4468 4.58579C18.801 4.96086 19 5.46957 19 6V16Z" stroke="#515151" stroke-linecap="round" stroke-linejoin="round"/>
    <path d="M19 17C21.2667 17 21.0925 16.7742 21.4468 16.3724C21.801 15.9705 22 15.4255 22 14.8571V4.14286C22 3.57454 21.801 3.02949 21.4468 2.62763C21.0925 2.22576 20.6121 2 20.1111 2H6.88889C6.38792 2 5.90748 2.22576 5.55324 2.62763C5.19901 3.02949 5 3.43168 5 4" stroke="#515151" stroke-linecap="round" stroke-linejoin="round"/>
    <path d="M5 13H16" stroke="#515151" stroke-linecap="round"/>
    <path d="M5 9H14" stroke="#515151" stroke-linecap="round"/>
</svg>
