<svg width="18" height="18" viewBox="0 0 18 18" fill="none" xmlns="http://www.w3.org/2000/svg">
<path id="Vector" d="M7.5 5.52827H1.5C1.23478 5.52827 0.98043 5.63362 0.792893 5.82116C0.605357 6.0087 0.5 6.26305 0.5 6.52827V10.5283C0.5 10.7935 0.605357 11.0478 0.792893 11.2354C0.98043 11.4229 1.23478 11.5283 1.5 11.5283H7.5M7.5 5.52827V11.5283M7.5 5.52827L12.919 1.65827C13.0684 1.55162 13.2443 1.48815 13.4273 1.47481C13.6104 1.46147 13.7936 1.49877 13.9569 1.58263C14.1201 1.66649 14.2572 1.79367 14.353 1.95024C14.4488 2.1068 14.4997 2.28672 14.5 2.47027V14.5843C14.5 14.768 14.4494 14.9482 14.3538 15.105C14.2581 15.2619 14.1211 15.3893 13.9578 15.4734C13.7944 15.5575 13.6111 15.595 13.4278 15.5818C13.2446 15.5685 13.0685 15.505 12.919 15.3983L7.5 11.5283M14.5 11.5283C15.2956 11.5283 16.0587 11.2122 16.6213 10.6496C17.1839 10.087 17.5 9.32392 17.5 8.52827C17.5 7.73262 17.1839 6.96955 16.6213 6.40695C16.0587 5.84434 15.2956 5.52827 14.5 5.52827M2.5 11.5283H5.5V16.5283H2.5V11.5283Z" stroke="#FC712C" stroke-linecap="round" stroke-linejoin="round"/>
</svg>
