<svg width="22" height="20" viewBox="0 0 22 20" fill="none" xmlns="http://www.w3.org/2000/svg">
<path id="Vector 115" d="M5.5 12.75L5.94721 13.6444C6.286 14.322 6.21289 15.1328 5.75836 15.7389L5.67439 15.8508C5.2556 16.4092 5.15821 17.1455 5.41744 17.7936L6 19.25M11 12.75L11.4472 13.6444C11.786 14.322 11.7129 15.1328 11.2584 15.7389L11.1744 15.8508C10.7556 16.4092 10.6582 17.1455 10.9174 17.7936L11.5 19.25M16 12.75L16.4472 13.6444C16.786 14.322 16.7129 15.1328 16.2584 15.7389L16.1744 15.8508C15.7556 16.4092 15.6582 17.1455 15.9174 17.7936L16.5 19.25M5 6.75H17M5 8.25H17M6.1 4.15C6.1 4.48137 5.83137 4.75 5.5 4.75C5.16863 4.75 4.9 4.48137 4.9 4.15C4.9 3.81863 5.16863 3.55 5.5 3.55C5.83137 3.55 6.1 3.81863 6.1 4.15ZM11.9 4.75H9.6C9.26863 4.75 9 4.48137 9 4.15V3.85C9 3.51863 9.26863 3.25 9.6 3.25H11.9C12.2314 3.25 12.5 3.51863 12.5 3.85V4.15C12.5 4.48137 12.2314 4.75 11.9 4.75ZM21 2.75V8.25C21 9.35457 20.1046 10.25 19 10.25H3C1.89543 10.25 1 9.35457 1 8.25V2.75C1 1.64543 1.89543 0.75 3 0.75H19C20.1046 0.75 21 1.64543 21 2.75Z" stroke="#515151" stroke-linecap="round"/>
</svg>
