<svg width="11" height="20" viewBox="0 0 11 20" fill="none" xmlns="http://www.w3.org/2000/svg">
<path id="Vector" d="M6.90411 5.80075C8.86074 5.80075 10.4466 7.41226 10.4466 9.40055V10.15M6.90411 5.80075C4.99235 5.80075 3.43365 7.34026 3.36398 9.26555L3.36162 9.40055V14.6497M6.90411 5.80075L6.90407 4.6006M10.4466 10.15H7.32541C7.21495 10.15 7.12541 10.2395 7.12541 10.35V16.6996C7.12541 16.8101 7.21495 16.8996 7.32541 16.8996H10.4466M10.4466 10.15V16.8996M10.4466 16.8996V18.4C10.4466 18.7312 10.1821 19 9.85618 19H3.95204C3.62613 19 3.36162 18.7312 3.36162 18.4V14.6497M6.90407 4.6006C7.55648 4.6006 8.0849 4.06363 8.0849 3.40067M6.90407 4.6006C6.29104 4.6006 5.78747 4.12649 5.72893 3.51923M8.0849 3.40067C8.0849 2.73771 7.55648 2.20074 6.90407 2.20074C6.25166 2.20074 5.72324 2.73771 5.72324 3.40067C5.72324 3.44068 5.72517 3.48023 5.72893 3.51923M8.0849 3.40067H11M7.67892 2.495L9.85586 1M1 17.1996V9.40003C1 6.49535 3.03114 4.07289 5.72893 3.51923M1.03676 14.6497H3.36162" stroke="#515151"/>
</svg>
