<svg width="24" height="22" viewBox="0 0 24 22" fill="none" xmlns="http://www.w3.org/2000/svg">
<path id="Vector 135" d="M7 3.47583L6.81617 3.01085L6.5 3.13585V3.47583H7ZM17.5646 11.2072L17.5396 10.7078L17.5646 11.2072ZM22.5872 5.50554L23.0834 5.44408L22.5872 5.50554ZM17.1461 1.02567L17.1416 0.525695L17.1461 1.02567ZM14.2162 10.7511L14.0822 11.2328L14.0923 11.2356L14.1025 11.238L14.2162 10.7511ZM14.377 15.468L14.8672 15.5661L14.8702 15.5511L14.8723 15.536L14.377 15.468ZM18.877 15.968L19.362 16.0893L19.3676 16.0671L19.3711 16.0444L18.877 15.968ZM1.6308 18.0373C1.39289 17.8971 1.08638 17.9763 0.946184 18.2142C0.805989 18.4521 0.8852 18.7586 1.12311 18.8988L1.6308 18.0373ZM8.37695 12.968L8.28384 13.4593L8.37695 12.968ZM10.377 17.468L10.862 17.5893L10.377 17.468ZM12.877 20.968L12.8444 21.467L12.877 20.968ZM6.5 9.47583C6.5 9.75198 6.72386 9.97583 7 9.97583C7.27614 9.97583 7.5 9.75198 7.5 9.47583H6.5ZM7.5 2.47583C7.5 2.19969 7.27614 1.97583 7 1.97583C6.72386 1.97583 6.5 2.19969 6.5 2.47583H7.5ZM10.877 5.47583C10.6008 5.47583 10.377 5.69969 10.377 5.97583C10.377 6.25198 10.6008 6.47583 10.877 6.47583V5.47583ZM12.877 6.47583C13.1531 6.47583 13.377 6.25198 13.377 5.97583C13.377 5.69969 13.1531 5.47583 12.877 5.47583V6.47583ZM6.5 3.47583V8.47583H7.5V3.47583H6.5ZM23.0834 5.44408C22.7155 2.47377 20.2191 0.498009 17.1416 0.525695L17.1506 1.52565C19.7809 1.50199 21.7928 3.15934 22.091 5.56699L23.0834 5.44408ZM17.1416 0.525695C15.0465 0.544543 12.4529 1.17531 10.4145 1.78538C9.38857 2.09243 8.49066 2.39817 7.84904 2.62721C7.52809 2.74178 7.2709 2.83728 7.09349 2.90433C7.00477 2.93785 6.93597 2.96428 6.88909 2.98242C6.86565 2.99149 6.84769 2.99849 6.83545 3.00328C6.82934 3.00567 6.82465 3.00751 6.82143 3.00878C6.81981 3.00942 6.81857 3.00991 6.81769 3.01025C6.81725 3.01043 6.81691 3.01056 6.81665 3.01066C6.81653 3.01071 6.81641 3.01076 6.81634 3.01078C6.81625 3.01082 6.81617 3.01085 7 3.47583C7.18383 3.94081 7.1838 3.94082 7.1838 3.94083C7.18383 3.94081 7.18385 3.94081 7.18391 3.94078C7.18402 3.94074 7.18423 3.94065 7.18454 3.94053C7.18514 3.94029 7.18612 3.93991 7.18746 3.93938C7.19013 3.93833 7.19426 3.93671 7.19982 3.93454C7.21094 3.93019 7.22775 3.92363 7.25002 3.91501C7.29455 3.89778 7.36087 3.87231 7.44699 3.83976C7.61926 3.77466 7.87064 3.6813 8.18523 3.56901C8.81467 3.34432 9.69568 3.04434 10.7012 2.74339C12.7258 2.13747 15.2052 1.54316 17.1506 1.52565L17.1416 0.525695ZM7 8.47583C6.83872 8.94911 6.83874 8.94912 6.83878 8.94913C6.83882 8.94914 6.83888 8.94916 6.83895 8.94919C6.83909 8.94923 6.8393 8.9493 6.83957 8.9494C6.84012 8.94958 6.84092 8.94986 6.84198 8.95022C6.8441 8.95094 6.84724 8.95201 6.85139 8.95342C6.85969 8.95624 6.87201 8.96043 6.88816 8.96591C6.92048 8.97688 6.96817 8.99304 7.02986 9.01388C7.15323 9.05557 7.33261 9.11597 7.55697 9.19099C8.00564 9.34101 8.63439 9.54951 9.35495 9.78355C10.7943 10.251 12.6066 10.8226 14.0822 11.2328L14.3501 10.2693C12.8959 9.86504 11.1001 9.29894 9.66386 8.83245C8.9466 8.5995 8.32065 8.39192 7.87407 8.2426C7.6508 8.16795 7.47242 8.10787 7.34994 8.06649C7.2887 8.0458 7.24145 8.02979 7.20954 8.01896C7.19359 8.01355 7.18148 8.00943 7.17338 8.00668C7.16933 8.0053 7.16628 8.00426 7.16426 8.00357C7.16325 8.00323 7.16249 8.00297 7.16199 8.0028C7.16175 8.00272 7.16156 8.00265 7.16144 8.00261C7.16138 8.00259 7.16134 8.00258 7.16131 8.00257C7.16129 8.00256 7.16128 8.00256 7 8.47583ZM20.0113 5.91939C20.0113 6.97999 19.1238 7.86296 18 7.86296V8.86296C19.6501 8.86296 21.0113 7.55788 21.0113 5.91939H20.0113ZM18 7.86296C16.8762 7.86296 15.9887 6.98 15.9887 5.91939H14.9887C14.9887 7.55787 16.3499 8.86296 18 8.86296V7.86296ZM15.9887 5.91939C15.9887 4.85879 16.8762 3.97583 18 3.97583V2.97583C16.3499 2.97583 14.9887 4.28092 14.9887 5.91939H15.9887ZM18 3.97583C19.1238 3.97583 20.0113 4.8588 20.0113 5.91939H21.0113C21.0113 4.28091 19.6501 2.97583 18 2.97583V3.97583ZM13.8867 15.37C13.7435 16.0856 14.1234 16.7487 14.5851 17.1889C15.0531 17.635 15.7188 17.968 16.377 17.968V16.968C16.0351 16.968 15.6051 16.7797 15.2752 16.4651C14.9391 16.1447 14.8189 15.8078 14.8672 15.5661L13.8867 15.37ZM16.377 17.968C16.9484 17.968 17.5916 17.8326 18.14 17.5426C18.6894 17.2521 19.1896 16.7792 19.362 16.0893L18.3919 15.8468C18.3093 16.177 18.0594 16.454 17.6726 16.6585C17.2848 16.8636 16.8055 16.968 16.377 16.968V17.968ZM1.12311 18.8988C2.00273 19.4171 3.07623 19.2536 3.88363 18.7922C4.69102 18.3308 5.37695 17.489 5.37695 16.468H4.37695C4.37695 17.0213 3.99102 17.5791 3.38749 17.924C2.78396 18.2688 2.10746 18.3181 1.6308 18.0373L1.12311 18.8988ZM5.37695 16.468C5.37695 15.5961 5.72796 14.7546 6.27696 14.1777C6.82166 13.6053 7.53277 13.3169 8.28384 13.4593L8.47007 12.4768C7.32195 12.2592 6.28306 12.7207 5.55256 13.4883C4.82635 14.2514 4.37695 15.3399 4.37695 16.468H5.37695ZM8.28384 13.4593C9.01813 13.5985 9.51686 14.1041 9.79307 14.8304C10.0736 15.5682 10.1041 16.4978 9.89188 17.3468L10.862 17.5893C11.1162 16.5726 11.0914 15.4312 10.7278 14.475C10.3597 13.5072 9.62524 12.6957 8.47007 12.4768L8.28384 13.4593ZM9.89188 17.3468C9.61551 18.4522 9.75266 19.4574 10.3047 20.2149C10.8563 20.9717 11.7604 21.3963 12.8444 21.467L12.9095 20.4691C12.0451 20.4127 11.4491 20.0872 11.1128 19.6259C10.777 19.1651 10.6384 18.4838 10.862 17.5893L9.89188 17.3468ZM12.8444 21.467C15.0746 21.6124 17.0213 19.6657 16.8759 17.4355L15.878 17.5006C15.9842 19.1282 14.5371 20.5752 12.9095 20.4691L12.8444 21.467ZM17.5896 11.7066C18.4249 11.6648 19.2153 11.4476 19.9229 11.0949L19.4768 10.1999C18.8888 10.493 18.2328 10.6731 17.5396 10.7078L17.5896 11.7066ZM19.9229 11.0949C21.9927 10.0634 23.3816 7.85175 23.0834 5.44408L22.091 5.56699C22.3309 7.50395 21.2142 9.33407 19.4768 10.1999L19.9229 11.0949ZM19.3711 16.0444L20.194 10.7238L19.2057 10.571L18.3828 15.8916L19.3711 16.0444ZM14.1025 11.238C14.3088 11.2861 14.5839 11.351 14.8972 11.4168L15.1028 10.4382C14.8024 10.3751 14.5384 10.3129 14.3299 10.2642L14.1025 11.238ZM14.8972 11.4168C15.6564 11.5763 16.6866 11.7517 17.5896 11.7066L17.5396 10.7078C16.773 10.7462 15.8491 10.5949 15.1028 10.4382L14.8972 11.4168ZM14.8723 15.536L15.4954 10.9955L14.5046 10.8595L13.8816 15.4L14.8723 15.536ZM6.5 8.47583V9.47583H7.5V8.47583H6.5ZM7.5 9.47583V2.47583H6.5V9.47583H7.5ZM10.877 6.47583H12.877V5.47583H10.877V6.47583Z" fill="#515151"/>
</svg>
