<svg width="22" height="22" viewBox="0 0 22 22" fill="none" xmlns="http://www.w3.org/2000/svg">
<path id="Vector 129" d="M19.6364 13.093V15.4926C19.6364 17.2499 18.2118 18.6744 16.4545 18.6744V18.6744M19.6364 13.093H2.36364M19.6364 13.093V13.093C20.3895 13.093 21 12.4825 21 11.7294V11.6977C21 10.927 20.3753 10.3023 19.6047 10.3023H18.7273M2.36364 13.093V15.4926C2.36364 17.2499 3.78818 18.6744 5.54545 18.6744V18.6744M2.36364 13.093V13.093C1.61052 13.093 1 12.4825 1 11.7294V11.6977C1 10.927 1.62472 10.3023 2.39535 10.3023H18.7273M5.54545 18.6744L4.18182 21M5.54545 18.6744H16.4545M16.4545 18.6744L18.2727 21M18.7273 10.3023V2.2C18.7273 1.53726 18.19 1 17.5273 1H15.3818C14.7191 1 14.1818 1.53726 14.1818 2.2V3.32558M14.1818 3.32558V3.32558C15.437 3.32558 16.4545 4.34312 16.4545 5.59831V6.3814C16.4545 6.49185 16.365 6.5814 16.2545 6.5814H12.1091C11.9986 6.5814 11.9091 6.49185 11.9091 6.3814V5.5983C11.9091 4.34311 12.9266 3.32558 14.1818 3.32558V3.32558ZM1.73776 1.00636L2.14431 1.83838C2.4523 2.46868 2.38583 3.22293 1.97263 3.78669L1.89629 3.89084C1.51557 4.41027 1.42704 5.09522 1.6627 5.69807L2.1923 7.05287M5.2269 1.01999L5.63346 1.85201C5.94144 2.48231 5.87498 3.23656 5.46177 3.80031L5.38543 3.90446C5.00471 4.42389 4.91618 5.10885 5.15184 5.7117L5.68144 7.0665M8.49691 1.01999L8.90347 1.85201C9.21146 2.48231 9.14499 3.23656 8.73178 3.80031L8.65545 3.90446C8.27473 4.42389 8.1862 5.10885 8.42186 5.7117L8.95146 7.0665" stroke="#515151" stroke-linecap="round"/>
</svg>
