<svg width="22" height="22" viewBox="0 0 22 22" fill="none" xmlns="http://www.w3.org/2000/svg">
<path id="Vector 119" d="M2.73913 11H2C1.44771 11 1 11.4477 1 12V20C1 20.5523 1.44772 21 2 21H11.4348M2.73913 11V11C2.73913 10.749 2.94264 10.5455 3.19368 10.5455H9.24111C9.49215 10.5455 9.69565 10.749 9.69565 11V11M2.73913 11H9.69565M9.69565 11H11.4348M11.4348 11H20C20.5523 11 21 11.4477 21 12V14.6364M11.4348 11V14.6364M11.4348 21H20C20.5523 21 21 20.5523 21 20V14.6364M11.4348 21V14.6364M11.4348 14.6364H21M13.6087 12.8182H18.8261M13.6087 16.9091V19.1818M9.69565 13.8182V18.1818C9.69565 18.7341 9.24794 19.1818 8.69565 19.1818H3.73913C3.18685 19.1818 2.73913 18.7341 2.73913 18.1818V13.8182C2.73913 13.2659 3.18684 12.8182 3.73913 12.8182H8.69565C9.24794 12.8182 9.69565 13.2659 9.69565 13.8182ZM7.95652 1.90791V1.90791C7.95652 2.48078 8.22686 3.02006 8.68587 3.36283L10.1967 4.49102C10.7022 4.86855 11 5.46253 11 6.09351V6.70909C11 6.81955 10.9105 6.90909 10.8 6.90909H1.63478C1.52433 6.90909 1.43478 6.81955 1.43478 6.70909V6.09351C1.43478 5.46253 1.73255 4.86855 2.23812 4.49102L3.74891 3.36283C4.20792 3.02006 4.47826 2.48078 4.47826 1.90791V1.90791C4.47826 1.40649 4.88474 1 5.38617 1H7.04861C7.55004 1 7.95652 1.40649 7.95652 1.90791Z" stroke="#515151" stroke-linecap="round"/>
</svg>
