<svg width="14" height="22" viewBox="0 0 14 22" fill="none" xmlns="http://www.w3.org/2000/svg">
<path id="Vector 134" d="M9.5 6H11.2156C12.4252 6 13.358 7.0648 13.1982 8.26377C13.0313 9.51504 12.8259 11.0558 12.665 12.2627M9.5 6V4.2C9.5 4.08954 9.41046 4 9.3 4H8M9.5 6H7.5M4.5 6H2.86092C1.62504 6 0.684848 7.10909 0.888025 8.32815C1.06781 9.40686 1.27825 10.6695 1.44599 11.676M4.5 6V4.2C4.5 4.08954 4.58954 4 4.7 4H6M4.5 6L6.37487 5.98258M6.37487 5.98258V11.6202M6.37487 5.98258L7.5 6M7.5 6V12.3105M1.44599 11.676C1.91102 14.4661 2.57583 18.455 2.86121 20.1672C2.94157 20.6494 3.35829 21 3.84713 21H10.6245C11.1257 21 11.5494 20.6298 11.6156 20.133C11.8355 18.484 12.3225 14.8313 12.665 12.2627M1.44599 11.676C2.38513 11.2488 2.97248 11.0933 4 11C6.45977 10.7767 7.54075 13.229 10 13C11.0752 12.8999 11.6912 12.7294 12.665 12.2627M6 4V2C6 1.44772 6.44772 1 7 1H10.3C10.4105 1 10.5 1.08954 10.5 1.2V2.3C10.5 2.41046 10.4105 2.5 10.3 2.5H8V4M6 4H8" stroke="#515151" stroke-linecap="round"/>
</svg>
