<svg width="24" height="24" viewBox="0 0 24 24" fill="none" xmlns="http://www.w3.org/2000/svg">
<g id="security-protection-fire-alarm-svgrepo-com 1">
<path id="Vector" d="M15 6H15.5M22 12C22 17.5228 17.5228 22 12 22C6.47715 22 2 17.5228 2 12C2 6.47715 6.47715 2 12 2C17.5228 2 22 6.47715 22 12ZM13.5 12C13.5 12.8284 12.8284 13.5 12 13.5C11.1716 13.5 10.5 12.8284 10.5 12C10.5 11.1716 11.1716 10.5 12 10.5C12.8284 10.5 13.5 11.1716 13.5 12Z" stroke="#515151" stroke-miterlimit="10" stroke-linecap="round" stroke-linejoin="round"/>
<g id="Group">
<path id="Vector_2" d="M13.125 8.35254C14.3369 8.71687 15.2832 9.66314 15.6476 10.875" stroke="#515151" stroke-miterlimit="10" stroke-linecap="round" stroke-linejoin="round"/>
<path id="Vector_3" d="M8.35254 10.8751C8.71687 9.6634 9.66295 8.71723 10.8746 8.35278" stroke="#515151" stroke-miterlimit="10" stroke-linecap="round" stroke-linejoin="round"/>
<path id="Vector_4" d="M15.6473 13.1254C15.2827 14.3368 14.3366 15.2827 13.125 15.6469" stroke="#515151" stroke-miterlimit="10" stroke-linecap="round" stroke-linejoin="round"/>
<path id="Vector_5" d="M10.8743 15.6467C9.66298 15.2824 8.71708 14.3366 8.35254 13.1254" stroke="#515151" stroke-miterlimit="10" stroke-linecap="round" stroke-linejoin="round"/>
</g>
</g>
</svg>
