<svg width="22" height="18" viewBox="0 0 22 18" fill="none" xmlns="http://www.w3.org/2000/svg">
<path id="Vector 118" d="M11 14H2.75C1.64543 14 0.75 13.1046 0.75 12V2.5C0.75 1.39543 1.64543 0.5 2.75 0.5H19.25C20.3546 0.5 21.25 1.39543 21.25 2.5V12C21.25 13.1046 20.3546 14 19.25 14H11ZM11 14V17.5M11 17.5H17.25M11 17.5H4.75M19.25 3.5C19.25 4.05228 18.8023 4.5 18.25 4.5C17.6977 4.5 17.25 4.05228 17.25 3.5C17.25 2.94772 17.6977 2.5 18.25 2.5C18.8023 2.5 19.25 2.94772 19.25 3.5Z" stroke="#515151" stroke-linecap="round"/>
</svg>
