<svg width="22" height="24" viewBox="0 0 22 24" fill="none" xmlns="http://www.w3.org/2000/svg">
<path id="Vector 114" d="M21 6V3C21 1.89543 20.1046 1 19 1H3C1.89543 1 1 1.89543 1 3V6M21 6V21C21 22.1046 20.1046 23 19 23H3C1.89543 23 1 22.1046 1 21V6M21 6H1M5 14.5C5 17.8137 7.68629 20.5 11 20.5C14.3137 20.5 17 17.8137 17 14.5C17 13.9669 16.9305 13.45 16.8 12.958M5 14.5C5 11.1863 7.68629 8.5 11 8.5C13.7806 8.5 16.1194 10.3915 16.8 12.958M5 14.5C5.33333 15 6.4 16 8 16C10 16 11.5974 13.3489 14.3 13C15.2684 12.875 16.5333 12.972 16.8 12.958M14.3 3.3C14.3 3.74183 13.9418 4.1 13.5 4.1C13.0582 4.1 12.7 3.74183 12.7 3.3C12.7 2.85817 13.0582 2.5 13.5 2.5C13.9418 2.5 14.3 2.85817 14.3 3.3ZM17.6 3.3C17.6 3.74183 17.2418 4.1 16.8 4.1C16.3582 4.1 16 3.74183 16 3.3C16 2.85817 16.3582 2.5 16.8 2.5C17.2418 2.5 17.6 2.85817 17.6 3.3ZM6.5 2.8V3.9C6.5 4.01046 6.41046 4.1 6.3 4.1H4.2C4.08954 4.1 4 4.01046 4 3.9V2.8C4 2.68954 4.08954 2.6 4.2 2.6H6.3C6.41046 2.6 6.5 2.68954 6.5 2.8Z" stroke="#515151"/>
</svg>
