<svg width="40" height="10" viewBox="0 0 40 10" fill="none" xmlns="http://www.w3.org/2000/svg">
<path id="Vector" d="M4.51968 0.000183105L0.00634766 9.98685H5.40857L6.07857 8.39463H7.60968L8.27968 9.98685H14.2263V8.77241L14.7563 9.98685H17.8319L18.3619 8.74685V9.98685H30.7297L32.2341 8.43685L33.6419 9.98685L39.9941 10.0002L35.4675 5.02241L39.9941 0.000183105H33.7408L32.2763 1.52241L30.913 0.000183105H17.4586L16.303 2.57796L15.1208 0.000183105H9.72857V1.17463L9.12968 0.000183105H4.51968ZM5.56413 1.41796H8.19857L11.1919 8.19129V1.41796H14.0763L16.3886 6.27352L18.5197 1.41796H21.3897V8.58463H19.643L19.6297 2.96907L17.083 8.58463H15.5208L12.9597 2.96907V8.58463H9.36635L8.68524 6.97796H5.00524L4.32524 8.58352H2.39968L5.56413 1.41796ZM22.9886 1.41796H30.0908L32.263 3.76463L34.5052 1.41796H36.6775L33.3763 5.02018L36.6775 8.58018H34.4063L32.2341 6.20685L29.9808 8.58018H22.9886V1.41796ZM6.84524 2.63129L5.63301 5.49352H8.05635L6.84524 2.63129ZM24.7419 2.90241V4.21018H28.6164V5.66796H24.7419V7.09685H29.0875L31.1075 4.99352L29.173 2.90129L24.7419 2.90241Z" fill="#2478BC"/>
</svg>
