<svg width="24" height="24" viewBox="0 0 24 24" fill="none" xmlns="http://www.w3.org/2000/svg">
<g id="credit-card-02">
<path id="Icon" d="M22 10.0002H2M11 14.0002H6M2 8.20018L2 15.8002C2 16.9203 2 17.4803 2.21799 17.9082C2.40973 18.2845 2.71569 18.5904 3.09202 18.7822C3.51984 19.0002 4.07989 19.0002 5.2 19.0002L18.8 19.0002C19.9201 19.0002 20.4802 19.0002 20.908 18.7822C21.2843 18.5904 21.5903 18.2845 21.782 17.9082C22 17.4803 22 16.9203 22 15.8002V8.20018C22 7.08008 22 6.52003 21.782 6.0922C21.5903 5.71588 21.2843 5.40992 20.908 5.21817C20.4802 5.00018 19.9201 5.00018 18.8 5.00018L5.2 5.00018C4.0799 5.00018 3.51984 5.00018 3.09202 5.21817C2.7157 5.40992 2.40973 5.71588 2.21799 6.0922C2 6.52003 2 7.08008 2 8.20018Z" stroke="#515151" stroke-linecap="round" stroke-linejoin="round"/>
</g>
</svg>
