<svg width="31" height="12" viewBox="0 0 31 12" fill="none" xmlns="http://www.w3.org/2000/svg">
<g id="Group">
<path id="Vector" d="M14.4604 5.86527V9.38727H13.3604V0.694268H16.2784C16.6273 0.68674 16.9743 0.749729 17.2983 0.87946C17.6224 1.00919 17.917 1.203 18.1644 1.44927C18.6462 1.90691 18.9291 2.53547 18.9521 3.19961C18.9751 3.86376 18.7364 4.51038 18.2874 5.00027L18.1644 5.12427C17.6514 5.61727 17.0234 5.86627 16.2784 5.86627H14.4604V5.86527ZM14.4604 1.76127V4.79827H16.3054C16.5082 4.80452 16.71 4.76753 16.8974 4.68977C17.0848 4.61201 17.2535 4.49526 17.3924 4.34727C17.6686 4.05425 17.8196 3.66501 17.8133 3.26236C17.8069 2.85971 17.6437 2.47543 17.3584 2.19127C17.0778 1.91461 16.6993 1.76005 16.3054 1.76127H14.4604ZM21.4924 3.24427C22.3054 3.24427 22.9484 3.46627 23.4194 3.90327C23.8914 4.33927 24.1234 4.94927 24.1234 5.71927V9.38627H23.0714V8.56027H23.0234C22.5654 9.24027 21.9644 9.57927 21.2054 9.57927C20.5634 9.57927 20.0164 9.38527 19.5864 8.99727C19.3764 8.81831 19.2091 8.59471 19.0966 8.3428C18.9842 8.0909 18.9294 7.81705 18.9364 7.54127C18.9364 6.92427 19.1694 6.43927 19.6274 6.07127C20.0844 5.70427 20.6994 5.52427 21.4654 5.52427C22.1214 5.52427 22.6544 5.64927 23.0784 5.88427V5.63027C23.0784 5.24927 22.9144 4.88827 22.6274 4.63927C22.3367 4.37651 21.9592 4.23048 21.5674 4.22927C20.9524 4.22927 20.4674 4.49327 20.1124 5.01927L19.1414 4.40327C19.6614 3.63327 20.4474 3.24427 21.4924 3.24427ZM20.0714 7.56327C20.0714 7.85327 20.2074 8.12427 20.4334 8.29127C20.6794 8.48527 20.9804 8.58927 21.2874 8.58127C21.7524 8.58127 22.1964 8.39527 22.5244 8.06127C22.8864 7.71527 23.0714 7.30627 23.0714 6.83527C22.7294 6.55827 22.2514 6.41927 21.6364 6.42527C21.1924 6.42527 20.8164 6.53727 20.5154 6.75227C20.2214 6.96727 20.0714 7.23727 20.0714 7.56227V7.56327Z" fill="#515151"/>
<path id="Vector_2" fill-rule="evenodd" clip-rule="evenodd" d="M30.1641 3.43927L26.4871 12.0003H25.3531L26.7191 9.00571L24.3071 3.43927H25.5031L27.2461 7.70941H27.2661L28.9681 3.43927H30.1641Z" fill="#515151"/>
<path id="Vector_3" fill-rule="evenodd" clip-rule="evenodd" d="M10.4803 5.10227C10.4803 4.76227 10.4533 4.42327 10.3983 4.09027H5.7583V6.01027H8.4163C8.36276 6.31659 8.24803 6.60898 8.07897 6.86996C7.9099 7.13095 7.68997 7.35518 7.4323 7.52927V8.77627H9.0183C9.9473 7.91027 10.4803 6.62727 10.4803 5.10227Z" fill="#4285F4"/>
<path id="Vector_4" fill-rule="evenodd" clip-rule="evenodd" d="M5.75828 9.9833C7.08328 9.9833 8.20428 9.5393 9.01728 8.7773L7.43228 7.5293C6.98828 7.8343 6.42028 8.0073 5.75828 8.0073C4.47328 8.0073 3.38628 7.1273 2.99728 5.9483H1.36328V7.2383C1.76703 8.06015 2.39255 8.75272 3.16918 9.23779C3.94582 9.72285 4.84262 9.98108 5.75828 9.9833Z" fill="#34A853"/>
<path id="Vector_5" fill-rule="evenodd" clip-rule="evenodd" d="M2.99722 5.94832C2.79228 5.32712 2.79228 4.65652 2.99722 4.03532V2.75232H1.36422C1.0168 3.44774 0.835938 4.21445 0.835938 4.99182C0.835938 5.76919 1.0168 6.5359 1.36422 7.23132L2.99722 5.94832Z" fill="#FBBC04"/>
<path id="Vector_6" fill-rule="evenodd" clip-rule="evenodd" d="M5.75828 1.97629C6.10659 1.97001 6.45267 2.03299 6.77643 2.16157C7.10019 2.29015 7.39519 2.48176 7.64428 2.72529L9.05128 1.29729C8.16396 0.453312 6.98282 -0.0119007 5.75828 0.000294897C4.84203 0.00385571 3.945 0.263414 3.16842 0.749683C2.39184 1.23595 1.76661 1.92958 1.36328 2.7523L2.99728 4.04229C3.38628 2.85629 4.47328 1.97629 5.75828 1.97629Z" fill="#EA4335"/>
</g>
</svg>
