<svg width="12" height="12" viewBox="0 0 12 12" fill="none" xmlns="http://www.w3.org/2000/svg">
<g id="logo_ideal.e05f58e3623503d7632b6f849761400a 1" clip-path="url(#clip0_2930_2084)">
<path id="Vector" d="M0 1.3156V10.6848C0 11.1332 0.352826 11.5002 0.784057 11.5002H6.16661C10.2359 11.5002 12 9.13139 12 5.98795C12 2.86082 10.2359 0.500183 6.16661 0.500183H0.784057C0.352826 0.500183 0 0.867122 0 1.3156Z" fill="white"/>
<path id="Vector_2" d="M3.60254 2.79964V9.72255H6.49963C9.13014 9.72255 10.2709 8.17733 10.2709 5.992C10.2709 3.90045 9.13014 2.27777 6.49963 2.27777H4.10434C3.826 2.27777 3.60254 2.51424 3.60254 2.79964Z" fill="#CC0066"/>
<path id="Vector_3" d="M6.16643 10.7541H1.48561C1.07005 10.7541 0.73291 10.4034 0.73291 9.97127V2.03317C0.73291 1.601 1.07005 1.25037 1.48561 1.25037H6.16643C10.6081 1.25037 11.2706 4.22257 11.2706 5.99203C11.2706 9.06208 9.45555 10.7541 6.16643 10.7541ZM1.48561 1.5113C1.20726 1.5113 0.983809 1.74369 0.983809 2.03317V9.97127C0.983809 10.2607 1.20726 10.4931 1.48561 10.4931H6.16643C9.29482 10.4931 11.0197 8.89492 11.0197 5.99203C11.0197 2.09432 7.9776 1.5113 6.16643 1.5113H1.48561Z" fill="#515151"/>
<path id="Vector_4" d="M4.62206 5.0584C4.72399 5.0584 4.81807 5.07471 4.90824 5.10732C4.9984 5.13994 5.07289 5.19294 5.13954 5.25818C5.20226 5.32749 5.25322 5.41311 5.29243 5.51096C5.32771 5.61288 5.34731 5.73112 5.34731 5.86974C5.34731 5.99205 5.33163 6.10213 5.30419 6.20406C5.27283 6.30599 5.2297 6.39569 5.1709 6.46907C5.11209 6.54246 5.03761 6.59954 4.94744 6.64439C4.85727 6.68516 4.75143 6.70962 4.6299 6.70962H3.94385V5.05432H4.62206V5.0584ZM4.59854 6.40792C4.6495 6.40792 4.69654 6.39976 4.74751 6.38345C4.79455 6.36715 4.83767 6.33861 4.87296 6.29783C4.90824 6.25706 4.9396 6.20814 4.96312 6.14291C4.98664 6.07767 4.99841 6.00428 4.99841 5.91051C4.99841 5.82897 4.99056 5.7515 4.97488 5.68627C4.9592 5.62104 4.93176 5.55988 4.89648 5.51503C4.8612 5.47019 4.81415 5.42941 4.75535 5.40495C4.69654 5.38049 4.62598 5.36826 4.53973 5.36826H4.28883V6.41199H4.59854V6.40792ZM6.76253 5.0584V5.36418H5.92359V5.71889H6.69589V6.00021H5.92359V6.40384H6.78214V6.70962H5.57469V5.05432H6.76253V5.0584ZM7.96214 5.0584L8.55803 6.7137H8.19344L8.07191 6.34676H7.47603L7.35058 6.7137H6.99775L7.59756 5.0584H7.96214ZM7.98174 6.07359L7.78181 5.46611H7.77789L7.57011 6.07359H7.98174ZM9.12647 5.0584V6.40792H9.90268V6.7137H8.77756V5.0584H9.12647Z" fill="white"/>
<path id="Vector_5" d="M2.29315 6.64843C2.69803 6.64843 3.02625 6.30708 3.02625 5.88601C3.02625 5.46494 2.69803 5.1236 2.29315 5.1236C1.88828 5.1236 1.56006 5.46494 1.56006 5.88601C1.56006 6.30708 1.88828 6.64843 2.29315 6.64843Z" fill="#515151"/>
<path id="Vector_6" d="M2.84626 9.72255C2.23077 9.72255 1.73682 9.20476 1.73682 8.56873V7.66769C1.73682 7.34968 1.98379 7.08875 2.2935 7.08875C2.59928 7.08875 2.85018 7.3456 2.85018 7.66769V9.72255H2.84626Z" fill="#515151"/>
</g>
<defs>
<clipPath id="clip0_2930_2084">
<rect width="12" height="11" fill="white" transform="translate(0 0.500183)"/>
</clipPath>
</defs>
</svg>
