<svg width="21" height="12" viewBox="0 0 21 12" fill="none" xmlns="http://www.w3.org/2000/svg">
<g id="Group">
<path id="Vector" d="M7.67676 1.28339H13.3558V10.7167H7.67676V1.28339Z" fill="#F26122"/>
<path id="Vector_2" d="M10.4915 10.7172C9.46255 11.5471 8.18051 11.9999 6.85854 12.0002C6.07774 11.9933 5.30597 11.8325 4.58732 11.5272C3.86866 11.2219 3.21723 10.7779 2.67023 10.2207C2.12323 9.66349 1.6914 9.00395 1.39942 8.27977C1.10743 7.55559 0.961018 6.78097 0.968537 6.00018C0.961149 5.21943 1.10766 4.44487 1.39969 3.72075C1.69172 2.99663 2.12356 2.33714 2.67053 1.77996C3.2175 1.22278 3.86888 0.778813 4.58747 0.473433C5.30606 0.168054 6.07778 0.00724145 6.85854 0.000183105C8.18054 0.000183105 9.46254 0.453183 10.4915 1.28318C9.79069 1.8534 9.22571 2.57262 8.83768 3.38857C8.44964 4.20451 8.24831 5.09667 8.24831 6.00018C8.24831 6.9037 8.44964 7.79586 8.83768 8.6118C9.22571 9.42774 9.79069 10.147 10.4915 10.7172Z" fill="#EA1D25"/>
<path id="Vector_3" d="M20.0313 6.00018C20.0387 6.78094 19.8922 7.5555 19.6002 8.27961C19.3081 9.00373 18.8763 9.66322 18.3293 10.2204C17.7824 10.7776 17.131 11.2216 16.4124 11.5269C15.6938 11.8323 14.9221 11.9931 14.1413 12.0002C12.819 12 11.5366 11.5473 10.5073 10.7172C11.208 10.1469 11.7728 9.42761 12.1608 8.61167C12.5487 7.79574 12.75 6.90364 12.75 6.00018C12.75 5.09673 12.5487 4.20462 12.1608 3.38869C11.7728 2.57276 11.208 1.8535 10.5073 1.28318C11.5363 0.453247 12.8184 0.000490966 14.1403 0.000183105C14.9212 0.00697969 15.6931 0.167606 16.4119 0.472881C17.1306 0.778157 17.7822 1.22209 18.3293 1.77932C18.8764 2.33654 19.3083 2.99613 19.6003 3.72037C19.8924 4.44461 20.0388 5.21931 20.0313 6.00018Z" fill="#F69E1E"/>
</g>
</svg>
