<svg width="38" height="10" viewBox="0 0 38 10" fill="none" xmlns="http://www.w3.org/2000/svg">
<g id="Group">
<path id="Vector" fill-rule="evenodd" clip-rule="evenodd" d="M35.9324 0.205739C35.9417 0.148426 35.971 0.0962708 36.0152 0.0586085C36.0594 0.0209462 36.1155 0.000235374 36.1736 0.000183105L37.5213 0.000183105C37.6713 0.000183105 37.7847 0.133516 37.7613 0.281294L36.5802 7.76574C36.5654 7.86124 36.5169 7.94831 36.4436 8.01126C36.3703 8.0742 36.2769 8.10889 36.1802 8.10907H34.9747C34.9395 8.10902 34.9049 8.10136 34.873 8.08663C34.8411 8.0719 34.8128 8.05044 34.79 8.02374C34.7672 7.99703 34.7504 7.9657 34.7409 7.93191C34.7313 7.89811 34.7292 7.86265 34.7347 7.82796L35.9324 0.205739ZM34.2835 2.70018C34.3187 2.70026 34.3534 2.70793 34.3853 2.72265C34.4173 2.73737 34.4456 2.7588 34.4685 2.78548C34.4914 2.81217 34.5083 2.84347 34.518 2.87726C34.5276 2.91106 34.5299 2.94654 34.5247 2.98129L33.7691 7.76685C33.754 7.86234 33.7053 7.94929 33.6318 8.01204C33.5582 8.07479 33.4647 8.1092 33.368 8.10907H32.1091C32.0739 8.10904 32.0391 8.10136 32.0071 8.08657C31.9751 8.07177 31.9468 8.05021 31.9239 8.02338C31.9011 7.99654 31.8844 7.96507 31.8749 7.93114C31.8655 7.89721 31.8635 7.86162 31.8691 7.82685L31.9313 7.43796C31.9313 7.43796 31.2413 8.23796 29.9958 8.23796C29.2713 8.23796 28.6624 8.02907 28.2358 7.52685C27.7713 6.98241 27.5802 6.19907 27.7158 5.38018C27.9713 3.73907 29.2913 2.56907 30.8358 2.56907C31.5091 2.56907 32.1835 2.71574 32.4869 3.15463L32.5847 3.29685L32.6458 2.90574C32.655 2.84861 32.6841 2.79661 32.7281 2.75897C32.772 2.72133 32.8279 2.7005 32.8858 2.70018H34.2835ZM32.3358 5.42241C32.3969 5.03463 32.3124 4.68463 32.0991 4.43352C31.8858 4.18352 31.5635 4.05241 31.1658 4.05241C30.3702 4.05241 29.7258 4.60574 29.5991 5.39685C29.5347 5.78574 29.6124 6.13463 29.8191 6.37907C30.028 6.62574 30.3524 6.75685 30.758 6.75685C31.5669 6.75685 32.2002 6.22129 32.3358 5.42241ZM25.558 0.000183105C26.5358 0.000183105 27.2713 0.257961 27.6869 0.745739C28.0647 1.19018 28.1891 1.82352 28.0591 2.63018C27.7691 4.47463 26.6591 5.40463 24.7369 5.40463H23.8124C23.716 5.40477 23.6227 5.4393 23.5494 5.50202C23.4761 5.56474 23.4275 5.65155 23.4124 5.74685L23.078 7.86907C23.0674 7.936 23.0333 7.99696 22.9817 8.04096C22.9302 8.08495 22.8646 8.10911 22.7969 8.10907H21.2991C21.264 8.10902 21.2293 8.10136 21.1974 8.08663C21.1655 8.0719 21.1372 8.05044 21.1144 8.02374C21.0916 7.99703 21.0749 7.9657 21.0653 7.93191C21.0558 7.89811 21.0537 7.86265 21.0591 7.82796L22.2391 0.342405C22.2542 0.247106 22.3027 0.160299 22.376 0.0975759C22.4493 0.0348525 22.5426 0.000321064 22.6391 0.000183105L25.558 0.000183105ZM25.8947 2.73352C25.9535 2.36685 25.9058 2.10018 25.7535 1.92018C25.4969 1.62018 24.998 1.62018 24.4724 1.62018H24.2702C24.1502 1.62018 24.048 1.70685 24.0302 1.82463L23.7213 3.78129H24.1613C24.9358 3.78129 25.7358 3.78129 25.8947 2.73352Z" fill="#0079C1"/>
<path id="Vector_2" fill-rule="evenodd" clip-rule="evenodd" d="M20.9079 2.70018C21.1034 2.70018 21.219 2.92129 21.1068 3.08241L16.4356 9.82685C16.3981 9.88035 16.3481 9.92403 16.2901 9.95419C16.2321 9.98436 16.1677 10.0001 16.1023 10.0002H14.6979C14.6534 9.99996 14.6099 9.98755 14.572 9.96433C14.5341 9.9411 14.5033 9.90793 14.4829 9.86843C14.4625 9.82892 14.4533 9.78458 14.4564 9.74023C14.4594 9.69588 14.4745 9.65321 14.5001 9.61685L15.9545 7.56352L14.4079 3.02241C14.3956 2.98578 14.3921 2.94677 14.3978 2.90857C14.4035 2.87036 14.4182 2.83405 14.4407 2.80261C14.4631 2.77117 14.4927 2.74549 14.5269 2.72769C14.5612 2.70988 14.5992 2.70046 14.6379 2.70018H16.019C16.1968 2.70018 16.3556 2.81796 16.4079 2.98907L17.229 5.73352L19.1668 2.87796C19.2423 2.76685 19.3668 2.70018 19.5023 2.70018H20.9079ZM13.4634 2.70018C13.6134 2.70018 13.7268 2.83352 13.7034 2.98129L12.9479 7.76685C12.9328 7.86215 12.8843 7.94896 12.8109 8.01168C12.7376 8.0744 12.6444 8.10893 12.5479 8.10907H11.289C11.2537 8.10902 11.2189 8.10133 11.1869 8.08654C11.1549 8.07176 11.1264 8.05022 11.1035 8.02341C11.0806 7.9966 11.0638 7.96515 11.0542 7.93122C11.0446 7.89729 11.0424 7.86169 11.0479 7.82685L11.1112 7.43796C11.1112 7.43796 10.4212 8.23796 9.17565 8.23796C8.45009 8.23796 7.84232 8.02907 7.41565 7.52685C6.9512 6.98241 6.76009 6.19907 6.89343 5.38018C7.15121 3.73907 8.4712 2.56907 10.0145 2.56907C10.689 2.56907 11.3634 2.71574 11.6668 3.15463L11.7634 3.29685L11.8256 2.90574C11.8344 2.84842 11.8635 2.79616 11.9075 2.75844C11.9516 2.72072 12.0077 2.70005 12.0656 2.70018H13.4634ZM11.5156 5.42241C11.5768 5.03463 11.4923 4.68463 11.2779 4.43352C11.0656 4.18352 10.7434 4.05241 10.3468 4.05241C9.55009 4.05241 8.90565 4.60574 8.78009 5.39685C8.71343 5.78574 8.79121 6.13463 8.99898 6.37907C9.20787 6.62574 9.53232 6.75685 9.93787 6.75685C10.7468 6.75685 11.3801 6.22129 11.5156 5.42241ZM4.73787 0.000183105C5.71565 0.000183105 6.4512 0.257961 6.86676 0.745739C7.24343 1.19018 7.36898 1.82352 7.23898 2.63018C6.94898 4.47463 5.83898 5.40463 3.91565 5.40463H2.9912C2.89472 5.40477 2.80145 5.4393 2.72813 5.50202C2.65482 5.56474 2.60627 5.65155 2.5912 5.74685L2.27343 7.76685C2.25833 7.86234 2.20962 7.94929 2.13607 8.01204C2.06253 8.07479 1.96899 8.1092 1.87232 8.10907H0.478982C0.443806 8.10921 0.409023 8.10168 0.377051 8.08701C0.345079 8.07234 0.316686 8.05088 0.293845 8.02413C0.271005 7.99738 0.254266 7.96597 0.244791 7.93209C0.235317 7.89822 0.233334 7.86268 0.238982 7.82796L1.41898 0.342405C1.43405 0.247106 1.4826 0.160299 1.55591 0.0975759C1.62923 0.0348525 1.7225 0.000321064 1.81898 0.000183105L4.73787 0.000183105ZM5.07565 2.73352C5.13343 2.36685 5.08676 2.10018 4.93454 1.92018C4.67787 1.62018 4.17898 1.62018 3.65343 1.62018H3.4512C3.3312 1.62018 3.22898 1.70685 3.2112 1.82463L2.90009 3.78129H3.34232C4.11565 3.78129 4.91676 3.78129 5.07565 2.73352Z" fill="#00457C"/>
</g>
</svg>
