<svg width="53" height="10" viewBox="0 0 53 10" fill="none" xmlns="http://www.w3.org/2000/svg">
<path id="Vector" fill-rule="evenodd" clip-rule="evenodd" d="M17.8341 0.374255C18.7141 0.288541 19.4384 0.517112 19.9912 1.19711L20.1055 1.35426C20.3689 1.89539 20.5081 2.4885 20.5131 3.09031C20.518 3.69212 20.3885 4.28744 20.1341 4.83283C18.9555 8.01283 17.1241 9.6314 14.6526 9.6314C14.209 9.67371 13.7619 9.60347 13.3527 9.42718C12.9434 9.25089 12.5852 8.97424 12.3112 8.62283C12.0288 8.07448 11.8803 7.46705 11.8778 6.85026C11.8753 6.23347 12.0189 5.62486 12.2969 5.07425C12.5713 4.31398 12.9434 3.59268 13.4041 2.92854C14.0171 2.03513 14.8475 1.31245 15.8169 0.828541C16.4474 0.529619 17.1363 0.374454 17.8341 0.374255ZM15.0641 0.502826C14.2092 1.04187 13.4729 1.74905 12.8998 2.5814C12.8884 2.59997 12.8784 2.61711 12.8641 2.6314H9.56978C9.37336 2.63007 9.17928 2.67407 9.00264 2.75997C8.85978 2.8314 8.76121 2.95854 8.70407 3.11425C8.66121 3.25711 8.67549 3.39854 8.76121 3.5114C8.84549 3.63997 8.97407 3.72568 9.11549 3.76854L9.24692 3.80568L9.55549 3.89568C9.72549 3.93854 9.85407 3.9814 9.85407 3.9814C10.3655 4.09425 10.8341 4.3914 11.1312 4.81854C11.3726 5.27283 11.4155 5.79711 11.2741 6.29425C11.1653 6.90579 10.9057 7.48054 10.5189 7.96646C10.132 8.45238 9.62998 8.83412 9.05835 9.07711C8.27908 9.37063 7.44905 9.50565 6.61692 9.47425H0.952637L1.78978 7.17425H7.08549C7.38407 7.18854 7.69549 7.15997 7.97978 7.07425C8.06596 7.04108 8.14302 6.9879 8.20462 6.9191C8.26621 6.8503 8.31058 6.76785 8.33407 6.67854C8.36264 6.60711 8.37692 6.53568 8.37692 6.46425C8.37692 6.39283 8.36264 6.33711 8.33407 6.27997C8.28858 6.20059 8.22554 6.13267 8.14978 6.0814C8.0732 6.03933 7.99224 6.0058 7.90835 5.9814C7.81788 5.95266 7.72692 5.92551 7.63549 5.89997C7.55407 5.87568 7.46549 5.8514 7.38407 5.82568C7.27138 5.78862 7.15751 5.75527 7.04264 5.72568C6.76743 5.64157 6.50816 5.51218 6.27549 5.34283C6.0668 5.19668 5.89669 5.00206 5.77978 4.77568C5.69407 4.58997 5.65121 4.37854 5.65121 4.17854C5.66549 3.90997 5.72264 3.63997 5.82121 3.36997C5.93952 2.85006 6.16158 2.35939 6.47407 1.92735C6.78656 1.49532 7.18305 1.13082 7.63978 0.855684C8.36687 0.554606 9.15579 0.433084 9.93978 0.501398L15.0641 0.502826ZM17.4784 4.94568C16.7112 7.04568 16.1426 7.58711 15.3055 7.58711C14.4826 7.58711 14.1984 7.0614 14.9655 4.97426C15.5326 3.41283 16.2855 2.40425 17.1798 2.40425C18.0312 2.40425 18.2298 2.9014 17.4784 4.94711V4.94568ZM29.9855 0.502826C29.0885 1.03411 28.3085 1.74169 27.6926 2.58283C27.6812 2.59997 27.6712 2.61711 27.6569 2.6314H24.8169C24.6988 2.62371 24.5814 2.65412 24.4819 2.71815C24.3824 2.78218 24.306 2.87646 24.2641 2.98711L23.8798 4.07997H26.2798L25.5984 5.96854H23.1841L21.9069 9.48854H19.1812L21.6798 2.64568C21.8879 2.00143 22.3025 1.44374 22.8596 1.05894C23.4166 0.674146 24.085 0.48371 24.7612 0.517112L29.9855 0.502826ZM30.1984 7.58711C31.0369 7.58711 31.6041 7.04711 32.3712 4.94568C33.1241 2.9014 32.9241 2.40425 32.0726 2.40425C31.1784 2.40425 30.4255 3.41283 29.8584 4.97426C29.0912 7.05997 29.3755 7.58711 30.1984 7.58711ZM32.7255 0.374255C32.0298 0.374255 31.3484 0.531398 30.7098 0.828541C29.7397 1.31281 28.9089 2.03598 28.2955 2.92997L28.2455 3.00426C27.8084 3.64711 27.3769 4.27854 27.1169 5.00425C26.5212 6.20997 26.6355 7.5014 27.2026 8.62283C27.477 8.97416 27.8355 9.25072 28.245 9.42698C28.6544 9.60325 29.1017 9.67355 29.5455 9.6314C32.0155 9.6314 33.7612 8.06997 35.0255 4.8314C35.5512 3.45568 35.5369 2.1214 34.9969 1.35426C34.3012 0.545684 33.6055 0.388541 32.7112 0.388541L32.7255 0.374255ZM38.9012 4.51997C39.2696 4.5454 39.6355 4.44367 39.9379 4.23177C40.2403 4.01986 40.4608 3.71061 40.5626 3.35568C40.8469 2.58854 40.5341 2.34711 39.6969 2.34711H39.2426L38.4341 4.51854L38.9012 4.51997ZM40.4355 0.488541H37.4112L34.1455 9.45997H36.9284L38.1212 6.29425C38.1784 6.42283 38.8726 9.45997 38.8726 9.45997H41.7984C41.5553 8.40102 41.2471 7.35809 40.8755 6.33711C40.7762 6.09374 40.6622 5.85664 40.5341 5.62711C41.0929 5.44542 41.6063 5.14613 42.0397 4.7494C42.4732 4.35267 42.8166 3.86769 43.0469 3.32711C43.2025 3.01959 43.2789 2.67811 43.2691 2.33362C43.2594 1.98913 43.1639 1.65251 42.9912 1.35426C42.4084 0.557112 41.3869 0.474255 40.4355 0.474255V0.488541ZM51.2669 2.6314L52.0469 0.502826H43.1169C43.2884 0.644255 43.4441 0.799969 43.5712 0.984255C43.8984 1.46711 44.0255 2.04997 43.9412 2.6314H45.5884L43.0898 9.47425H45.5741L48.0726 2.6314H51.2669Z" fill="#F48120"/>
</svg>
