<svg width="31" height="10" viewBox="0 0 31 10" fill="none" xmlns="http://www.w3.org/2000/svg">
<path id="Vector" fill-rule="evenodd" clip-rule="evenodd" d="M22.1462 6.69574C22.1529 5.16796 20.8861 4.50352 19.873 3.97352C19.1934 3.61574 18.6285 3.31907 18.6374 2.86241C18.6452 2.51463 18.9766 2.14463 19.6995 2.05129C20.5466 1.9698 21.4 2.11837 22.1695 2.48129L22.61 0.430183C21.8607 0.148753 21.0671 0.00313832 20.2667 0.000183105C17.791 0.000183105 16.0494 1.31463 16.0327 3.19685C16.0171 4.58907 17.2772 5.36685 18.2259 5.83018C19.2023 6.30352 19.5293 6.60796 19.526 7.03241C19.526 7.68241 18.7464 7.96685 18.0268 7.97907C16.8046 7.99685 16.0805 7.65907 15.5056 7.39129L15.4544 7.36796L15.0018 9.48685C15.5867 9.75463 16.6678 9.98907 17.7866 10.0002C20.419 10.0002 22.1395 8.70129 22.1484 6.69129L22.1462 6.69574ZM11.771 0.181294L7.71274 9.85463H5.06472L3.0673 2.13352C2.94497 1.65796 2.84043 1.48463 2.47119 1.28352C1.87063 0.95685 0.876372 0.651294 0 0.461294L0.0589438 0.172405H4.32181C4.59937 0.173388 4.86748 0.273306 5.07788 0.454181C5.28828 0.635055 5.42717 0.885011 5.46954 1.15907L6.52386 6.75018L9.12962 0.167961L11.771 0.181294ZM31 9.84463H28.6845L28.382 8.40685H25.169L24.6463 9.85241H22.0161L25.774 0.889072C25.8597 0.676747 26.0071 0.494962 26.1972 0.367205C26.3873 0.239448 26.6114 0.171593 26.8406 0.172405H28.9781L31 9.84463ZM25.8908 6.41796L27.2098 2.78685L27.9616 6.42685L25.8908 6.41796ZM13.2824 9.84574L15.3532 0.172405H12.8453L10.7734 9.84463H13.2824V9.84574Z" fill="#122D98"/>
</svg>
