<svg width="24" height="24" viewBox="0 0 24 24" fill="none" xmlns="http://www.w3.org/2000/svg">
<path id="Subtract" fill-rule="evenodd" clip-rule="evenodd" d="M13.6698 23.8868C19.5059 23.0737 23.9983 18.0631 23.9983 12.0024H24C24 5.3749 18.6272 0.00195312 12 0.00195312C5.37276 0.00195312 0 5.3749 0 12.0024C0 17.9731 4.3613 22.9262 10.0722 23.8481V15.7737H7.08984V12.2522H10.0722V9.0537C10.0722 7.06932 11.6807 5.45996 13.6658 5.45996V5.46164C13.6687 5.46164 13.6715 5.46122 13.6742 5.4608C13.6769 5.46038 13.6797 5.45996 13.6826 5.45996H16.8995V8.50548H14.7975C14.1728 8.50548 13.6658 9.0125 13.6658 9.63724L13.665 9.63809V12.2522H16.8987L16.3867 15.7737H13.665V23.8869C13.2373 23.9462 12.8019 23.9833 12.3608 23.9966C12.8036 23.9834 13.2406 23.9463 13.6698 23.8868Z" fill="#F4F4F4"/>
</svg>
