<svg width="42" height="42" viewBox="0 0 42 42" fill="none" xmlns="http://www.w3.org/2000/svg">
<path fill-rule="evenodd" clip-rule="evenodd" d="M23.5309 31.8968C28.8807 31.1515 32.9989 26.5584 32.9989 21.0026H33.0004C33.0004 14.9273 28.0753 10.002 22.0002 10.002C15.9251 10.002 11 14.9273 11 21.0026C11 26.4758 14.9978 31.0162 20.2328 31.8614V24.4597H17.4989V21.2317H20.2328V18.2996C20.2328 16.4806 21.7073 15.0053 23.527 15.0053V15.0068C23.5297 15.0068 23.5322 15.0064 23.5347 15.0061C23.5372 15.0057 23.5397 15.0053 23.5424 15.0053H26.4913V17.7971H24.5644C23.9918 17.7971 23.527 18.2618 23.527 18.8345L23.5262 18.8353V21.2317H26.4906L26.0212 24.4597H23.5262V31.897C23.129 31.9521 22.7244 31.9863 22.3145 31.998C22.726 31.9864 23.1322 31.9521 23.5309 31.8968Z" fill="#F5F5F5"/>
</svg>
