<svg width="22" height="20" viewBox="0 0 22 20" fill="none" xmlns="http://www.w3.org/2000/svg">
<g id="Group 1000014499">
<g id="Icon">
<path d="M8.55611 10C11.0414 10 13.0561 7.98528 13.0561 5.5C13.0561 3.01472 11.0414 1 8.55611 1C6.07083 1 4.05611 3.01472 4.05611 5.5C4.05611 7.98528 6.07083 10 8.55611 10Z" stroke="#F7F7F7" stroke-width="2" stroke-linecap="round" stroke-linejoin="round"/>
<path d="M8.55611 13C5.72548 13 3.20965 14.5446 1.61534 16.9383C1.26607 17.4628 1.09144 17.725 1.11154 18.0599C1.1272 18.3207 1.29816 18.64 1.50655 18.7976C1.77419 19 2.14228 19 2.87847 19H14.2338C14.9699 19 15.338 19 15.6057 18.7976C15.8141 18.64 15.985 18.3207 16.0007 18.0599C16.0208 17.725 15.8461 17.4628 15.4969 16.9383C13.9026 14.5446 11.3867 13 8.55611 13Z" stroke="#F7F7F7" stroke-width="2" stroke-linecap="round" stroke-linejoin="round"/>
</g>
<path id="Vector 72" d="M17.11 14C18.4433 14.6667 20.11 16.5 20.61 17.5C21.1466 18.5733 20.7767 19 20.61 19H19.11" stroke="#F7F7F7" stroke-width="2" stroke-linecap="round"/>
<path id="Vector 71" d="M15.11 1.5C15.9433 2 17.61 3 17.61 5.5C17.61 8 15.9433 9 15.11 9.5" stroke="#F7F7F7" stroke-width="2" stroke-linecap="round"/>
</g>
</svg>
