<svg width="42" height="42" viewBox="0 0 42 42" fill="none" xmlns="http://www.w3.org/2000/svg">
<path fill-rule="evenodd" clip-rule="evenodd" d="M20.975 10H21.025C27.0863 10 32 14.9136 32 20.9749V21.025C32 27.0863 27.0863 32 21.025 32H20.975C14.9137 32 10 27.0863 10 21.025V20.9749C10 14.9136 14.9137 10 20.975 10ZM17.5947 14.4755H24.4021C26.2828 14.4755 27.8128 16.0054 27.8128 17.8861V24.1139C27.8128 25.9946 26.2828 27.5246 24.4021 27.5246H17.5947C15.7141 27.5246 14.1841 25.9946 14.1841 24.1139V17.8861C14.1841 16.0054 15.7141 14.4755 17.5947 14.4755ZM17.5947 15.6786C16.3777 15.6786 15.3873 16.6691 15.3873 17.8861V24.1139C15.3873 25.331 16.3777 26.3214 17.5947 26.3214H24.4021C25.6192 26.3214 26.6096 25.331 26.6096 24.1139V17.8861C26.6096 16.6691 25.6192 15.6786 24.4021 15.6786H17.5947ZM20.9982 24.1719C22.747 24.1719 24.1706 22.749 24.1706 20.9994C24.1706 19.2497 22.7478 17.8269 20.9982 17.8269C19.2485 17.8269 17.8257 19.2497 17.8257 20.9994C17.8257 22.749 19.2485 24.1719 20.9982 24.1719ZM20.9982 19.0308C22.0842 19.0308 22.9675 19.9141 22.9675 21.0002C22.9675 22.0862 22.0842 22.9695 20.9982 22.9695C19.9122 22.9695 19.0289 22.0862 19.0289 21.0002C19.0289 19.9141 19.9122 19.0308 20.9982 19.0308ZM25.3199 17.4853C25.3199 17.957 24.9361 18.3401 24.4651 18.3401C23.9934 18.3401 23.6104 17.957 23.6104 17.4853C23.6104 17.0136 23.9934 16.6305 24.4651 16.6305C24.9368 16.6305 25.3199 17.0136 25.3199 17.4853Z" fill="#F5F5F5"/>
</svg>
