<svg width="24" height="24" viewBox="0 0 24 24" fill="none" xmlns="http://www.w3.org/2000/svg">
<path id="Subtract" fill-rule="evenodd" clip-rule="evenodd" d="M11.9727 0H12.0273C18.6397 0 24 5.36034 24 11.9727V12.0273C24 18.6396 18.6397 24 12.0273 24H11.9727C5.36035 24 0 18.6396 0 12.0273V11.9727C0 5.36034 5.36035 0 11.9727 0ZM8.28516 4.88232H15.7114C17.7631 4.88232 19.4321 6.55139 19.4321 8.60303V15.397C19.4321 17.4486 17.7631 19.1177 15.7114 19.1177H8.28516C6.23351 19.1177 4.56445 17.4486 4.56445 15.397V8.60303C4.56445 6.55139 6.23351 4.88232 8.28516 4.88232ZM8.28516 6.19487C6.95747 6.19487 5.877 7.27535 5.877 8.60303V15.397C5.877 16.7247 6.95747 17.8051 8.28516 17.8051H15.7114C17.0391 17.8051 18.1196 16.7247 18.1196 15.397V8.60303C18.1196 7.27535 17.0391 6.19487 15.7114 6.19487H8.28516ZM11.998 15.4603C13.9059 15.4603 15.4589 13.9082 15.4589 11.9995C15.4589 10.0908 13.9067 8.53857 11.998 8.53857C10.0893 8.53857 8.53711 10.0908 8.53711 11.9995C8.53711 13.9082 10.0893 15.4603 11.998 15.4603ZM11.998 9.85196C13.1827 9.85196 14.1463 10.8156 14.1463 12.0003C14.1463 13.185 13.1827 14.1486 11.998 14.1486C10.8133 14.1486 9.84966 13.185 9.84966 12.0003C9.84966 10.8156 10.8133 9.85196 11.998 9.85196ZM16.7126 8.16589C16.7126 8.68049 16.2939 9.09838 15.7801 9.09838C15.2655 9.09838 14.8477 8.68049 14.8477 8.16589C14.8477 7.6513 15.2655 7.2334 15.7801 7.2334C16.2947 7.2334 16.7126 7.6513 16.7126 8.16589Z" fill="#F4F4F4"/>
</svg>
