<svg width="24" height="24" viewBox="0 0 24 24" fill="none" xmlns="http://www.w3.org/2000/svg">
<path id="Subtract" fill-rule="evenodd" clip-rule="evenodd" d="M11.9727 0H12.0273C18.6397 0 24 5.36034 24 11.9727V12.0273C24 18.6396 18.6397 24 12.0273 24H11.9727C5.36035 24 0 18.6396 0 12.0273V11.9727C0 5.36034 5.36035 0 11.9727 0ZM17.801 10.9485V8.68411C17.4461 8.62273 16.945 8.4924 16.4111 8.19054C15.841 7.86682 15.4349 7.46154 15.1599 7.11259C14.9253 6.81578 14.7908 6.45337 14.7756 6.07584C14.7714 5.97998 14.7674 5.8837 14.7634 5.78743C14.7595 5.69115 14.7555 5.59488 14.7513 5.49902H12.4869V14.3993C12.4894 14.4396 12.4902 14.48 12.4902 14.5204C12.4902 15.5975 11.6133 16.4745 10.5361 16.4745C9.45903 16.4745 8.58204 15.5983 8.58204 14.5204C8.58204 13.4424 9.45903 12.5663 10.5361 12.5663C10.7657 12.5663 10.986 12.6058 11.1912 12.6789V10.4457C10.9776 10.4112 10.759 10.3935 10.5361 10.3935C8.26084 10.3935 6.41016 12.2459 6.41016 14.5204C6.41016 16.7948 8.26084 18.6463 10.5361 18.6463C12.8114 18.6463 14.6621 16.7948 14.6621 14.5204C14.6621 14.427 14.6588 14.3345 14.6529 14.2437L14.6621 14.258V9.67799C15.0245 9.9664 15.5778 10.3389 16.3211 10.6113C16.8903 10.8198 17.4049 10.9098 17.801 10.9485Z" fill="#F4F4F4"/>
</svg>
