<svg width="42" height="42" viewBox="0 0 42 42" fill="none" xmlns="http://www.w3.org/2000/svg">
<path fill-rule="evenodd" clip-rule="evenodd" d="M20.9749 10H21.0251C27.0863 10 32 14.9136 32 20.9749V21.025C32 27.0863 27.0863 32 21.0251 32H20.9749C14.9137 32 10 27.0863 10 21.025V20.9749C10 14.9136 14.9137 10 20.9749 10ZM26.3176 20.0361V17.9604C25.9923 17.9042 25.5329 17.7847 25.0435 17.508C24.5209 17.2113 24.1486 16.8397 23.8966 16.5199C23.6815 16.2478 23.5582 15.9156 23.5443 15.5695C23.5405 15.4816 23.5368 15.3934 23.5332 15.3051C23.5295 15.2169 23.5258 15.1286 23.522 15.0408H21.4463V23.1993C21.4486 23.2363 21.4494 23.2733 21.4494 23.3103C21.4494 24.2977 20.6455 25.1016 19.6581 25.1016C18.6708 25.1016 17.8669 24.2985 17.8669 23.3103C17.8669 22.3222 18.6708 21.5191 19.6581 21.5191C19.8685 21.5191 20.0705 21.5553 20.2586 21.6224V19.5752C20.0628 19.5436 19.8624 19.5274 19.6581 19.5274C17.5724 19.5274 15.876 21.2254 15.876 23.3103C15.876 25.3953 17.5724 27.0925 19.6581 27.0925C21.7438 27.0925 23.4403 25.3953 23.4403 23.3103C23.4403 23.2248 23.4372 23.14 23.4318 23.0567L23.4403 23.0699V18.8715C23.7725 19.1359 24.2796 19.4773 24.961 19.727C25.4828 19.9182 25.9545 20.0007 26.3176 20.0361Z" fill="#F5F5F5"/>
</svg>
