<svg width="24" height="24" viewBox="0 0 24 24" fill="none" xmlns="http://www.w3.org/2000/svg">
<g id="book-open-svgrepo-com 1">
<g id="Page-1">
<g id="Book-open">
<path id="Shape" d="M21.3548 19.0936L21.1762 19.5606L21.2625 19.5936H21.3548V19.0936ZM12 19.0936L11.5869 19.3753C11.68 19.5119 11.8347 19.5936 12 19.5936C12.1653 19.5936 12.32 19.5119 12.4131 19.3753L12 19.0936ZM2.64516 19.0936V19.5936H2.73755L2.82383 19.5606L2.64516 19.0936ZM12 6.12587L11.5448 6.33277L12 7.33417L12.4552 6.33277L12 6.12587ZM21.5 18.4485C21.5 18.5271 21.4335 18.5936 21.3548 18.5936V19.5936C21.9858 19.5936 22.5 19.0794 22.5 18.4485H21.5ZM21.3548 19.0936C21.5335 18.6266 21.5334 18.6266 21.5332 18.6265C21.5331 18.6265 21.533 18.6264 21.5328 18.6263C21.5324 18.6262 21.532 18.626 21.5314 18.6258C21.5302 18.6254 21.5286 18.6248 21.5266 18.624C21.5225 18.6224 21.5166 18.6202 21.509 18.6174C21.4938 18.6117 21.4717 18.6035 21.4432 18.593C21.386 18.572 21.3029 18.542 21.1969 18.5051C20.985 18.4312 20.6814 18.3293 20.3114 18.2162C19.573 17.9906 18.5631 17.7183 17.4867 17.5361C16.4156 17.3548 15.2498 17.2577 14.2101 17.4007C13.1746 17.5431 12.1839 17.9364 11.5869 18.8119L12.4131 19.3753C12.7839 18.8315 13.4463 18.5151 14.3463 18.3914C15.2421 18.2682 16.2941 18.3485 17.3198 18.5221C18.3402 18.6948 19.3061 18.9547 20.0192 19.1726C20.375 19.2813 20.6662 19.379 20.8676 19.4493C20.9683 19.4844 21.0464 19.5126 21.0989 19.5319C21.1252 19.5415 21.145 19.5489 21.158 19.5537C21.1645 19.5562 21.1693 19.558 21.1723 19.5591C21.1739 19.5597 21.1749 19.5601 21.1756 19.5604C21.1759 19.5605 21.1761 19.5606 21.1762 19.5606C21.1763 19.5606 21.1762 19.5606 21.1763 19.5606C21.1762 19.5606 21.1762 19.5606 21.3548 19.0936ZM12.4131 18.8119C11.8161 17.9364 10.8254 17.5431 9.78988 17.4007C8.75015 17.2577 7.5844 17.3548 6.51335 17.5361C5.43694 17.7183 4.42703 17.9906 3.68857 18.2162C3.31859 18.3293 3.01497 18.4312 2.80308 18.5051C2.6971 18.542 2.61396 18.572 2.55683 18.593C2.52826 18.6035 2.50619 18.6117 2.491 18.6174C2.48341 18.6202 2.47753 18.6224 2.47343 18.624C2.47138 18.6248 2.46977 18.6254 2.46861 18.6258C2.46803 18.626 2.46757 18.6262 2.46721 18.6263C2.46704 18.6264 2.46685 18.6265 2.46677 18.6265C2.46661 18.6266 2.46649 18.6266 2.64516 19.0936C2.82383 19.5606 2.82377 19.5606 2.82373 19.5606C2.82375 19.5606 2.82374 19.5606 2.82379 19.5606C2.82388 19.5606 2.82409 19.5605 2.82441 19.5604C2.82505 19.5601 2.82614 19.5597 2.82766 19.5591C2.83071 19.558 2.8355 19.5562 2.84201 19.5537C2.85502 19.5489 2.87484 19.5415 2.90108 19.5319C2.95358 19.5126 3.03173 19.4844 3.1324 19.4493C3.33382 19.379 3.62496 19.2813 3.98079 19.1726C4.69394 18.9547 5.65983 18.6948 6.6802 18.5221C7.70592 18.3485 8.75791 18.2682 9.65367 18.3914C10.5537 18.5151 11.2161 18.8315 11.5869 19.3753L12.4131 18.8119ZM2.64516 18.5936C2.56647 18.5936 2.5 18.5271 2.5 18.4485H1.5C1.5 19.0794 2.01418 19.5936 2.64516 19.5936V18.5936ZM2.5 18.4485V7.44806H1.5V18.4485H2.5ZM2.80095 7.00364C3.80534 6.63924 5.84155 5.95735 7.74729 5.65817C8.70376 5.50801 9.58944 5.46073 10.2821 5.57792C10.9781 5.69567 11.3742 5.9574 11.5448 6.33277L12.4552 5.91897C12.0863 5.10753 11.2946 4.73501 10.4489 4.59193C9.59992 4.44829 8.59021 4.51359 7.5922 4.67027C5.58895 4.98476 3.47984 5.69355 2.4599 6.06359L2.80095 7.00364ZM12.4552 6.33277C12.6258 5.9574 13.0219 5.69567 13.7179 5.57792C14.4106 5.46073 15.2962 5.50801 16.2527 5.65817C18.1584 5.95735 20.1947 6.63924 21.199 7.00364L21.5401 6.06359C20.5202 5.69355 18.411 4.98476 16.4078 4.67027C15.4098 4.51359 14.4001 4.44829 13.5511 4.59193C12.7054 4.73501 11.9137 5.10753 11.5448 5.91897L12.4552 6.33277ZM21.5 7.4436C21.5 7.44848 21.5 7.45338 21.5 7.4583C21.5 7.46323 21.5 7.46817 21.5 7.47314C21.5 7.47811 21.5 7.4831 21.5 7.48811C21.5 7.49313 21.5 7.49816 21.5 7.50322C21.5 7.50828 21.5 7.51336 21.5 7.51846C21.5 7.52357 21.5 7.52869 21.5 7.53384C21.5 7.53899 21.5 7.54416 21.5 7.54935C21.5 7.55455 21.5 7.55976 21.5 7.565C21.5 7.57023 21.5 7.57549 21.5 7.58077C21.5 7.58606 21.5 7.59136 21.5 7.59668C21.5 7.60201 21.5 7.60735 21.5 7.61272C21.5 7.61809 21.5 7.62348 21.5 7.62889C21.5 7.6343 21.5 7.63974 21.5 7.64519C21.5 7.65065 21.5 7.65612 21.5 7.66162C21.5 7.66712 21.5 7.67264 21.5 7.67818C21.5 7.68372 21.5 7.68928 21.5 7.69486C21.5 7.70045 21.5 7.70605 21.5 7.71168C21.5 7.7173 21.5 7.72295 21.5 7.72861C21.5 7.73428 21.5 7.73997 21.5 7.74568C21.5 7.75139 21.5 7.75712 21.5 7.76287C21.5 7.76862 21.5 7.77439 21.5 7.78018C21.5 7.78598 21.5 7.79179 21.5 7.79762C21.5 7.80346 21.5 7.80931 21.5 7.81519C21.5 7.82106 21.5 7.82695 21.5 7.83287C21.5 7.83879 21.5 7.84472 21.5 7.85068C21.5 7.85663 21.5 7.86261 21.5 7.8686C21.5 7.8746 21.5 7.88062 21.5 7.88665C21.5 7.89269 21.5 7.89875 21.5 7.90482C21.5 7.9109 21.5 7.91699 21.5 7.92311C21.5 7.92923 21.5 7.93536 21.5 7.94152C21.5 7.94767 21.5 7.95385 21.5 7.96004C21.5 7.96624 21.5 7.97245 21.5 7.97868C21.5 7.98492 21.5 7.99117 21.5 7.99744C21.5 8.00372 21.5 8.01001 21.5 8.01632C21.5 8.02263 21.5 8.02896 21.5 8.03531C21.5 8.04166 21.5 8.04803 21.5 8.05442C21.5 8.0608 21.5 8.06721 21.5 8.07364C21.5 8.08006 21.5 8.08651 21.5 8.09297C21.5 8.09943 21.5 8.10592 21.5 8.11242C21.5 8.11892 21.5 8.12544 21.5 8.13197C21.5 8.13851 21.5 8.14507 21.5 8.15165C21.5 8.15822 21.5 8.16481 21.5 8.17143C21.5 8.17804 21.5 8.18467 21.5 8.19132C21.5 8.19797 21.5 8.20463 21.5 8.21132C21.5 8.218 21.5 8.22471 21.5 8.23143C21.5 8.23815 21.5 8.24489 21.5 8.25165C21.5 8.25841 21.5 8.26518 21.5 8.27197C21.5 8.27877 21.5 8.28558 21.5 8.29241C21.5 8.29924 21.5 8.30608 21.5 8.31295C21.5 8.31981 21.5 8.32669 21.5 8.33359C21.5 8.34049 21.5 8.34741 21.5 8.35434C21.5 8.36128 21.5 8.36823 21.5 8.3752C21.5 8.38217 21.5 8.38916 21.5 8.39616C21.5 8.40316 21.5 8.41018 21.5 8.41722C21.5 8.42426 21.5 8.43131 21.5 8.43839C21.5 8.44546 21.5 8.45255 21.5 8.45965C21.5 8.46676 21.5 8.47388 21.5 8.48102C21.5 8.48816 21.5 8.49532 21.5 8.50249C21.5 8.50966 21.5 8.51685 21.5 8.52406C21.5 8.53126 21.5 8.53849 21.5 8.54573C21.5 8.55297 21.5 8.56022 21.5 8.56749C21.5 8.57476 21.5 8.58205 21.5 8.58936C21.5 8.59666 21.5 8.60398 21.5 8.61132C21.5 8.61866 21.5 8.62601 21.5 8.63338C21.5 8.64075 21.5 8.64813 21.5 8.65553C21.5 8.66293 21.5 8.67035 21.5 8.67778C21.5 8.68521 21.5 8.69266 21.5 8.70013C21.5 8.70759 21.5 8.71507 21.5 8.72256C21.5 8.73006 21.5 8.73757 21.5 8.7451C21.5 8.75262 21.5 8.76016 21.5 8.76772C21.5 8.77528 21.5 8.78285 21.5 8.79044C21.5 8.79803 21.5 8.80563 21.5 8.81325C21.5 8.82087 21.5 8.8285 21.5 8.83615C21.5 8.84379 21.5 8.85146 21.5 8.85914C21.5 8.86681 21.5 8.87451 21.5 8.88222C21.5 8.88992 21.5 8.89765 21.5 8.90538C21.5 8.91312 21.5 8.92087 21.5 8.92864C21.5 8.93641 21.5 8.94419 21.5 8.95198C21.5 8.95978 21.5 8.96759 21.5 8.97541C21.5 8.98324 21.5 8.99108 21.5 8.99893C21.5 9.00678 21.5 9.01465 21.5 9.02253C21.5 9.03042 21.5 9.03831 21.5 9.04622C21.5 9.05413 21.5 9.06206 21.5 9.06999C21.5 9.07793 21.5 9.08588 21.5 9.09385C21.5 9.10182 21.5 9.1098 21.5 9.11779C21.5 9.12578 21.5 9.13379 21.5 9.14181C21.5 9.14983 21.5 9.15787 21.5 9.16591C21.5 9.17396 21.5 9.18202 21.5 9.1901C21.5 9.19817 21.5 9.20626 21.5 9.21436C21.5 9.22246 21.5 9.23058 21.5 9.23871C21.5 9.24684 21.5 9.25498 21.5 9.26313C21.5 9.27129 21.5 9.27945 21.5 9.28763C21.5 9.29581 21.5 9.30401 21.5 9.31221C21.5 9.32042 21.5 9.32864 21.5 9.33687C21.5 9.3451 21.5 9.35335 21.5 9.3616C21.5 9.36986 21.5 9.37813 21.5 9.38641C21.5 9.3947 21.5 9.40299 21.5 9.4113C21.5 9.41961 21.5 9.42793 21.5 9.43626C21.5 9.44459 21.5 9.45294 21.5 9.46129C21.5 9.46965 21.5 9.47802 21.5 9.4864C21.5 9.49478 21.5 9.50317 21.5 9.51158C21.5 9.51998 21.5 9.5284 21.5 9.53683C21.5 9.54526 21.5 9.5537 21.5 9.56215C21.5 9.57061 21.5 9.57907 21.5 9.58755C21.5 9.59602 21.5 9.60451 21.5 9.61301C21.5 9.62151 21.5 9.63002 21.5 9.63854C21.5 9.64707 21.5 9.6556 21.5 9.66415C21.5 9.67269 21.5 9.68125 21.5 9.68982C21.5 9.69838 21.5 9.70696 21.5 9.71555C21.5 9.72414 21.5 9.73275 21.5 9.74136C21.5 9.74997 21.5 9.75859 21.5 9.76723C21.5 9.77586 21.5 9.78451 21.5 9.79317C21.5 9.80182 21.5 9.81049 21.5 9.81917C21.5 9.82784 21.5 9.83653 21.5 9.84523C21.5 9.85393 21.5 9.86264 21.5 9.87136C21.5 9.88008 21.5 9.88881 21.5 9.89755C21.5 9.90629 21.5 9.91505 21.5 9.92381C21.5 9.93257 21.5 9.94134 21.5 9.95012C21.5 9.9589 21.5 9.9677 21.5 9.9765C21.5 9.9853 21.5 9.99411 21.5 10.0029C21.5 10.0118 21.5 10.0206 21.5 10.0294C21.5 10.0383 21.5 10.0471 21.5 10.056C21.5 10.0649 21.5 10.0737 21.5 10.0826C21.5 10.0915 21.5 10.1004 21.5 10.1093C21.5 10.1182 21.5 10.1271 21.5 10.136C21.5 10.1449 21.5 10.1539 21.5 10.1628C21.5 10.1717 21.5 10.1807 21.5 10.1896C21.5 10.1986 21.5 10.2076 21.5 10.2165C21.5 10.2255 21.5 10.2345 21.5 10.2435C21.5 10.2525 21.5 10.2615 21.5 10.2705C21.5 10.2795 21.5 10.2885 21.5 10.2975C21.5 10.3066 21.5 10.3156 21.5 10.3247C21.5 10.3337 21.5 10.3428 21.5 10.3518C21.5 10.3609 21.5 10.3699 21.5 10.379C21.5 10.3881 21.5 10.3972 21.5 10.4063C21.5 10.4154 21.5 10.4245 21.5 10.4336C21.5 10.4427 21.5 10.4518 21.5 10.461C21.5 10.4701 21.5 10.4792 21.5 10.4884C21.5 10.4975 21.5 10.5067 21.5 10.5158C21.5 10.525 21.5 10.5342 21.5 10.5434C21.5 10.5525 21.5 10.5617 21.5 10.5709C21.5 10.5801 21.5 10.5893 21.5 10.5985C21.5 10.6077 21.5 10.6169 21.5 10.6262C21.5 10.6354 21.5 10.6446 21.5 10.6538C21.5 10.6631 21.5 10.6723 21.5 10.6816C21.5 10.6908 21.5 10.7001 21.5 10.7094C21.5 10.7186 21.5 10.7279 21.5 10.7372C21.5 10.7465 21.5 10.7557 21.5 10.765C21.5 10.7743 21.5 10.7836 21.5 10.7929C21.5 10.8023 21.5 10.8116 21.5 10.8209C21.5 10.8302 21.5 10.8395 21.5 10.8489C21.5 10.8582 21.5 10.8676 21.5 10.8769C21.5 10.8862 21.5 10.8956 21.5 10.905C21.5 10.9143 21.5 10.9237 21.5 10.9331C21.5 10.9424 21.5 10.9518 21.5 10.9612C21.5 10.9706 21.5 10.98 21.5 10.9894C21.5 10.9988 21.5 11.0082 21.5 11.0176C21.5 11.027 21.5 11.0364 21.5 11.0458C21.5 11.0553 21.5 11.0647 21.5 11.0741C21.5 11.0836 21.5 11.093 21.5 11.1025C21.5 11.1119 21.5 11.1213 21.5 11.1308C21.5 11.1403 21.5 11.1497 21.5 11.1592C21.5 11.1687 21.5 11.1781 21.5 11.1876C21.5 11.1971 21.5 11.2066 21.5 11.2161C21.5 11.2255 21.5 11.235 21.5 11.2445C21.5 11.254 21.5 11.2635 21.5 11.273C21.5 11.2826 21.5 11.2921 21.5 11.3016C21.5 11.3111 21.5 11.3206 21.5 11.3302C21.5 11.3397 21.5 11.3492 21.5 11.3588C21.5 11.3683 21.5 11.3778 21.5 11.3874C21.5 11.3969 21.5 11.4065 21.5 11.416C21.5 11.4256 21.5 11.4352 21.5 11.4447C21.5 11.4543 21.5 11.4639 21.5 11.4734C21.5 11.483 21.5 11.4926 21.5 11.5022C21.5 11.5117 21.5 11.5213 21.5 11.5309C21.5 11.5405 21.5 11.5501 21.5 11.5597C21.5 11.5693 21.5 11.5789 21.5 11.5885C21.5 11.5981 21.5 11.6077 21.5 11.6173C21.5 11.6269 21.5 11.6366 21.5 11.6462C21.5 11.6558 21.5 11.6654 21.5 11.675C21.5 11.6847 21.5 11.6943 21.5 11.7039C21.5 11.7136 21.5 11.7232 21.5 11.7328C21.5 11.7425 21.5 11.7521 21.5 11.7618C21.5 11.7714 21.5 11.7811 21.5 11.7907C21.5 11.8004 21.5 11.81 21.5 11.8197C21.5 11.8293 21.5 11.839 21.5 11.8487C21.5 11.8583 21.5 11.868 21.5 11.8777C21.5 11.8873 21.5 11.897 21.5 11.9067C21.5 11.9164 21.5 11.926 21.5 11.9357C21.5 11.9454 21.5 11.9551 21.5 11.9648C21.5 11.9745 21.5 11.9841 21.5 11.9938C21.5 12.0035 21.5 12.0132 21.5 12.0229C21.5 12.0326 21.5 12.0423 21.5 12.052C21.5 12.0617 21.5 12.0714 21.5 12.0811C21.5 12.0908 21.5 12.1005 21.5 12.1102C21.5 12.1199 21.5 12.1296 21.5 12.1393C21.5 12.1491 21.5 12.1588 21.5 12.1685C21.5 12.1782 21.5 12.1879 21.5 12.1976C21.5 12.2073 21.5 12.2171 21.5 12.2268C21.5 12.2365 21.5 12.2462 21.5 12.2559C21.5 12.2657 21.5 12.2754 21.5 12.2851C21.5 12.2948 21.5 12.3046 21.5 12.3143C21.5 12.324 21.5 12.3337 21.5 12.3435C21.5 12.3532 21.5 12.3629 21.5 12.3727C21.5 12.3824 21.5 12.3921 21.5 12.4018C21.5 12.4116 21.5 12.4213 21.5 12.431C21.5 12.4408 21.5 12.4505 21.5 12.4602C21.5 12.47 21.5 12.4797 21.5 12.4895C21.5 12.4992 21.5 12.5089 21.5 12.5187C21.5 12.5284 21.5 12.5381 21.5 12.5479C21.5 12.5576 21.5 12.5673 21.5 12.5771C21.5 12.5868 21.5 12.5966 21.5 12.6063C21.5 12.616 21.5 12.6258 21.5 12.6355C21.5 12.6452 21.5 12.655 21.5 12.6647C21.5 12.6745 21.5 12.6842 21.5 12.6939C21.5 12.7037 21.5 12.7134 21.5 12.7231C21.5 12.7329 21.5 12.7426 21.5 12.7523C21.5 12.7621 21.5 12.7718 21.5 12.7815C21.5 12.7913 21.5 12.801 21.5 12.8107C21.5 12.8205 21.5 12.8302 21.5 12.8399C21.5 12.8497 21.5 12.8594 21.5 12.8691C21.5 12.8789 21.5 12.8886 21.5 12.8983C21.5 12.908 21.5 12.9178 21.5 12.9275C21.5 12.9372 21.5 12.9469 21.5 12.9567C21.5 12.9664 21.5 12.9761 21.5 12.9858C21.5 12.9955 21.5 13.0053 21.5 13.015C21.5 13.0247 21.5 13.0344 21.5 13.0441C21.5 13.0538 21.5 13.0635 21.5 13.0732C21.5 13.083 21.5 13.0927 21.5 13.1024C21.5 13.1121 21.5 13.1218 21.5 13.1315C21.5 13.1412 21.5 13.1509 21.5 13.1606C21.5 13.1703 21.5 13.18 21.5 13.1897C21.5 13.1994 21.5 13.2091 21.5 13.2187C21.5 13.2284 21.5 13.2381 21.5 13.2478C21.5 13.2575 21.5 13.2672 21.5 13.2769C21.5 13.2865 21.5 13.2962 21.5 13.3059C21.5 13.3156 21.5 13.3252 21.5 13.3349C21.5 13.3446 21.5 13.3542 21.5 13.3639C21.5 13.3736 21.5 13.3832 21.5 13.3929C21.5 13.4025 21.5 13.4122 21.5 13.4219C21.5 13.4315 21.5 13.4412 21.5 13.4508C21.5 13.4604 21.5 13.4701 21.5 13.4797C21.5 13.4894 21.5 13.499 21.5 13.5086C21.5 13.5183 21.5 13.5279 21.5 13.5375C21.5 13.5472 21.5 13.5568 21.5 13.5664C21.5 13.576 21.5 13.5856 21.5 13.5952C21.5 13.6049 21.5 13.6145 21.5 13.6241C21.5 13.6337 21.5 13.6433 21.5 13.6529C21.5 13.6625 21.5 13.6721 21.5 13.6817C21.5 13.6912 21.5 13.7008 21.5 13.7104C21.5 13.72 21.5 13.7296 21.5 13.7391C21.5 13.7487 21.5 13.7583 21.5 13.7678C21.5 13.7774 21.5 13.787 21.5 13.7965C21.5 13.8061 21.5 13.8156 21.5 13.8252C21.5 13.8347 21.5 13.8443 21.5 13.8538C21.5 13.8633 21.5 13.8729 21.5 13.8824C21.5 13.8919 21.5 13.9014 21.5 13.911C21.5 13.9205 21.5 13.93 21.5 13.9395C21.5 13.949 21.5 13.9585 21.5 13.968C21.5 13.9775 21.5 13.987 21.5 13.9965C21.5 14.006 21.5 14.0155 21.5 14.0249C21.5 14.0344 21.5 14.0439 21.5 14.0534C21.5 14.0628 21.5 14.0723 21.5 14.0817C21.5 14.0912 21.5 14.1006 21.5 14.1101C21.5 14.1195 21.5 14.129 21.5 14.1384C21.5 14.1478 21.5 14.1573 21.5 14.1667C21.5 14.1761 21.5 14.1855 21.5 14.1949C21.5 14.2043 21.5 14.2138 21.5 14.2231C21.5 14.2325 21.5 14.2419 21.5 14.2513C21.5 14.2607 21.5 14.2701 21.5 14.2795C21.5 14.2888 21.5 14.2982 21.5 14.3076C21.5 14.3169 21.5 14.3263 21.5 14.3356C21.5 14.345 21.5 14.3543 21.5 14.3636C21.5 14.373 21.5 14.3823 21.5 14.3916C21.5 14.401 21.5 14.4103 21.5 14.4196C21.5 14.4289 21.5 14.4382 21.5 14.4475C21.5 14.4568 21.5 14.4661 21.5 14.4753C21.5 14.4846 21.5 14.4939 21.5 14.5032C21.5 14.5124 21.5 14.5217 21.5 14.5309C21.5 14.5402 21.5 14.5494 21.5 14.5587C21.5 14.5679 21.5 14.5771 21.5 14.5864C21.5 14.5956 21.5 14.6048 21.5 14.614C21.5 14.6232 21.5 14.6324 21.5 14.6416C21.5 14.6508 21.5 14.66 21.5 14.6691C21.5 14.6783 21.5 14.6875 21.5 14.6967C21.5 14.7058 21.5 14.715 21.5 14.7241C21.5 14.7333 21.5 14.7424 21.5 14.7515C21.5 14.7606 21.5 14.7698 21.5 14.7789C21.5 14.788 21.5 14.7971 21.5 14.8062C21.5 14.8153 21.5 14.8244 21.5 14.8335C21.5 14.8425 21.5 14.8516 21.5 14.8607C21.5 14.8697 21.5 14.8788 21.5 14.8878C21.5 14.8969 21.5 14.9059 21.5 14.9149C21.5 14.924 21.5 14.933 21.5 14.942C21.5 14.951 21.5 14.96 21.5 14.969C21.5 14.978 21.5 14.987 21.5 14.9959C21.5 15.0049 21.5 15.0139 21.5 15.0228C21.5 15.0318 21.5 15.0407 21.5 15.0497C21.5 15.0586 21.5 15.0675 21.5 15.0765C21.5 15.0854 21.5 15.0943 21.5 15.1032C21.5 15.1121 21.5 15.121 21.5 15.1298C21.5 15.1387 21.5 15.1476 21.5 15.1565C21.5 15.1653 21.5 15.1742 21.5 15.183C21.5 15.1918 21.5 15.2007 21.5 15.2095C21.5 15.2183 21.5 15.2271 21.5 15.2359C21.5 15.2447 21.5 15.2535 21.5 15.2623C21.5 15.2711 21.5 15.2799 21.5 15.2886C21.5 15.2974 21.5 15.3061 21.5 15.3149C21.5 15.3236 21.5 15.3323 21.5 15.3411C21.5 15.3498 21.5 15.3585 21.5 15.3672C21.5 15.3759 21.5 15.3846 21.5 15.3932C21.5 15.4019 21.5 15.4106 21.5 15.4192C21.5 15.4279 21.5 15.4365 21.5 15.4452C21.5 15.4538 21.5 15.4624 21.5 15.471C21.5 15.4797 21.5 15.4883 21.5 15.4968C21.5 15.5054 21.5 15.514 21.5 15.5226C21.5 15.5311 21.5 15.5397 21.5 15.5482C21.5 15.5568 21.5 15.5653 21.5 15.5738C21.5 15.5824 21.5 15.5909 21.5 15.5994C21.5 15.6079 21.5 15.6164 21.5 15.6248C21.5 15.6333 21.5 15.6418 21.5 15.6502C21.5 15.6587 21.5 15.6671 21.5 15.6755C21.5 15.684 21.5 15.6924 21.5 15.7008C21.5 15.7092 21.5 15.7176 21.5 15.726C21.5 15.7343 21.5 15.7427 21.5 15.7511C21.5 15.7594 21.5 15.7678 21.5 15.7761C21.5 15.7844 21.5 15.7927 21.5 15.8011C21.5 15.8094 21.5 15.8177 21.5 15.8259C21.5 15.8342 21.5 15.8425 21.5 15.8507C21.5 15.859 21.5 15.8672 21.5 15.8755C21.5 15.8837 21.5 15.8919 21.5 15.9001C21.5 15.9083 21.5 15.9165 21.5 15.9247C21.5 15.9329 21.5 15.941 21.5 15.9492C21.5 15.9573 21.5 15.9655 21.5 15.9736C21.5 15.9817 21.5 15.9899 21.5 15.998C21.5 16.0061 21.5 16.0141 21.5 16.0222C21.5 16.0303 21.5 16.0383 21.5 16.0464C21.5 16.0544 21.5 16.0625 21.5 16.0705C21.5 16.0785 21.5 16.0865 21.5 16.0945C21.5 16.1025 21.5 16.1105 21.5 16.1184C21.5 16.1264 21.5 16.1344 21.5 16.1423C21.5 16.1502 21.5 16.1582 21.5 16.1661C21.5 16.174 21.5 16.1819 21.5 16.1897C21.5 16.1976 21.5 16.2055 21.5 16.2133C21.5 16.2212 21.5 16.229 21.5 16.2369C21.5 16.2447 21.5 16.2525 21.5 16.2603C21.5 16.2681 21.5 16.2759 21.5 16.2836C21.5 16.2914 21.5 16.2991 21.5 16.3069C21.5 16.3146 21.5 16.3223 21.5 16.33C21.5 16.3377 21.5 16.3454 21.5 16.3531C21.5 16.3608 21.5 16.3684 21.5 16.3761C21.5 16.3837 21.5 16.3914 21.5 16.399C21.5 16.4066 21.5 16.4142 21.5 16.4218C21.5 16.4294 21.5 16.4369 21.5 16.4445C21.5 16.4521 21.5 16.4596 21.5 16.4671C21.5 16.4746 21.5 16.4822 21.5 16.4897C21.5 16.4971 21.5 16.5046 21.5 16.5121C21.5 16.5195 21.5 16.527 21.5 16.5344C21.5 16.5419 21.5 16.5493 21.5 16.5567C21.5 16.5641 21.5 16.5715 21.5 16.5788C21.5 16.5862 21.5 16.5935 21.5 16.6009C21.5 16.6082 21.5 16.6155 21.5 16.6228C21.5 16.6301 21.5 16.6374 21.5 16.6447C21.5 16.652 21.5 16.6592 21.5 16.6664C21.5 16.6737 21.5 16.6809 21.5 16.6881C21.5 16.6953 21.5 16.7025 21.5 16.7097C21.5 16.7168 21.5 16.724 21.5 16.7311C21.5 16.7383 21.5 16.7454 21.5 16.7525C21.5 16.7596 21.5 16.7667 21.5 16.7738C21.5 16.7808 21.5 16.7879 21.5 16.7949C21.5 16.802 21.5 16.809 21.5 16.816C21.5 16.823 21.5 16.83 21.5 16.8369C21.5 16.8439 21.5 16.8508 21.5 16.8578C21.5 16.8647 21.5 16.8716 21.5 16.8785C21.5 16.8854 21.5 16.8923 21.5 16.8992C21.5 16.906 21.5 16.9129 21.5 16.9197C21.5 16.9265 21.5 16.9333 21.5 16.9401C21.5 16.9469 21.5 16.9537 21.5 16.9604C21.5 16.9672 21.5 16.9739 21.5 16.9807C21.5 16.9874 21.5 16.9941 21.5 17.0008C21.5 17.0074 21.5 17.0141 21.5 17.0208C21.5 17.0274 21.5 17.034 21.5 17.0406C21.5 17.0473 21.5 17.0538 21.5 17.0604C21.5 17.067 21.5 17.0735 21.5 17.0801C21.5 17.0866 21.5 17.0931 21.5 17.0996C21.5 17.1061 21.5 17.1126 21.5 17.1191C21.5 17.1255 21.5 17.132 21.5 17.1384C21.5 17.1448 21.5 17.1512 21.5 17.1576C21.5 17.164 21.5 17.1704 21.5 17.1767C21.5 17.1831 21.5 17.1894 21.5 17.1957C21.5 17.202 21.5 17.2083 21.5 17.2146C21.5 17.2208 21.5 17.2271 21.5 17.2333C21.5 17.2396 21.5 17.2458 21.5 17.252C21.5 17.2581 21.5 17.2643 21.5 17.2705C21.5 17.2766 21.5 17.2828 21.5 17.2889C21.5 17.295 21.5 17.3011 21.5 17.3072C21.5 17.3132 21.5 17.3193 21.5 17.3253C21.5 17.3314 21.5 17.3374 21.5 17.3434C21.5 17.3494 21.5 17.3553 21.5 17.3613C21.5 17.3672 21.5 17.3732 21.5 17.3791C21.5 17.385 21.5 17.3909 21.5 17.3968C21.5 17.4026 21.5 17.4085 21.5 17.4143C21.5 17.4201 21.5 17.426 21.5 17.4317C21.5 17.4375 21.5 17.4433 21.5 17.4491C21.5 17.4548 21.5 17.4605 21.5 17.4662C21.5 17.4719 21.5 17.4776 21.5 17.4833C21.5 17.489 21.5 17.4946 21.5 17.5002C21.5 17.5059 21.5 17.5115 21.5 17.517C21.5 17.5226 21.5 17.5282 21.5 17.5337C21.5 17.5392 21.5 17.5448 21.5 17.5503C21.5 17.5558 21.5 17.5612 21.5 17.5667C21.5 17.5721 21.5 17.5776 21.5 17.583C21.5 17.5884 21.5 17.5938 21.5 17.5991C21.5 17.6045 21.5 17.6098 21.5 17.6152C21.5 17.6205 21.5 17.6258 21.5 17.6311C21.5 17.6364 21.5 17.6416 21.5 17.6468C21.5 17.6521 21.5 17.6573 21.5 17.6625C21.5 17.6677 21.5 17.6728 21.5 17.678C21.5 17.6831 21.5 17.6883 21.5 17.6934C21.5 17.6985 21.5 17.7035 21.5 17.7086C21.5 17.7136 21.5 17.7187 21.5 17.7237C21.5 17.7287 21.5 17.7337 21.5 17.7387C21.5 17.7436 21.5 17.7486 21.5 17.7535C21.5 17.7584 21.5 17.7633 21.5 17.7682C21.5 17.773 21.5 17.7779 21.5 17.7827C21.5 17.7876 21.5 17.7924 21.5 17.7971C21.5 17.8019 21.5 17.8067 21.5 17.8114C21.5 17.8162 21.5 17.8209 21.5 17.8256C21.5 17.8302 21.5 17.8349 21.5 17.8396C21.5 17.8442 21.5 17.8488 21.5 17.8534C21.5 17.858 21.5 17.8626 21.5 17.8671C21.5 17.8717 21.5 17.8762 21.5 17.8807C21.5 17.8852 21.5 17.8897 21.5 17.8941C21.5 17.8986 21.5 17.903 21.5 17.9074C21.5 17.9118 21.5 17.9162 21.5 17.9206C21.5 17.9249 21.5 17.9292 21.5 17.9336C21.5 17.9379 21.5 17.9421 21.5 17.9464C21.5 17.9507 21.5 17.9549 21.5 17.9591C21.5 17.9633 21.5 17.9675 21.5 17.9717C21.5 17.9758 21.5 17.98 21.5 17.9841C21.5 17.9882 21.5 17.9923 21.5 17.9964C21.5 18.0004 21.5 18.0045 21.5 18.0085C21.5 18.0125 21.5 18.0165 21.5 18.0204C21.5 18.0244 21.5 18.0283 21.5 18.0322C21.5 18.0362 21.5 18.0401 21.5 18.0439C21.5 18.0478 21.5 18.0516 21.5 18.0554C21.5 18.0592 21.5 18.063 21.5 18.0668C21.5 18.0706 21.5 18.0743 21.5 18.078C21.5 18.0817 21.5 18.0854 21.5 18.0891C21.5 18.0927 21.5 18.0964 21.5 18.1C21.5 18.1036 21.5 18.1072 21.5 18.1107C21.5 18.1143 21.5 18.1178 21.5 18.1213C21.5 18.1248 21.5 18.1283 21.5 18.1317C21.5 18.1352 21.5 18.1386 21.5 18.142C21.5 18.1454 21.5 18.1488 21.5 18.1521C21.5 18.1555 21.5 18.1588 21.5 18.1621C21.5 18.1654 21.5 18.1687 21.5 18.1719C21.5 18.1752 21.5 18.1784 21.5 18.1816C21.5 18.1848 21.5 18.1879 21.5 18.1911C21.5 18.1942 21.5 18.1973 21.5 18.2004C21.5 18.2035 21.5 18.2065 21.5 18.2096C21.5 18.2126 21.5 18.2156 21.5 18.2186C21.5 18.2215 21.5 18.2245 21.5 18.2274C21.5 18.2303 21.5 18.2332 21.5 18.2361C21.5 18.239 21.5 18.2418 21.5 18.2446C21.5 18.2474 21.5 18.2502 21.5 18.253C21.5 18.2557 21.5 18.2584 21.5 18.2611C21.5 18.2638 21.5 18.2665 21.5 18.2692C21.5 18.2718 21.5 18.2744 21.5 18.277C21.5 18.2796 21.5 18.2822 21.5 18.2847C21.5 18.2872 21.5 18.2898 21.5 18.2922C21.5 18.2947 21.5 18.2972 21.5 18.2996C21.5 18.302 21.5 18.3044 21.5 18.3068C21.5 18.3091 21.5 18.3115 21.5 18.3138C21.5 18.3161 21.5 18.3184 21.5 18.3206C21.5 18.3229 21.5 18.3251 21.5 18.3273C21.5 18.3295 21.5 18.3317 21.5 18.3338C21.5 18.336 21.5 18.3381 21.5 18.3401C21.5 18.3422 21.5 18.3443 21.5 18.3463C21.5 18.3483 21.5 18.3503 21.5 18.3523C21.5 18.3543 21.5 18.3562 21.5 18.3581C21.5 18.36 21.5 18.3619 21.5 18.3637C21.5 18.3656 21.5 18.3674 21.5 18.3692C21.5 18.371 21.5 18.3728 21.5 18.3745C21.5 18.3762 21.5 18.3779 21.5 18.3796C21.5 18.3813 21.5 18.3829 21.5 18.3845C21.5 18.3861 21.5 18.3877 21.5 18.3893C21.5 18.3908 21.5 18.3924 21.5 18.3939C21.5 18.3954 21.5 18.3968 21.5 18.3983C21.5 18.3997 21.5 18.4011 21.5 18.4025C21.5 18.4039 21.5 18.4052 21.5 18.4065C21.5 18.4078 21.5 18.4091 21.5 18.4104C21.5 18.4116 21.5 18.4128 21.5 18.414C21.5 18.4152 21.5 18.4164 21.5 18.4175C21.5 18.4187 21.5 18.4198 21.5 18.4208C21.5 18.4219 21.5 18.423 21.5 18.424C21.5 18.425 21.5 18.426 21.5 18.4269C21.5 18.4279 21.5 18.4288 21.5 18.4297C21.5 18.4306 21.5 18.4314 21.5 18.4322C21.5 18.4331 21.5 18.4339 21.5 18.4346C21.5 18.4354 21.5 18.4361 21.5 18.4368C21.5 18.4375 21.5 18.4382 21.5 18.4388C21.5 18.4395 21.5 18.4401 21.5 18.4406C21.5 18.4412 21.5 18.4418 21.5 18.4423C21.5 18.4428 21.5 18.4433 21.5 18.4437C21.5 18.4442 21.5 18.4446 21.5 18.445C21.5 18.4454 21.5 18.4457 21.5 18.446C21.5 18.4464 21.5 18.4466 21.5 18.4469C21.5 18.4472 21.5 18.4474 21.5 18.4476C21.5 18.4478 21.5 18.4479 21.5 18.4481C21.5 18.4482 21.5 18.4483 21.5 18.4484C21.5 18.4484 21.5 18.4485 22 18.4485C22.5 18.4485 22.5 18.4484 22.5 18.4484C22.5 18.4483 22.5 18.4482 22.5 18.4481C22.5 18.4479 22.5 18.4478 22.5 18.4476C22.5 18.4474 22.5 18.4472 22.5 18.4469C22.5 18.4466 22.5 18.4464 22.5 18.446C22.5 18.4457 22.5 18.4454 22.5 18.445C22.5 18.4446 22.5 18.4442 22.5 18.4437C22.5 18.4433 22.5 18.4428 22.5 18.4423C22.5 18.4418 22.5 18.4412 22.5 18.4406C22.5 18.4401 22.5 18.4395 22.5 18.4388C22.5 18.4382 22.5 18.4375 22.5 18.4368C22.5 18.4361 22.5 18.4354 22.5 18.4346C22.5 18.4339 22.5 18.4331 22.5 18.4322C22.5 18.4314 22.5 18.4306 22.5 18.4297C22.5 18.4288 22.5 18.4279 22.5 18.4269C22.5 18.426 22.5 18.425 22.5 18.424C22.5 18.423 22.5 18.4219 22.5 18.4208C22.5 18.4198 22.5 18.4187 22.5 18.4175C22.5 18.4164 22.5 18.4152 22.5 18.414C22.5 18.4128 22.5 18.4116 22.5 18.4104C22.5 18.4091 22.5 18.4078 22.5 18.4065C22.5 18.4052 22.5 18.4039 22.5 18.4025C22.5 18.4011 22.5 18.3997 22.5 18.3983C22.5 18.3968 22.5 18.3954 22.5 18.3939C22.5 18.3924 22.5 18.3908 22.5 18.3893C22.5 18.3877 22.5 18.3861 22.5 18.3845C22.5 18.3829 22.5 18.3813 22.5 18.3796C22.5 18.3779 22.5 18.3762 22.5 18.3745C22.5 18.3728 22.5 18.371 22.5 18.3692C22.5 18.3674 22.5 18.3656 22.5 18.3637C22.5 18.3619 22.5 18.36 22.5 18.3581C22.5 18.3562 22.5 18.3543 22.5 18.3523C22.5 18.3503 22.5 18.3483 22.5 18.3463C22.5 18.3443 22.5 18.3422 22.5 18.3401C22.5 18.3381 22.5 18.336 22.5 18.3338C22.5 18.3317 22.5 18.3295 22.5 18.3273C22.5 18.3251 22.5 18.3229 22.5 18.3206C22.5 18.3184 22.5 18.3161 22.5 18.3138C22.5 18.3115 22.5 18.3091 22.5 18.3068C22.5 18.3044 22.5 18.302 22.5 18.2996C22.5 18.2972 22.5 18.2947 22.5 18.2922C22.5 18.2898 22.5 18.2872 22.5 18.2847C22.5 18.2822 22.5 18.2796 22.5 18.277C22.5 18.2744 22.5 18.2718 22.5 18.2692C22.5 18.2665 22.5 18.2638 22.5 18.2611C22.5 18.2584 22.5 18.2557 22.5 18.253C22.5 18.2502 22.5 18.2474 22.5 18.2446C22.5 18.2418 22.5 18.239 22.5 18.2361C22.5 18.2332 22.5 18.2303 22.5 18.2274C22.5 18.2245 22.5 18.2215 22.5 18.2186C22.5 18.2156 22.5 18.2126 22.5 18.2096C22.5 18.2065 22.5 18.2035 22.5 18.2004C22.5 18.1973 22.5 18.1942 22.5 18.1911C22.5 18.1879 22.5 18.1848 22.5 18.1816C22.5 18.1784 22.5 18.1752 22.5 18.1719C22.5 18.1687 22.5 18.1654 22.5 18.1621C22.5 18.1588 22.5 18.1555 22.5 18.1521C22.5 18.1488 22.5 18.1454 22.5 18.142C22.5 18.1386 22.5 18.1352 22.5 18.1317C22.5 18.1283 22.5 18.1248 22.5 18.1213C22.5 18.1178 22.5 18.1143 22.5 18.1107C22.5 18.1072 22.5 18.1036 22.5 18.1C22.5 18.0964 22.5 18.0927 22.5 18.0891C22.5 18.0854 22.5 18.0817 22.5 18.078C22.5 18.0743 22.5 18.0706 22.5 18.0668C22.5 18.063 22.5 18.0592 22.5 18.0554C22.5 18.0516 22.5 18.0478 22.5 18.0439C22.5 18.0401 22.5 18.0362 22.5 18.0322C22.5 18.0283 22.5 18.0244 22.5 18.0204C22.5 18.0165 22.5 18.0125 22.5 18.0085C22.5 18.0045 22.5 18.0004 22.5 17.9964C22.5 17.9923 22.5 17.9882 22.5 17.9841C22.5 17.98 22.5 17.9758 22.5 17.9717C22.5 17.9675 22.5 17.9633 22.5 17.9591C22.5 17.9549 22.5 17.9507 22.5 17.9464C22.5 17.9421 22.5 17.9379 22.5 17.9336C22.5 17.9292 22.5 17.9249 22.5 17.9206C22.5 17.9162 22.5 17.9118 22.5 17.9074C22.5 17.903 22.5 17.8986 22.5 17.8941C22.5 17.8897 22.5 17.8852 22.5 17.8807C22.5 17.8762 22.5 17.8717 22.5 17.8671C22.5 17.8626 22.5 17.858 22.5 17.8534C22.5 17.8488 22.5 17.8442 22.5 17.8396C22.5 17.8349 22.5 17.8302 22.5 17.8256C22.5 17.8209 22.5 17.8162 22.5 17.8114C22.5 17.8067 22.5 17.8019 22.5 17.7971C22.5 17.7924 22.5 17.7876 22.5 17.7827C22.5 17.7779 22.5 17.773 22.5 17.7682C22.5 17.7633 22.5 17.7584 22.5 17.7535C22.5 17.7486 22.5 17.7436 22.5 17.7387C22.5 17.7337 22.5 17.7287 22.5 17.7237C22.5 17.7187 22.5 17.7136 22.5 17.7086C22.5 17.7035 22.5 17.6985 22.5 17.6934C22.5 17.6883 22.5 17.6831 22.5 17.678C22.5 17.6728 22.5 17.6677 22.5 17.6625C22.5 17.6573 22.5 17.6521 22.5 17.6468C22.5 17.6416 22.5 17.6364 22.5 17.6311C22.5 17.6258 22.5 17.6205 22.5 17.6152C22.5 17.6098 22.5 17.6045 22.5 17.5991C22.5 17.5938 22.5 17.5884 22.5 17.583C22.5 17.5776 22.5 17.5721 22.5 17.5667C22.5 17.5612 22.5 17.5558 22.5 17.5503C22.5 17.5448 22.5 17.5392 22.5 17.5337C22.5 17.5282 22.5 17.5226 22.5 17.517C22.5 17.5115 22.5 17.5059 22.5 17.5002C22.5 17.4946 22.5 17.489 22.5 17.4833C22.5 17.4776 22.5 17.4719 22.5 17.4662C22.5 17.4605 22.5 17.4548 22.5 17.4491C22.5 17.4433 22.5 17.4375 22.5 17.4317C22.5 17.426 22.5 17.4201 22.5 17.4143C22.5 17.4085 22.5 17.4026 22.5 17.3968C22.5 17.3909 22.5 17.385 22.5 17.3791C22.5 17.3732 22.5 17.3672 22.5 17.3613C22.5 17.3553 22.5 17.3494 22.5 17.3434C22.5 17.3374 22.5 17.3314 22.5 17.3253C22.5 17.3193 22.5 17.3132 22.5 17.3072C22.5 17.3011 22.5 17.295 22.5 17.2889C22.5 17.2828 22.5 17.2766 22.5 17.2705C22.5 17.2643 22.5 17.2581 22.5 17.252C22.5 17.2458 22.5 17.2396 22.5 17.2333C22.5 17.2271 22.5 17.2208 22.5 17.2146C22.5 17.2083 22.5 17.202 22.5 17.1957C22.5 17.1894 22.5 17.1831 22.5 17.1767C22.5 17.1704 22.5 17.164 22.5 17.1576C22.5 17.1512 22.5 17.1448 22.5 17.1384C22.5 17.132 22.5 17.1255 22.5 17.1191C22.5 17.1126 22.5 17.1061 22.5 17.0996C22.5 17.0931 22.5 17.0866 22.5 17.0801C22.5 17.0735 22.5 17.067 22.5 17.0604C22.5 17.0538 22.5 17.0473 22.5 17.0406C22.5 17.034 22.5 17.0274 22.5 17.0208C22.5 17.0141 22.5 17.0074 22.5 17.0008C22.5 16.9941 22.5 16.9874 22.5 16.9807C22.5 16.9739 22.5 16.9672 22.5 16.9604C22.5 16.9537 22.5 16.9469 22.5 16.9401C22.5 16.9333 22.5 16.9265 22.5 16.9197C22.5 16.9129 22.5 16.906 22.5 16.8992C22.5 16.8923 22.5 16.8854 22.5 16.8785C22.5 16.8716 22.5 16.8647 22.5 16.8578C22.5 16.8508 22.5 16.8439 22.5 16.8369C22.5 16.83 22.5 16.823 22.5 16.816C22.5 16.809 22.5 16.802 22.5 16.7949C22.5 16.7879 22.5 16.7808 22.5 16.7738C22.5 16.7667 22.5 16.7596 22.5 16.7525C22.5 16.7454 22.5 16.7383 22.5 16.7311C22.5 16.724 22.5 16.7168 22.5 16.7097C22.5 16.7025 22.5 16.6953 22.5 16.6881C22.5 16.6809 22.5 16.6737 22.5 16.6664C22.5 16.6592 22.5 16.652 22.5 16.6447C22.5 16.6374 22.5 16.6301 22.5 16.6228C22.5 16.6155 22.5 16.6082 22.5 16.6009C22.5 16.5935 22.5 16.5862 22.5 16.5788C22.5 16.5715 22.5 16.5641 22.5 16.5567C22.5 16.5493 22.5 16.5419 22.5 16.5344C22.5 16.527 22.5 16.5195 22.5 16.5121C22.5 16.5046 22.5 16.4971 22.5 16.4897C22.5 16.4822 22.5 16.4746 22.5 16.4671C22.5 16.4596 22.5 16.4521 22.5 16.4445C22.5 16.4369 22.5 16.4294 22.5 16.4218C22.5 16.4142 22.5 16.4066 22.5 16.399C22.5 16.3914 22.5 16.3837 22.5 16.3761C22.5 16.3684 22.5 16.3608 22.5 16.3531C22.5 16.3454 22.5 16.3377 22.5 16.33C22.5 16.3223 22.5 16.3146 22.5 16.3069C22.5 16.2991 22.5 16.2914 22.5 16.2836C22.5 16.2759 22.5 16.2681 22.5 16.2603C22.5 16.2525 22.5 16.2447 22.5 16.2369C22.5 16.229 22.5 16.2212 22.5 16.2133C22.5 16.2055 22.5 16.1976 22.5 16.1897C22.5 16.1819 22.5 16.174 22.5 16.1661C22.5 16.1582 22.5 16.1502 22.5 16.1423C22.5 16.1344 22.5 16.1264 22.5 16.1184C22.5 16.1105 22.5 16.1025 22.5 16.0945C22.5 16.0865 22.5 16.0785 22.5 16.0705C22.5 16.0625 22.5 16.0544 22.5 16.0464C22.5 16.0383 22.5 16.0303 22.5 16.0222C22.5 16.0141 22.5 16.0061 22.5 15.998C22.5 15.9899 22.5 15.9817 22.5 15.9736C22.5 15.9655 22.5 15.9573 22.5 15.9492C22.5 15.941 22.5 15.9329 22.5 15.9247C22.5 15.9165 22.5 15.9083 22.5 15.9001C22.5 15.8919 22.5 15.8837 22.5 15.8755C22.5 15.8672 22.5 15.859 22.5 15.8507C22.5 15.8425 22.5 15.8342 22.5 15.8259C22.5 15.8177 22.5 15.8094 22.5 15.8011C22.5 15.7927 22.5 15.7844 22.5 15.7761C22.5 15.7678 22.5 15.7594 22.5 15.7511C22.5 15.7427 22.5 15.7343 22.5 15.726C22.5 15.7176 22.5 15.7092 22.5 15.7008C22.5 15.6924 22.5 15.684 22.5 15.6755C22.5 15.6671 22.5 15.6587 22.5 15.6502C22.5 15.6418 22.5 15.6333 22.5 15.6248C22.5 15.6164 22.5 15.6079 22.5 15.5994C22.5 15.5909 22.5 15.5824 22.5 15.5738C22.5 15.5653 22.5 15.5568 22.5 15.5482C22.5 15.5397 22.5 15.5311 22.5 15.5226C22.5 15.514 22.5 15.5054 22.5 15.4968C22.5 15.4883 22.5 15.4797 22.5 15.471C22.5 15.4624 22.5 15.4538 22.5 15.4452C22.5 15.4365 22.5 15.4279 22.5 15.4192C22.5 15.4106 22.5 15.4019 22.5 15.3932C22.5 15.3846 22.5 15.3759 22.5 15.3672C22.5 15.3585 22.5 15.3498 22.5 15.3411C22.5 15.3323 22.5 15.3236 22.5 15.3149C22.5 15.3061 22.5 15.2974 22.5 15.2886C22.5 15.2799 22.5 15.2711 22.5 15.2623C22.5 15.2535 22.5 15.2447 22.5 15.2359C22.5 15.2271 22.5 15.2183 22.5 15.2095C22.5 15.2007 22.5 15.1918 22.5 15.183C22.5 15.1742 22.5 15.1653 22.5 15.1565C22.5 15.1476 22.5 15.1387 22.5 15.1298C22.5 15.121 22.5 15.1121 22.5 15.1032C22.5 15.0943 22.5 15.0854 22.5 15.0765C22.5 15.0675 22.5 15.0586 22.5 15.0497C22.5 15.0407 22.5 15.0318 22.5 15.0228C22.5 15.0139 22.5 15.0049 22.5 14.9959C22.5 14.987 22.5 14.978 22.5 14.969C22.5 14.96 22.5 14.951 22.5 14.942C22.5 14.933 22.5 14.924 22.5 14.9149C22.5 14.9059 22.5 14.8969 22.5 14.8878C22.5 14.8788 22.5 14.8697 22.5 14.8607C22.5 14.8516 22.5 14.8425 22.5 14.8335C22.5 14.8244 22.5 14.8153 22.5 14.8062C22.5 14.7971 22.5 14.788 22.5 14.7789C22.5 14.7698 22.5 14.7606 22.5 14.7515C22.5 14.7424 22.5 14.7333 22.5 14.7241C22.5 14.715 22.5 14.7058 22.5 14.6967C22.5 14.6875 22.5 14.6783 22.5 14.6691C22.5 14.66 22.5 14.6508 22.5 14.6416C22.5 14.6324 22.5 14.6232 22.5 14.614C22.5 14.6048 22.5 14.5956 22.5 14.5864C22.5 14.5771 22.5 14.5679 22.5 14.5587C22.5 14.5494 22.5 14.5402 22.5 14.5309C22.5 14.5217 22.5 14.5124 22.5 14.5032C22.5 14.4939 22.5 14.4846 22.5 14.4753C22.5 14.4661 22.5 14.4568 22.5 14.4475C22.5 14.4382 22.5 14.4289 22.5 14.4196C22.5 14.4103 22.5 14.401 22.5 14.3916C22.5 14.3823 22.5 14.373 22.5 14.3636C22.5 14.3543 22.5 14.345 22.5 14.3356C22.5 14.3263 22.5 14.3169 22.5 14.3076C22.5 14.2982 22.5 14.2888 22.5 14.2795C22.5 14.2701 22.5 14.2607 22.5 14.2513C22.5 14.2419 22.5 14.2325 22.5 14.2231C22.5 14.2138 22.5 14.2043 22.5 14.1949C22.5 14.1855 22.5 14.1761 22.5 14.1667C22.5 14.1573 22.5 14.1478 22.5 14.1384C22.5 14.129 22.5 14.1195 22.5 14.1101C22.5 14.1006 22.5 14.0912 22.5 14.0817C22.5 14.0723 22.5 14.0628 22.5 14.0534C22.5 14.0439 22.5 14.0344 22.5 14.0249C22.5 14.0155 22.5 14.006 22.5 13.9965C22.5 13.987 22.5 13.9775 22.5 13.968C22.5 13.9585 22.5 13.949 22.5 13.9395C22.5 13.93 22.5 13.9205 22.5 13.911C22.5 13.9014 22.5 13.8919 22.5 13.8824C22.5 13.8729 22.5 13.8633 22.5 13.8538C22.5 13.8443 22.5 13.8347 22.5 13.8252C22.5 13.8156 22.5 13.8061 22.5 13.7965C22.5 13.787 22.5 13.7774 22.5 13.7678C22.5 13.7583 22.5 13.7487 22.5 13.7391C22.5 13.7296 22.5 13.72 22.5 13.7104C22.5 13.7008 22.5 13.6912 22.5 13.6817C22.5 13.6721 22.5 13.6625 22.5 13.6529C22.5 13.6433 22.5 13.6337 22.5 13.6241C22.5 13.6145 22.5 13.6049 22.5 13.5952C22.5 13.5856 22.5 13.576 22.5 13.5664C22.5 13.5568 22.5 13.5472 22.5 13.5375C22.5 13.5279 22.5 13.5183 22.5 13.5086C22.5 13.499 22.5 13.4894 22.5 13.4797C22.5 13.4701 22.5 13.4604 22.5 13.4508C22.5 13.4412 22.5 13.4315 22.5 13.4219C22.5 13.4122 22.5 13.4025 22.5 13.3929C22.5 13.3832 22.5 13.3736 22.5 13.3639C22.5 13.3542 22.5 13.3446 22.5 13.3349C22.5 13.3252 22.5 13.3156 22.5 13.3059C22.5 13.2962 22.5 13.2865 22.5 13.2769C22.5 13.2672 22.5 13.2575 22.5 13.2478C22.5 13.2381 22.5 13.2284 22.5 13.2187C22.5 13.2091 22.5 13.1994 22.5 13.1897C22.5 13.18 22.5 13.1703 22.5 13.1606C22.5 13.1509 22.5 13.1412 22.5 13.1315C22.5 13.1218 22.5 13.1121 22.5 13.1024C22.5 13.0927 22.5 13.083 22.5 13.0732C22.5 13.0635 22.5 13.0538 22.5 13.0441C22.5 13.0344 22.5 13.0247 22.5 13.015C22.5 13.0053 22.5 12.9955 22.5 12.9858C22.5 12.9761 22.5 12.9664 22.5 12.9567C22.5 12.9469 22.5 12.9372 22.5 12.9275C22.5 12.9178 22.5 12.908 22.5 12.8983C22.5 12.8886 22.5 12.8789 22.5 12.8691C22.5 12.8594 22.5 12.8497 22.5 12.8399C22.5 12.8302 22.5 12.8205 22.5 12.8107C22.5 12.801 22.5 12.7913 22.5 12.7815C22.5 12.7718 22.5 12.7621 22.5 12.7523C22.5 12.7426 22.5 12.7329 22.5 12.7231C22.5 12.7134 22.5 12.7037 22.5 12.6939C22.5 12.6842 22.5 12.6745 22.5 12.6647C22.5 12.655 22.5 12.6452 22.5 12.6355C22.5 12.6258 22.5 12.616 22.5 12.6063C22.5 12.5966 22.5 12.5868 22.5 12.5771C22.5 12.5673 22.5 12.5576 22.5 12.5479C22.5 12.5381 22.5 12.5284 22.5 12.5187C22.5 12.5089 22.5 12.4992 22.5 12.4895C22.5 12.4797 22.5 12.47 22.5 12.4602C22.5 12.4505 22.5 12.4408 22.5 12.431C22.5 12.4213 22.5 12.4116 22.5 12.4018C22.5 12.3921 22.5 12.3824 22.5 12.3727C22.5 12.3629 22.5 12.3532 22.5 12.3435C22.5 12.3337 22.5 12.324 22.5 12.3143C22.5 12.3046 22.5 12.2948 22.5 12.2851C22.5 12.2754 22.5 12.2657 22.5 12.2559C22.5 12.2462 22.5 12.2365 22.5 12.2268C22.5 12.2171 22.5 12.2073 22.5 12.1976C22.5 12.1879 22.5 12.1782 22.5 12.1685C22.5 12.1588 22.5 12.1491 22.5 12.1393C22.5 12.1296 22.5 12.1199 22.5 12.1102C22.5 12.1005 22.5 12.0908 22.5 12.0811C22.5 12.0714 22.5 12.0617 22.5 12.052C22.5 12.0423 22.5 12.0326 22.5 12.0229C22.5 12.0132 22.5 12.0035 22.5 11.9938C22.5 11.9841 22.5 11.9745 22.5 11.9648C22.5 11.9551 22.5 11.9454 22.5 11.9357C22.5 11.926 22.5 11.9164 22.5 11.9067C22.5 11.897 22.5 11.8873 22.5 11.8777C22.5 11.868 22.5 11.8583 22.5 11.8487C22.5 11.839 22.5 11.8293 22.5 11.8197C22.5 11.81 22.5 11.8004 22.5 11.7907C22.5 11.7811 22.5 11.7714 22.5 11.7618C22.5 11.7521 22.5 11.7425 22.5 11.7328C22.5 11.7232 22.5 11.7136 22.5 11.7039C22.5 11.6943 22.5 11.6847 22.5 11.675C22.5 11.6654 22.5 11.6558 22.5 11.6462C22.5 11.6366 22.5 11.6269 22.5 11.6173C22.5 11.6077 22.5 11.5981 22.5 11.5885C22.5 11.5789 22.5 11.5693 22.5 11.5597C22.5 11.5501 22.5 11.5405 22.5 11.5309C22.5 11.5213 22.5 11.5117 22.5 11.5022C22.5 11.4926 22.5 11.483 22.5 11.4734C22.5 11.4639 22.5 11.4543 22.5 11.4447C22.5 11.4352 22.5 11.4256 22.5 11.416C22.5 11.4065 22.5 11.3969 22.5 11.3874C22.5 11.3778 22.5 11.3683 22.5 11.3588C22.5 11.3492 22.5 11.3397 22.5 11.3302C22.5 11.3206 22.5 11.3111 22.5 11.3016C22.5 11.2921 22.5 11.2826 22.5 11.273C22.5 11.2635 22.5 11.254 22.5 11.2445C22.5 11.235 22.5 11.2255 22.5 11.2161C22.5 11.2066 22.5 11.1971 22.5 11.1876C22.5 11.1781 22.5 11.1687 22.5 11.1592C22.5 11.1497 22.5 11.1403 22.5 11.1308C22.5 11.1213 22.5 11.1119 22.5 11.1025C22.5 11.093 22.5 11.0836 22.5 11.0741C22.5 11.0647 22.5 11.0553 22.5 11.0458C22.5 11.0364 22.5 11.027 22.5 11.0176C22.5 11.0082 22.5 10.9988 22.5 10.9894C22.5 10.98 22.5 10.9706 22.5 10.9612C22.5 10.9518 22.5 10.9424 22.5 10.9331C22.5 10.9237 22.5 10.9143 22.5 10.905C22.5 10.8956 22.5 10.8862 22.5 10.8769C22.5 10.8676 22.5 10.8582 22.5 10.8489C22.5 10.8395 22.5 10.8302 22.5 10.8209C22.5 10.8116 22.5 10.8023 22.5 10.7929C22.5 10.7836 22.5 10.7743 22.5 10.765C22.5 10.7557 22.5 10.7465 22.5 10.7372C22.5 10.7279 22.5 10.7186 22.5 10.7094C22.5 10.7001 22.5 10.6908 22.5 10.6816C22.5 10.6723 22.5 10.6631 22.5 10.6538C22.5 10.6446 22.5 10.6354 22.5 10.6262C22.5 10.6169 22.5 10.6077 22.5 10.5985C22.5 10.5893 22.5 10.5801 22.5 10.5709C22.5 10.5617 22.5 10.5525 22.5 10.5434C22.5 10.5342 22.5 10.525 22.5 10.5158C22.5 10.5067 22.5 10.4975 22.5 10.4884C22.5 10.4792 22.5 10.4701 22.5 10.461C22.5 10.4518 22.5 10.4427 22.5 10.4336C22.5 10.4245 22.5 10.4154 22.5 10.4063C22.5 10.3972 22.5 10.3881 22.5 10.379C22.5 10.3699 22.5 10.3609 22.5 10.3518C22.5 10.3428 22.5 10.3337 22.5 10.3247C22.5 10.3156 22.5 10.3066 22.5 10.2975C22.5 10.2885 22.5 10.2795 22.5 10.2705C22.5 10.2615 22.5 10.2525 22.5 10.2435C22.5 10.2345 22.5 10.2255 22.5 10.2165C22.5 10.2076 22.5 10.1986 22.5 10.1896C22.5 10.1807 22.5 10.1717 22.5 10.1628C22.5 10.1539 22.5 10.1449 22.5 10.136C22.5 10.1271 22.5 10.1182 22.5 10.1093C22.5 10.1004 22.5 10.0915 22.5 10.0826C22.5 10.0737 22.5 10.0649 22.5 10.056C22.5 10.0471 22.5 10.0383 22.5 10.0294C22.5 10.0206 22.5 10.0118 22.5 10.0029C22.5 9.99411 22.5 9.9853 22.5 9.9765C22.5 9.9677 22.5 9.9589 22.5 9.95012C22.5 9.94134 22.5 9.93257 22.5 9.92381C22.5 9.91505 22.5 9.90629 22.5 9.89755C22.5 9.88881 22.5 9.88008 22.5 9.87136C22.5 9.86264 22.5 9.85393 22.5 9.84523C22.5 9.83653 22.5 9.82784 22.5 9.81917C22.5 9.81049 22.5 9.80182 22.5 9.79317C22.5 9.78451 22.5 9.77586 22.5 9.76723C22.5 9.75859 22.5 9.74997 22.5 9.74136C22.5 9.73275 22.5 9.72414 22.5 9.71555C22.5 9.70696 22.5 9.69838 22.5 9.68982C22.5 9.68125 22.5 9.67269 22.5 9.66415C22.5 9.6556 22.5 9.64707 22.5 9.63854C22.5 9.63002 22.5 9.62151 22.5 9.61301C22.5 9.60451 22.5 9.59602 22.5 9.58755C22.5 9.57907 22.5 9.57061 22.5 9.56215C22.5 9.5537 22.5 9.54526 22.5 9.53683C22.5 9.5284 22.5 9.51998 22.5 9.51158C22.5 9.50317 22.5 9.49478 22.5 9.4864C22.5 9.47802 22.5 9.46965 22.5 9.46129C22.5 9.45294 22.5 9.44459 22.5 9.43626C22.5 9.42793 22.5 9.41961 22.5 9.4113C22.5 9.40299 22.5 9.3947 22.5 9.38641C22.5 9.37813 22.5 9.36986 22.5 9.3616C22.5 9.35335 22.5 9.3451 22.5 9.33687C22.5 9.32864 22.5 9.32042 22.5 9.31221C22.5 9.30401 22.5 9.29581 22.5 9.28763C22.5 9.27945 22.5 9.27129 22.5 9.26313C22.5 9.25498 22.5 9.24684 22.5 9.23871C22.5 9.23058 22.5 9.22246 22.5 9.21436C22.5 9.20626 22.5 9.19817 22.5 9.1901C22.5 9.18202 22.5 9.17396 22.5 9.16591C22.5 9.15787 22.5 9.14983 22.5 9.14181C22.5 9.13379 22.5 9.12578 22.5 9.11779C22.5 9.1098 22.5 9.10182 22.5 9.09385C22.5 9.08588 22.5 9.07793 22.5 9.06999C22.5 9.06206 22.5 9.05413 22.5 9.04622C22.5 9.03831 22.5 9.03042 22.5 9.02253C22.5 9.01465 22.5 9.00678 22.5 8.99893C22.5 8.99108 22.5 8.98324 22.5 8.97541C22.5 8.96759 22.5 8.95978 22.5 8.95198C22.5 8.94419 22.5 8.93641 22.5 8.92864C22.5 8.92087 22.5 8.91312 22.5 8.90538C22.5 8.89765 22.5 8.88992 22.5 8.88222C22.5 8.87451 22.5 8.86681 22.5 8.85914C22.5 8.85146 22.5 8.84379 22.5 8.83615C22.5 8.8285 22.5 8.82087 22.5 8.81325C22.5 8.80563 22.5 8.79803 22.5 8.79044C22.5 8.78285 22.5 8.77528 22.5 8.76772C22.5 8.76016 22.5 8.75262 22.5 8.7451C22.5 8.73757 22.5 8.73006 22.5 8.72256C22.5 8.71507 22.5 8.70759 22.5 8.70013C22.5 8.69266 22.5 8.68521 22.5 8.67778C22.5 8.67035 22.5 8.66293 22.5 8.65553C22.5 8.64813 22.5 8.64075 22.5 8.63338C22.5 8.62601 22.5 8.61866 22.5 8.61132C22.5 8.60398 22.5 8.59666 22.5 8.58936C22.5 8.58205 22.5 8.57476 22.5 8.56749C22.5 8.56022 22.5 8.55297 22.5 8.54573C22.5 8.53849 22.5 8.53126 22.5 8.52406C22.5 8.51685 22.5 8.50966 22.5 8.50249C22.5 8.49532 22.5 8.48816 22.5 8.48102C22.5 8.47388 22.5 8.46676 22.5 8.45965C22.5 8.45255 22.5 8.44546 22.5 8.43839C22.5 8.43131 22.5 8.42426 22.5 8.41722C22.5 8.41018 22.5 8.40316 22.5 8.39616C22.5 8.38916 22.5 8.38217 22.5 8.3752C22.5 8.36823 22.5 8.36128 22.5 8.35434C22.5 8.34741 22.5 8.34049 22.5 8.33359C22.5 8.32669 22.5 8.31981 22.5 8.31295C22.5 8.30608 22.5 8.29924 22.5 8.29241C22.5 8.28558 22.5 8.27877 22.5 8.27197C22.5 8.26518 22.5 8.25841 22.5 8.25165C22.5 8.24489 22.5 8.23815 22.5 8.23143C22.5 8.22471 22.5 8.218 22.5 8.21132C22.5 8.20463 22.5 8.19797 22.5 8.19132C22.5 8.18467 22.5 8.17804 22.5 8.17143C22.5 8.16481 22.5 8.15822 22.5 8.15165C22.5 8.14507 22.5 8.13851 22.5 8.13197C22.5 8.12544 22.5 8.11892 22.5 8.11242C22.5 8.10592 22.5 8.09943 22.5 8.09297C22.5 8.08651 22.5 8.08006 22.5 8.07364C22.5 8.06721 22.5 8.0608 22.5 8.05442C22.5 8.04803 22.5 8.04166 22.5 8.03531C22.5 8.02896 22.5 8.02263 22.5 8.01632C22.5 8.01001 22.5 8.00372 22.5 7.99744C22.5 7.99117 22.5 7.98492 22.5 7.97868C22.5 7.97245 22.5 7.96624 22.5 7.96004C22.5 7.95385 22.5 7.94767 22.5 7.94152C22.5 7.93536 22.5 7.92923 22.5 7.92311C22.5 7.91699 22.5 7.9109 22.5 7.90482C22.5 7.89875 22.5 7.89269 22.5 7.88665C22.5 7.88062 22.5 7.8746 22.5 7.8686C22.5 7.86261 22.5 7.85663 22.5 7.85068C22.5 7.84472 22.5 7.83879 22.5 7.83287C22.5 7.82695 22.5 7.82106 22.5 7.81519C22.5 7.80931 22.5 7.80346 22.5 7.79762C22.5 7.79179 22.5 7.78598 22.5 7.78018C22.5 7.77439 22.5 7.76862 22.5 7.76287C22.5 7.75712 22.5 7.75139 22.5 7.74568C22.5 7.73997 22.5 7.73428 22.5 7.72861C22.5 7.72295 22.5 7.7173 22.5 7.71168C22.5 7.70605 22.5 7.70045 22.5 7.69486C22.5 7.68928 22.5 7.68372 22.5 7.67818C22.5 7.67264 22.5 7.66712 22.5 7.66162C22.5 7.65612 22.5 7.65065 22.5 7.64519C22.5 7.63974 22.5 7.6343 22.5 7.62889C22.5 7.62348 22.5 7.61809 22.5 7.61272C22.5 7.60735 22.5 7.60201 22.5 7.59668C22.5 7.59136 22.5 7.58606 22.5 7.58077C22.5 7.57549 22.5 7.57023 22.5 7.565C22.5 7.55976 22.5 7.55455 22.5 7.54935C22.5 7.54416 22.5 7.53899 22.5 7.53384C22.5 7.52869 22.5 7.52357 22.5 7.51846C22.5 7.51336 22.5 7.50828 22.5 7.50322C22.5 7.49816 22.5 7.49313 22.5 7.48811C22.5 7.4831 22.5 7.47811 22.5 7.47314C22.5 7.46817 22.5 7.46323 22.5 7.4583C22.5 7.45338 22.5 7.44848 22.5 7.4436H21.5ZM21.199 7.00364C21.3796 7.06916 21.5 7.23862 21.5 7.4436H22.5C22.5 6.83078 22.1283 6.27699 21.5401 6.06359L21.199 7.00364ZM2.5 7.44806C2.5 7.24038 2.62282 7.06826 2.80095 7.00364L2.4599 6.06359C1.86926 6.27788 1.5 6.83794 1.5 7.44806H2.5Z" fill="#515151"/>
<path id="Shape_2" d="M14.2578 4.8999V10.416H17V5.49951" stroke="#515151"/>
<path id="Shape_3" d="M12 6.15869V19.0942" stroke="#515151"/>
</g>
</g>
</g>
</svg>
