<svg width="20" height="20" viewBox="0 0 20 20" fill="none" xmlns="http://www.w3.org/2000/svg">
<path id="Vector 108" d="M1.5 13.3429V13.3429C0.947715 13.3429 0.5 12.8951 0.5 12.3429V6.08571C0.5 4.98114 1.39543 4.08571 2.5 4.08571H6.5M1.5 13.3429V17C1.5 18.1046 2.39543 19 3.5 19H16.5C17.6046 19 18.5 18.1046 18.5 17V13.3429M1.5 13.3429H8.5M18.5 13.3429V13.3429C19.0523 13.3429 19.5 12.8951 19.5 12.3429V6.08571C19.5 4.98114 18.6046 4.08571 17.5 4.08571H13.5M18.5 13.3429H11.5M6.5 4.08571V2C6.5 1.44771 6.94772 1 7.5 1H12.5C13.0523 1 13.5 1.44772 13.5 2V4.08571M6.5 4.08571H13.5M11.5 13.3V13.3857C11.5 14.2141 10.8284 14.8857 10 14.8857V14.8857C9.17157 14.8857 8.5 14.2141 8.5 13.3857V13.3C8.5 12.4716 9.17157 11.8 10 11.8V11.8C10.8284 11.8 11.5 12.4716 11.5 13.3Z" stroke="#515151" stroke-linecap="round" stroke-linejoin="round"/>
</svg>
