<svg width="18" height="22" viewBox="0 0 18 22" fill="none" xmlns="http://www.w3.org/2000/svg">
<path id="Icon" d="M7.60497 4.17376L6.52368 1.92399M7.60497 4.17376C9.63205 5.04429 11.2739 6.62148 12.2252 8.61196C13.0927 10.6403 13.1939 12.9148 12.51 15.0122M7.60497 4.17376C4.61203 5.52825 3.2838 9.05253 4.63828 12.0455M7.60497 4.17376C10.5979 2.81928 14.1002 4.15745 15.4547 7.15039M7.60497 4.17376C6.80475 6.41449 6.88683 8.41622 7.86784 10.5839C8.84884 12.7516 10.2985 14.1344 12.51 15.0122M12.51 15.0122L13.6761 17.4947M12.51 15.0122C15.5029 13.6577 16.8092 10.1433 15.4547 7.15039M12.51 15.0122C9.51705 16.3666 5.99276 15.0384 4.63828 12.0455M8.53409 1.38006C1.99685 2.36628 -1.17658 9.93263 2.56774 14.8175C4.61399 17.4871 7.73668 18.3686 10.6384 18.1478M16.6645 15.7132C15.3022 17.0225 13.0464 17.9647 10.6384 18.1478M10.6384 18.1478L10.6567 21.4884L13.6761 21.4752L7.69967 21.5013M15.4547 7.15039C14.5842 9.17747 13.029 10.8094 11.0385 11.7606C9.01012 12.6282 6.73569 12.7294 4.63828 12.0455M15.4547 7.15039C13.0927 6.3254 11.3558 6.39374 9.07648 7.42528C6.79712 8.45683 5.57744 9.72652 4.63828 12.0455" stroke="#515151" stroke-linecap="round" stroke-linejoin="round"/>
</svg>
