<svg width="24" height="20" viewBox="0 0 24 20" fill="none" xmlns="http://www.w3.org/2000/svg">
<path id="Vector 107" d="M19.8 8.28571V13.7293C19.8 14.0752 19.6211 14.3967 19.3271 14.579L12.7271 18.673C12.4042 18.8733 11.9958 18.8733 11.6729 18.673L5.07288 14.579C4.77885 14.3967 4.6 14.0752 4.6 13.7293V8.36225L3 7.56633M19.8 8.28571L12.6481 11.9155C12.3662 12.0585 12.0332 12.0599 11.7501 11.9191L3 7.56633M19.8 8.28571L23 6.57143L12.6502 1.23227C12.3672 1.08626 12.0315 1.0838 11.7464 1.22564L1 6.57143L3 7.56633M3 7.56633L1.4 7.85714V17.2857M3 7.56633L12.2 5.71429" stroke="#515151" stroke-linecap="round" stroke-linejoin="round"/>
</svg>
