<svg width="24" height="24" viewBox="0 0 24 24" fill="none" xmlns="http://www.w3.org/2000/svg">
<g id="Frame">
<path id="Vector" d="M21 15C21 15.5304 20.7893 16.0391 20.4142 16.4142C20.0391 16.7893 19.5304 17 19 17H7.41421C7.149 17 6.89464 17.1054 6.70711 17.2929L3 21V5C3 4.46957 3.21071 3.96086 3.58579 3.58579C3.96086 3.21071 4.46957 3 5 3H19C19.5304 3 20.0391 3.21071 20.4142 3.58579C20.7893 3.96086 21 4.46957 21 5V15Z" stroke="#515151" stroke-linecap="round" stroke-linejoin="round"/>
<g id="Group 1000014501">
<path id="Icon" d="M12 5C13.5 6 13.9614 8.14602 14 10C13.9614 11.854 13.5 14 12 15M12 5C9.23858 5 7 7.23858 7 10M12 5C14.7614 5 17 7.23858 17 10M12 5C10.5371 6.51495 9.97998 7.89405 9.97998 10C9.97998 12.106 10.5371 13.485 12 15M12 15C14.7614 15 17 12.7614 17 10M12 15C9.23858 15 7 12.7614 7 10M17 10H7" stroke="#515151" stroke-linecap="round" stroke-linejoin="round"/>
</g>
</g>
</svg>
