<svg width="16" height="22" viewBox="0 0 16 22" fill="none" xmlns="http://www.w3.org/2000/svg">
<path id="Vector 111" d="M8.00012 15.7826H11.4877V15.6211C11.4877 14.885 11.7646 14.1807 12.2518 13.6289C13.5201 12.1921 15.2267 9.98717 14.9751 7.52174C14.5969 3.81703 11.734 1 8.00012 1C4.26627 1 1.40305 3.81703 1.02493 7.52174C0.779464 9.92668 2.39747 12.1756 3.65431 13.5779C4.18626 14.1715 4.51252 14.9262 4.51252 15.7233V15.7826H8.00012ZM8.00012 15.7826V11M8.00012 11C8.96319 11 9.74391 10.2214 9.74391 9.26087C9.74391 8.30037 8.96319 7.52174 8.00012 7.52174C7.03704 7.52174 6.25632 8.30037 6.25632 9.26087C6.25632 10.2214 7.03704 11 8.00012 11ZM4.5124 19.0435L4.51252 17.087H11.4877V19.0435M4.5124 19.0435L4.51235 19.9999C4.51231 20.5522 4.96004 21 5.51235 21H10.4877C11.04 21 11.4877 20.5523 11.4877 20V19.0435M4.5124 19.0435H11.4877" stroke="#515151" stroke-linecap="round" stroke-linejoin="round"/>
</svg>
