<svg width="20" height="22" viewBox="0 0 20 22" fill="none" xmlns="http://www.w3.org/2000/svg">
<path id="Vector" d="M6.625 18.0588C6.625 19.6832 5.3658 21 3.8125 21C2.2592 21 1 19.6832 1 18.0588C1 16.4345 2.2592 15.1176 3.8125 15.1176C5.3658 15.1176 6.625 16.4345 6.625 18.0588ZM6.625 18.0588V7.88235M19 16.8824C19 18.5067 17.7408 19.8235 16.1875 19.8235C14.6342 19.8235 13.375 18.5067 13.375 16.8824C13.375 15.258 14.6342 13.9412 16.1875 13.9412C17.7408 13.9412 19 15.258 19 16.8824ZM19 16.8824V4.35294M19 4.35294V2.32508C19 1.6609 18.3644 1.18126 17.7257 1.36343L7.35073 4.32243C6.9212 4.44493 6.625 4.83743 6.625 5.28408V7.88235M19 4.35294L12.8125 6.11765L6.625 7.88235" stroke="#515151" stroke-linecap="round" stroke-linejoin="round"/>
</svg>
