<svg width="22" height="18" viewBox="0 0 22 18" fill="none" xmlns="http://www.w3.org/2000/svg">
<g id="Icon">
<path d="M8.5 16.7241C6.5961 16.7241 5.86487 15.08 5.86487 13.5462C5.86487 12.0761 7.22457 10.7321 8.5 9.72412V9.72412C9.69607 8.77883 10.2941 8.30619 10.6391 8.19553C11.1824 8.02121 11.3176 8.02121 11.8609 8.19553C12.2059 8.30619 12.8039 8.77883 14 9.72412V9.72412C15.2754 10.7321 16.6757 12.0761 16.6757 13.5462C16.6757 15.08 15.9039 16.7241 14 16.7241C12.9069 16.7241 12.2131 15.7807 11.2703 15.7807C10.3275 15.7807 9.59309 16.7241 8.5 16.7241Z" stroke="#515151" stroke-linecap="round" stroke-linejoin="round"/>
<path d="M10.1892 3.48274C10.1892 4.70158 9.22116 5.68964 8.02703 5.68964C6.8329 5.68964 5.86487 4.70158 5.86487 3.48274C5.86487 2.26391 6.8329 1.27585 8.02703 1.27585C9.22116 1.27585 10.1892 2.26391 10.1892 3.48274Z" stroke="#515151" stroke-linecap="round" stroke-linejoin="round"/>
<path d="M16.5 3.49951C16.5 4.71835 15.532 5.70641 14.3378 5.70641C13.1437 5.70641 12.1757 4.71835 12.1757 3.49951C12.1757 2.28068 13.1437 1.29262 14.3378 1.29262C15.532 1.29262 16.5 2.28068 16.5 3.49951Z" stroke="#515151" stroke-linecap="round" stroke-linejoin="round"/>
<path d="M21 7.89654C21 9.11537 20.032 10.1034 18.8378 10.1034C17.6437 10.1034 16.6757 9.11537 16.6757 7.89654C16.6757 6.6777 17.6437 5.68964 18.8378 5.68964C20.032 5.68964 21 6.6777 21 7.89654Z" stroke="#515151" stroke-linecap="round" stroke-linejoin="round"/>
<path d="M5.32432 8.44826C5.32432 9.66709 4.35629 10.6552 3.16216 10.6552C1.96803 10.6552 0.999999 9.66709 0.999999 8.44826C0.999999 7.22942 1.96803 6.24136 3.16216 6.24136C4.35629 6.24136 5.32432 7.22942 5.32432 8.44826Z" stroke="#515151" stroke-linecap="round" stroke-linejoin="round"/>
</g>
</svg>
