<svg width="22" height="22" viewBox="0 0 22 22" fill="none" xmlns="http://www.w3.org/2000/svg">
<path id="Vector 112" d="M10.8091 8.9L13.5383 6.17074C13.9289 5.78022 14.562 5.78022 14.9526 6.17074L15.8293 7.04744C16.2198 7.43796 16.2198 8.07113 15.8293 8.46165L13.1 11.1909M10.8091 8.9L1.20711 18.502C0.816583 18.8925 0.816583 19.5257 1.20711 19.9162L2.0838 20.7929C2.47433 21.1834 3.10749 21.1834 3.49802 20.7929L13.1 11.1909M10.8091 8.9L13.1 11.1909M9.66364 2.40909L11.1909 4.31818M16.5364 0.5L15.7727 3.55455M18.4455 6.22727L21.5 5.46364M18.0636 9.66364L19.9727 11.1909" stroke="#515151" stroke-linecap="round" stroke-linejoin="round"/>
</svg>
