<svg width="177" height="35" viewBox="0 0 177 35" fill="none" xmlns="http://www.w3.org/2000/svg">
<g id="acv-logo" clip-path="url(#clip0_1665_1549)">
<path id="Path 66" d="M18.488 24.6307C18.488 23.5443 19.0558 23.3086 20.0976 23.9221C21.404 24.6521 22.7136 25.3761 24.0265 26.0943C24.0737 25.4807 24.6415 24.9607 25.7779 25.2443C26.867 25.4807 28.0498 25.7635 28.0498 25.7635C28.0498 25.7635 27.3867 24.3 27.1032 23.6385C26.5827 22.4578 27.1032 21.8914 27.5765 21.75C27.5765 21.75 26.8189 21.2307 26.3457 20.9C25.3046 20.1914 25.5408 19.4836 26.5827 19.0586C27.9553 18.4922 29.6594 17.6893 29.6594 17.6893C29.4667 17.5829 29.2993 17.4362 29.1685 17.2593C29.0378 17.0824 28.9469 16.8795 28.902 16.6643C28.857 16.4492 28.8592 16.2269 28.9082 16.0127C28.9573 15.7984 29.0521 15.5973 29.1861 15.4229C29.7587 14.5964 30.3426 13.7778 30.9375 12.9672H27.8135C27.613 12.9732 27.4135 12.9359 27.2289 12.8576C27.0442 12.7794 26.8787 12.6622 26.7437 12.5141C26.6088 12.366 26.5076 12.1905 26.4472 11.9996C26.3868 11.8088 26.3685 11.6072 26.3937 11.4086C26.3937 11.4086 24.5478 12.7307 23.2224 13.5807C22.1333 14.3365 21.0922 13.5807 21.2812 12.3057C21.5655 10.3221 21.8018 8.10286 21.8018 8.10286C21.6096 8.23884 21.3894 8.33026 21.1573 8.37047C20.9251 8.41067 20.6869 8.39864 20.4601 8.33525C20.2332 8.27185 20.0234 8.1587 19.846 8.00406C19.6685 7.84941 19.528 7.65718 19.4346 7.44141C18.677 5.78855 17.7777 3.85286 17.7777 3.85286C17.7777 3.85286 16.8784 5.78932 16.1208 7.44141C16.0308 7.6601 15.8919 7.85545 15.7149 8.0126C15.5378 8.16975 15.3272 8.28457 15.099 8.34834C14.8708 8.4121 14.631 8.42314 14.3979 8.3806C14.1647 8.33807 13.9444 8.24308 13.7536 8.10286C13.7536 8.10286 13.9906 10.3221 14.2741 12.3057C14.4631 13.5807 13.4221 14.2893 12.3329 13.5807C11.2731 12.8607 10.216 12.1366 9.16169 11.4086C9.18794 11.6034 9.172 11.8017 9.11495 11.9898C9.05791 12.178 8.96109 12.3518 8.83101 12.4995C8.70093 12.6473 8.54062 12.7654 8.36089 12.8461C8.18115 12.9268 7.98617 12.968 7.78908 12.9672H4.66585C4.66585 12.9672 5.75418 14.3836 6.4645 15.4221C6.59333 15.5984 6.6837 15.7996 6.72977 16.0128C6.77585 16.2261 6.77662 16.4466 6.73203 16.6601C6.68743 16.8737 6.59847 17.0755 6.47087 17.2526C6.34327 17.4298 6.17987 17.5783 5.99121 17.6885C5.99121 17.6885 7.69536 18.4443 9.06797 19.0578C10.0618 19.4828 10.3461 20.1914 9.25697 20.8992C8.88151 21.2081 8.48612 21.492 8.07337 21.7492C8.5939 21.8906 9.11444 22.4578 8.5939 23.6378C8.30962 24.2992 7.64733 25.7628 7.64733 25.7628C7.64733 25.7628 8.83093 25.4792 9.91926 25.2435C11.0556 25.007 11.6234 25.48 11.6707 26.0935C11.6707 26.0935 13.6591 24.9599 15.5995 23.9214C16.6406 23.355 17.2091 23.5435 17.2091 24.63V27.3214C17.2701 28.7553 16.9775 30.1822 16.357 31.4771C8.97269 30.7214 2.86566 24.7714 2.86566 16.98C2.86566 8.95209 9.58773 2.43568 17.8714 2.43568C26.1551 2.43568 32.8787 8.95286 32.8787 16.9807C32.8303 20.6071 31.4409 24.0879 28.9772 26.7549C26.5135 29.4219 23.1491 31.087 19.5299 31.4307V33.4143C28.3341 32.6115 35.2459 25.575 35.2459 16.9807C35.2459 7.86641 27.4348 0.5 17.873 0.5C8.26314 0.5 0.5 7.86641 0.5 16.9807C0.5 25.0086 6.51175 31.6664 14.5119 33.1779C15.8373 33.4143 16.7366 33.65 17.4469 34.5C18.299 32.9414 18.488 29.6365 18.488 27.7943V24.6307Z" fill="#E82C2A"/>
<path id="Path 67" d="M62.9382 2.4362H60.3348V13.4391H62.9382V2.4362ZM49.1633 2.4362L44.3344 13.4391H46.2276L47.5529 10.4641H52.6653L53.9435 13.4391H56.9257L52.0976 2.4362H49.1633ZM48.1687 9.04689L50.1099 4.65548L52.0031 9.04689H48.1687ZM74.8672 25.9526C74.8672 22.9305 76.4296 21.1833 79.4119 21.1833C80.757 21.1894 82.0949 21.38 83.3879 21.7497V20.4747C82.0786 20.2161 80.7466 20.0895 79.4119 20.0969C75.3405 20.0969 73.0213 22.2219 73.0213 25.9055C73.0213 29.5891 75.4358 31.7141 79.3174 31.7141C80.6954 31.7314 82.0681 31.5404 83.3887 31.1477V29.919C82.1597 30.3632 80.8616 30.5872 79.5544 30.5805C76.5714 30.5805 74.8672 28.6919 74.8672 25.9526ZM77.0447 13.4391H80.0742L76.0028 8.29193C76.6387 8.05478 77.196 7.64599 77.6125 7.1112C78.0602 6.56906 78.2806 5.87522 78.2275 5.17475C78.133 3.61616 76.8549 2.4362 73.9671 2.4362H68.6184V13.4391H71.0329V8.90548H73.4474L77.0447 13.4391ZM70.9857 7.44193V3.85261H72.4055C74.3467 3.85261 75.6721 4.08907 75.6721 5.50548C75.6721 6.96902 75.057 7.44193 72.0748 7.44193H70.9857ZM63.317 20.4284L58.2518 31.4305H59.5299L60.9971 28.1719H66.5355L68.0507 31.4305H69.9438L64.9259 20.4276L63.317 20.4284ZM61.4239 27.1341L63.6958 22.0341L65.9677 27.1341H61.4239ZM50.6312 29.6841L46.1331 20.4276H44.3817L49.6358 31.4305H51.103L56.1681 20.4276H54.8428L50.6312 29.6841ZM91.8149 20.4284L86.749 31.4305H88.0271L89.4942 28.1719H95.0327L96.547 31.4305H98.4402L93.4222 20.4276L91.8149 20.4284ZM89.9218 27.1341L92.1937 22.0341L94.4656 27.1341H89.9218ZM148.004 29.1177L140.192 20.4276H138.725V31.4305H140.003V22.7891L147.814 31.4776H149.281V20.4276H148.003L148.004 29.1177ZM159.46 11.9763C160.013 11.4285 160.446 10.772 160.731 10.0485C161.016 9.325 161.148 8.55027 161.117 7.77343C161.161 7.04996 161.049 6.32547 160.787 5.6492C160.526 4.97293 160.122 4.36072 159.602 3.85416C158.354 2.87223 156.786 2.38462 155.2 2.48489H149.85V13.4862H154.915C156.564 13.5551 158.181 13.0172 159.459 11.9748L159.46 11.9763ZM152.407 11.882V3.94689H153.969C154.737 3.9161 155.504 4.01192 156.241 4.23048C156.768 4.42961 157.227 4.77331 157.566 5.22189C158.119 5.99084 158.402 6.92037 158.371 7.86616C158.416 8.41059 158.352 8.95854 158.181 9.47763C158.01 9.99671 157.737 10.4764 157.377 10.8883C156.964 11.2471 156.483 11.5198 155.963 11.6901C155.443 11.8603 154.893 11.9248 154.348 11.8797L152.407 11.882ZM171.672 2.4362H168.737L163.909 13.4391H165.802L167.127 10.4641H172.24L173.518 13.4391H176.5L171.672 2.4362ZM167.743 9.04766L169.683 4.65548L171.577 9.04689L167.743 9.04766ZM155.435 22.8362C155.435 21.8919 156.524 21.1833 158.039 21.1833C159.192 21.183 160.333 21.4077 161.4 21.8448V20.5698C160.274 20.2655 159.11 20.1224 157.944 20.1448C155.577 20.1448 153.921 21.3727 153.921 23.0727C153.921 27.0862 160.453 26.0005 160.453 28.8341C160.453 29.9677 159.364 30.7227 157.66 30.7227C156.339 30.7344 155.031 30.4605 153.826 29.9198V31.2891C154.997 31.6112 156.208 31.7701 157.423 31.7612C160.216 31.7612 162.062 30.4862 162.062 28.5977C162.109 24.5362 155.435 25.2919 155.435 22.8362ZM143.175 13.4391H146.157L141.423 2.4362H138.488L133.66 13.4391H135.553L136.831 10.4641H141.944L143.175 13.4391ZM137.447 9.04766L139.388 4.65548L141.281 9.04689L137.447 9.04766ZM100.192 21.4669H104.784V31.4305H106.488V21.4669H111.08V20.4276H100.145V21.4662L100.192 21.4669ZM106.583 2.4362L101.755 13.4391H103.648L104.926 10.4641H110.038L111.317 13.4391H114.299L109.518 2.4362H106.583ZM105.542 9.04766L107.482 4.65548L109.375 9.04689L105.542 9.04766ZM91.1038 11.0305C90.6855 10.6204 90.3593 10.1263 90.1471 9.58085C89.9349 9.03541 89.8415 8.45117 89.873 7.86693C89.8369 7.29026 89.919 6.71229 90.1144 6.16836C90.3098 5.62443 90.6143 5.12595 91.0093 4.70339C91.4527 4.31269 91.9705 4.01513 92.5317 3.82846C93.093 3.6418 93.6861 3.56986 94.2759 3.61693C95.721 3.66606 97.1533 3.90429 98.5362 4.32552V2.53048C97.1021 2.24656 95.6435 2.1042 94.1814 2.10548C91.9094 2.10548 90.158 2.57761 88.9272 3.61693C88.3072 4.14191 87.8178 4.80325 87.4975 5.5489C87.1772 6.29455 87.0347 7.10417 87.0813 7.91407C87.0422 8.71865 87.1833 9.5218 87.4945 10.2651C87.8056 11.0084 88.2789 11.6733 88.8799 12.2112C90.3417 13.3252 92.156 13.8783 93.9924 13.7698C95.5532 13.8106 97.1087 13.5706 98.5842 13.0612V11.3612C97.3032 11.9255 95.9128 12.1997 94.5129 12.1641C93.272 12.2427 92.0492 11.8361 91.1038 11.0305ZM115.53 31.4305H117.234V20.4276H115.53V31.4305ZM128.311 20.0497C124.382 20.0497 121.967 22.4583 121.967 25.9055C121.967 29.4469 124.382 31.8083 128.216 31.8083C132.24 31.8083 134.654 29.3997 134.654 25.8583C134.654 22.4112 132.24 20.0497 128.311 20.0497ZM128.263 30.769C125.613 30.769 123.766 28.9747 123.766 25.9055C123.766 22.9305 125.612 21.0891 128.311 21.0891C131.056 21.0891 132.855 22.8833 132.855 25.8583C132.855 29.0219 131.057 30.769 128.263 30.769ZM129.968 13.4383V2.4362H127.837V10.2747L120.926 2.4362H117.944V13.4391H120.027V5.22189L127.222 13.4383H129.968Z" fill="black"/>
</g>
<defs>
<clipPath id="clip0_1665_1549">
<rect width="176" height="34" fill="white" transform="translate(0.5 0.5)"/>
</clipPath>
</defs>
</svg>
