<svg width="194" height="27" viewBox="0 0 194 27" fill="none" xmlns="http://www.w3.org/2000/svg">
<g id="ef_ultimate_break_logo 1">
<g id="Atom_Logo">
<g id="Logo">
<path id="Vector" d="M82.4587 10.382C80.2312 10.382 78.446 9.03594 78.446 6.48697V0H80.7024V6.30082C80.7024 7.53233 81.3873 8.14812 82.4587 8.14812C83.5292 8.14812 84.215 7.53233 84.215 6.30082V0H86.4709V6.48697C86.4709 9.03594 84.6861 10.382 82.4587 10.382Z" fill="#191919"/>
<path id="Vector_2" d="M97.5654 10.1529H90.9401V0H93.196V7.99056H97.5654V10.1529Z" fill="#191919"/>
<path id="Vector_3" d="M107.431 2.16233H104.304V10.1529H102.048V2.16233H98.9353V0H107.431V2.16233Z" fill="#191919"/>
<path id="Vector_4" d="M113.384 10.1529H111.099V0H113.384V10.1529Z" fill="#191919"/>
<path id="Vector_5" d="M129.423 10.1529H127.21V3.42249L124.569 10.1529H122.741L120.099 3.5084V10.1529H117.958V0H120.899L123.683 6.8593L126.325 0H129.423V10.1529Z" fill="#191919"/>
<path id="Vector_6" d="M140.688 10.1529L139.96 8.09078H136.047L135.319 10.1529H132.949L136.761 0H139.374L143.144 10.1529H140.688ZM138.032 2.52032L136.79 6.02874H139.246L138.032 2.52032Z" fill="#191919"/>
<path id="Vector_7" d="M153.299 2.16233H150.171V10.1529H147.915V2.16233H144.802V0H153.299V2.16233Z" fill="#191919"/>
<path id="Vector_8" d="M163.392 10.1529H156.967V0H163.378V2.13368H159.222V4.06689H162.992V6.05737H159.222V8.00486H163.392V10.1529Z" fill="#191919"/>
<path id="Vector_9" d="M78.5461 16.8477H82.3297C84.3291 16.8477 85.486 18.0075 85.486 19.5685C85.486 20.6138 84.8287 21.473 84.0005 21.7451C84.9143 21.9599 85.7995 22.8047 85.7995 24.1222C85.7995 25.7833 84.5429 27.0005 82.6298 27.0005H78.5461V16.8477ZM80.7452 20.9145H81.9734C82.7581 20.9145 83.2728 20.4992 83.2728 19.8119C83.2728 19.1531 82.8301 18.7235 81.9449 18.7235H80.7452V20.9145ZM80.7452 25.1533H82.1587C83.0297 25.1533 83.5578 24.695 83.5578 23.9647C83.5578 23.263 83.0439 22.7761 82.1587 22.7761H80.7452V25.1533Z" fill="#191919"/>
<path id="Vector_10" d="M94.6799 27.0005L92.8666 23.2201H92.0669V27.0005H89.8109V16.8477H93.8232C95.8225 16.8477 97.1069 18.2224 97.1069 20.0267C97.1069 21.4014 96.3507 22.4467 95.1083 22.8907L97.1647 27.0005H94.6799ZM92.0669 21.2725H93.3948C94.3228 21.2725 94.8224 20.757 94.8224 20.041C94.8224 19.282 94.3228 18.8094 93.3948 18.8094H92.0669V21.2725Z" fill="#191919"/>
<path id="Vector_11" d="M107.571 27.0005H101.145V16.8477H107.557V18.9813H103.401V20.9145H107.171V22.905H103.401V24.8525H107.571V27.0005Z" fill="#191919"/>
<path id="Vector_12" d="M118.423 27.0005L117.695 24.9384H113.783L113.055 27.0005H110.685L114.496 16.8477H117.11L120.879 27.0005H118.423ZM115.767 19.3679L114.525 22.8764H116.981L115.767 19.3679Z" fill="#191919"/>
<path id="Vector_13" d="M130.539 27.0005L127.812 23.0052L126.67 24.2797V27.0005H124.413V16.8477H126.67V21.115L130.368 16.8477H133.338L129.397 21.2439L133.352 27.0005H130.539Z" fill="#191919"/>
<path id="Vector_14" fill-rule="evenodd" clip-rule="evenodd" d="M56.3689 27H58.552L63.9901 0H61.7907L56.3689 27Z" fill="#191919"/>
<path id="Vector_15" fill-rule="evenodd" clip-rule="evenodd" d="M19.6885 14.6773C19.6885 15.363 19.8841 15.9836 20.2566 16.4966H21.2294L22.4888 10.3496C22.0662 10.5894 21.6624 10.8937 21.2986 11.2526C20.2598 12.2744 19.6885 13.4896 19.6885 14.6773Z" fill="#191919"/>
<path id="Vector_16" fill-rule="evenodd" clip-rule="evenodd" d="M32.3201 26.9988L32.9427 24.0176C31.5987 25.2137 30.0859 26.2179 28.4814 26.9988H32.3201Z" fill="#191919"/>
<path id="Vector_17" fill-rule="evenodd" clip-rule="evenodd" d="M17.0793 20.5938C17.9941 21.4267 19.0702 21.9889 20.2549 22.2586L20.6052 20.6001L20.6077 20.5938H17.0793Z" fill="#191919"/>
<path id="Vector_18" fill-rule="evenodd" clip-rule="evenodd" d="M15.821 20.5938H13.1393C13.5355 21.3107 14.0322 21.9676 14.621 22.5478C15.9839 23.8886 17.7079 24.7263 19.6709 25.0149L20.0688 23.1341C18.6203 22.8107 17.3131 22.0971 16.227 21.0277C16.0839 20.8877 15.9497 20.7442 15.821 20.5938Z" fill="#191919"/>
<path id="Vector_19" fill-rule="evenodd" clip-rule="evenodd" d="M8.15485 15.3135C8.34156 13.3744 8.9215 11.4337 9.87907 9.54402C10.8684 7.59057 12.235 5.75229 13.9406 4.07289C15.5655 2.47381 17.4066 1.17309 19.4105 0.209688C19.56 0.136952 19.7086 0.0673714 19.8586 0H15.2294C14.1794 0.757652 13.1752 1.60366 12.227 2.5374C9.96237 4.76554 8.20568 7.23051 7.00805 9.86286C5.85595 12.3906 5.27112 14.9522 5.27112 17.4741C5.27112 19.4132 5.62136 21.263 6.31447 22.9737C6.91265 24.4534 7.75829 25.8037 8.83337 27H13.6223C12.9501 26.5776 12.3304 26.0874 11.7688 25.5331C9.0615 22.8707 7.77727 19.2393 8.15485 15.3135Z" fill="#191919"/>
<path id="Vector_20" fill-rule="evenodd" clip-rule="evenodd" d="M12.1177 20.5939H9.95947L10.7926 16.4977H11.1118C11.1073 16.3711 11.1038 16.2443 11.1038 16.116C11.1038 14.0972 11.642 12.0609 12.6596 10.1299H12.1273L12.8521 6.61914C10.6764 9.33607 9.34841 12.3833 9.05876 15.3977C8.70742 19.0537 9.89874 22.4298 12.4104 24.9032C13.3048 25.7819 14.3579 26.4858 15.545 27H19.2521L19.4861 25.8929C17.3511 25.5693 15.4709 24.6483 13.9788 23.1799C13.2112 22.4254 12.586 21.5513 12.1177 20.5939Z" fill="#191919"/>
<path id="Vector_21" fill-rule="evenodd" clip-rule="evenodd" d="M38.6485 11.1504H36.608C36.608 11.6956 36.5692 12.2491 36.4854 12.8103C36.2503 14.4025 35.6863 15.999 34.839 17.519H36.876C37.7625 15.795 38.3362 14.0027 38.5578 12.2179C38.6031 11.8598 38.6319 11.5041 38.6485 11.1504Z" fill="#191919"/>
<path id="Vector_22" fill-rule="evenodd" clip-rule="evenodd" d="M43.9715 0H39.6876C41.2361 1.82471 42.302 3.95471 42.8453 6.27453H46.158C45.9549 4.88135 45.593 3.53582 45.0792 2.25655C44.7645 1.47318 44.3948 0.720732 43.9715 0Z" fill="#191919"/>
<path id="Vector_23" fill-rule="evenodd" clip-rule="evenodd" d="M45.9232 1.92726C46.2458 2.72941 46.5112 3.55411 46.7156 4.40044L47.6308 0H45.0134C45.3527 0.620701 45.657 1.26349 45.9232 1.92726Z" fill="#191919"/>
<path id="Vector_24" fill-rule="evenodd" clip-rule="evenodd" d="M43.1648 11.8588C42.9615 13.7627 42.4551 15.6676 41.675 17.5203H43.7696L45.0744 11.1504H43.226C43.21 11.3866 43.1896 11.6226 43.1648 11.8588Z" fill="#191919"/>
<path id="Vector_25" fill-rule="evenodd" clip-rule="evenodd" d="M4.36226 17.4747C4.36226 14.8259 4.9744 12.1399 6.17891 9.49638C7.42234 6.76522 9.24213 4.21237 11.5856 1.90564C12.2761 1.22531 12.9951 0.590407 13.739 0H9.83886C9.68232 0.148785 9.52664 0.297885 9.37176 0.449826C7.20735 2.57952 5.43511 4.89492 4.08922 7.35247L1.33655 20.5814C1.5305 22.0054 1.89361 23.3774 2.42588 24.684C2.75165 25.4878 3.13954 26.2596 3.58536 27H7.64751C6.74083 25.8774 6.01116 24.6403 5.47042 23.3032C4.7351 21.489 4.36226 19.5273 4.36226 17.4747Z" fill="#191919"/>
<path id="Vector_26" fill-rule="evenodd" clip-rule="evenodd" d="M42.3153 11.1504H39.5574C39.5414 11.5405 39.5089 11.9308 39.4604 12.3257C39.2426 14.0732 38.7073 15.8269 37.8864 17.519H40.6891C41.5201 15.6385 42.0539 13.7005 42.2608 11.7653C42.2846 11.5594 42.3019 11.3563 42.3153 11.1504Z" fill="#191919"/>
<path id="Vector_27" fill-rule="evenodd" clip-rule="evenodd" d="M23.3613 25.8427L23.1213 27.0006H26.1728C28.6805 26.11 31.0468 24.6527 32.9802 22.7497C33.0775 22.6547 33.1718 22.5581 33.2663 22.4623L34.0236 18.832C33.3904 19.753 32.6529 20.6334 31.817 21.456C29.4604 23.7764 26.4127 25.3361 23.3613 25.8427Z" fill="#191919"/>
<path id="Vector_28" fill-rule="evenodd" clip-rule="evenodd" d="M31.1582 12.3381C31.1582 14.3204 30.1683 16.3886 28.3693 18.158C27.2392 19.27 25.8909 20.0715 24.4765 20.4886L24.1306 22.1472C25.952 21.6711 27.7494 20.6295 29.2729 19.129C33.2258 15.2398 33.8251 9.96131 30.6633 6.84929C29.84 6.03673 28.8143 5.47614 27.6604 5.18945L27.3028 6.90624C28.0999 7.17762 28.8133 7.61073 29.3984 8.1855C30.5507 9.31839 31.1582 10.754 31.1582 12.3381Z" fill="#191919"/>
<path id="Vector_29" fill-rule="evenodd" clip-rule="evenodd" d="M24.009 4.22994L24.3984 2.35742C21.7436 2.81088 19.0302 4.13543 16.756 6.27538H19.2345C20.7028 5.23167 22.338 4.52782 24.009 4.22994Z" fill="#191919"/>
<path id="Vector_30" fill-rule="evenodd" clip-rule="evenodd" d="M18.3471 10.1289H16.7064C15.5637 11.8233 14.9333 13.7193 14.9333 15.5638C14.9333 15.882 14.9535 16.1933 14.9891 16.4981H16.6524C16.5441 16.0417 16.4876 15.5651 16.4876 15.0773C16.4876 14.068 16.7174 13.0486 17.1697 12.0475C17.4721 11.3752 17.8671 10.7346 18.3471 10.1289Z" fill="#191919"/>
<path id="Vector_31" fill-rule="evenodd" clip-rule="evenodd" d="M13.69 10.1289C12.5935 12.0549 12.0128 14.0972 12.0128 16.1154C12.0128 16.2436 12.016 16.3703 12.0209 16.4978H14.0763C14.0431 16.1912 14.0255 15.8791 14.0255 15.5631C14.0255 13.7236 14.5937 11.8414 15.6345 10.1289H13.69Z" fill="#191919"/>
<path id="Vector_32" fill-rule="evenodd" clip-rule="evenodd" d="M21.2133 10.1289H19.5382C18.1733 11.6014 17.3969 13.384 17.3969 15.0778C17.3969 15.5758 17.4612 16.0495 17.5858 16.4973H19.203C18.9272 15.948 18.7801 15.3277 18.7801 14.6771C18.7801 13.2519 19.446 11.8115 20.6554 10.6209C20.8342 10.445 21.0195 10.2805 21.2133 10.1289Z" fill="#191919"/>
<path id="Vector_33" fill-rule="evenodd" clip-rule="evenodd" d="M33.6001 4.05002C34.8236 5.25512 35.6879 6.65083 36.1679 8.19817C36.1815 8.24264 36.1961 8.28751 36.2089 8.33198L36.6369 6.27453H37.8485C37.275 4.84206 36.4057 3.54765 35.2599 2.41748C34.1489 1.32503 32.8355 0.522246 31.3948 0H28.7415L28.4381 1.45582C28.8687 1.53093 29.2899 1.63111 29.7032 1.75623C31.208 2.21584 32.52 2.9877 33.6001 4.05002Z" fill="#191919"/>
<path id="Vector_34" fill-rule="evenodd" clip-rule="evenodd" d="M29.9147 19.7626C28.1602 21.49 26.0559 22.6551 23.9307 23.1148L23.5592 24.9006C26.3079 24.3682 29.0382 22.9256 31.1741 20.8237C33.5962 18.4413 35.1624 15.5498 35.5867 12.6819C35.6639 12.1618 35.7004 11.6511 35.7011 11.1507C35.7011 11.0335 35.6988 10.9146 35.6945 10.7975C35.6098 8.46655 34.6817 6.37958 32.9581 4.68378C31.6714 3.41776 30.0428 2.64386 28.2556 2.33398L27.8437 4.31316C29.171 4.63692 30.3519 5.27939 31.3077 6.21786C34.8335 9.68933 34.235 15.5123 29.9147 19.7626Z" fill="#191919"/>
<path id="Vector_35" fill-rule="evenodd" clip-rule="evenodd" d="M23.8115 5.17969C22.8201 5.39522 21.8433 5.76536 20.9169 6.27499H23.5845L23.8115 5.17969Z" fill="#191919"/>
<path id="Vector_36" fill-rule="evenodd" clip-rule="evenodd" d="M5.62034 0L4.63818 4.71615C5.74901 3.06564 7.05552 1.49022 8.54595 0H5.62034Z" fill="#191919"/>
<path id="Vector_37" fill-rule="evenodd" clip-rule="evenodd" d="M13.1337 6.27453H15.4752C15.5983 6.14799 15.7242 6.02035 15.8521 5.89381C18.3367 3.45124 21.4239 1.87235 24.5928 1.4189L24.8885 0H22.3346C19.5913 0.851374 16.892 2.43247 14.5838 4.70369C14.0664 5.21268 13.584 5.73667 13.1337 6.27453Z" fill="#191919"/>
<path id="Vector_38" fill-rule="evenodd" clip-rule="evenodd" d="M38.8189 6.27453H41.9101C41.323 3.92095 40.1627 1.78495 38.4767 0H33.5222C34.3947 0.490218 35.1901 1.08646 35.9021 1.78653C37.2233 3.0882 38.204 4.59593 38.8189 6.27453Z" fill="#191919"/>
<path id="Vector_39" fill-rule="evenodd" clip-rule="evenodd" d="M27.7272 17.5261C29.3542 15.9246 30.25 14.0835 30.25 12.3388C30.25 10.9963 29.7337 9.77963 28.757 8.81716C28.2905 8.35959 27.7389 8.01359 27.1206 7.78516L26.807 9.29435C27.1158 9.46079 27.3979 9.6656 27.6458 9.90963C28.5018 10.7525 28.9158 11.9102 28.8133 13.1708C28.7117 14.4226 28.0996 15.6604 27.0899 16.6541C26.4771 17.258 25.7485 17.7372 24.9816 18.0625L24.6876 19.4735C25.7627 19.0789 26.8132 18.4253 27.7272 17.5261Z" fill="#191919"/>
<path id="Vector_40" fill-rule="evenodd" clip-rule="evenodd" d="M0.863054 22.8555L0 27.0004H2.53722C2.17819 26.3617 1.85934 25.6994 1.58206 25.0168C1.29537 24.3124 1.05606 23.5923 0.863054 22.8555Z" fill="#191919"/>
<path id="Vector_41" fill-rule="evenodd" clip-rule="evenodd" d="M27.908 13.0998C27.9889 12.1053 27.6679 11.1968 27.0036 10.5432C26.883 10.425 26.7525 10.3185 26.6136 10.2246L25.2118 16.9523C25.6568 16.7014 26.0756 16.3895 26.4477 16.0227C27.3056 15.1779 27.8235 14.1406 27.908 13.0998Z" fill="#191919"/>
</g>
</g>
</g>
</svg>
