<svg width="99" height="33" viewBox="0 0 99 33" fill="none" xmlns="http://www.w3.org/2000/svg">
<g id="fitur" clip-path="url(#clip0_1665_1537)">
<g id="Capa 2">
<g id="Capa 1">
<path id="Vector" d="M90.15 16.5039C90.15 10.0039 84.61 3.50391 78.37 0.753906C85.75 3.23391 93.45 8.11391 97.93 15.7439C98.0989 15.9625 98.209 16.2207 98.25 16.4939C98.209 16.7671 98.0989 17.0253 97.93 17.2439C93.45 24.8839 85.75 29.7439 78.37 32.2539C84.61 29.5639 90.15 22.9139 90.15 16.5039Z" fill="#BF0811"/>
<path id="Vector_2" d="M8.85 16.5041C8.85 22.9941 14.4 29.5541 20.63 32.2541C13.22 29.7441 5.55 24.8941 1.05 17.2641C0.882849 17.0465 0.779033 16.787 0.75 16.5141C0.776091 16.2327 0.88384 15.9651 1.06 15.7441C5.56 8.11414 13.23 3.23414 20.64 0.744141C14.4 3.41414 8.85 10.0841 8.85 16.5041Z" fill="#BF0811"/>
<path id="Vector_3" d="M24.68 4.35414C24.0903 4.60309 23.554 4.96294 23.1 5.41414C22.6914 5.84009 22.3718 6.34323 22.16 6.89414C21.96 7.40101 21.8516 7.93937 21.84 8.48414V27.9041H26.36V17.7941H33.64V13.7941H26.36V9.41414C26.3555 9.22993 26.3876 9.04666 26.4546 8.87498C26.5215 8.70331 26.622 8.54666 26.75 8.41414C26.9024 8.26873 27.0833 8.15637 27.2812 8.0841C27.479 8.01183 27.6897 7.98121 27.9 7.99414H33.61V3.99414H26.81C26.0793 3.99334 25.3557 4.13604 24.68 4.41414" fill="#BF0811"/>
<path id="Vector_4" d="M40.24 10.0137H35.85V27.1137H40.24V10.0137Z" fill="#BF0811"/>
<path id="Vector_5" d="M40.24 3.86328H35.85V7.85328H40.24V3.86328Z" fill="#BF0811"/>
<path id="Vector_6" d="M47.75 3.74414H43.33V22.4141C43.3432 22.8218 43.3968 23.2271 43.49 23.6241C43.663 24.2653 44.0089 24.8465 44.49 25.3041C45.1031 25.894 45.8366 26.3443 46.64 26.6241C47.8476 27.0272 49.1178 27.2101 50.39 27.1641H51.01V23.4141H50.25C49.7696 23.4262 49.2903 23.3621 48.83 23.2241C48.5591 23.1438 48.3096 23.0037 48.1 22.8141C47.9759 22.6992 47.8831 22.5547 47.83 22.3941C47.7816 22.232 47.758 22.0634 47.76 21.8941V13.7941H50.98V9.96414H47.75V3.74414Z" fill="#BF0811"/>
<path id="Vector_7" d="M63.63 22.0244C63.63 22.1821 63.5994 22.3383 63.54 22.4844C63.4867 22.6335 63.3933 22.765 63.27 22.8644C63.0464 23.0479 62.7879 23.184 62.51 23.2644C62.0125 23.404 61.4963 23.4648 60.98 23.4444C60.4867 23.4649 59.9935 23.4041 59.52 23.2644C59.2592 23.1842 59.0176 23.0514 58.81 22.8744C58.694 22.7645 58.608 22.6268 58.56 22.4744C58.5165 22.3146 58.4929 22.15 58.49 21.9844V9.98438H54.05V22.5244C54.0605 22.9355 54.1141 23.3444 54.21 23.7444C54.3691 24.3712 54.6978 24.9421 55.16 25.3944C55.7679 25.9812 56.499 26.4253 57.3 26.6944C58.5081 27.0943 59.7783 27.2738 61.05 27.2244C62.3216 27.2738 63.5918 27.0943 64.8 26.6944C65.601 26.4253 66.332 25.9812 66.94 25.3944C67.3998 24.9418 67.7252 24.3707 67.88 23.7444C67.9764 23.351 68.0334 22.949 68.05 22.5444V10.0144H63.63V22.0244Z" fill="#BF0811"/>
<path id="Vector_8" d="M73.86 10.415C73.2896 10.6453 72.7698 10.985 72.33 11.415C71.9348 11.8266 71.6254 12.3127 71.42 12.845C71.2175 13.3438 71.1122 13.8767 71.11 14.415V27.165H75.5V15.295C75.5027 14.9213 75.6496 14.5631 75.91 14.295C76.0573 14.1553 76.2321 14.0476 76.4231 13.9788C76.6141 13.9099 76.8174 13.8814 77.02 13.895H80.19L81.19 9.97503H75.97C75.246 9.96586 74.5278 10.1054 73.86 10.385" fill="#BF0811"/>
</g>
</g>
</g>
<defs>
<clipPath id="clip0_1665_1537">
<rect width="97.5" height="31.51" fill="white" transform="translate(0.75 0.744141)"/>
</clipPath>
</defs>
</svg>
