<svg width="143" height="69" viewBox="0 0 143 69" fill="none" xmlns="http://www.w3.org/2000/svg">
<g id="hi_logo" clip-path="url(#clip0_1665_1578)">
<path id="Vector" d="M41.2378 48.2363H42.7404L44.7788 54.3707H43.5868L43.0947 52.8522H40.7371L40.2535 54.3707H39.1738L41.2378 48.2363ZM41.0046 52.02H42.8269L41.9202 49.1716L41.0046 52.02Z" fill="#707372"/>
<path id="Vector_2" d="M47.0165 48.2363H48.3898L50.9894 52.6719V48.2363H52.0343V54.3707H50.8423L48.0613 49.669V54.3707H47.0165V48.2363Z" fill="#707372"/>
<path id="Vector_3" d="M58.1331 48.2363H59.2903V54.3707H58.1331V48.2363Z" fill="#707372"/>
<path id="Vector_4" d="M62.0457 48.2363H63.1943V50.8447H65.9665V48.2363H67.1237V54.3707H65.9665V51.7623H63.1943V54.3707H62.0457V48.2363Z" fill="#707372"/>
<path id="Vector_5" d="M69.5177 51.3411V51.2725C69.5177 49.4449 70.7961 48.1406 72.601 48.1406C73.9222 48.1406 75.0968 48.7412 75.2612 50.2083H74.1125C73.9743 49.3935 73.4216 49.0414 72.6183 49.0414C71.409 49.0414 70.7096 49.9337 70.7096 51.2805V51.3491C70.7096 52.6617 71.323 53.5625 72.6183 53.5625C73.7755 53.5625 74.2507 52.8677 74.2854 52.0183H72.7307V51.1613H75.4168V51.7277C75.4168 53.4265 74.3456 54.4561 72.6014 54.4561C70.6231 54.4557 69.5177 53.1515 69.5177 51.3411Z" fill="#707372"/>
<path id="Vector_6" d="M81.1694 48.2363H82.3179V50.8447H85.0901V48.2363H86.2479V54.3707H85.0901V51.7623H82.3179V54.3707H81.1694V48.2363Z" fill="#707372"/>
<path id="Vector_7" d="M88.6409 51.342V51.2734C88.6409 49.4802 89.9366 48.1504 91.7673 48.1504C93.6068 48.1504 94.8768 49.4457 94.8768 51.2477V51.3163C94.8768 53.1094 93.6415 54.4566 91.7673 54.4566C89.8761 54.4566 88.6409 53.1094 88.6409 51.342ZM93.6851 51.3251V51.2565C93.6851 49.9953 92.9767 49.06 91.7673 49.06C90.5587 49.06 89.8414 49.9439 89.8414 51.2649V51.3335C89.8414 52.6719 90.6619 53.5385 91.785 53.5385C92.9509 53.5385 93.6851 52.655 93.6851 51.3251Z" fill="#707372"/>
<path id="Vector_8" d="M98.2549 49.1371H96.5355V48.2363H101.13V49.1371H99.4118V54.3707H98.2549V49.1371Z" fill="#707372"/>
<path id="Vector_9" d="M103.351 48.2363H107.211V49.1371H104.5V50.8186H106.676V51.6764H104.5V53.4695H107.358V54.3703H103.351V48.2363Z" fill="#707372"/>
<path id="Vector_10" d="M109.692 48.2363H110.84V53.4616H113.474V54.3711H109.692V48.2363Z" fill="#707372"/>
<path id="Vector_11" d="M73.0144 23.9539C73.7579 23.9539 74.3276 24.4816 74.3276 25.2396C74.3276 26.2637 73.3196 27.178 72.3099 27.178C71.5664 27.178 71.02 26.6545 71.02 25.894C71.0196 24.8695 72.0043 23.9539 73.0144 23.9539ZM66.126 24.8526C65.5601 27.5941 63.7608 36.232 63.7608 36.232C63.648 36.707 63.0037 39.1903 65.6203 39.1903H66.0158L69.4534 22.6418C69.4534 22.6418 66.6872 22.1334 66.126 24.8526ZM70.2113 30.6131C69.6331 33.2939 69.0436 36.232 69.0436 36.232C68.9375 36.707 68.2916 39.1907 70.9094 39.1907H71.296L73.5311 28.4329C73.4289 28.4199 70.781 27.9731 70.2113 30.6131ZM58.3152 36.2509C59.2164 35.1232 59.6733 33.3175 59.6733 32.0966C59.6733 30.9668 59.2372 30.1599 58.0799 30.1599C57.3556 30.1599 56.7163 30.5734 56.2374 31.1849C55.3362 32.3131 54.8763 34.1192 54.8763 35.3384C54.8763 36.4704 55.3362 37.2768 56.4989 37.2768C57.2217 37.2768 57.8328 36.8616 58.3152 36.2509ZM58.428 28.2456C60.8564 28.2456 62.6104 29.5282 62.6104 32.0731C62.6104 34.3627 61.6672 36.5356 60.0463 37.8394C59.0197 38.6892 57.6625 39.1907 56.1284 39.1907C53.6959 39.1907 51.9431 37.8836 51.9431 35.3388C51.9431 33.0555 52.8854 30.9015 54.5067 29.5973C55.535 28.7458 56.8931 28.2456 58.428 28.2456ZM103.456 38.5156C102.6 38.8934 101.992 38.9422 100.875 39.0677C99.3005 39.2434 98.2283 39.5057 98.2283 40.5893C98.2283 41.4365 99.0593 41.9145 100.065 41.9145C100.875 41.9145 101.62 41.6324 102.166 41.1152C102.731 40.5682 103.126 39.8115 103.345 38.9604L103.456 38.5156ZM105.227 30.6459C105.761 28.0624 108.271 28.3946 108.554 28.4351L106.634 37.6149C106.239 39.4594 105.662 40.7644 104.809 41.7195C103.764 42.8927 102.12 43.5876 100.043 43.5876C97.6207 43.5876 95.8038 42.504 95.8038 40.6777C95.8038 39.4366 96.5904 38.5713 98.2734 38.1585C97.8345 37.6764 97.5957 37.0506 97.5957 36.2686C97.5957 35.7228 97.837 34.6208 97.8813 34.4363C97.9249 34.2523 98.2444 32.6875 98.6672 30.6459C99.2005 28.0695 101.727 28.3799 101.994 28.4351L100.731 34.5282C100.621 35.0499 100.012 37.0502 101.835 37.0502C103.879 37.0502 104.408 34.5344 104.691 33.2122C104.691 33.2122 105.033 31.5837 105.227 30.6459ZM114.483 24.1389C114.051 26.1492 111.972 36.2299 111.972 36.2299C111.84 36.8089 111.266 39.1903 113.833 39.1903H114.23L117.789 22.0122C117.111 21.8926 114.963 21.9069 114.483 24.1389ZM124.719 28.2456C123.331 28.2456 122.146 28.8679 121.386 29.7039C121.386 29.7039 121.286 27.6113 118.505 28.4435C119.009 29.9073 118.734 30.4236 118.169 33.3768L117.58 36.2324C117.479 36.7238 116.828 39.1907 119.446 39.1907H119.832L120.866 34.2295C121.152 32.9006 121.687 30.3764 123.713 30.3764C124.719 30.3764 125.234 30.9988 124.919 32.5261L124.151 36.2286C124.041 36.7036 123.379 39.1911 126.012 39.1911H126.401L127.809 32.415C128.436 29.5168 126.919 28.2456 124.719 28.2456ZM49.3256 24.2635C49.1955 24.8922 48.9064 26.2646 48.4377 28.5138L43.6059 29.4697L45.0242 22.6418C44.5854 22.563 42.1889 22.3731 41.698 24.8526C41.5441 25.6287 39.3264 36.2311 39.3264 36.2311C39.2154 36.7832 38.5677 39.1907 41.1822 39.1907H41.584L42.9799 32.4819L47.8146 31.5268C47.3335 33.8333 46.832 36.2311 46.832 36.2311C46.7252 36.7091 46.0801 39.1907 48.6967 39.1907H49.0896L52.6628 22.0118C52.6628 22.0118 49.8932 21.5199 49.3256 24.2635ZM136.588 28.2456C135.199 28.2456 134.014 28.8679 133.255 29.7039C133.255 29.7039 133.155 27.6113 130.374 28.4435C130.876 29.9073 130.602 30.4236 130.037 33.3768L129.448 36.2324C129.347 36.7238 128.696 39.1907 131.313 39.1907H131.701L132.734 34.2295C133.021 32.9006 133.556 30.3764 135.581 30.3764C136.588 30.3764 137.102 30.9988 136.788 32.5261L136.019 36.2286C135.908 36.7036 135.247 39.1911 137.88 39.1911H138.269L139.678 32.415C140.303 29.5168 138.787 28.2456 136.588 28.2456ZM83.0286 24.9007C83.5579 22.2341 86.1341 22.6115 86.3648 22.6413L82.927 39.1907H82.5397C81.6611 39.1907 80.8955 38.8736 80.6425 38.0828C80.0329 38.7157 79.0127 39.1907 77.6969 39.1907C75.5034 39.1907 74.0618 37.7332 74.0618 35.4045C74.0618 31.6174 77.0399 28.2451 81.2205 28.2451C81.6344 28.2451 82.0524 28.2797 82.3138 28.3424C82.2872 28.4713 82.7704 26.1993 83.0286 24.9007ZM81.9192 30.2412C81.766 30.1515 81.3964 30.0753 81.0685 30.0753C78.8325 30.0753 77.0255 32.7961 77.0255 35.3181C77.0255 36.5592 77.6096 37.2317 78.5943 37.2317C79.2924 37.2317 79.7773 36.971 80.1732 36.5352C80.5661 36.0791 80.8302 35.4049 81.0036 34.6216L81.9192 30.2412ZM93.4519 30.2348C93.2696 30.1451 93.059 30.0753 92.7984 30.0753C90.2569 30.0753 88.6521 33.1199 88.6521 35.3384C88.6521 36.5777 89.1362 37.2313 90.1214 37.2313C90.8233 37.2313 91.3316 36.9706 91.7237 36.5356C92.1166 36.0795 92.3603 35.4045 92.5305 34.622L93.4519 30.2348ZM92.8597 28.2456C94.2305 28.2456 95.4149 28.6409 96.5275 29.2461L94.4612 39.1903H94.0732C93.1986 39.1903 92.4264 38.8879 92.1715 38.0744C91.5809 38.7072 90.5417 39.1903 89.2266 39.1903C87.0369 39.1903 85.7016 37.7573 85.7016 35.4264C85.7024 31.4468 88.8756 28.2456 92.8597 28.2456ZM31.6657 25.0822C31.0439 21.8034 27.6266 22.4055 26.6848 22.6026C24.9511 22.9652 23.3027 23.3555 21.7309 23.772C22.5528 21.1624 23.5014 18.6265 24.9562 15.1884C24.353 15.0305 23.6735 14.9307 22.9059 15.0247C22.0378 15.1316 21.0655 15.5738 20.4856 16.6674C19.5548 18.4222 18.5493 21.1796 17.4413 25.0295C15.1503 25.7694 13.0474 26.5661 11.1099 27.4079C12.1284 23.8003 13.4598 20.1605 14.8752 17.1083C14.5789 17.0136 14.0096 16.9184 13.5993 16.9184C12.0306 16.9184 11.1188 17.5067 10.4075 19.037C9.29738 21.4154 7.98208 25.4249 6.99997 29.3801C5.08829 30.3907 3.36099 31.4448 1.78757 32.5236C0.810109 33.1937 0.571043 34.0712 0.51382 34.4726C0.470161 34.7518 0.527808 35.338 0.71728 35.6938C1.78375 35.0608 3.69289 33.9896 6.2425 32.7586C5.73258 35.2702 5.13788 38.7553 5.12559 41.4129C5.11966 42.7702 5.96189 43.5661 7.16528 43.5661C7.49717 43.5661 8.15206 43.4714 8.2254 43.3964C8.57343 38.7381 9.51143 34.0258 10.2184 30.9545C12.1158 30.1481 14.2161 29.3303 16.4765 28.5639C16.4219 28.7741 16.3676 28.9795 16.3125 29.1947C14.5687 35.9692 13.3988 43.2718 13.4946 45.2531C13.5721 46.8592 14.762 47.474 15.7716 47.474C16.087 47.474 16.7338 47.3873 16.9568 47.2879C17.3832 42.3217 18.7659 34.799 19.5043 31.8865C19.9455 30.149 20.3343 28.6426 20.7149 27.2513C24.1461 26.292 27.8398 25.5087 31.6657 25.0822ZM141.995 29.0507C141.995 29.5286 141.678 29.858 141.187 29.858C140.696 29.858 140.376 29.5286 140.376 29.0507C140.376 28.5728 140.696 28.246 141.187 28.246C141.678 28.246 141.995 28.5728 141.995 29.0507ZM141.86 29.0507C141.86 28.6149 141.588 28.3546 141.187 28.3546C140.786 28.3546 140.514 28.6149 140.514 29.0507C140.514 29.4866 140.786 29.7468 141.187 29.7468C141.588 29.7464 141.86 29.4861 141.86 29.0507ZM141.494 29.3801C141.513 29.3801 141.538 29.3724 141.558 29.3602L141.551 29.4617C141.529 29.4765 141.496 29.4887 141.466 29.4887C141.402 29.4887 141.362 29.4689 141.324 29.4024L141.185 29.1593H141.05V29.4836H140.902V28.731H140.831V28.6195H141.179C141.379 28.6195 141.513 28.7012 141.513 28.8797C141.513 29.0107 141.451 29.1025 141.328 29.1396L141.443 29.3404C141.463 29.375 141.476 29.3801 141.494 29.3801ZM141.362 28.8848C141.362 28.7686 141.297 28.731 141.16 28.731H141.05V29.0503H141.18C141.317 29.0507 141.362 28.9838 141.362 28.8848ZM20.714 42.7596C20.714 43.2377 20.3974 43.5669 19.9066 43.5669C19.4153 43.5669 19.0961 43.2377 19.0961 42.7596C19.0961 42.2817 19.4153 41.9549 19.9066 41.9549C20.3974 41.9549 20.714 42.2817 20.714 42.7596ZM20.5793 42.7596C20.5793 42.3238 20.3075 42.0635 19.9066 42.0635C19.5052 42.0635 19.2334 42.3238 19.2334 42.7596C19.2334 43.1955 19.5052 43.4557 19.9066 43.4557C20.3075 43.4557 20.5793 43.1955 20.5793 42.7596ZM20.213 43.089C20.2329 43.089 20.2579 43.0814 20.2779 43.0692L20.2703 43.1707C20.2478 43.1854 20.2156 43.1976 20.1855 43.1976C20.121 43.1976 20.0812 43.1778 20.0435 43.1113L19.9041 42.8683H19.7696V43.1926H19.6226V42.4401H19.5505V42.3285H19.8994C20.099 42.3285 20.2334 42.4101 20.2334 42.5887C20.2334 42.7197 20.171 42.8115 20.0486 42.8485L20.163 43.0494C20.1829 43.0839 20.1956 43.089 20.213 43.089ZM20.0807 42.5937C20.0807 42.4775 20.016 42.4401 19.8786 42.4401H19.7692V42.7592H19.8989C20.0358 42.7596 20.0807 42.6927 20.0807 42.5937Z" fill="#216245"/>
</g>
<defs>
<clipPath id="clip0_1665_1578">
<rect width="142" height="69" fill="white" transform="translate(0.5)"/>
</clipPath>
</defs>
</svg>
