<svg width="168" height="51" viewBox="0 0 168 51" fill="none" xmlns="http://www.w3.org/2000/svg">
<g id="itb_berlin_cmyk_m_claim" clip-path="url(#clip0_1665_1604)">
<g id="Box">
<path id="Vector" d="M168 0H116.712V51H168V0Z" fill="white"/>
<path id="Vector_2" d="M114.541 0H0V51H114.541V0Z" fill="white"/>
</g>
<g id="Logo">
<path id="Vector_3" d="M97.9618 20.7268C97.9784 20.9505 97.946 21.175 97.8666 21.385C97.7873 21.5949 97.663 21.7852 97.5024 21.9427C97.3417 22.1001 97.1486 22.221 96.9364 22.2968C96.7241 22.3727 96.4978 22.4017 96.2732 22.382H93.1551V19.1016H96.2732C96.496 19.0782 96.7213 19.1037 96.9332 19.1763C97.1451 19.2489 97.3383 19.3669 97.4994 19.5218C97.6604 19.6768 97.7853 19.8651 97.8652 20.0732C97.9451 20.2814 97.9781 20.5045 97.9618 20.7268ZM97.7025 13.4642C97.7166 13.6803 97.6818 13.8967 97.6008 14.0976C97.5199 14.2986 97.3947 14.479 97.2345 14.6256C97.0744 14.7723 96.8832 14.8814 96.6751 14.9451C96.467 15.0087 96.2473 15.0253 96.0319 14.9935H93.1551V11.9409H96.0319C96.2465 11.9104 96.4653 11.9277 96.6724 11.9914C96.8796 12.0551 97.0699 12.1638 97.2297 12.3095C97.3895 12.4552 97.5148 12.6343 97.5965 12.834C97.6783 13.0337 97.7145 13.2489 97.7025 13.4642ZM102.576 20.9907C102.618 20.1634 102.422 19.3412 102.011 18.6208C101.6 17.9005 100.99 17.312 100.254 16.9246C100.875 16.5226 101.388 15.9749 101.746 15.3297C102.105 14.6845 102.299 13.9615 102.31 13.2243C102.31 9.99784 100.23 7.82686 96.3214 7.82686H88.5414V26.5021H96.7194C100.073 26.5021 102.576 24.559 102.576 20.9907ZM85.556 11.9109V7.79688H71.6847V11.887H76.2984V26.5021H80.9182V11.9109H85.556ZM68.7536 7.79688H64.1097V26.5021H68.7536V7.79688Z" fill="#1A1A18"/>
<path id="Vector_4" d="M64.1037 33.584H66.4015C67.9877 33.584 69.4713 34.1057 69.4713 35.9529C69.529 36.4759 69.3761 37.0003 69.0461 37.4116C68.7161 37.8229 68.2359 38.0876 67.7102 38.1478C68.2791 38.2007 68.8067 38.4658 69.1871 38.8896C69.5674 39.3135 69.7724 39.8648 69.7608 40.4328C69.7608 42.5318 68.042 43.1795 66.0276 43.1795H64.1037V33.584ZM65.0566 42.3818H66.0577C67.3484 42.3818 68.8019 42.04 68.8019 40.5047C68.8019 38.7955 67.3182 38.6156 65.907 38.6156H65.0566V42.3818ZM65.0566 37.788H66.1241C67.1373 37.788 68.4822 37.5301 68.4822 35.9889C68.4822 34.5975 67.1916 34.4056 66.3714 34.4056H65.0566V37.788Z" fill="#1A1A18"/>
<path id="Vector_5" d="M71.7088 33.584H76.4552V34.4116H72.6677V37.842H76.2863V38.6696H72.6677V42.3818H76.5939V43.1795H71.7088V33.584Z" fill="#1A1A18"/>
<path id="Vector_6" d="M78.2465 33.584H80.7433C82.4621 33.584 83.5899 34.3156 83.5899 36.0788C83.5787 36.6505 83.3505 37.1969 82.9512 37.6084C82.5519 38.0199 82.011 38.2661 81.4369 38.2978C82.2149 38.3937 82.3777 38.8075 82.6853 39.4552L84.3378 43.1795H83.2824L81.8832 39.923C81.3283 38.6816 80.9122 38.6396 79.9955 38.6396H79.2054V43.1795H78.2465V33.584ZM79.2054 37.842H80.2126C81.3343 37.842 82.625 37.4162 82.625 36.0788C82.625 34.5075 81.5032 34.4116 80.2126 34.4116H79.2295L79.2054 37.842Z" fill="#1A1A18"/>
<path id="Vector_7" d="M85.7369 33.584H86.6898V42.3519H90.5738V43.1795H85.749L85.7369 33.584Z" fill="#1A1A18"/>
<path id="Vector_8" d="M91.8223 33.584H92.7752V43.1795H91.8223V33.584Z" fill="#1A1A18"/>
<path id="Vector_9" d="M94.9343 33.584H96.1405L101.068 42.052V33.584H102.027V43.1795H100.736L95.9113 34.8794V43.1795H94.9524L94.9343 33.584Z" fill="#1A1A18"/>
<path id="Vector_10" d="M122.43 8.39659H121.049V7.79688H124.444V8.39659H123.063V12.2348H122.43V8.39659Z" fill="#1A1A18"/>
<path id="Vector_11" d="M125.101 7.49023H125.704V9.4693C125.818 9.30026 125.972 9.16261 126.154 9.06925C126.335 8.97589 126.538 8.92989 126.742 8.93555C127.586 8.93555 127.948 9.45131 127.948 10.3209V12.234H127.345V10.5668C127.345 9.81114 127.176 9.44531 126.657 9.41533C125.976 9.41533 125.668 9.96107 125.668 10.7407V12.234H125.065L125.101 7.49023Z" fill="#1A1A18"/>
<path id="Vector_12" d="M131.476 12.1022C131.153 12.2441 130.804 12.3157 130.451 12.3121C130.218 12.333 129.984 12.3016 129.765 12.2202C129.547 12.1388 129.349 12.0095 129.187 11.8419C129.026 11.6743 128.904 11.4726 128.832 11.2519C128.759 11.0312 128.737 10.7971 128.768 10.5669C128.75 10.3582 128.775 10.1479 128.844 9.94967C128.912 9.75142 129.021 9.56958 129.164 9.41589C129.307 9.26219 129.481 9.14004 129.675 9.05733C129.869 8.97461 130.077 8.93316 130.288 8.93565C131.374 8.93565 131.723 9.72128 131.723 10.7348H129.408C129.404 10.8759 129.43 11.0163 129.482 11.1475C129.534 11.2787 129.612 11.3982 129.712 11.4989C129.811 11.5995 129.93 11.6793 130.061 11.7335C130.192 11.7877 130.333 11.8151 130.475 11.8143C130.832 11.7995 131.179 11.6874 131.476 11.4905V12.1022ZM131.084 10.303C131.097 10.1899 131.085 10.0754 131.051 9.96693C131.016 9.85849 130.958 9.75856 130.882 9.67367C130.806 9.58878 130.713 9.52084 130.608 9.47428C130.504 9.42771 130.39 9.40357 130.276 9.40343C130.041 9.40972 129.819 9.50765 129.656 9.67601C129.494 9.84438 129.404 10.0696 129.408 10.303H131.084Z" fill="#1A1A18"/>
<path id="Vector_13" d="M133.822 7.79688H134.522L135.583 11.5811L136.542 7.79688H137.447L138.406 11.5811L139.479 7.79688H140.155L138.786 12.2108H137.966L137.001 8.39659L136.03 12.2528H135.173L133.822 7.79688Z" fill="#1A1A18"/>
<path id="Vector_14" d="M142.006 8.93461C142.229 8.92753 142.45 8.96665 142.656 9.04947C142.862 9.1323 143.049 9.25701 143.204 9.41562C143.359 9.57424 143.479 9.76327 143.556 9.97062C143.633 10.178 143.666 10.3991 143.653 10.6198C143.666 10.8436 143.634 11.0677 143.557 11.2785C143.48 11.4892 143.361 11.6821 143.207 11.8454C143.052 12.0086 142.866 12.1386 142.659 12.2275C142.452 12.3164 142.229 12.3623 142.003 12.3623C141.778 12.3623 141.555 12.3164 141.348 12.2275C141.141 12.1386 140.955 12.0086 140.8 11.8454C140.646 11.6821 140.526 11.4892 140.45 11.2785C140.373 11.0677 140.34 10.8436 140.354 10.6198C140.34 10.3986 140.373 10.1769 140.451 9.96915C140.529 9.76137 140.649 9.57204 140.805 9.41334C140.96 9.25463 141.148 9.13005 141.355 9.04761C141.562 8.96516 141.784 8.92667 142.006 8.93461ZM142.006 11.8313C142.153 11.8216 142.296 11.7825 142.427 11.7163C142.558 11.6501 142.674 11.5581 142.768 11.446C142.862 11.3338 142.933 11.2039 142.975 11.0639C143.017 10.924 143.03 10.777 143.014 10.6318C143.042 10.4836 143.037 10.331 142.999 10.1849C142.961 10.0387 142.891 9.90273 142.795 9.78652C142.698 9.67031 142.577 9.57676 142.439 9.51255C142.302 9.44834 142.152 9.41505 142 9.41505C141.849 9.41505 141.699 9.44834 141.561 9.51255C141.424 9.57676 141.303 9.67031 141.206 9.78652C141.109 9.90273 141.039 10.0387 141.002 10.1849C140.964 10.331 140.959 10.4836 140.987 10.6318C140.971 10.7778 140.985 10.9254 141.029 11.0657C141.072 11.2061 141.143 11.3362 141.239 11.4484C141.334 11.5605 141.451 11.6522 141.583 11.718C141.715 11.7838 141.859 11.8224 142.006 11.8313Z" fill="#1A1A18"/>
<path id="Vector_15" d="M144.479 8.99639H145.04V9.50015C145.11 9.33183 145.227 9.18647 145.376 9.08049C145.525 8.97452 145.701 8.91215 145.884 8.90043C146.016 8.89953 146.148 8.91362 146.276 8.94241V9.47616C146.173 9.43419 146.062 9.41378 145.951 9.41619C145.414 9.41619 145.064 9.92595 145.064 10.7356V12.2349H144.461L144.479 8.99639Z" fill="#1A1A18"/>
<path id="Vector_16" d="M146.988 7.49023H147.591V12.234H146.988V7.49023Z" fill="#1A1A18"/>
<path id="Vector_17" d="M150.98 11.7782C150.855 11.9509 150.689 12.09 150.496 12.1832C150.304 12.2763 150.091 12.3205 149.877 12.312C148.9 12.312 148.484 11.4424 148.484 10.5668C148.484 9.6912 148.942 8.93555 149.883 8.93555C150.092 8.91664 150.302 8.95464 150.491 9.04549C150.681 9.13634 150.841 9.27662 150.956 9.45131V7.49023H151.559V12.234H150.993L150.98 11.7782ZM149.997 11.8322C150.673 11.8322 150.95 11.1665 150.95 10.6328C150.95 10.099 150.643 9.43332 149.991 9.43332C149.34 9.43332 149.087 10.033 149.099 10.6328C149.111 11.2325 149.358 11.8322 149.997 11.8322Z" fill="#1A1A18"/>
<path id="Vector_18" d="M152.88 7.79688H153.598L153.037 9.35014H152.488L152.88 7.79688Z" fill="#1A1A18"/>
<path id="Vector_19" d="M154.062 11.6043C154.289 11.7398 154.546 11.818 154.81 11.8322C155.082 11.8322 155.413 11.7182 155.413 11.3704C155.413 10.7707 154.008 10.8307 154.008 9.92508C154.008 9.25939 154.509 8.93555 155.154 8.93555C155.406 8.93868 155.657 8.98118 155.896 9.06149L155.841 9.57725C155.651 9.48891 155.447 9.43412 155.238 9.41532C154.931 9.41532 154.665 9.54126 154.665 9.80514C154.665 10.4648 156.071 10.2729 156.071 11.3044C156.07 11.4469 156.039 11.5876 155.98 11.7175C155.921 11.8473 155.835 11.9635 155.729 12.0584C155.622 12.1533 155.496 12.2249 155.36 12.2686C155.223 12.3123 155.079 12.327 154.937 12.312C154.631 12.3276 154.326 12.2657 154.05 12.132L154.062 11.6043Z" fill="#1A1A18"/>
<path id="Vector_20" d="M121.555 15.4121H122.194V19.2683H124.046V19.826H121.555V15.4121Z" fill="#1A1A18"/>
<path id="Vector_21" d="M127.194 19.694C126.872 19.8366 126.522 19.9082 126.169 19.9039C125.017 19.9039 124.492 19.2082 124.492 18.1587C124.474 17.95 124.499 17.7397 124.568 17.5415C124.636 17.3432 124.745 17.1614 124.888 17.0077C125.031 16.854 125.205 16.7318 125.399 16.6491C125.592 16.5664 125.801 16.525 126.012 16.5274C127.092 16.5274 127.441 17.3131 127.441 18.3266H125.126C125.122 18.4677 125.148 18.6081 125.2 18.7393C125.252 18.8705 125.33 18.99 125.43 19.0907C125.529 19.1913 125.648 19.2711 125.779 19.3253C125.91 19.3794 126.051 19.4069 126.193 19.4061C126.551 19.3934 126.897 19.2812 127.194 19.0822V19.694ZM126.802 17.8948C126.815 17.7822 126.804 17.6682 126.769 17.5601C126.735 17.4521 126.678 17.3525 126.602 17.2677C126.527 17.1829 126.434 17.1148 126.33 17.0679C126.226 17.021 126.114 16.9962 126 16.9952C125.765 17.0015 125.542 17.0992 125.378 17.2674C125.214 17.4356 125.124 17.6609 125.126 17.8948H126.802Z" fill="#1A1A18"/>
<path id="Vector_22" d="M128.376 16.8272C128.699 16.6341 129.067 16.5306 129.444 16.5273C130.373 16.5273 130.746 16.9831 130.746 17.8587V19.1901C130.743 19.4004 130.753 19.6108 130.777 19.8198H130.216V19.406C130.1 19.563 129.949 19.6898 129.773 19.7754C129.598 19.8611 129.404 19.9031 129.209 19.8978C128.509 19.8978 128.002 19.5919 128.002 18.8902C128.002 18.0806 128.895 17.8287 129.51 17.8287C129.745 17.8287 129.908 17.8287 130.143 17.8287C130.143 17.271 129.944 16.9891 129.347 16.9891C129.003 16.9912 128.67 17.1073 128.4 17.319L128.376 16.8272ZM130.149 18.2905H129.769C129.444 18.2905 128.642 18.3385 128.642 18.8902C128.659 19.0365 128.731 19.1712 128.842 19.2685C128.953 19.3658 129.097 19.419 129.245 19.418C129.361 19.4309 129.478 19.419 129.589 19.3829C129.699 19.3469 129.801 19.2877 129.887 19.2092C129.973 19.1308 130.04 19.0349 130.086 18.9282C130.131 18.8214 130.153 18.7062 130.149 18.5904V18.2905Z" fill="#1A1A18"/>
<path id="Vector_23" d="M134.082 19.37C133.956 19.5427 133.79 19.6818 133.597 19.775C133.405 19.8681 133.192 19.9123 132.978 19.9038C131.995 19.9038 131.585 19.0342 131.585 18.1586C131.585 17.283 132.043 16.5274 132.984 16.5274C133.193 16.5091 133.403 16.5474 133.592 16.6382C133.781 16.729 133.942 16.8689 134.057 17.0431V15.082H134.661V19.8258H134.057L134.082 19.37ZM133.105 19.424C133.78 19.424 134.057 18.7583 134.057 18.2246C134.057 17.6908 133.744 17.0251 133.099 17.0251C132.453 17.0251 132.194 17.6248 132.206 18.2246C132.218 18.8243 132.459 19.424 133.105 19.424Z" fill="#1A1A18"/>
<path id="Vector_24" d="M136.361 15.8805H135.698V15.2148H136.373L136.361 15.8805ZM135.698 16.6002H136.301V19.8267H135.698V16.6002Z" fill="#1A1A18"/>
<path id="Vector_25" d="M137.381 16.6003H137.984V17.1161C138.087 16.9282 138.242 16.7726 138.429 16.6667C138.616 16.5608 138.83 16.5088 139.045 16.5163C139.883 16.5163 140.251 17.0321 140.251 17.9017V19.8148H139.648V18.1596C139.648 17.4039 139.485 17.0381 138.961 17.0081C138.285 17.0081 137.978 17.5539 137.978 18.3335V19.8268H137.375L137.381 16.6003Z" fill="#1A1A18"/>
<path id="Vector_26" d="M144.141 19.6877C144.141 20.6652 143.635 21.229 142.471 21.229C142.072 21.2271 141.678 21.1519 141.307 21.0071L141.373 20.4613C141.734 20.6499 142.135 20.7487 142.543 20.7492C142.685 20.7531 142.826 20.7263 142.956 20.6706C143.086 20.6149 143.203 20.5316 143.298 20.4266C143.392 20.3216 143.463 20.1974 143.504 20.0625C143.546 19.9277 143.558 19.7854 143.538 19.6457V19.3278C143.408 19.4881 143.242 19.6163 143.054 19.7026C142.866 19.7889 142.66 19.831 142.453 19.8256C142.254 19.822 142.058 19.7769 141.877 19.6933C141.697 19.6097 141.536 19.4894 141.406 19.3402C141.275 19.191 141.177 19.0162 141.118 18.8271C141.06 18.638 141.042 18.4388 141.066 18.2424C141.066 17.4087 141.536 16.5272 142.513 16.5272C142.727 16.5015 142.943 16.541 143.134 16.6407C143.325 16.7403 143.48 16.8952 143.58 17.0849V16.5991H144.141V19.6877ZM143.538 18.2544C143.538 17.5827 143.231 17.0069 142.591 17.0069C141.952 17.0069 141.687 17.6606 141.687 18.2064C141.687 18.7521 142.03 19.3458 142.591 19.3458C142.726 19.3383 142.859 19.3039 142.98 19.2445C143.101 19.185 143.21 19.1019 143.298 19C143.386 18.8982 143.453 18.7796 143.494 18.6515C143.536 18.5234 143.551 18.3883 143.538 18.2544Z" fill="#1A1A18"/>
<path id="Vector_27" d="M122.43 23.5636H121.049V23.0059H124.444V23.5636H123.063V27.4198H122.43V23.5636Z" fill="#1A1A18"/>
<path id="Vector_28" d="M124.619 24.1977H125.18V24.6954C125.25 24.5271 125.367 24.3818 125.516 24.2758C125.665 24.1698 125.841 24.1074 126.024 24.0957C126.158 24.095 126.291 24.1091 126.422 24.1377V24.6715C126.317 24.629 126.204 24.6086 126.09 24.6115C125.554 24.6115 125.204 25.1212 125.204 25.9309V27.3942H124.601L124.619 24.1977Z" fill="#1A1A18"/>
<path id="Vector_29" d="M127.17 24.421C127.492 24.2279 127.861 24.1243 128.238 24.1211C129.166 24.1211 129.54 24.5769 129.54 25.4525V26.7898C129.529 26.9896 129.529 27.1898 129.54 27.3896H128.985V26.9877C128.871 27.1439 128.72 27.2701 128.545 27.3558C128.371 27.4414 128.179 27.4838 127.984 27.4795C127.285 27.4795 126.778 27.1737 126.778 26.472C126.778 25.6624 127.665 25.4105 128.286 25.4105C128.521 25.4105 128.684 25.4105 128.919 25.4105C128.919 24.8527 128.714 24.5709 128.117 24.5709C127.775 24.572 127.443 24.6882 127.176 24.9007L127.17 24.421ZM128.943 25.8843H128.563C128.238 25.8843 127.435 25.9322 127.435 26.484C127.453 26.6303 127.524 26.7649 127.636 26.8622C127.747 26.9596 127.89 27.0128 128.038 27.0117C128.156 27.024 128.275 27.0108 128.387 26.973C128.499 26.9352 128.602 26.8738 128.688 26.7929C128.774 26.712 128.841 26.6135 128.885 26.5043C128.929 26.3951 128.949 26.2777 128.943 26.1601V25.8843Z" fill="#1A1A18"/>
<path id="Vector_30" d="M131.929 27.4197H131.217L130.053 24.1992H130.704L131.585 26.826L132.483 24.1992H133.086L131.929 27.4197Z" fill="#1A1A18"/>
<path id="Vector_31" d="M136.12 27.2877C135.8 27.4306 135.452 27.5022 135.101 27.4976C134.868 27.5185 134.634 27.4871 134.415 27.4058C134.196 27.3244 133.999 27.1951 133.837 27.0275C133.676 26.8598 133.554 26.6582 133.482 26.4375C133.409 26.2167 133.387 25.9826 133.418 25.7524C133.4 25.5437 133.425 25.3335 133.493 25.1352C133.562 24.937 133.671 24.7551 133.814 24.6014C133.957 24.4477 134.131 24.3256 134.325 24.2429C134.518 24.1602 134.727 24.1187 134.938 24.1212C136.024 24.1212 136.373 24.9068 136.373 25.9204H134.057C134.055 26.061 134.081 26.2007 134.134 26.3312C134.186 26.4617 134.265 26.5805 134.364 26.6805C134.463 26.7805 134.582 26.8598 134.713 26.9136C134.843 26.9674 134.983 26.9947 135.125 26.9938C135.481 26.9804 135.825 26.8682 136.12 26.67V27.2877ZM135.734 25.4886C135.747 25.3754 135.735 25.2609 135.701 25.1525C135.666 25.044 135.608 24.9441 135.532 24.8592C135.456 24.7743 135.362 24.7064 135.258 24.6598C135.154 24.6133 135.04 24.5891 134.926 24.589C134.691 24.5953 134.469 24.6932 134.306 24.8616C134.143 25.0299 134.054 25.2552 134.057 25.4886H135.734Z" fill="#1A1A18"/>
<path id="Vector_32" d="M137.248 22.6758H137.851V27.4195H137.248V22.6758Z" fill="#1A1A18"/>
<path id="Vector_33" d="M141.651 23.5636H140.275V23.0059H143.671V23.5636H142.29V27.4198H141.651V23.5636Z" fill="#1A1A18"/>
<path id="Vector_34" d="M143.828 24.1977H144.389V24.6955C144.459 24.5271 144.576 24.3818 144.725 24.2758C144.874 24.1698 145.05 24.1075 145.233 24.0957C145.365 24.0948 145.496 24.1089 145.625 24.1377V24.6715C145.522 24.6295 145.411 24.6091 145.299 24.6115C144.763 24.6115 144.413 25.1213 144.413 25.9309V27.3942H143.81L143.828 24.1977Z" fill="#1A1A18"/>
<path id="Vector_35" d="M146.379 24.421C146.701 24.2265 147.07 24.1228 147.446 24.1211C148.375 24.1211 148.749 24.5769 148.749 25.4525V26.7898C148.738 26.9896 148.738 27.1898 148.749 27.3896H148.188V26.9877C148.073 27.1439 147.923 27.2701 147.748 27.3558C147.574 27.4414 147.381 27.4838 147.187 27.4795C146.487 27.4795 145.981 27.1737 145.981 26.472C145.981 25.6624 146.873 25.4105 147.489 25.4105C147.724 25.4105 147.893 25.4105 148.128 25.4105C148.128 24.8527 147.923 24.5709 147.326 24.5709C146.984 24.572 146.652 24.6882 146.385 24.9007L146.379 24.421ZM148.152 25.8843H147.772C147.446 25.8843 146.644 25.9322 146.644 26.484C146.662 26.6303 146.733 26.7649 146.845 26.8622C146.956 26.9596 147.099 27.0128 147.247 27.0117C147.365 27.024 147.484 27.0108 147.596 26.973C147.708 26.9352 147.811 26.8738 147.897 26.7929C147.983 26.712 148.05 26.6135 148.094 26.5043C148.138 26.3951 148.158 26.2777 148.152 26.1601V25.8843Z" fill="#1A1A18"/>
<path id="Vector_36" d="M152.084 26.9878C151.957 27.1601 151.79 27.2989 151.596 27.392C151.403 27.485 151.189 27.5295 150.974 27.5215C149.997 27.5215 149.581 26.6519 149.581 25.7763C149.581 24.9007 150.04 24.1451 150.98 24.1451C151.19 24.1262 151.4 24.1642 151.589 24.255C151.778 24.3459 151.939 24.4862 152.054 24.6608V22.6758H152.657V27.4195H152.054L152.084 26.9878ZM151.101 27.0417C151.777 27.0417 152.054 26.376 152.054 25.8423C152.054 25.3085 151.746 24.6429 151.095 24.6429C150.444 24.6429 150.196 25.2426 150.209 25.8423C150.221 26.442 150.462 27.0177 151.101 27.0177V27.0417Z" fill="#1A1A18"/>
<path id="Vector_37" d="M156.203 27.2876C155.881 27.4295 155.531 27.5011 155.178 27.4975C154.026 27.4975 153.501 26.8018 153.501 25.7523C153.483 25.5456 153.508 25.3374 153.575 25.1408C153.642 24.9442 153.749 24.7635 153.889 24.6102C154.03 24.4569 154.201 24.3343 154.392 24.2501C154.582 24.1659 154.788 24.1219 154.997 24.1211C156.077 24.1211 156.426 24.9067 156.426 25.9202H154.111C154.108 26.0609 154.134 26.2006 154.187 26.3311C154.239 26.4616 154.318 26.5804 154.417 26.6804C154.517 26.7804 154.635 26.8596 154.766 26.9135C154.896 26.9673 155.037 26.9946 155.178 26.9937C155.536 26.9801 155.882 26.868 156.179 26.6699L156.203 27.2876ZM155.811 25.4884C155.824 25.3748 155.813 25.2598 155.777 25.1509C155.742 25.0421 155.684 24.9419 155.607 24.8569C155.53 24.7719 155.436 24.7041 155.331 24.6579C155.226 24.6117 155.112 24.5882 154.997 24.5889C154.763 24.5952 154.54 24.6931 154.377 24.8615C154.215 25.0298 154.125 25.2551 154.129 25.4884H155.811Z" fill="#1A1A18"/>
<path id="Vector_38" d="M123.576 31.263C123.315 31.1405 123.031 31.077 122.743 31.0771C122.387 31.0771 121.971 31.2091 121.971 31.6768C121.971 32.5284 123.877 32.3305 123.877 33.7879C123.877 34.7294 123.147 35.1012 122.255 35.1012C121.943 35.0874 121.636 35.0247 121.344 34.9153L121.41 34.3156C121.703 34.4419 122.015 34.5151 122.333 34.5315C122.438 34.5414 122.543 34.5306 122.644 34.4997C122.744 34.4688 122.837 34.4185 122.918 34.3516C122.999 34.2847 123.066 34.2025 123.114 34.1099C123.163 34.0173 123.193 33.916 123.202 33.8118C123.202 32.8223 121.296 33.0982 121.296 31.7248C121.296 30.9392 121.899 30.5254 122.719 30.5254C123.041 30.5259 123.361 30.5786 123.666 30.6813L123.576 31.263Z" fill="#1A1A18"/>
<path id="Vector_39" d="M124.715 30.2676H125.319V32.2526C125.432 32.0816 125.587 31.9422 125.77 31.8478C125.952 31.7533 126.156 31.7068 126.362 31.7129C127.2 31.7129 127.568 32.2287 127.568 33.0982V35.0113H126.965V33.3441C126.965 32.5885 126.802 32.2227 126.277 32.1927C125.596 32.1927 125.294 32.7384 125.294 33.518V35.0113H124.691L124.715 30.2676Z" fill="#1A1A18"/>
<path id="Vector_40" d="M130.047 31.712C130.269 31.7049 130.49 31.744 130.697 31.8268C130.903 31.9096 131.089 32.0344 131.244 32.193C131.399 32.3516 131.519 32.5406 131.597 32.748C131.674 32.9553 131.707 33.1764 131.693 33.3972C131.707 33.6209 131.674 33.845 131.598 34.0558C131.521 34.2666 131.402 34.4595 131.247 34.6227C131.093 34.7859 130.906 34.916 130.699 35.0049C130.492 35.0938 130.269 35.1396 130.044 35.1396C129.818 35.1396 129.595 35.0938 129.388 35.0049C129.181 34.916 128.995 34.7859 128.841 34.6227C128.686 34.4595 128.567 34.2666 128.49 34.0558C128.413 33.845 128.381 33.6209 128.394 33.3972C128.381 33.1759 128.414 32.9543 128.491 32.7465C128.569 32.5387 128.69 32.3494 128.845 32.1907C129.001 32.032 129.188 31.9074 129.395 31.8249C129.602 31.7425 129.824 31.704 130.047 31.712ZM130.047 34.6086C130.194 34.5989 130.337 34.5598 130.468 34.4937C130.599 34.4275 130.716 34.3357 130.811 34.2237C130.905 34.1116 130.976 33.9817 131.019 33.8417C131.062 33.7018 131.076 33.5546 131.06 33.4092C131.086 33.2619 131.079 33.1108 131.039 32.9665C131 32.8223 130.93 32.6883 130.833 32.5739C130.736 32.4596 130.615 32.3677 130.479 32.3046C130.343 32.2416 130.194 32.2089 130.044 32.2089C129.893 32.2089 129.745 32.2416 129.609 32.3046C129.472 32.3677 129.352 32.4596 129.255 32.5739C129.158 32.6883 129.088 32.8223 129.048 32.9665C129.009 33.1108 129.002 33.2619 129.028 33.4092C129.012 33.5551 129.026 33.7027 129.069 33.8431C129.112 33.9834 129.184 34.1136 129.279 34.2257C129.374 34.3378 129.492 34.4296 129.624 34.4954C129.755 34.5612 129.899 34.5997 130.047 34.6086Z" fill="#1A1A18"/>
<path id="Vector_41" d="M136.132 35.0116H135.439L134.6 32.3069L133.78 35.0116H133.086L132.031 31.7852H132.682L133.424 34.4539L134.269 31.7852H134.974L135.788 34.4539L136.59 31.7852H137.194L136.132 35.0116Z" fill="#1A1A18"/>
<path id="Vector_42" d="M137.429 31.6165C137.429 31.3532 137.507 31.0958 137.654 30.8769C137.802 30.6579 138.011 30.4873 138.255 30.3865C138.5 30.2857 138.769 30.2594 139.029 30.3107C139.289 30.3621 139.527 30.4889 139.714 30.6751C139.902 30.8613 140.029 31.0985 140.081 31.3568C140.132 31.6151 140.106 31.8827 140.005 32.126C139.903 32.3693 139.732 32.5772 139.512 32.7235C139.291 32.8698 139.032 32.9479 138.768 32.9479C138.413 32.9463 138.073 32.8055 137.823 32.5562C137.572 32.3069 137.43 31.9691 137.429 31.6165ZM139.781 31.6165C139.768 31.4206 139.698 31.2327 139.579 31.0759C139.46 30.9191 139.298 30.8003 139.112 30.734C138.926 30.6678 138.724 30.657 138.532 30.703C138.34 30.749 138.166 30.8498 138.031 30.993C137.896 31.1362 137.806 31.3155 137.772 31.509C137.738 31.7024 137.761 31.9015 137.84 32.0818C137.918 32.2621 138.047 32.4157 138.212 32.5237C138.377 32.6318 138.57 32.6896 138.768 32.69C138.906 32.6886 139.043 32.6594 139.169 32.6041C139.296 32.5488 139.41 32.4686 139.505 32.3683C139.599 32.268 139.673 32.1497 139.72 32.0205C139.768 31.8913 139.788 31.7539 139.781 31.6165ZM138.255 30.8609H138.816C139.178 30.8609 139.377 30.9808 139.377 31.2987C139.38 31.3521 139.372 31.4056 139.354 31.4558C139.335 31.506 139.306 31.5518 139.269 31.5902C139.231 31.6286 139.186 31.6588 139.136 31.6788C139.086 31.6988 139.033 31.7083 138.979 31.7065L139.389 32.3662H139.099L138.713 31.7185H138.538V32.3842H138.261L138.255 30.8609ZM138.532 31.5026H138.786C138.949 31.5026 139.093 31.5026 139.093 31.2807C139.093 31.0588 138.93 31.0708 138.786 31.0708H138.532V31.5026Z" fill="#1A1A18"/>
</g>
<g id="Globe">
<path id="Vector_43" d="M32.0548 5.52344C28.0816 5.52344 24.1975 6.69504 20.8938 8.8901C17.5901 11.0852 15.0152 14.2051 13.4947 17.8553C11.9742 21.5056 11.5764 25.5222 12.3515 29.3973C13.1267 33.2724 15.04 36.8319 17.8495 39.6256C20.6591 42.4194 24.2387 44.322 28.1356 45.0928C32.0326 45.8636 36.0718 45.468 39.7427 43.956C43.4135 42.444 46.5511 39.8836 48.7585 36.5984C50.9659 33.3133 52.1442 29.451 52.1442 25.5C52.1442 20.2019 50.0276 15.1208 46.2601 11.3744C42.4927 7.62811 37.3829 5.52344 32.0548 5.52344Z" fill="url(#paint0_radial_1665_1604)"/>
<path id="Vector_44" d="M48.7186 25.2487C48.7599 25.2815 48.7913 25.3251 48.809 25.3747C48.9082 25.5462 49.0276 25.7052 49.1648 25.8484H49.2553C49.3235 25.8618 49.3852 25.8977 49.4302 25.9504C49.5776 26.0465 49.7381 26.1212 49.9067 26.1723C49.9609 26.1723 50.4193 26.0404 50.4555 26.1183L50.5399 26.3162C50.5489 26.3442 50.5666 26.3685 50.5905 26.3858C50.6143 26.4031 50.6431 26.4123 50.6726 26.4122C50.8777 26.4122 51.342 26.5021 51.5954 26.5321C51.5954 26.1843 51.5954 25.8305 51.5954 25.4766C51.6016 20.7284 49.8522 16.1437 46.6801 12.5947L46.3122 12.7026C46.297 12.6297 46.2638 12.5617 46.2157 12.5047C45.9084 12.6672 45.6158 12.8558 45.3412 13.0685C45.3394 13.1197 45.3292 13.1704 45.311 13.2184C45.2695 13.2473 45.22 13.2628 45.1693 13.2628C45.1186 13.2628 45.0691 13.2473 45.0276 13.2184C44.9914 13.1884 44.8527 13.0385 44.8889 13.0205C44.9311 12.993 44.9754 12.9689 45.0215 12.9485C45.0326 12.9373 45.0388 12.9222 45.0388 12.9065C45.0388 12.8908 45.0326 12.8758 45.0215 12.8646C44.8252 12.7852 44.6237 12.7191 44.4184 12.6666C44.4184 12.6666 44.4184 12.6666 44.4184 12.7026C44.5632 12.7866 44.6114 13.0865 44.6114 13.1164C44.6114 13.1464 44.7743 13.2724 44.7803 13.3263C44.7831 13.3583 44.7831 13.3904 44.7803 13.4223C44.7803 13.4523 44.5933 13.4523 44.5391 13.4223C44.5049 13.4094 44.4676 13.407 44.4321 13.4156C44.3965 13.4242 44.3645 13.4432 44.34 13.4703C44.34 13.5003 44.1651 13.6262 44.1289 13.6682C44.0928 13.7102 44.1893 13.968 44.1953 13.98C44.2056 13.9928 44.2112 14.0087 44.2112 14.025C44.2112 14.0414 44.2056 14.0572 44.1953 14.07C44.0111 14.0661 43.8308 14.0166 43.6706 13.9261C43.6706 13.9261 43.4897 13.992 43.4776 14.022C43.4737 14.0383 43.4745 14.0554 43.4798 14.0713C43.4851 14.0872 43.4948 14.1013 43.5078 14.112C43.5741 14.1719 43.7852 14.3818 43.743 14.3758C43.7007 14.3698 43.3751 14.2199 43.3148 14.2079C43.2965 14.2042 43.2794 14.1962 43.2648 14.1848C43.2501 14.1733 43.2383 14.1587 43.2303 14.142C43.1736 14.0317 43.1252 13.9175 43.0856 13.8001C43.0856 13.6802 43.0434 13.6202 42.9107 13.5722C42.8014 13.5297 42.7027 13.4643 42.6212 13.3803C42.7039 13.3862 42.7852 13.4044 42.8624 13.4343C43.0729 13.5039 43.2887 13.556 43.5078 13.5902C43.6656 13.6162 43.8275 13.6018 43.9782 13.5482C44.004 13.5399 44.0284 13.5278 44.0505 13.5122C44.0813 13.4168 44.0875 13.3151 44.0685 13.2166C44.0495 13.1181 44.006 13.026 43.942 12.9485C43.8979 12.9317 43.857 12.9074 43.8214 12.8765C43.776 12.846 43.7246 12.8255 43.6706 12.8166C43.5801 12.8166 42.5187 12.4687 42.4644 12.4687C42.4163 12.4745 42.3677 12.4745 42.3196 12.4687C42.2774 12.4687 42.1025 12.3068 42.0784 12.3308C41.9386 12.3414 41.7981 12.3292 41.6623 12.2948C41.6623 12.2948 41.9337 12.1329 41.9035 12.1209C41.7759 12.0658 41.6423 12.0256 41.5055 12.001C41.5055 12.001 41.3607 12.0549 41.3547 12.0489C41.3487 12.0429 41.3185 11.917 41.2702 11.905C41.222 11.893 41.1134 12.0369 41.1014 12.0549C41.0948 12.0581 41.0876 12.0598 41.0803 12.0598C41.073 12.0598 41.0657 12.0581 41.0592 12.0549C41.0592 12.019 40.9325 11.965 40.9265 11.947C40.6091 12.0266 40.2986 12.1308 39.9977 12.2588C39.9977 12.2588 39.9977 12.2588 39.9977 12.3008C39.9977 12.3428 39.9977 12.3428 39.9977 12.3608C39.9977 12.3788 39.7926 12.4028 39.7987 12.4028C39.6548 12.4346 39.5152 12.4829 39.3825 12.5467C39.3751 12.5559 39.3701 12.5668 39.368 12.5784C39.3658 12.59 39.3665 12.602 39.3701 12.6133C39.3737 12.6245 39.38 12.6347 39.3885 12.643C39.3969 12.6513 39.4073 12.6573 39.4187 12.6607C39.4187 12.6607 39.479 12.7326 39.4187 12.7446C39.3584 12.7566 39.3584 12.7866 39.3162 12.7446C39.2704 12.7356 39.2233 12.7356 39.1775 12.7446C39.1473 12.7446 39.1172 12.7446 39.1292 12.7026L39.1775 12.5947L38.9785 12.7566C38.9785 12.7566 38.9785 12.7986 38.9785 12.8166C38.9785 12.8346 38.9785 12.8706 38.9785 12.8945V12.9305H39.081C39.1473 12.9305 39.2137 12.9305 39.28 12.8945H39.3946C39.3946 12.8945 39.1111 13.0565 39.0931 13.0805C39.075 13.1044 39.0931 13.1404 39.0931 13.1704C39.0619 13.2424 39.0168 13.3076 38.9604 13.3623C38.8487 13.4727 38.7587 13.6029 38.695 13.7461C38.6942 13.8412 38.6821 13.9358 38.6588 14.028C38.6588 14.064 37.911 14.6277 37.923 14.6277C37.9351 14.6277 37.7904 14.8076 37.6939 14.7956L37.5009 14.9156C37.5009 14.9156 37.2596 15.0715 37.2476 15.0895C37.2556 15.291 37.2798 15.4915 37.3199 15.6892C37.3448 15.7266 37.3651 15.7669 37.3802 15.8092C37.3802 15.8092 37.3079 15.9411 37.2837 15.9651C37.2596 15.9891 37.3923 16.193 37.3923 16.193C37.3923 16.193 37.3018 16.3609 37.326 16.3789C37.4286 16.4699 37.5501 16.5375 37.6818 16.5768C37.8579 16.4905 38.0291 16.3944 38.1944 16.2889C38.2773 16.2294 38.3639 16.1753 38.4538 16.127C38.4538 16.127 38.701 16.7267 38.7553 16.8227C38.8172 16.9466 38.8638 17.0775 38.894 17.2125C38.8447 17.2112 38.7956 17.2201 38.7499 17.2387C38.7042 17.2573 38.6629 17.2851 38.6287 17.3205C38.6287 17.3205 38.6648 17.4884 38.6829 17.5184C38.689 17.5338 38.689 17.5509 38.6829 17.5663C38.6829 17.5663 38.5141 17.3924 38.4176 17.3924C38.3211 17.3924 38.4598 17.2245 38.5322 17.1945C38.6045 17.1645 38.3935 17.0086 38.4357 16.9127C38.4478 16.8695 38.4478 16.8239 38.4357 16.7807C38.4357 16.7507 38.3995 16.7207 38.3754 16.7267C38.2524 16.8083 38.1234 16.8805 37.9894 16.9426C37.9894 16.9426 37.917 17.3504 37.911 17.3684C37.9049 17.3864 37.9713 18.0641 37.911 18.0461C37.6081 18.1148 37.3214 18.2411 37.0666 18.4179C37.0511 18.5074 37.0154 18.5923 36.9621 18.666C36.9088 18.7398 36.8394 18.8006 36.759 18.8437C36.6652 18.9244 36.5802 19.0149 36.5057 19.1136C36.3656 19.2492 36.1966 19.3517 36.0112 19.4135C35.9569 19.4135 35.8182 19.3355 35.7881 19.3355C35.7579 19.3355 35.7579 19.5094 35.7881 19.5634C35.8182 19.6174 35.4262 19.5634 35.39 19.6054C35.2842 19.6288 35.1852 19.676 35.1005 19.7433C35.3075 19.9878 35.5446 20.2054 35.8061 20.391C35.8329 20.4053 35.8546 20.4272 35.8686 20.4539C35.8826 20.4807 35.8882 20.511 35.8846 20.5409C35.8523 20.8037 35.7704 21.058 35.6433 21.2906C35.5348 21.2486 35.0101 21.2906 34.9136 21.2426C34.8171 21.1946 34.2441 21.1706 34.1476 21.2906C34.1476 21.2906 34.0933 21.2906 34.0632 21.3206H34.0029C33.985 21.3303 33.9708 21.3455 33.9621 21.3638C33.9535 21.3821 33.9508 21.4026 33.9546 21.4225C34.0197 21.7588 34.0073 22.1053 33.9184 22.4361C33.8882 22.4913 33.8639 22.5496 33.8461 22.61C33.8355 22.6282 33.8299 22.6489 33.8299 22.6699C33.8299 22.691 33.8355 22.7117 33.8461 22.7299C33.9183 22.8634 33.9615 23.0105 33.9727 23.1617C33.9686 23.1774 33.9686 23.194 33.9727 23.2097C34.0511 23.2097 34.4431 23.2517 34.4733 23.2996L34.5939 23.4796C34.6158 23.5099 34.6479 23.5315 34.6845 23.5403C34.721 23.5491 34.7595 23.5446 34.7929 23.5275L34.9256 23.4436C35.0302 23.3731 35.1554 23.3393 35.2814 23.3476C35.3758 23.3535 35.4705 23.3535 35.5649 23.3476C35.785 23.1766 35.9926 22.9902 36.1861 22.7899C36.1861 22.7539 36.2343 22.7119 36.1861 22.6759C36.0655 22.526 36.1318 22.4061 36.2404 22.2921C36.3489 22.1782 36.4816 21.9983 36.6203 21.9923C36.6914 21.9706 36.7542 21.9281 36.8005 21.8703C36.8468 21.8125 36.8744 21.7421 36.8797 21.6684C36.8855 21.5754 36.8996 21.4831 36.9219 21.3925C36.9361 21.3537 36.9626 21.3204 36.9974 21.2977C37.0321 21.275 37.0734 21.2641 37.1149 21.2666C37.2536 21.2966 37.6577 21.4045 37.718 21.3506C37.7783 21.2966 38.2728 20.9727 38.3754 21.0087C38.5062 21.1193 38.6147 21.2536 38.695 21.4045C38.8217 21.5185 39.6298 22.1122 39.7565 22.1842C39.7988 22.2574 39.8647 22.3144 39.9434 22.3461C39.9696 22.3611 39.9922 22.3816 40.0098 22.4061C40.047 22.5033 40.0753 22.6036 40.0942 22.7059C40.064 22.7959 40.0339 22.8738 39.9133 22.8978C39.7926 22.9218 39.2318 22.9998 39.2318 23.0178C39.4147 23.1536 39.6061 23.2778 39.8047 23.3896C39.8047 23.3896 39.9133 23.2936 39.9133 23.2637C39.9133 23.2337 39.9495 23.0238 40.0158 23.0298C40.0468 23.0338 40.0782 23.0285 40.1062 23.0146C40.1341 23.0007 40.1572 22.9789 40.1726 22.9518C40.2269 22.8618 40.2751 22.7659 40.3234 22.6759C40.3716 22.586 40.2631 22.3401 40.2691 22.2981C40.282 22.2743 40.3034 22.2561 40.3291 22.2473C40.3547 22.2384 40.3829 22.2394 40.4078 22.2501C40.4621 22.2861 40.5043 22.3281 40.5526 22.3641C40.561 22.3683 40.5703 22.3705 40.5797 22.3705C40.5891 22.3705 40.5984 22.3683 40.6068 22.3641C40.6491 22.3101 40.643 22.2202 40.6068 22.1962C40.4569 22.0817 40.2927 21.9869 40.1183 21.9143C40.058 21.9143 40.0218 21.7584 40.0037 21.7524H39.8831C39.8352 21.7504 39.7883 21.7381 39.7456 21.7164C39.7029 21.6946 39.6655 21.664 39.6358 21.6264C39.5876 21.5725 39.1835 21.1107 39.1473 21.0807C39.1111 21.0507 39.2257 20.6549 39.274 20.6369C39.313 20.6899 39.3435 20.7485 39.3644 20.8108C39.4378 20.8761 39.5315 20.9142 39.6298 20.9188C39.6514 20.9152 39.6734 20.9201 39.6914 20.9324C39.7094 20.9447 39.7219 20.9635 39.7263 20.9847C39.7728 21.1115 39.8653 21.2163 39.9856 21.2786C40.0761 21.3386 40.5887 21.5785 40.631 21.6324C40.6732 21.6864 40.7456 21.7524 40.8059 21.8123C40.8662 21.8723 40.8541 22.3161 40.9566 22.3821L41.3185 22.9398C41.3185 22.9398 41.2823 23.0058 41.3185 23.0058C41.3912 23.1321 41.4738 23.2524 41.5658 23.3656C41.6416 23.4056 41.7277 23.4222 41.813 23.4136C41.8492 23.4136 41.9216 23.1917 41.9156 23.1017C41.9156 23.1017 42.0482 23.0598 42.1206 23.0418C42.1164 22.9463 42.0754 22.8561 42.006 22.7899C41.9686 22.7708 41.9341 22.7466 41.9035 22.7179C41.814 22.5833 41.7373 22.4408 41.6743 22.2921C41.6743 22.2921 41.9457 22.3821 41.9879 22.2921C42.0302 22.2022 42.0663 22.1542 42.0784 22.1602C42.0905 22.1662 42.3076 22.1122 42.3739 22.1182C42.4156 22.1237 42.4541 22.1435 42.4827 22.1741C42.5113 22.2048 42.5283 22.2444 42.5307 22.2861C42.5519 22.4092 42.5519 22.5349 42.5307 22.6579C42.5307 22.6579 42.7418 22.7779 42.7298 22.7959C42.7177 22.8139 42.6212 22.8439 42.5729 22.8738C42.5729 22.8738 42.7659 23.0118 42.7901 23.0298C42.8142 23.0478 42.7418 23.1017 42.7901 23.1257C42.8383 23.1497 43.1218 23.4316 43.17 23.4196C43.2097 23.4054 43.2531 23.4054 43.2927 23.4197C43.3323 23.4339 43.3657 23.4614 43.3871 23.4976C43.4258 23.5306 43.471 23.5551 43.5198 23.5695C43.572 23.5719 43.6241 23.5635 43.6729 23.5449C43.7216 23.5263 43.766 23.498 43.8033 23.4616C43.8515 23.3836 43.9179 23.3896 43.9963 23.4076C44.0666 23.4243 44.1312 23.4595 44.1832 23.5095C44.2214 23.545 44.268 23.5702 44.3186 23.5828C44.3693 23.5954 44.4223 23.5949 44.4727 23.5815C44.5861 23.5612 44.6886 23.5018 44.7622 23.4136C44.7788 23.4014 44.7989 23.3948 44.8195 23.3948C44.8401 23.3948 44.8602 23.4014 44.8768 23.4136C44.9548 23.4253 45.034 23.4253 45.112 23.4136C45.0758 23.5215 44.8406 24.8109 44.7743 24.8889C44.7634 24.9069 44.7485 24.9223 44.7307 24.9337C44.7129 24.9451 44.6928 24.9524 44.6717 24.9549C44.5149 24.9549 44.0686 24.8949 44.0264 24.8889C43.9842 24.8829 43.5258 25.0268 43.4595 25.0148C43.2364 24.9669 41.8914 24.5411 41.8553 24.5351C41.6807 24.4885 41.4954 24.5033 41.3306 24.577C41.222 24.631 41.1979 25.1228 41.1737 25.1768L41.1074 25.2487C40.7434 25.1826 40.3929 25.0569 40.0701 24.8769C40.0534 24.8399 40.0393 24.8019 40.0279 24.763C40.0224 24.7207 40.0038 24.6812 39.9746 24.65C39.9453 24.6188 39.907 24.5975 39.865 24.589C39.6901 24.5231 38.8156 24.2772 38.7131 24.2472C38.6922 24.2317 38.6772 24.2096 38.6706 24.1846C38.6641 24.1595 38.6663 24.1329 38.6769 24.1093L38.8156 23.9773C38.8759 23.9054 38.7433 23.5695 38.7493 23.5515L38.8217 23.3776C38.6961 23.2936 38.5505 23.244 38.3995 23.2337C38.315 23.2337 36.4635 23.4316 36.3972 23.4676C36.1249 23.6294 35.8303 23.7506 35.5227 23.8274C35.4383 23.7974 34.9497 23.7674 34.9196 23.7494C34.8894 23.7314 34.7085 23.6415 34.6723 23.7494C34.6459 23.8071 34.6257 23.8674 34.612 23.9293C34.5819 24.0733 34.1416 24.3611 34.0089 24.4271C33.8559 24.6165 33.7431 24.8348 33.6772 25.0688C33.6772 25.1348 33.6772 25.1948 33.6772 25.2607C33.611 25.4102 33.5237 25.5496 33.4179 25.6745C33.302 25.7593 33.1739 25.826 33.0379 25.8724C33.0019 25.879 32.9677 25.8931 32.9375 25.9138C32.9074 25.9345 32.882 25.9612 32.863 25.9924C32.8001 26.0999 32.7207 26.197 32.6278 26.2802C32.551 26.3312 32.492 26.4045 32.4589 26.4901C32.3805 26.6341 31.8257 27.6056 31.8196 27.6896C31.8581 27.8934 31.9126 28.0939 31.9825 28.2893C32.0181 28.6657 31.9515 29.0447 31.7895 29.3868C31.8345 29.6021 31.8929 29.8144 31.9644 30.0225C31.9644 30.0944 32.2358 30.2144 32.2961 30.2324C32.3564 30.2504 32.9354 31.108 32.9957 31.2099C33.4133 31.5355 33.857 31.8263 34.3225 32.0795C34.7396 32.0115 35.1606 31.9694 35.583 31.9536C35.6707 31.9698 35.7607 31.9698 35.8484 31.9536C36.2669 31.7988 36.6963 31.6745 37.133 31.5817C37.1631 31.5817 37.7361 32.1335 37.8145 32.1395C37.8929 32.1455 38.4176 32.0435 38.4899 32.1395C38.5623 32.2354 38.695 32.3914 38.701 32.4993C38.7071 32.6073 38.4417 33.3689 38.4417 33.3869C38.5539 33.6129 38.7073 33.8162 38.894 33.9866C38.9362 34.0226 39.3283 34.6463 39.3946 34.7423C39.4496 34.8537 39.4863 34.9731 39.5032 35.0961C39.5032 35.0961 39.5032 35.1441 39.5032 35.1681C39.5032 35.192 39.66 35.8697 39.5032 35.9717C39.3228 36.3198 39.1793 36.6856 39.075 37.0632C39.075 37.1111 40.3475 39.9898 40.3535 40.0618C40.4479 40.1127 40.5468 40.1549 40.6491 40.1877C40.6491 40.1877 41.7045 40.0977 41.7226 40.0917C41.7407 40.0857 42.7056 39.7679 42.8504 39.6839C43.1506 39.4684 43.4366 39.234 43.7068 38.9823C43.743 38.9163 43.8093 38.5984 43.8576 38.5685C44.0676 38.4804 44.2694 38.374 44.4607 38.2506C44.4584 37.9901 44.4725 37.7297 44.5029 37.471C44.726 37.333 45.5342 36.8713 45.6126 36.8353C45.776 36.7585 45.911 36.6326 45.9986 36.4754C46.0408 36.4095 46.1192 35.6598 46.1554 35.5579C46.1916 35.4559 45.9624 34.9582 45.9443 34.8322C45.9443 34.8322 45.8538 34.4604 45.9443 34.3524C46.0909 34.1158 46.2563 33.8912 46.4388 33.6808C46.5379 33.6278 46.6259 33.5565 46.6982 33.4709C47.0444 33.135 47.4109 32.8206 47.7958 32.5293C48.1872 32.2503 48.5056 31.8822 48.7246 31.4558C48.7949 31.2873 48.8861 31.1281 48.996 30.982C49.0745 30.8871 49.132 30.7767 49.1648 30.6582C49.2046 30.5052 49.2269 30.3483 49.2312 30.1904C49.2312 30.1484 49.1588 30.1064 49.1226 30.1184C48.6067 30.2939 48.0758 30.4224 47.5365 30.5023C47.4324 30.3997 47.3413 30.2849 47.2651 30.1604C47.3314 30.0465 47.3314 30.0165 47.2651 29.9505C47.2115 29.9102 47.1646 29.8616 47.1264 29.8066C47.048 29.6806 46.3423 29.1589 46.3122 28.985C46.282 28.8111 45.8176 28.2533 45.8176 28.1933C45.8018 28.0177 45.7735 27.8433 45.7332 27.6716C45.7332 27.5097 45.3532 27.2278 45.3412 27.1978C45.3355 27.1681 45.3355 27.1376 45.3412 27.1079C45.3412 26.9999 44.9311 26.3042 44.8768 26.0763C44.8768 26.0344 45.1844 25.8604 45.2145 25.9024C45.2447 25.9444 45.4799 26.3222 45.5945 26.4722C45.7091 26.6221 45.7815 26.856 45.8418 26.88C45.9016 26.898 45.956 26.9304 46.0001 26.9744C46.0443 27.0183 46.0769 27.0724 46.0951 27.1318C46.1591 27.4136 46.2648 27.6845 46.4087 27.9355L46.5594 28.0314C46.6411 28.0943 46.7019 28.1799 46.7343 28.2773C46.7343 28.3972 47.2108 29.0329 47.1746 29.1649C47.1598 29.2035 47.1598 29.2462 47.1746 29.2848C47.2275 29.425 47.2679 29.5694 47.2952 29.7166C47.3117 29.7719 47.3318 29.826 47.3555 29.8785C48.0695 29.6609 48.7702 29.4026 49.4543 29.1049C49.4653 29.0598 49.4885 29.0186 49.5215 28.9858C49.5545 28.953 49.5959 28.9299 49.6413 28.919C49.768 28.883 50.6967 28.2773 50.7329 28.2533C50.7618 28.172 50.7801 28.0874 50.7872 28.0014C50.7872 27.9535 51.1008 27.6296 51.1792 27.4737C51.2052 27.4362 51.2153 27.39 51.2074 27.3452C51.1995 27.3003 51.1742 27.2603 51.137 27.2338C51.0823 27.1785 51.0356 27.116 50.9983 27.0479C50.9848 27.0219 50.9651 26.9995 50.9409 26.9828C50.9167 26.9661 50.8888 26.9555 50.8596 26.9519C50.7801 26.9487 50.7012 26.9367 50.6244 26.9159C50.5777 26.9048 50.5356 26.8796 50.5037 26.844C50.4317 26.7728 50.3851 26.6801 50.371 26.5801C50.371 26.4901 50.371 26.3942 50.371 26.3042C50.371 26.3042 50.3288 26.3042 50.3168 26.3042C50.1949 26.4242 50.0839 26.5547 49.9851 26.694C49.9067 26.814 49.4905 26.856 49.382 26.9039C49.2734 26.9519 49.3096 26.9039 49.2794 26.862C49.2311 26.7203 49.2007 26.5733 49.189 26.4242C49.1945 26.4066 49.1945 26.3878 49.189 26.3702C49.189 26.3702 49.0563 26.4302 49.0382 26.4662C49.0201 26.5021 48.9839 26.5141 48.9477 26.4662C48.9115 26.4182 48.803 26.1123 48.7366 26.0344C48.6703 25.9564 48.4049 25.6026 48.3507 25.4946C48.3392 25.4251 48.3392 25.3542 48.3507 25.2847C48.4704 25.2522 48.5948 25.2401 48.7186 25.2487Z" fill="white"/>
<path id="Vector_45" d="M27.6462 34.0949C27.5243 34.068 27.4052 34.0299 27.2904 33.981C27.212 33.921 26.7898 33.6211 26.6511 33.5432C26.5124 33.4652 26.0118 33.4412 25.7826 33.3753C25.7235 33.3831 25.6664 33.4014 25.6138 33.4292C25.6138 33.4292 25.4208 33.1953 25.3906 33.1893C25.264 33.1893 24.1844 32.6976 24.1482 32.6916C24.1627 32.5801 24.1627 32.4672 24.1482 32.3557C24.106 32.3078 23.8105 31.804 23.7683 31.756C23.5809 31.5994 23.3789 31.4608 23.1652 31.3422C22.9467 31.2915 22.7251 31.2554 22.5017 31.2343C22.362 31.1266 22.229 31.0104 22.1037 30.8864C21.9614 30.7701 21.8055 30.6715 21.6393 30.5926C21.488 30.4701 21.345 30.3379 21.2111 30.1968C21.2111 30.1608 21.3016 30.1188 21.2895 30.1008C21.1625 30.0817 21.0374 30.0516 20.9156 30.0108H20.8734C20.8734 30.0408 20.6623 30.2207 20.5537 30.1308C20.3886 30.0737 20.2192 30.0296 20.0471 29.9988C19.9338 29.8693 19.7992 29.7598 19.6491 29.675C19.6491 29.675 19.3415 29.9449 19.3174 29.9089C19.2932 29.8729 19.3958 29.633 19.3716 29.621C19.2943 29.6136 19.2169 29.6349 19.1545 29.681C19.1063 29.741 18.6298 29.8969 18.5997 29.9389C18.5695 29.9809 18.3826 30.3527 18.3524 30.4007C18.349 30.4305 18.349 30.4607 18.3524 30.4906C18.3524 30.4906 18.3524 30.4906 18.3102 30.4906C18.268 30.4906 17.7976 30.1968 17.7071 30.2507L17.6347 30.2987C17.6092 30.3219 17.5758 30.3347 17.5412 30.3347C17.5066 30.3347 17.4733 30.3219 17.4478 30.2987C17.3213 30.2607 17.215 30.1744 17.1522 30.0588L17.0256 29.8429C17.023 29.817 17.023 29.7909 17.0256 29.765C17.0332 29.6424 17.0473 29.5202 17.0678 29.3991C17.0678 29.3092 17.0678 28.9553 17.0678 28.8594C17.0128 28.8238 16.9513 28.7994 16.8869 28.7874C16.8869 28.7874 16.0003 28.6075 16.0124 28.5955C16.0244 28.5835 16.3019 27.48 16.326 27.438C16.3501 27.3961 16.326 27.2341 16.2777 27.2341C16.2295 27.2341 15.7169 27.3421 15.6746 27.4141C15.6447 27.5785 15.592 27.7379 15.5178 27.8878C15.5178 27.9958 15.4515 27.9898 15.3791 27.9538C15.3067 27.9178 14.9871 28.0438 14.9389 27.9538C14.8906 27.8638 14.7278 27.7619 14.7036 27.6959C14.6795 27.63 14.4805 26.9583 14.4805 26.9043C14.5243 26.3875 14.6234 25.8769 14.776 25.381C15.052 25.2877 15.337 25.2234 15.6264 25.1891C15.6746 25.2971 15.9038 25.2431 15.94 25.1891C15.9559 25.1384 15.966 25.0861 15.9702 25.0332C16.3084 24.9884 16.6511 24.9884 16.9894 25.0332C17.0376 25.1051 17.2427 25.9268 17.2909 26.0767C17.3197 26.144 17.3583 26.2066 17.4055 26.2626C17.4122 26.2752 17.4222 26.2857 17.4344 26.293C17.4466 26.3003 17.4606 26.3042 17.4749 26.3042C17.4892 26.3042 17.5032 26.3003 17.5154 26.293C17.5276 26.2857 17.5376 26.2752 17.5442 26.2626C17.5969 26.1427 17.6295 26.0151 17.6407 25.8848C17.5737 25.4878 17.5294 25.0873 17.5081 24.6853C17.4986 24.65 17.4986 24.6128 17.5081 24.5774C17.5925 24.4634 18.2077 23.9237 18.2499 23.8817C18.2921 23.8397 18.654 23.5159 18.672 23.4859C18.6901 23.4559 18.672 23.336 18.672 23.282C18.6843 23.0963 18.6843 22.91 18.672 22.7243C18.672 22.7243 18.7505 22.8802 18.7625 22.8922C18.8311 22.7596 18.8876 22.6211 18.9314 22.4784C18.9314 22.4784 19.2088 22.1905 19.2329 22.0706C19.2571 21.9506 19.5707 21.8787 19.5888 21.8667C19.6069 21.8547 19.5888 21.7647 19.5888 21.7647C19.7335 21.7647 19.8722 21.6988 20.0109 21.6988C20.0109 21.6988 20.0592 21.6688 20.0773 21.6508C20.0954 21.6328 20.0773 21.267 20.0773 21.207C20.3274 20.9996 20.6108 20.8354 20.9156 20.7212C20.9578 20.7212 21.0181 20.5833 21.0422 20.5773C21.0664 20.5713 21.2111 20.5293 21.3016 20.5053C21.3016 20.5053 20.988 20.8651 20.988 20.9011C20.9912 20.9273 20.9999 20.9525 21.0133 20.9752C21.0268 20.9979 21.0449 21.0176 21.0664 21.0331C21.0664 21.0331 22.3872 20.3494 22.4052 20.3374C22.3914 20.2241 22.3566 20.1143 22.3027 20.0135C22.2095 20.1004 22.1284 20.1992 22.0615 20.3074C22.0313 20.3494 21.9228 20.3374 21.8986 20.3374C21.7977 20.2394 21.7031 20.1353 21.6152 20.0255H21.573C21.5899 20.0892 21.6121 20.1514 21.6393 20.2115C21.5428 20.2115 21.5006 20.1515 21.5006 20.0435C21.5006 19.9356 21.5549 19.7017 21.5006 19.6957C21.4463 19.6897 21.4644 19.6957 21.5006 19.6597C21.5368 19.6237 21.7418 19.4498 21.7237 19.4078C21.7151 19.3762 21.6985 19.3473 21.6755 19.3239C21.6449 19.2946 21.6068 19.2741 21.5654 19.2646C21.524 19.2551 21.4807 19.2569 21.4403 19.2699C21.1948 19.3247 20.9617 19.4243 20.7528 19.5638C20.7532 19.5414 20.7589 19.5195 20.7694 19.4997C20.7798 19.4799 20.7948 19.4628 20.8131 19.4498C20.9005 19.3675 21.0028 19.3023 21.1146 19.2579C21.1521 19.2489 21.1872 19.2319 21.2174 19.2081C21.2476 19.1843 21.2722 19.1542 21.2895 19.12C21.2866 19.1041 21.2866 19.0878 21.2895 19.072C21.3498 19.024 21.4041 18.964 21.4644 18.9221C21.5247 18.8801 21.585 18.9221 21.6393 18.9221C21.8814 18.92 22.1233 18.936 22.363 18.97C22.4716 18.97 22.5741 18.9221 22.6827 18.97H22.7611L22.8395 18.9281C22.9146 18.8856 22.9802 18.8285 23.0325 18.7601C23.0523 18.7328 23.0775 18.7096 23.1065 18.6921C23.1355 18.6746 23.1678 18.6631 23.2013 18.6582L23.3401 18.6282C23.4724 18.6073 23.5959 18.549 23.6959 18.4603C23.7635 18.3309 23.8084 18.1909 23.8286 18.0465C23.8286 18.0465 23.7441 17.8486 23.6476 17.8666C23.6476 17.8666 23.6476 17.7046 23.5692 17.6986H23.4607L23.4969 17.6686L23.5753 17.6387C23.6115 17.6387 23.3099 17.3748 23.2315 17.3328C23.1531 17.2908 23.2013 17.3328 23.2013 17.2968C23.1869 17.2152 23.1416 17.1423 23.0747 17.0929L23.0084 16.997C23.0018 16.9908 22.9965 16.9834 22.993 16.9751C22.9894 16.9669 22.9875 16.958 22.9875 16.949C22.9875 16.94 22.9894 16.9311 22.993 16.9229C22.9965 16.9146 23.0018 16.9072 23.0084 16.901C23.0084 16.865 23.0807 16.835 23.1109 16.7991C23.1227 16.7859 23.1293 16.7688 23.1293 16.7511C23.1293 16.7334 23.1227 16.7163 23.1109 16.7031C23.1054 16.3327 23.1215 15.9622 23.1591 15.5936L22.4716 16.1334L22.3449 16.1993C22.2967 16.1993 22.0735 15.9355 22.0856 15.8815C22.1547 15.69 22.2415 15.5053 22.3449 15.3297C22.3449 15.3297 22.3449 15.2698 22.3449 15.2638C22.2502 15.2422 22.1589 15.2079 22.0735 15.1618C22.0735 15.1618 22.0735 15.0539 22.0735 15.0359C22.0735 15.0179 21.9831 14.808 21.965 14.778C21.9469 14.748 21.7418 14.778 21.7117 14.748C21.6815 14.718 21.38 14.6581 21.3438 14.6521C21.2904 14.6487 21.2372 14.6605 21.1902 14.6859C21.1432 14.7114 21.1045 14.7496 21.0784 14.796C21.0422 14.856 21.0784 15.0359 21.0181 15.0719C20.9647 15.127 20.9143 15.1851 20.8673 15.2458C20.8335 15.3461 20.8211 15.4523 20.8312 15.5576C20.8312 15.6176 20.5115 15.9055 20.421 15.9954C20.4059 16.0153 20.3977 16.0395 20.3977 16.0644C20.3977 16.0893 20.4059 16.1135 20.421 16.1334C20.4563 16.2851 20.4785 16.4396 20.4874 16.5952C20.4874 16.6971 20.403 16.7991 20.421 16.907C20.252 17.0481 20.0726 17.1764 19.8843 17.2908L19.6913 17.3808C19.6491 17.3808 19.4742 18.2864 19.4621 18.3103C19.3827 18.4033 19.2938 18.4877 19.1967 18.5622C19.1967 18.5622 19.1244 18.5622 19.1183 18.5622V18.4903C19.1183 18.4483 19.0098 18.1844 18.9736 18.0884C18.9374 17.9925 19.239 17.3928 19.2571 17.3448C19.2752 17.2968 19.2571 17.2848 19.2571 17.2848C19.1098 17.2796 18.9638 17.2554 18.8228 17.2129C18.5972 16.9577 18.3533 16.7192 18.0931 16.4992C18.076 16.4916 18.0575 16.4877 18.0388 16.4877C18.0201 16.4877 18.0016 16.4916 17.9845 16.4992C17.9246 16.5301 17.8589 16.5485 17.7915 16.5532C17.8631 16.3588 17.9156 16.1579 17.9483 15.9535H17.8639C17.8277 15.9535 17.8096 15.9535 17.8096 15.9055C17.8096 15.8575 17.8096 15.8575 17.8096 15.8395C17.8096 15.8215 18.9133 14.6041 18.9615 14.5141C19.0098 14.4242 19.0761 14.4841 19.1063 14.4781C19.1364 14.4722 19.2932 14.2682 19.2993 14.2323C19.3539 14.2341 19.4081 14.2211 19.4559 14.1947C19.5037 14.1683 19.5434 14.1294 19.5707 14.0823C19.5805 14.0759 19.5921 14.0724 19.6038 14.0724C19.6156 14.0724 19.6272 14.0759 19.637 14.0823C19.8718 13.9638 20.0993 13.8316 20.3185 13.6865C20.3932 13.5999 20.4806 13.5251 20.5779 13.4646L20.4934 13.5966C20.409 13.7345 20.2884 13.8664 20.21 14.0104C20.1917 14.0416 20.1644 14.0667 20.1316 14.0823L20.0652 14.1303C20.0585 14.137 20.0531 14.1449 20.0495 14.1537C20.0458 14.1624 20.0439 14.1718 20.0439 14.1813C20.0439 14.1908 20.0458 14.2001 20.0495 14.2089C20.0531 14.2176 20.0585 14.2256 20.0652 14.2323H20.1074C20.1074 14.2323 20.1496 14.2622 20.1074 14.3042V14.3462C20.1074 14.4062 20.1074 14.4302 20.1798 14.4122C20.2144 14.4044 20.2471 14.3902 20.2763 14.3702C20.3728 14.2742 20.5115 14.2323 20.5959 14.1123C20.5959 14.1123 20.6321 14.1123 20.6382 14.1123C20.6442 14.1123 20.7226 14.1603 20.7105 14.2203C20.6985 14.2802 20.7105 14.2682 20.7105 14.2742L20.8734 14.3222C20.8807 14.3264 20.889 14.3286 20.8975 14.3286C20.906 14.3286 20.9143 14.3264 20.9216 14.3222L21.0302 14.2383C21.0302 14.2023 21.0302 14.1543 21.0302 14.1423C20.9819 14.1423 20.9638 14.1123 20.9759 14.0523C20.9896 14.0275 20.9968 13.9997 20.9968 13.9714C20.9968 13.9431 20.9896 13.9152 20.9759 13.8904C20.9624 13.8805 20.9512 13.8679 20.9429 13.8535C20.9346 13.839 20.9294 13.823 20.9277 13.8065C20.9277 13.7225 20.8191 13.6985 20.801 13.6206C20.7829 13.5426 20.801 13.6206 20.7648 13.6206C20.7286 13.6206 20.7166 13.6206 20.7648 13.5726L20.8673 13.4826C20.8673 13.4826 20.8673 13.4526 20.8673 13.4406C20.8673 13.4286 20.8673 13.4406 20.8312 13.4406C20.795 13.4406 20.7708 13.4766 20.7347 13.4406H20.6502H20.6864C20.7648 13.3807 20.7648 13.3807 20.7467 13.3087L20.7769 13.2727C20.8492 13.2727 20.9216 13.2427 20.9216 13.3267C21.1629 13.278 21.3977 13.2015 21.6212 13.0988C21.6813 13.0788 21.7339 13.0411 21.772 12.9908C21.8082 12.9549 21.9047 12.601 21.9288 12.5591C22.0347 12.5016 22.1356 12.4354 22.2303 12.3611C22.2846 12.3192 22.2303 12.0733 22.1519 12.0853C22.0735 12.0973 22.1037 12.0853 22.1097 12.0253C22.1097 12.0253 22.6043 12.1512 22.6284 12.1392C22.6478 12.1294 22.666 12.1173 22.6827 12.1033C22.7858 12.046 22.8794 11.9732 22.9601 11.8874L23.0807 11.9293C23.0807 11.9293 23.0807 11.9713 23.0807 11.9833C23.0528 12.0123 23.0285 12.0445 23.0084 12.0793C23.0084 12.1093 23.0084 12.1273 23.0084 12.1572C23.0017 12.2192 23.0189 12.2814 23.0566 12.3312C23.0566 12.3312 22.9722 12.3971 22.948 12.4091C22.9257 12.4224 22.9071 12.4409 22.8938 12.4631C22.9315 12.5237 22.9783 12.5783 23.0325 12.625C23.1015 12.7573 23.1425 12.9022 23.1531 13.0508C23.1465 13.068 23.1359 13.0834 23.1223 13.0959C23.1087 13.1084 23.0924 13.1176 23.0747 13.1228C23.0204 13.1228 22.7852 13.3147 22.7008 13.3627C22.6163 13.4107 22.4957 13.4706 22.5319 13.6445C22.5343 13.6564 22.5343 13.6687 22.5319 13.6805C22.4441 13.6905 22.3585 13.7148 22.2786 13.7525C22.1614 13.7592 22.0442 13.7408 21.9348 13.6985C21.9284 13.6948 21.9211 13.6929 21.9137 13.6929C21.9063 13.6929 21.899 13.6948 21.8926 13.6985C21.8383 13.7525 21.6634 13.8844 21.6393 13.9144C21.6255 13.9337 21.6182 13.9567 21.6182 13.9804C21.6182 14.004 21.6255 14.0271 21.6393 14.0464C21.6936 14.1183 22.2424 14.0464 22.3088 14.0464C22.3262 14.0444 22.3437 14.0488 22.3582 14.0587C22.3726 14.0686 22.3829 14.0834 22.3872 14.1003C22.3872 14.1663 22.4294 14.4841 22.4414 14.5081C22.47 14.5724 22.5216 14.6237 22.5862 14.6521C22.5862 14.6521 23.1048 14.9759 23.1531 14.9819C23.2013 14.9879 23.1893 14.9819 23.2013 14.9819C23.211 14.8184 23.1618 14.6569 23.0626 14.5261C23.052 14.5079 23.0465 14.4872 23.0465 14.4662C23.0465 14.4451 23.052 14.4244 23.0626 14.4062C23.209 14.4889 23.3413 14.5942 23.4546 14.718C23.467 14.7594 23.4832 14.7995 23.5029 14.838C23.5029 14.838 23.5029 14.838 23.5391 14.838C23.5753 14.838 23.5692 14.838 23.5391 14.796C23.5284 14.7646 23.5272 14.7308 23.5358 14.6988C23.5444 14.6668 23.5623 14.638 23.5873 14.6161C23.6295 14.5741 23.7683 14.4302 23.7683 14.3882C23.7541 14.2827 23.7541 14.1758 23.7683 14.0703C23.7683 14.0164 23.6476 13.8964 23.6175 13.8604C23.5873 13.8245 23.6175 13.6505 23.5873 13.5966C23.5572 13.5426 23.5873 13.5966 23.5873 13.5606C23.6611 13.5208 23.73 13.4725 23.7924 13.4166C23.7924 13.4166 23.8527 13.4166 23.8587 13.4166C23.9148 13.5089 23.9536 13.6105 23.9733 13.7165C23.9695 13.7604 23.9695 13.8045 23.9733 13.8484C24.0145 13.8902 24.0668 13.9193 24.1241 13.9324C24.1241 13.9324 24.1603 13.9324 24.1663 13.9324C24.1939 13.8883 24.2181 13.8422 24.2387 13.7945C24.3891 13.6724 24.553 13.5677 24.7272 13.4826C24.7651 13.4569 24.7978 13.4244 24.8237 13.3867C24.8311 13.3674 24.8311 13.346 24.8237 13.3267C24.6371 13.0718 24.4182 12.842 24.1723 12.643C24.1723 12.643 24.1723 12.643 24.1723 12.595C24.2609 12.5265 24.3582 12.47 24.4618 12.4271C24.4854 12.4341 24.5106 12.4341 24.5342 12.4271C24.5342 12.4271 24.504 12.2952 24.5342 12.2472C24.5644 12.1992 24.5704 12.0253 24.5704 11.9713C24.5704 11.9174 24.3291 11.7194 24.3111 11.7134C24.3247 11.6812 24.3317 11.6465 24.3317 11.6115C24.3317 11.5765 24.3247 11.5418 24.3111 11.5095C24.2149 11.4735 24.1119 11.4592 24.0095 11.4676C24.0095 11.4676 24.0819 11.3956 24.112 11.3716C24.1422 11.3476 24.112 11.3416 24.112 11.3356C24.112 11.3296 24.0819 11.3356 24.0758 11.2996C24.0698 11.2637 24.1241 11.1737 24.0758 11.1557L23.907 11.0478H24.1241C24.1375 11.0458 24.1503 11.041 24.1618 11.0338C24.1732 11.0266 24.183 11.017 24.1904 11.0058C24.2149 10.9463 24.2312 10.8837 24.2387 10.8199C24.2387 10.7539 23.9673 10.6819 23.907 10.6579C23.8467 10.634 23.8467 10.6579 23.8165 10.6879C23.7849 10.7101 23.7547 10.7341 23.726 10.7599C23.726 10.6879 23.726 10.6819 23.6597 10.6759C23.3261 10.7852 23.0079 10.9364 22.7128 11.1257C22.7128 11.1257 22.7128 11.1617 22.6766 11.1677C22.6344 11.1809 22.594 11.199 22.556 11.2217C22.5078 11.2217 22.4776 11.2697 22.4776 11.2996C22.4746 11.3356 22.4746 11.3717 22.4776 11.4076C22.4776 11.4076 22.4776 11.4076 22.4776 11.4376C22.4776 11.4376 22.4414 11.4376 22.4354 11.4376C22.4103 11.4083 22.3966 11.3711 22.3966 11.3326C22.3966 11.2942 22.4103 11.257 22.4354 11.2277L22.5138 11.1557C22.7303 10.9803 22.9602 10.8219 23.2013 10.6819L23.2496 10.6519C23.2397 10.6322 23.2224 10.6171 23.2013 10.61C23.0434 10.5839 22.8812 10.607 22.737 10.6759L22.4957 10.7959C22.3868 10.8715 22.274 10.9415 22.158 11.0058L21.6815 11.4196C21.6393 11.4676 21.6453 11.5095 21.6815 11.5215L21.8323 11.5635C21.8347 11.5754 21.8347 11.5876 21.8323 11.5995C21.8357 11.6113 21.8357 11.6237 21.8323 11.6355C21.8323 11.6355 21.7961 11.6355 21.7841 11.6355L21.7117 11.4316C21.6799 11.4279 21.6477 11.4333 21.6189 11.4471C21.5901 11.4609 21.5658 11.4825 21.5488 11.5095C21.5325 11.5398 21.5204 11.5721 21.5127 11.6055C21.5127 11.6595 21.5127 11.6835 21.5127 11.7194C21.5127 11.7554 21.9167 11.8634 21.9107 11.8994H21.8625C21.7901 11.8994 21.585 12.2052 21.5669 12.2172L21.4584 12.2952C21.38 12.2952 21.2352 12.4751 21.2051 12.5051C21.1936 12.5178 21.1797 12.5281 21.1642 12.5353C21.1486 12.5425 21.1318 12.5465 21.1146 12.5471C21.1146 12.5471 21.1146 12.5051 21.0784 12.4991C21.0422 12.4931 20.8432 12.7869 20.8251 12.7749C20.8259 12.6397 20.8727 12.5086 20.9578 12.4031C21.0173 12.3077 21.0486 12.1976 21.0483 12.0853C20.931 12.1629 20.8183 12.247 20.7105 12.3372C20.7105 12.3372 20.795 12.1752 20.8131 12.1093C20.8312 12.0433 20.8553 12.0673 20.8854 12.0553C20.9156 12.0433 20.9578 11.9953 20.9277 11.9773C20.8697 11.9463 20.8091 11.9202 20.7467 11.8994C20.7467 11.8994 20.7467 11.8994 20.7467 11.8634C20.8541 11.8007 20.9569 11.7305 21.0543 11.6535C21.1045 11.5104 21.1671 11.372 21.2413 11.2397C21.2413 11.1737 21.2895 11.0957 21.2774 11.0298C21.2654 10.9638 21.2774 10.9878 21.3378 10.9698C21.3981 10.9518 21.7358 10.7059 21.7418 10.7119H21.8263C22.0851 10.6037 22.3369 10.4796 22.5801 10.3401C22.6163 10.3401 22.6224 10.2621 22.5801 10.2501C22.4897 10.2501 22.1761 10.1662 22.1037 10.1842C22.0313 10.2022 21.5911 10.52 21.5006 10.58C21.4101 10.64 21.2835 10.8319 21.2171 10.9098C21.1438 10.9571 21.0672 10.9992 20.988 11.0358C20.7429 11.2216 20.5093 11.4219 20.2884 11.6355C20.2787 11.6951 20.2787 11.7558 20.2884 11.8154C20.2884 11.8154 20.0411 11.6835 20.023 11.6955C20.0049 11.7075 19.5224 12.0193 19.5345 12.0313C19.5465 12.0433 19.6611 12.1093 19.6611 12.1932C19.6249 12.1932 19.4742 12.2292 19.444 12.2712C19.3883 12.3337 19.3278 12.3918 19.2631 12.4451C19.2497 12.4507 19.2354 12.4536 19.2209 12.4536C19.2064 12.4536 19.192 12.4507 19.1787 12.4451C19.1787 12.4451 18.8349 12.4451 18.8108 12.4451C18.7232 12.3858 18.6459 12.3129 18.5816 12.2292C18.5816 12.1692 18.6178 11.8994 18.5816 11.9114L18.274 11.9773C18.2235 11.9937 18.1793 12.0251 18.1474 12.0673C18.1363 12.0785 18.1301 12.0936 18.1301 12.1093C18.1301 12.125 18.1363 12.14 18.1474 12.1512C18.1474 12.1512 18.2318 12.1512 18.2438 12.1213L18.5152 12.0433C18.3317 12.122 18.1543 12.2142 17.9845 12.3192C17.9363 12.3851 17.8277 12.565 17.8096 12.577C17.7915 12.589 17.8096 12.3731 17.8096 12.3312C17.8096 12.2892 17.8096 12.2652 17.8096 12.2292C17.8016 12.2238 17.7922 12.2209 17.7825 12.2209C17.7728 12.2209 17.7633 12.2238 17.7553 12.2292L17.6649 12.2592H17.6166C14.4153 15.7339 12.5971 20.2497 12.5023 24.9612C12.5345 25.0805 12.5769 25.1969 12.629 25.3091C12.6436 25.3359 12.6557 25.364 12.6652 25.393C12.6773 25.4628 12.7062 25.5287 12.7496 25.5849L12.828 25.6869C12.8374 25.71 12.8374 25.7358 12.828 25.7588V25.8068C12.8174 25.8251 12.8118 25.8457 12.8118 25.8668C12.8118 25.8878 12.8174 25.9085 12.828 25.9268C12.8571 25.9635 12.8894 25.9976 12.9245 26.0287C12.9466 26.0458 12.9646 26.0676 12.9771 26.0925C12.9897 26.1174 12.9964 26.1448 12.9969 26.1726C12.9998 26.2037 13.0125 26.233 13.033 26.2566C13.1768 26.5192 13.2785 26.8025 13.3346 27.0962C13.3127 27.2111 13.3127 27.3291 13.3346 27.444C13.3648 27.516 13.5517 27.6839 13.5879 27.7559C13.8641 28.0368 14.1604 28.2973 14.4745 28.5355C14.6916 28.6375 14.6916 28.6375 14.9027 28.5355C14.9321 28.5229 14.9649 28.5208 14.9957 28.5296C15.0265 28.5383 15.0533 28.5574 15.0715 28.5835C15.196 28.7105 15.3128 28.8447 15.4213 28.9853C15.6522 29.1353 15.9072 29.2449 16.1752 29.3092C16.327 29.4934 16.4566 29.6946 16.5612 29.9089C16.5612 29.9988 16.7904 30.1068 16.8085 30.1308C16.8266 30.1548 17.0497 30.4486 17.116 30.4666C17.1377 30.4728 17.1607 30.4728 17.1824 30.4666C17.2548 30.4666 17.4779 30.6285 17.5322 30.6825C17.5865 30.7365 17.6528 30.5206 17.6709 30.5086C17.689 30.4966 17.8337 30.3287 17.8518 30.3407C18.0393 30.7553 18.1985 31.1821 18.3283 31.6181C18.1932 31.8277 18.0441 32.0281 17.882 32.2178C17.8421 32.4475 17.8259 32.6806 17.8337 32.9135C17.862 32.9793 17.9135 33.0326 17.9785 33.0634C17.9519 33.1349 17.9176 33.2033 17.876 33.2673C17.8607 33.4494 17.8896 33.6324 17.9604 33.8011L18.1172 33.897C18.1775 33.939 19.3234 35.5642 19.3716 35.6182C19.5485 35.7655 19.736 35.8998 19.9325 36.02C19.9687 36.02 20.5356 36.4218 20.6864 36.5118C20.8369 36.8149 20.9561 37.1323 21.0422 37.4593C21.0422 37.4593 21.2292 37.9451 21.3136 38.155C21.3136 38.209 21.6514 39.1146 21.7177 39.1925C21.7877 39.3203 21.8443 39.455 21.8866 39.5943C21.9221 39.7382 21.9463 39.8845 21.959 40.0321C22.1184 40.2886 22.3043 40.5278 22.5138 40.7458C22.5138 40.7458 22.5138 40.7938 22.5138 40.8357C22.5111 40.8414 22.5097 40.8475 22.5097 40.8537C22.5097 40.86 22.5111 40.8661 22.5138 40.8717L22.6525 41.0097C22.6525 41.0097 22.7249 41.0097 22.737 41.0097C22.749 41.0097 22.737 40.9797 22.737 40.9557C22.7148 40.9271 22.6946 40.8971 22.6766 40.8657C22.854 41.0194 23.0156 41.1901 23.1591 41.3755C23.1591 41.3755 23.1953 41.5014 23.2436 41.5074C23.2709 41.5116 23.2962 41.5242 23.3159 41.5434C23.3323 41.5788 23.3572 41.6097 23.3883 41.6334C23.3461 41.6334 23.3099 41.6334 23.2918 41.6334C23.2737 41.6334 23.2918 41.6334 23.2918 41.6694C23.2918 41.7053 23.4426 41.7653 23.4727 41.7773C23.5029 41.7893 23.72 41.8853 23.7683 41.8912C23.8991 41.9684 24.0339 42.0385 24.1723 42.1011C24.2468 42.1181 24.3168 42.1508 24.3774 42.1971L25.0106 42.3051L25.2157 42.347C25.2677 42.3402 25.3205 42.3402 25.3725 42.347C25.3725 42.347 25.9274 42.347 25.9756 42.347C26.0058 42.347 26.0239 42.347 25.9756 42.347H26.0661H26.1505C26.1206 42.3412 26.0899 42.3412 26.06 42.347L25.668 42.2991C25.4921 42.2452 25.3128 42.2032 25.1313 42.1731H25.0529C25.0529 42.1731 25.0529 42.1731 25.1132 42.1731H25.1675L24.8538 42.0532C24.8056 42.0532 24.8538 41.7173 24.8538 41.6993C24.8538 41.6813 24.2507 41.4535 24.2507 41.4115C24.3027 41.3842 24.3572 41.3621 24.4136 41.3455C24.4136 41.3455 24.2749 41.1296 24.305 41.1056C24.3352 41.0816 24.4618 41.0396 24.4377 41.0097L24.3593 40.9437C24.3593 40.9437 23.9613 40.7758 23.9492 40.7638C23.9371 40.7518 24.2749 40.8118 24.3352 40.8118C24.3955 40.8118 24.2749 40.5059 24.2628 40.4939C24.2507 40.4819 25.0287 40.392 25.0167 40.332C24.8578 40.1337 24.6865 39.9454 24.504 39.7682C24.6277 39.7775 24.7495 39.8038 24.8659 39.8462H25.0891C25.2157 39.8462 25.3424 39.6723 25.3846 39.6423C25.4268 39.6123 25.4328 39.3964 25.4268 39.3364C25.5595 39.3364 25.6138 39.2765 25.6138 39.1865C25.662 39.1865 25.7344 38.8987 25.8007 38.7907C25.8671 38.6828 25.668 38.251 25.7706 38.191C25.8731 38.131 26.241 37.9271 26.2772 37.8911C26.3133 37.8551 26.3435 37.8432 26.3495 37.7952H26.5425C26.5908 37.7952 26.8863 37.7952 26.9345 37.7292L27.0612 37.4833C27.0924 37.4032 27.1286 37.325 27.1698 37.2494C27.1834 37.2193 27.1905 37.1866 27.1905 37.1535C27.1905 37.1204 27.1834 37.0877 27.1698 37.0575C27.1698 37.0035 27.1336 36.9436 27.1698 36.9016C27.1979 36.6756 27.1877 36.4465 27.1396 36.2239C27.1396 36.134 27.0974 36.044 27.0853 35.954C27.1673 35.8089 27.258 35.6687 27.3567 35.5342C27.4484 35.4037 27.5513 35.2813 27.6643 35.1684C27.7565 34.9823 27.8001 34.776 27.7909 34.5687C27.7578 34.4066 27.7093 34.248 27.6462 34.0949Z" fill="white"/>
<path id="Vector_46" d="M32.2056 12.2334C32.1013 12.2322 31.9977 12.2161 31.898 12.1854C31.8023 12.1677 31.7042 12.1677 31.6085 12.1854L31.7533 12.1134C31.7781 12.1086 31.8007 12.0962 31.818 12.0779C31.8353 12.0596 31.8464 12.0364 31.8498 12.0115C31.8627 11.9551 31.883 11.9007 31.9101 11.8495C31.9478 11.9348 31.9922 12.017 32.0428 12.0954C32.1319 12.1352 32.2285 12.1557 32.3262 12.1554C32.4287 12.1554 32.4408 12.1554 32.4589 12.0774C32.477 11.9995 32.4589 11.9515 32.4951 11.8915C32.466 11.7359 32.3854 11.5944 32.2659 11.4897C32.2335 11.405 32.2131 11.3162 32.2056 11.2258C32.2056 11.2258 32.3926 11.5017 32.4589 11.5077C32.5252 11.5137 32.5252 11.5077 32.5252 11.5077C32.5535 11.4446 32.5878 11.3843 32.6278 11.3278L32.9595 11.0579C32.977 11.0383 32.9913 11.016 33.0017 10.9919C33.0017 10.962 32.7785 10.866 32.7846 10.86C32.9066 10.8433 33.0294 10.8333 33.1525 10.83C33.2429 10.83 33.3093 10.7221 33.249 10.6861C33.1887 10.6501 33.1706 10.5721 33.1525 10.5661C33.1344 10.5601 33.1525 10.5661 33.1525 10.5362C33.1586 10.5318 33.166 10.5294 33.1736 10.5294C33.1812 10.5294 33.1885 10.5318 33.1947 10.5362C33.2205 10.5421 33.2473 10.5421 33.2731 10.5362C33.3093 10.5362 33.3334 10.2483 33.3636 10.2303C33.3937 10.2123 33.3636 10.1943 33.3636 10.1883C33.3636 10.1823 33.2671 10.1883 33.2429 10.1523C33.2852 10.1224 33.2007 10.0624 33.2007 10.0624C33.2778 10.0257 33.3587 9.99752 33.442 9.97842C33.4842 9.97842 33.5445 10.0324 33.5204 10.0924C33.5026 10.1366 33.5026 10.186 33.5204 10.2303C33.5204 10.2303 33.5505 10.2003 33.5505 10.1823C33.5483 10.1494 33.555 10.1165 33.5699 10.087C33.5847 10.0575 33.6072 10.0324 33.635 10.0144C33.6571 9.99902 33.6759 9.97945 33.6904 9.95681C33.7049 9.93417 33.7147 9.9089 33.7194 9.88247C33.717 9.86741 33.7099 9.85349 33.6991 9.84271C33.6882 9.83193 33.6742 9.82485 33.6591 9.82249H33.5626H33.5023C33.5023 9.82249 33.5023 9.82249 33.5385 9.82249C33.5746 9.82249 33.647 9.8225 33.6169 9.76252C33.6045 9.73746 33.5829 9.71811 33.5565 9.70855L33.4962 9.66657C33.5212 9.67569 33.5484 9.67714 33.5742 9.67072C33.6 9.66431 33.6233 9.65032 33.641 9.63059C33.6772 9.58261 34.1717 9.13282 34.2441 9.10883L34.9437 8.80298H35.0221C35.1548 8.76699 35.1608 8.743 35.0824 8.70102H35.0522C34.9452 8.65774 34.8297 8.63928 34.7145 8.64705C34.6361 8.64705 33.9787 8.72501 34.0209 8.69503H34.0632C34.1657 8.62906 34.0632 8.61706 33.9365 8.62306H33.8943C33.8121 8.63193 33.7292 8.63193 33.647 8.62306C33.5988 8.62306 33.647 8.59307 33.7737 8.59307H34.0632C34.1609 8.58922 34.2579 8.57515 34.3526 8.55109C34.4009 8.55109 34.419 8.51511 34.3526 8.50911L34.2079 8.47313C34.1295 8.47313 33.9606 8.40116 33.9365 8.40116C33.7797 8.40116 32.7303 8.3292 32.6579 8.34119H32.6278C32.5882 8.35109 32.5467 8.35109 32.5072 8.34119H32.4589H32.4107C32.3564 8.34119 31.6266 8.41316 31.5663 8.41316H31.506C31.506 8.41316 31.4517 8.59907 31.4216 8.59907C31.3914 8.59907 31.2708 8.44914 31.2648 8.43115C31.2587 8.41316 31.2648 8.43115 31.1924 8.43115C31.0329 8.47695 30.8758 8.53099 30.722 8.59307C30.722 8.59307 30.722 8.55709 30.722 8.5451C30.722 8.5331 30.7582 8.49712 30.7762 8.47313H30.722C30.6987 8.47502 30.6771 8.48577 30.6617 8.50312C30.6617 8.50312 30.6617 8.50312 30.6194 8.5391C30.5882 8.55176 30.5559 8.56179 30.5229 8.56909L30.6255 8.52111C30.6493 8.51336 30.6703 8.49875 30.6858 8.47913C30.6858 8.47913 30.6858 8.47913 30.6315 8.47913C30.5772 8.47913 30.0646 8.52111 29.956 8.52111C29.9241 8.5155 29.8915 8.5155 29.8595 8.52111L29.3469 8.64705H29.3047C29.2768 8.65254 29.2481 8.65254 29.2202 8.64705C28.9046 8.68699 28.5922 8.74912 28.2854 8.83296C28.2312 8.83296 28.2312 8.88094 28.2854 8.88694H28.4362C28.4362 8.88694 28.4362 8.88694 28.4 8.88694C28.3638 8.88694 28.0985 9.01887 28.0321 9.04886C27.9658 9.07885 27.429 9.10883 27.3506 9.10883C27.1464 9.13685 26.9447 9.18097 26.7475 9.24077C26.6933 9.27075 26.6691 9.29474 26.6933 9.31873C26.7211 9.34984 26.7417 9.38671 26.7536 9.42668C26.7536 9.42668 26.7536 9.47466 26.7536 9.49865C26.8735 9.51674 26.9955 9.51674 27.1154 9.49865H27.1576C27.1576 9.49865 26.5545 9.55262 26.5003 9.57061C26.446 9.58861 26.3555 9.65457 26.3917 9.67856C26.4279 9.70255 26.4339 9.74453 26.4942 9.76252C26.4421 9.78068 26.3932 9.807 26.3495 9.84049C26.3565 9.87164 26.3712 9.90057 26.3922 9.92465C26.4133 9.94874 26.44 9.96722 26.4701 9.97842C26.5184 9.97842 26.6571 9.92445 26.6933 9.93044C26.8306 9.95823 26.9721 9.95823 27.1094 9.93044C27.2645 9.99308 27.4156 10.0652 27.5617 10.1463C27.5617 10.1463 27.2722 11.0819 27.2722 11.0879C27.2722 11.0939 27.0069 11.4297 27.0189 11.4357L26.8983 11.5737V11.6636H27.1395L27.3265 11.6216C27.3265 11.6216 27.2481 11.7236 27.2119 11.7596C27.1757 11.7956 27.2119 11.8076 27.2119 11.8076V11.9395L26.9043 11.8975C26.8501 11.8975 26.7897 11.9755 26.7897 11.9755C26.7897 11.9755 26.7897 12.0175 26.7897 12.0295C26.7114 12.0974 26.6388 12.1717 26.5726 12.2514C26.5726 12.3293 26.651 12.4373 26.651 12.4373L26.9405 12.3953V12.1374L27.2662 12.2214L27.1999 12.3233C27.1999 12.3233 26.6872 12.6831 26.645 12.6891C26.4893 12.9437 26.3202 13.19 26.1384 13.4268C26.1109 13.6477 26.0948 13.8699 26.0901 14.0925C26.0901 14.0925 26.1806 15.148 26.1806 15.148C26.1751 15.1635 26.1751 15.1804 26.1806 15.196L26.265 15.3039C26.3555 15.3039 26.3857 15.3579 26.3676 15.4359C26.3495 15.5138 26.3676 15.4359 26.4098 15.4359L26.5726 15.3939H26.6571C26.7113 15.3939 26.7536 15.3939 26.7475 15.4359C26.7429 15.469 26.7466 15.5027 26.7581 15.534C26.7697 15.5654 26.7888 15.5935 26.8139 15.6158C26.8139 15.6158 26.8139 15.6577 26.844 15.6757C26.8742 15.6937 26.8862 15.7177 26.9043 15.7117C26.9224 15.7057 27.025 15.7417 27.0913 15.7417C27.1148 15.7394 27.1377 15.7324 27.1584 15.721C27.1791 15.7097 27.1973 15.6943 27.2119 15.6757C27.3212 15.507 27.4218 15.3328 27.5135 15.154L27.6823 14.8481L28.0261 14.5243L28.1347 14.2784L28.2673 14.1045V14.0625L28.6051 13.8406H28.9066L29.4555 13.6187L29.7208 13.4688L29.9802 13.2229L30.4747 13.001L31.1321 12.8511C31.1321 12.8511 32.0066 12.4732 32.1935 12.3593C32.2056 12.2693 32.2056 12.2514 32.2056 12.2334Z" fill="white"/>
<path id="Vector_47" d="M47.7897 35.5571C47.7438 35.5907 47.7116 35.6397 47.6993 35.6951C47.6921 35.7206 47.6791 35.7441 47.6613 35.7638C47.6435 35.7836 47.6214 35.799 47.5968 35.809C47.6006 35.8227 47.6006 35.8373 47.5968 35.851C47.5425 35.887 47.4822 35.905 47.458 35.9769C47.4433 36.0168 47.42 36.0529 47.3898 36.083C47.3596 36.113 47.3232 36.1362 47.2831 36.1509C47.2047 36.1868 47.1444 36.2528 47.066 36.2888C46.9853 36.3183 46.9027 36.3423 46.8188 36.3608L46.5775 36.4507C46.5428 36.5051 46.5045 36.5572 46.4629 36.6066C46.4273 36.6458 46.4025 36.6934 46.3909 36.7449C46.3792 36.7964 46.3812 36.85 46.3966 36.9005C46.3939 36.9304 46.3939 36.9605 46.3966 36.9905C46.4131 37.0328 46.4149 37.0793 46.4018 37.1228C46.3887 37.1662 46.3614 37.2041 46.3242 37.2303C46.2458 37.3083 46.1915 37.3923 46.1071 37.4642C46.0618 37.4983 46.0278 37.545 46.0095 37.5985C45.9912 37.652 45.9895 37.7097 46.0046 37.7641C46.0195 37.813 46.0195 37.8652 46.0046 37.914C46.0012 37.9579 46.0012 38.002 46.0046 38.046C45.9994 38.0717 45.9994 38.0982 46.0046 38.1239C46.0698 38.2006 46.159 38.2534 46.2579 38.2739C46.3182 38.2739 46.3785 38.2739 46.4448 38.2259H46.5775C46.6237 38.2238 46.6689 38.2114 46.7096 38.1896C46.7503 38.1678 46.7856 38.1372 46.8127 38.0999C46.8562 38.0506 46.8965 37.9985 46.9333 37.944C47.0178 37.8121 47.0962 37.6741 47.1866 37.5422C47.2771 37.4103 47.4339 37.1344 47.5726 36.9425C47.6111 36.887 47.6416 36.8265 47.6631 36.7626C47.6931 36.6819 47.7294 36.6037 47.7717 36.5287C47.8139 36.4627 47.8139 36.3787 47.9224 36.3488C47.9537 36.3161 47.9729 36.2738 47.9767 36.2288C47.9767 36.1569 47.9767 36.0849 47.9767 36.0129C47.9893 35.9366 47.985 35.8584 47.9642 35.7838C47.9434 35.7093 47.9065 35.6401 47.8561 35.5811C47.8561 35.5811 47.8078 35.5451 47.7897 35.5571Z" fill="white"/>
<path id="Vector_48" d="M45.3171 11.5077C45.3512 11.5106 45.3855 11.5106 45.4196 11.5077C45.4471 11.5054 45.4749 11.509 45.5009 11.5184C45.5269 11.5277 45.5506 11.5424 45.5704 11.5616C45.5967 11.5797 45.6176 11.6046 45.6307 11.6336C45.6307 11.6696 45.7815 11.7236 45.896 11.7655C45.6307 11.5017 45.3653 11.2498 45.0879 11.0039C45.107 11.1795 45.1581 11.3502 45.2387 11.5077C45.2645 11.5132 45.2912 11.5132 45.3171 11.5077Z" fill="white"/>
<path id="Vector_49" d="M24.6367 8.99542C24.697 8.99542 24.8297 8.99542 24.8659 8.99542L24.9503 8.96543L25.3061 8.85748C25.2384 8.90439 25.1629 8.93892 25.083 8.95943C25.0339 8.97629 24.9888 9.0028 24.9503 9.0374H24.9925C25.0588 9.0374 25.0709 9.0374 25.0468 9.08537L25.0106 9.13335C24.9849 9.15934 24.9541 9.17976 24.9201 9.19332H24.8779C24.8936 9.16701 24.9057 9.13879 24.9141 9.10936C24.9141 9.10936 24.9141 9.10936 24.8839 9.07938C24.8324 9.06758 24.7787 9.06758 24.7271 9.07938H24.6849C24.6662 9.09005 24.6498 9.10432 24.6367 9.12136C24.6036 9.16529 24.5772 9.21377 24.5583 9.26529H24.4919C24.3537 9.26144 24.2162 9.28594 24.0879 9.33726L24.0095 9.36724C23.9733 9.36724 23.8165 9.43321 23.8406 9.4452C23.9821 9.50738 24.1271 9.56144 24.2748 9.60713C24.2748 9.60713 24.51 9.54116 24.5342 9.55315C24.6065 9.59057 24.6899 9.6012 24.7694 9.58314C24.7694 9.58314 24.8417 9.67909 24.8719 9.6731L25.4267 9.51717C25.4871 9.47519 25.4871 9.4512 25.4267 9.43321C25.3664 9.41522 25.8972 9.18733 25.9092 9.17533C25.9425 9.15597 25.9795 9.14371 26.0178 9.13935C26.0919 9.14815 26.1668 9.14815 26.2409 9.13935C26.2771 9.13935 26.3133 9.07938 26.3133 9.07338C26.4542 9.03823 26.5915 8.99005 26.7234 8.92945C26.7717 8.92945 26.9888 8.77352 26.9586 8.76153H26.8862L27.0008 8.73154C27.0691 8.73733 27.1377 8.73733 27.2059 8.73154C27.2544 8.72307 27.3013 8.70687 27.3446 8.68356H27.3989C27.71 8.62768 28.0181 8.55562 28.3216 8.46766L29.0876 8.3957H29.1358C29.1358 8.3957 29.1358 8.3957 29.0936 8.3957H29.0273C29.0508 8.38792 29.0761 8.38792 29.0996 8.3957C29.2142 8.3957 30.0284 8.26376 30.0405 8.25177C30.0525 8.23977 30.0405 8.25177 30.0103 8.25177C29.9741 8.25177 29.9802 8.25177 30.0103 8.25177L30.0767 8.21578H29.95C29.9078 8.21578 28.3458 8.12583 28.3035 8.13782L27.9356 8.19779C27.9055 8.19779 27.8452 8.19779 27.8452 8.19779C27.7347 8.19174 27.624 8.19174 27.5135 8.19779C27.5135 8.19779 27.5135 8.22778 27.5135 8.23977H27.3325C27.3325 8.23977 26.7294 8.23977 26.6993 8.23977C26.6691 8.23977 26.6993 8.27576 26.6993 8.27576C26.6993 8.27576 26.4279 8.4017 26.4158 8.41969C26.4038 8.43768 26.5304 8.50365 26.5364 8.50964C26.5869 8.53475 26.6429 8.54711 26.6993 8.54563L27.4351 8.3957C27.4351 8.3957 27.5316 8.3957 27.5497 8.3957C27.3989 8.3957 26.9466 8.44368 26.8621 8.44368H26.7415H26.651C26.651 8.44368 26.5304 8.44368 26.4279 8.3957C26.3922 8.38705 26.355 8.38705 26.3193 8.3957C26.253 8.3957 26.2409 8.36571 26.259 8.35372C26.2771 8.34172 26.2168 8.35372 26.2047 8.32373C26.1808 8.31947 26.1563 8.31947 26.1324 8.32373L26.2228 8.26376L26.3193 8.20979C26.3736 8.20979 26.3555 8.16781 26.3193 8.14981C26.2774 8.14265 26.2346 8.14265 26.1927 8.14981V8.19179C26.1565 8.19179 25.3242 8.3897 25.3061 8.4017C25.1795 8.44967 25.095 8.50365 24.9744 8.55762C24.8538 8.6116 24.9322 8.5996 24.9744 8.6116C25.0061 8.61901 25.0392 8.61901 25.0709 8.6116H25.1192H25.0769H25.0347C24.9506 8.60367 24.8661 8.62257 24.7935 8.66557C24.7405 8.69714 24.6918 8.73545 24.6487 8.77952C24.5824 8.83349 24.5945 8.87547 24.6487 8.89946C24.6327 8.92878 24.6283 8.96307 24.6367 8.99542Z" fill="white"/>
<path id="Vector_50" d="M18.1232 12.0727L18.2378 12.0127C18.2884 11.9967 18.3416 11.9906 18.3946 11.9947C18.4589 11.9949 18.5219 11.9761 18.5755 11.9408L18.666 11.8928H18.6961C18.6961 11.8928 18.6961 11.9348 18.7444 11.9468C18.7926 11.9588 18.7444 12.0187 18.7444 12.0427C18.8782 12.0638 19.0146 12.0638 19.1485 12.0427C19.1907 12.0427 19.3414 11.7609 19.3656 11.7489C19.3897 11.7369 19.6309 11.7489 19.6732 11.6949C19.7154 11.6409 19.7274 11.6169 19.7154 11.5809C19.7033 11.545 19.637 11.2571 19.637 11.2151C19.6386 11.197 19.6443 11.1795 19.6537 11.1639C19.6631 11.1483 19.6759 11.1351 19.6912 11.1252C19.7921 11.0408 19.8796 10.9417 19.9506 10.8313L20.2039 10.5794C20.2351 10.5487 20.272 10.5243 20.3124 10.5074C20.426 10.4575 20.5367 10.4014 20.6441 10.3395C20.672 10.3245 20.6966 10.3041 20.7165 10.2795C20.7527 10.2196 20.7467 10.1896 20.6743 10.1836C20.5575 10.2006 20.445 10.2392 20.3426 10.2975C20.3426 10.3335 20.3064 10.3695 20.2944 10.4055C20.2944 10.4055 20.2944 10.3635 20.2521 10.3575H20.1979C20.1556 10.3575 20.1014 10.3575 20.0531 10.3995L19.9566 10.4775C19.8842 10.5494 19.8239 10.6214 19.7395 10.6934C19.6551 10.7653 19.6128 10.8433 19.5405 10.9153C19.5301 10.9201 19.5188 10.9226 19.5073 10.9226C19.4958 10.9226 19.4845 10.9201 19.4741 10.9153V10.8793C19.5284 10.8133 19.5827 10.7473 19.643 10.6874C19.7181 10.6198 19.7725 10.5325 19.7998 10.4355C19.8024 10.4236 19.8024 10.4113 19.7998 10.3995C19.7884 10.3912 19.7747 10.3867 19.7606 10.3867C19.7465 10.3867 19.7328 10.3912 19.7214 10.3995C19.686 10.4368 19.6537 10.4769 19.6249 10.5194C19.6249 10.5194 19.5827 10.5554 19.5646 10.5494C19.5426 10.5464 19.5203 10.5464 19.4983 10.5494C18.9434 11.0172 18.4127 11.521 17.9061 12.0427H17.9845C18.0279 12.0627 18.0753 12.073 18.1232 12.0727Z" fill="white"/>
<path id="Vector_51" d="M34.805 16.6249C34.805 16.6249 34.7748 16.6249 34.7507 16.6249C34.7266 16.6249 34.7507 16.8588 34.7507 16.9488C34.7507 17.0387 34.7507 17.1647 34.7507 17.1886C34.8165 17.2179 34.8852 17.24 34.9558 17.2546C34.9609 17.3185 34.9609 17.3827 34.9558 17.4465C34.9558 17.5005 35.0583 17.5485 35.0643 17.5485C35.1142 17.5397 35.1652 17.5397 35.2151 17.5485C35.2754 17.5485 35.3779 17.8063 35.3659 17.8603C35.3538 17.9143 35.0583 18.0162 35.0583 18.0342C35.0583 18.0522 35.0583 18.1902 35.1126 18.2501C35.1253 18.2653 35.1323 18.2844 35.1323 18.3041C35.1323 18.3239 35.1253 18.343 35.1126 18.3581C35.0517 18.4222 35.0009 18.4949 34.9618 18.574C35.0823 18.5949 35.1984 18.6354 35.3056 18.6939C35.3056 18.6939 34.7929 19.0778 34.799 19.0897C34.799 19.0897 35.9629 18.8379 36.0896 18.8319C36.1507 18.8149 36.2077 18.7861 36.2574 18.7469C36.3072 18.7078 36.3485 18.6592 36.3791 18.604H36.3248C36.2886 18.604 36.3911 18.4241 36.4213 18.3641C36.4401 18.337 36.451 18.3052 36.4529 18.2723C36.4548 18.2395 36.4475 18.2067 36.432 18.1776C36.4164 18.1486 36.3931 18.1243 36.3647 18.1075C36.3362 18.0906 36.3036 18.0819 36.2705 18.0822H36.1198C36.1198 18.0822 35.7338 17.4825 35.7036 17.3925C35.6735 17.3026 35.4081 17.0927 35.4202 17.0687C35.4322 17.0447 35.577 16.7748 35.6071 16.6849C35.6373 16.5949 35.4925 16.5709 35.4684 16.5709C35.3859 16.5641 35.3047 16.5459 35.2272 16.517C35.2633 16.475 35.3056 16.433 35.3418 16.385C35.3482 16.3676 35.3482 16.3485 35.3418 16.331C35.3418 16.331 35.3056 16.2891 35.2754 16.2891H35.0342C35.01 16.319 34.8532 16.5409 34.805 16.6249Z" fill="white"/>
<path id="Vector_52" d="M38.3151 9.46874V9.54671C38.3351 9.60238 38.3593 9.65651 38.3874 9.70863C38.5205 9.81063 38.6594 9.90475 38.8036 9.9905C38.8186 9.9979 38.8351 10.0017 38.8518 10.0017C38.8686 10.0017 38.8851 9.9979 38.9001 9.9905C38.9001 9.91853 39.0931 9.49273 39.081 9.39078C39.0689 9.28883 39.081 9.39078 39.081 9.3608C39.081 9.33081 39.3102 9.45675 39.3584 9.50473C39.4067 9.55271 39.3584 9.61867 39.3584 9.64266C39.4625 9.68254 39.5726 9.70484 39.6841 9.70863C39.7237 9.69615 39.7597 9.67437 39.7891 9.64515C39.8185 9.61593 39.8404 9.58011 39.853 9.54071C39.6317 9.42772 39.4163 9.30362 39.2077 9.16889H39.1654H39.0689C39.0026 9.16889 38.7071 8.96498 38.6588 8.95898H38.5684C38.5382 8.95898 38.4719 9.03095 38.4598 9.05494H38.4176C38.2781 9.02702 38.1372 9.00699 37.9954 8.99497C37.9497 9.00825 37.9081 9.03304 37.8748 9.06693C37.8326 9.11491 37.8748 9.15089 37.9291 9.18688C38.0477 9.29368 38.1771 9.38813 38.3151 9.46874Z" fill="white"/>
<path id="Vector_53" d="M22.8515 10.0264C22.8515 10.0744 23.0324 10.1344 23.1048 10.1104C23.1228 10.1079 23.1411 10.1079 23.1591 10.1104C23.1438 10.1237 23.1314 10.14 23.1229 10.1584C23.1229 10.1584 23.1229 10.1584 23.1711 10.1944C23.2194 10.2303 23.9612 10.2723 24.0336 10.2603C24.1067 10.2532 24.1792 10.2412 24.2507 10.2243C24.305 10.1944 24.6548 9.91849 24.5945 9.87651C24.5908 9.87013 24.5888 9.86289 24.5888 9.85552C24.5888 9.84815 24.5908 9.84091 24.5945 9.83453C24.3738 9.81326 24.1517 9.81326 23.9311 9.83453C23.8647 9.83453 23.7923 9.86452 23.7863 9.83453C23.7803 9.80454 23.7501 9.83453 23.72 9.83453C23.6898 9.83453 23.5873 9.69659 23.5511 9.69659L23.7742 9.65461C23.7742 9.65461 23.8285 9.62463 23.8225 9.61263C23.7923 9.61263 23.7139 9.4807 23.6778 9.4807C23.6416 9.4807 23.6778 9.37874 23.6355 9.37275C23.5933 9.36675 23.5813 9.31278 23.5209 9.30078C23.425 9.30687 23.332 9.33565 23.2495 9.38474C23.2495 9.43872 23.4064 9.60664 23.3822 9.63662L23.328 9.72658C23.247 9.78878 23.1601 9.84301 23.0686 9.8885C22.9857 9.91559 22.9111 9.96303 22.8515 10.0264Z" fill="white"/>
<path id="Vector_54" d="M20.6683 9.7757L20.8794 9.73972H20.9216H21.0362C21.0693 9.75163 21.1056 9.75163 21.1387 9.73972H21.2352C21.2859 9.73199 21.3348 9.71577 21.38 9.69174L21.6755 9.54181L21.7599 9.49384C21.8202 9.45186 21.8323 9.40988 21.7901 9.38589H21.7479C21.7158 9.3926 21.6852 9.40477 21.6574 9.42187C21.6574 9.42187 21.6212 9.42187 21.6152 9.42187C21.6091 9.42187 21.5488 9.42187 21.6152 9.3619C21.6815 9.30193 21.6152 9.33191 21.6514 9.30193C21.68 9.29406 21.7054 9.27724 21.7237 9.25395C21.7591 9.20523 21.8043 9.16437 21.8564 9.13401C21.8564 9.13401 21.8564 9.13401 21.8564 9.09802C21.8564 9.06204 21.8142 9.09802 21.778 9.09802L21.5368 9.18798C21.5019 9.19636 21.4716 9.21785 21.4523 9.24795C21.4495 9.2546 21.4481 9.26173 21.4481 9.26894C21.4481 9.27615 21.4495 9.28329 21.4523 9.28993C21.4301 9.3186 21.3978 9.33787 21.3619 9.34391C21.3453 9.34783 21.3297 9.3552 21.3162 9.36553C21.3027 9.37587 21.2915 9.38894 21.2835 9.40388C21.2764 9.41728 21.2661 9.4287 21.2535 9.43709C21.2408 9.44547 21.2262 9.45055 21.2111 9.45186H21.0362C21.057 9.43868 21.0737 9.41999 21.0844 9.39788L20.5236 9.79969C20.5605 9.7925 20.5968 9.78247 20.6321 9.76971C20.6442 9.77141 20.6563 9.77341 20.6683 9.7757Z" fill="white"/>
<path id="Vector_55" d="M31.6025 14.3937C31.8262 14.4835 32.0586 14.5498 32.2961 14.5916C32.3333 14.6036 32.3734 14.6036 32.4107 14.5916C32.5554 14.5377 33.255 14.2258 33.2852 14.1958C33.3546 14.0869 33.4151 13.9726 33.4661 13.854C33.4661 13.854 33.2731 13.5721 33.249 13.5781C33.2327 13.5882 33.2139 13.5936 33.1947 13.5936C33.1755 13.5936 33.1567 13.5882 33.1404 13.5781C33.0982 13.5361 33.05 13.5421 32.9957 13.5781C32.7876 13.6543 32.5708 13.7046 32.3504 13.728C32.3504 13.728 32.2478 13.6621 32.2358 13.6861C32.2278 13.6997 32.2237 13.7152 32.2237 13.731C32.2237 13.7468 32.2278 13.7623 32.2358 13.776C32.2358 13.824 32.1212 13.884 32.1031 13.89C32.085 13.896 31.9945 13.6141 31.9764 13.5961C31.9583 13.5781 31.5482 13.776 31.494 13.836C31.6008 13.8658 31.7096 13.8879 31.8196 13.902C31.8196 13.902 31.8196 13.902 31.8196 13.9439C31.8196 13.9859 31.7774 14.0159 31.7111 14.0219C31.6447 14.0279 31.6025 14.1478 31.6508 14.1598C31.703 14.1931 31.7465 14.2383 31.7774 14.2918C31.7774 14.2918 31.6025 14.3577 31.6025 14.3937Z" fill="white"/>
<path id="Vector_56" d="M21.4885 10.2605V10.2305H21.4342C21.398 10.2305 20.8914 10.6563 20.8854 10.6503C20.8761 10.6169 20.8761 10.5817 20.8854 10.5483C20.8854 10.5483 20.8854 10.5183 20.8311 10.5483C20.7907 10.5516 20.7515 10.5635 20.7162 10.5832C20.6808 10.6028 20.6501 10.6298 20.6261 10.6623L20.5054 10.7942C20.5054 10.7942 20.5054 11.178 20.5054 11.202C20.5054 11.226 20.5476 11.202 20.5778 11.202L21.006 11.0161C21.1327 10.9194 21.2498 10.811 21.3558 10.6923C21.3586 10.6663 21.3586 10.6402 21.3558 10.6143C21.3576 10.6072 21.3579 10.5998 21.3567 10.5926C21.3555 10.5854 21.3529 10.5785 21.3489 10.5723C21.345 10.5661 21.3398 10.5608 21.3337 10.5567C21.3277 10.5526 21.3208 10.5497 21.3136 10.5483C21.3136 10.5483 21.3136 10.5483 21.3136 10.5183C21.45 10.4548 21.5811 10.3806 21.7056 10.2964C21.7056 10.2964 21.7056 10.2605 21.6694 10.2605H21.5186H21.4463H21.4885Z" fill="white"/>
<path id="Vector_57" d="M24.0999 19.7363V19.7431H24.1067L24.0999 19.7363Z" fill="white"/>
<path id="Vector_58" d="M23.7803 20.0251C23.8346 20.0251 23.8768 20.1031 23.9432 20.1031C24.0276 19.9997 24.0819 19.8752 24.1 19.7433C24.0698 19.6702 24.0698 19.5884 24.1 19.5154C24.1 19.5154 24.0638 19.2815 24.0577 19.2575C24.0517 19.2335 23.9673 19.1675 23.9371 19.1855C23.8526 19.2201 23.763 19.2403 23.6718 19.2455C23.6718 19.2455 23.6054 18.8917 23.6718 18.8317C23.7377 18.7626 23.789 18.681 23.8225 18.5918C23.7084 18.6084 23.6004 18.6538 23.5089 18.7237C23.3232 18.9835 23.1218 19.2318 22.9058 19.4674C22.8696 19.4674 22.9058 19.5993 22.8636 19.6353C22.8214 19.6713 22.7671 19.8092 22.7852 19.8092C22.8033 19.8092 23.4727 19.8572 23.5391 19.8812C23.5041 19.9303 23.4738 19.9825 23.4486 20.0371C23.4622 20.0422 23.4772 20.0422 23.4908 20.0371C23.601 19.9771 23.7077 19.9111 23.8105 19.8392C23.794 19.9 23.7839 19.9623 23.7803 20.0251Z" fill="white"/>
<path id="Vector_59" d="M40.0218 8.85253C39.9776 8.85019 39.9333 8.85019 39.8891 8.85253C39.7987 8.85253 39.093 8.85253 39.0448 8.81055C38.9647 8.84162 38.8896 8.88404 38.8217 8.93649C39.0436 9.0206 39.2714 9.08875 39.5032 9.14039C39.6975 9.08893 39.8758 8.98997 40.0218 8.85253Z" fill="white"/>
<path id="Vector_60" d="M22.9842 9.37387V9.32589C22.8776 9.30071 22.768 9.29061 22.6585 9.29591C22.5929 9.34613 22.5341 9.40459 22.4836 9.46983C22.4836 9.46983 22.4836 9.40386 22.4836 9.37387C22.4836 9.34389 22.4836 9.37387 22.4535 9.37387H22.4112C22.3509 9.41585 22.3751 9.24193 22.3751 9.22994C22.3751 9.21795 22.3208 9.22994 22.2967 9.22994L22.2243 9.27792C22.1881 9.27792 22.0072 9.61376 22.0614 9.61376H22.2605L22.2243 9.64375H22.1278C22.0795 9.64375 21.965 9.79967 21.9891 9.79967H22.1399C22.2074 9.79679 22.2725 9.77381 22.3268 9.7337C22.3268 9.7337 22.3268 9.7337 22.357 9.70372C22.4017 9.66809 22.4565 9.64714 22.5138 9.64375C22.5496 9.61087 22.5879 9.5808 22.6284 9.55379L22.7731 9.46983L22.9661 9.34389L22.9842 9.37387Z" fill="white"/>
<path id="Vector_61" d="M34.7387 17.4511C34.6423 17.4103 34.5409 17.382 34.4371 17.3672C34.3299 17.4427 34.2309 17.5291 34.1416 17.6251C34.1416 17.6251 33.8521 17.691 33.8521 17.715C33.8521 17.739 33.8521 17.9789 33.8521 18.0089C33.8521 18.0389 33.7255 18.3447 33.7134 18.3567C33.7013 18.3687 33.9305 18.6326 34.0391 18.5966C34.2278 18.5258 34.4113 18.4416 34.5879 18.3447C34.6475 18.2047 34.6723 18.0525 34.6603 17.9009C34.6603 17.859 34.8111 17.6191 34.7749 17.5471C34.766 17.514 34.7539 17.4819 34.7387 17.4511Z" fill="white"/>
<path id="Vector_62" d="M23.4305 8.76176H23.4727C23.527 8.76176 23.5391 8.82773 23.4245 8.8937C23.3099 8.95967 23.3883 8.92968 23.4245 8.94168C23.4433 8.95071 23.4639 8.9554 23.4848 8.9554C23.5057 8.9554 23.5263 8.95071 23.5451 8.94168C23.7162 8.86629 23.8833 8.78222 24.0457 8.68979C24.0999 8.68979 24.0879 8.59384 24.118 8.57585C24.1482 8.55786 24.0698 8.48589 24.118 8.4679C24.1663 8.44991 24.118 8.41992 24.0517 8.41992C23.9854 8.41992 23.4486 8.63582 23.4486 8.64182L23.3823 8.6718C23.334 8.6718 23.334 8.71978 23.3823 8.72578L23.4305 8.76176Z" fill="white"/>
<path id="Vector_63" d="M18.093 27.2444C18.0385 27.2247 17.9876 27.1963 17.9422 27.1604C17.8912 27.1169 17.8344 27.0806 17.7734 27.0525C17.7432 27.0525 17.1703 26.8066 17.1703 26.8126C16.9889 26.8978 16.8236 27.0134 16.6818 27.1544C16.8386 27.0926 16.9999 27.0425 17.1642 27.0045C17.1642 27.0525 17.3512 27.1185 17.4055 27.1365C17.4598 27.1544 18.0086 27.5143 18.0448 27.5203C18.081 27.5263 18.0448 27.7182 18.0749 27.7182C18.261 27.7201 18.4468 27.7041 18.6298 27.6702C18.4719 27.5039 18.2912 27.3606 18.093 27.2444Z" fill="white"/>
<path id="Vector_64" d="M18.7685 28.1877C18.873 28.182 18.9777 28.182 19.0821 28.1877C19.1304 28.1877 19.2329 28.2957 19.245 28.2957C19.257 28.2957 19.9024 28.1217 19.9024 28.0977C19.8088 28.0007 19.7101 27.9086 19.6068 27.8219C19.474 27.7576 19.3248 27.7347 19.1786 27.7559C19.1364 27.7559 19.0339 27.6959 19.0218 27.6839C19.0098 27.6719 18.9495 27.6839 18.9193 27.7379C18.8892 27.7919 19.0158 28.0378 18.9676 28.0138C18.9193 27.9898 18.7323 28.1877 18.7685 28.1877Z" fill="white"/>
<path id="Vector_65" d="M23.8044 8.95919C23.9207 8.97127 24.038 8.97127 24.1542 8.95919C24.1851 8.93244 24.2196 8.91023 24.2568 8.89322C24.2568 8.89322 24.3472 8.83325 24.3291 8.80926C24.311 8.78527 24.3291 8.70131 24.3291 8.69531C24.1961 8.7182 24.069 8.76712 23.9552 8.83924C23.9552 8.83924 23.8165 8.9412 23.8044 8.95919Z" fill="white"/>
<path id="Vector_66" d="M22.4716 10.0336H22.5078C22.6227 9.97778 22.7284 9.90499 22.8214 9.81769C22.8214 9.77571 22.8214 9.73973 22.8214 9.71574C22.8214 9.69175 22.7671 9.71574 22.7249 9.71574H22.6585C22.5828 9.76251 22.5043 9.80457 22.4233 9.84168C22.369 9.88366 22.4354 10.0096 22.4716 10.0336Z" fill="white"/>
<path id="Vector_67" d="M22.5499 8.64243C22.6103 8.64243 22.6042 8.64243 22.6344 8.67841C22.7265 8.69526 22.8216 8.67591 22.8997 8.62443L22.954 8.57646C22.9962 8.54047 22.954 8.52248 22.8997 8.52848C22.8315 8.53427 22.7629 8.53427 22.6947 8.52848H22.5379H22.4655H22.4293C22.4293 8.52848 22.5439 8.61844 22.5499 8.64243Z" fill="white"/>
<path id="Vector_68" d="M37.9954 22.033C38.0321 22.1513 38.0484 22.275 38.0436 22.3988C38.0436 22.5847 38.1401 22.6267 38.309 22.5187C38.3273 22.5097 38.343 22.4961 38.3547 22.4793C38.3663 22.4625 38.3734 22.4431 38.3753 22.4228C38.3753 22.3628 38.3753 22.2968 38.3753 22.2369V22.1109C38.3753 22.1109 38.3753 22.051 38.3753 22.021C38.3753 21.991 38.2607 21.7991 38.1341 21.889L38.0316 21.955C38.0179 21.9624 38.007 21.974 38.0005 21.988C37.994 22.0021 37.9922 22.0178 37.9954 22.033Z" fill="white"/>
<path id="Vector_69" d="M22.9179 12.6472C22.9281 12.6344 22.9337 12.6185 22.9337 12.6022C22.9337 12.5858 22.9281 12.57 22.9179 12.5572C22.8893 12.5415 22.8571 12.5332 22.8244 12.5332C22.7917 12.5332 22.7595 12.5415 22.7309 12.5572C22.6293 12.6165 22.5394 12.6938 22.4655 12.7851C22.4233 12.8571 22.4655 12.8991 22.5319 12.8991C22.5981 12.8959 22.6627 12.8781 22.7212 12.847C22.7796 12.8159 22.8303 12.7722 22.8696 12.7191L22.9179 12.6472Z" fill="white"/>
<path id="Vector_70" d="M23.919 9.16952H24.0396C24.0396 9.16952 24.0758 9.13954 24.0396 9.13354C23.971 9.0806 23.885 9.05494 23.7984 9.06157C23.7432 9.06562 23.6896 9.08203 23.6416 9.10955C23.6416 9.10955 23.6416 9.14553 23.6416 9.15753C23.717 9.18572 23.7964 9.20191 23.8768 9.20551L23.919 9.16952Z" fill="white"/>
<path id="Vector_71" d="M45.2326 12.493C45.2743 12.4875 45.3127 12.4678 45.3414 12.4371C45.37 12.4065 45.387 12.3669 45.3894 12.3251C45.3933 12.3114 45.3933 12.2969 45.3894 12.2831C45.3248 12.2308 45.2435 12.2032 45.1602 12.2052C45.1403 12.2062 45.1212 12.2131 45.1051 12.2248C45.089 12.2365 45.0768 12.2526 45.0698 12.2711C45.0723 12.2951 45.0723 12.3192 45.0698 12.3431C45.0698 12.3731 45.0698 12.4031 45.118 12.4391C45.1317 12.4561 45.1492 12.4698 45.169 12.4792C45.1889 12.4885 45.2106 12.4933 45.2326 12.493Z" fill="white"/>
<path id="Vector_72" d="M20.5054 14.4707H20.3908C20.3646 14.4744 20.3397 14.4848 20.3185 14.5007C20.2736 14.5313 20.2313 14.5654 20.1918 14.6026C20.1855 14.6136 20.1821 14.626 20.1821 14.6386C20.1821 14.6513 20.1855 14.6637 20.1918 14.6746C20.1918 14.6746 20.1918 14.7166 20.228 14.7166C20.2579 14.7226 20.2886 14.7226 20.3185 14.7166C20.4212 14.6774 20.5139 14.6159 20.5899 14.5367C20.5954 14.5212 20.5954 14.5042 20.5899 14.4887L20.5054 14.4707Z" fill="white"/>
<path id="Vector_73" d="M21.9408 19.0589C21.9408 19.0589 21.9408 19.1008 21.9408 19.1248V19.1668C21.9766 19.2226 22.0265 19.2681 22.0856 19.2988L22.2786 19.3527L22.3208 19.3167V19.2868C22.2816 19.2167 22.2249 19.1579 22.1563 19.1159C22.0877 19.0739 22.0093 19.0501 21.9288 19.0469L21.9408 19.0589Z" fill="white"/>
<path id="Vector_74" d="M44.4727 23.8034C44.5393 23.7563 44.5847 23.6853 44.5994 23.6055L44.3521 23.6415C44.2822 23.6544 44.2161 23.6831 44.1591 23.7254C44.1459 23.7415 44.1387 23.7616 44.1387 23.7824C44.1387 23.8032 44.1459 23.8233 44.1591 23.8394C44.1792 23.8636 44.2055 23.8819 44.2352 23.8925C44.265 23.9031 44.297 23.9054 44.328 23.8993C44.3582 23.8573 44.4124 23.8274 44.4727 23.8034Z" fill="white"/>
<path id="Vector_75" d="M38.2366 21.7585C38.2512 21.7337 38.2633 21.7076 38.2728 21.6806C38.28 21.6248 38.28 21.5684 38.2728 21.5126C38.2766 21.4868 38.2766 21.4605 38.2728 21.4347C38.2734 21.4247 38.2734 21.4147 38.2728 21.4047C38.2727 21.3948 38.2701 21.3851 38.2652 21.3765C38.2604 21.3679 38.2535 21.3606 38.2451 21.3552C38.2368 21.3499 38.2272 21.3467 38.2173 21.3459C38.2074 21.3451 38.1975 21.3468 38.1884 21.3507C38.1495 21.3626 38.1128 21.3808 38.0798 21.4047C38.0579 21.4184 38.0406 21.4382 38.0298 21.4617C38.0191 21.4851 38.0155 21.5112 38.0195 21.5366C38.0277 21.6177 38.0591 21.6947 38.11 21.7585C38.1179 21.7675 38.1277 21.7746 38.1386 21.7795C38.1495 21.7844 38.1613 21.7869 38.1733 21.7869C38.1853 21.7869 38.1971 21.7844 38.2081 21.7795C38.219 21.7746 38.2287 21.7675 38.2366 21.7585Z" fill="white"/>
<path id="Vector_76" d="M17.9181 28.0723C17.9144 28.0751 17.9113 28.0787 17.9092 28.0828C17.9072 28.087 17.9061 28.0916 17.9061 28.0963C17.9061 28.1009 17.9072 28.1055 17.9092 28.1097C17.9113 28.1138 17.9144 28.1174 17.9181 28.1202C17.9398 28.1741 17.9808 28.218 18.0331 28.2435C18.0855 28.269 18.1455 28.2742 18.2016 28.2582H18.2619C18.267 28.2537 18.2711 28.2481 18.274 28.2419C18.2768 28.2357 18.2782 28.229 18.2782 28.2222C18.2782 28.2154 18.2768 28.2087 18.274 28.2025C18.2711 28.1963 18.267 28.1907 18.2619 28.1862C18.2388 28.1494 18.2054 28.1201 18.1657 28.102C18.126 28.0838 18.0819 28.0777 18.0387 28.0843L17.9181 28.0723Z" fill="white"/>
<path id="Vector_77" d="M42.2593 23.7852L42.5126 23.7433C42.5187 23.7278 42.5187 23.7107 42.5126 23.6953C42.4464 23.6416 42.3628 23.6139 42.2774 23.6173C42.1853 23.6293 42.0921 23.6293 42 23.6173C41.9905 23.6134 41.9802 23.6113 41.9698 23.6113C41.9595 23.6113 41.9493 23.6134 41.9397 23.6173C41.9397 23.6173 41.9397 23.6173 41.9397 23.6653C41.9397 23.7133 41.9397 23.7133 41.9397 23.7133L42.2412 23.7912L42.2593 23.7852Z" fill="white"/>
<path id="Vector_78" d="M20.1496 28.1441C20.1496 28.1441 20.1496 28.1861 20.1135 28.21C20.1082 28.2202 20.1054 28.2316 20.1054 28.243C20.1054 28.2545 20.1082 28.2658 20.1135 28.276H20.1617C20.2061 28.2882 20.2528 28.2896 20.2979 28.2803C20.3431 28.2709 20.3853 28.2509 20.421 28.222C20.427 28.2154 20.4303 28.2069 20.4303 28.1981C20.4303 28.1892 20.427 28.1807 20.421 28.1741C20.4074 28.15 20.3862 28.131 20.3607 28.1201C20.3246 28.1162 20.2883 28.1162 20.2522 28.1201C20.2173 28.1247 20.1829 28.1328 20.1496 28.1441Z" fill="white"/>
<path id="Vector_79" d="M22.6284 9.07417C22.692 9.03762 22.7507 8.99329 22.8033 8.94223V8.90625H22.755L22.5862 9.0082C22.5676 9.0196 22.5528 9.03633 22.5439 9.05618C22.5439 9.05618 22.6163 9.08017 22.6284 9.07417Z" fill="white"/>
<path id="Vector_80" d="M20.6562 14.9037C20.6562 14.9037 20.6563 14.9037 20.6924 14.9397C20.7286 14.9756 20.7347 14.9397 20.7467 14.9397L20.8553 14.8137L20.8854 14.7717C20.8941 14.7602 20.8984 14.7459 20.8973 14.7315C20.8963 14.7171 20.8901 14.7036 20.8798 14.6933C20.8696 14.6831 20.8559 14.677 20.8415 14.6759C20.827 14.6749 20.8126 14.6791 20.801 14.6878C20.7606 14.7088 20.7261 14.7396 20.7008 14.7773C20.6755 14.815 20.6602 14.8585 20.6562 14.9037Z" fill="white"/>
<path id="Vector_81" d="M33.3938 10.3994C33.3908 10.4153 33.3908 10.4315 33.3938 10.4474C33.3938 10.4474 33.3938 10.5014 33.4299 10.5194C33.4786 10.5373 33.5321 10.5373 33.5807 10.5194C33.567 10.4882 33.5509 10.4581 33.5325 10.4294C33.5325 10.4294 33.4299 10.3634 33.3938 10.3994Z" fill="white"/>
<path id="Vector_82" d="M24.8599 8.42507L25.0106 8.37109C25.0106 8.37109 25.0106 8.37109 24.9503 8.37109C24.89 8.37109 24.7875 8.40108 24.7996 8.43107L24.8599 8.42507Z" fill="white"/>
<path id="Vector_83" d="M24.1904 9.27069C24.2258 9.26215 24.2588 9.24575 24.2869 9.22272C24.2869 9.19273 24.2869 9.16274 24.2387 9.16874H24.1904C24.1476 9.18699 24.1102 9.21591 24.0818 9.2527C24.1157 9.26842 24.1532 9.27464 24.1904 9.27069Z" fill="white"/>
<path id="Vector_84" d="M23.2194 8.99518C23.2575 8.99354 23.2937 8.97869 23.3219 8.9532C23.3219 8.92321 23.3219 8.89922 23.2556 8.90522C23.2352 8.90549 23.215 8.90988 23.1964 8.91813C23.1777 8.92638 23.1609 8.93831 23.147 8.9532C23.147 8.9532 23.1651 8.99518 23.2194 8.99518Z" fill="white"/>
<path id="Vector_85" d="M21.9469 8.92891H22.0313C22.0893 8.92311 22.1462 8.90897 22.2002 8.88693C22.2435 8.87119 22.2842 8.84894 22.3208 8.82096C22.3461 8.80327 22.3749 8.79102 22.4052 8.78498L22.5259 8.75499C22.4417 8.74573 22.3567 8.74573 22.2725 8.75499H22.1278L21.8685 8.90492V8.9409C21.8685 8.9409 21.9227 8.92291 21.9469 8.92891Z" fill="white"/>
<path id="Vector_86" d="M19.7817 16.8409C19.7395 16.8409 19.7335 16.8889 19.7335 16.9249C19.7321 16.9321 19.7326 16.9395 19.735 16.9464C19.7373 16.9533 19.7414 16.9594 19.7469 16.9643C19.7524 16.9691 19.759 16.9724 19.7662 16.974C19.7734 16.9755 19.7808 16.9751 19.7878 16.9729C19.8512 16.9565 19.9068 16.9182 19.9446 16.8649C19.9475 16.8491 19.9475 16.8328 19.9446 16.817C19.9403 16.8096 19.9342 16.8035 19.9267 16.7993C19.9193 16.7951 19.9109 16.7929 19.9024 16.793L19.7817 16.8409Z" fill="white"/>
<path id="Vector_87" d="M21.772 10.1945C21.7741 10.1846 21.7741 10.1744 21.772 10.1645C21.714 10.1561 21.6551 10.1561 21.5971 10.1645C21.5735 10.1669 21.5507 10.1739 21.5299 10.1852C21.5092 10.1966 21.491 10.212 21.4764 10.2305C21.5382 10.2423 21.6016 10.2423 21.6634 10.2305L21.772 10.1945Z" fill="white"/>
<path id="Vector_88" d="M37.8929 9.26562C37.8929 9.33159 37.9653 9.37357 38.0618 9.40356C38.0618 9.40356 37.9592 9.3136 37.917 9.27162L37.8929 9.26562Z" fill="white"/>
<path id="Vector_89" d="M19.0278 17.9317C19.0039 17.9455 18.9849 17.9665 18.9736 17.9916C18.9704 17.9982 18.9687 18.0053 18.9687 18.0126C18.9687 18.0199 18.9704 18.0271 18.9736 18.0336L19.064 18.0636H19.1002H19.1424C19.1498 18.0541 19.1537 18.0425 19.1537 18.0306C19.1537 18.0187 19.1498 18.0071 19.1424 17.9976C19.1396 17.9856 19.1344 17.9742 19.127 17.9643C19.1197 17.9544 19.1103 17.946 19.0996 17.9398C19.0888 17.9337 19.0769 17.9297 19.0646 17.9283C19.0522 17.9269 19.0397 17.928 19.0278 17.9317Z" fill="white"/>
<path id="Vector_90" d="M21.3679 30.1418C21.3652 30.1617 21.3652 30.1819 21.3679 30.2018C21.3671 30.2109 21.3681 30.2201 21.3711 30.2288C21.3741 30.2376 21.3788 30.2456 21.3851 30.2523C21.3913 30.2591 21.3989 30.2645 21.4074 30.2682C21.4158 30.2719 21.425 30.2738 21.4342 30.2737C21.445 30.2746 21.4559 30.2731 21.4661 30.2696C21.4763 30.2661 21.4857 30.2604 21.4936 30.2531C21.5016 30.2458 21.5079 30.2369 21.5122 30.227C21.5165 30.2172 21.5187 30.2065 21.5187 30.1958C21.5211 30.1722 21.5152 30.1486 21.502 30.1289C21.4888 30.1092 21.4691 30.0946 21.4463 30.0878C21.4376 30.0834 21.4278 30.0815 21.4181 30.0822C21.4084 30.0828 21.399 30.0861 21.391 30.0916C21.3829 30.0972 21.3766 30.1047 21.3725 30.1136C21.3684 30.1224 21.3669 30.1321 21.3679 30.1418Z" fill="white"/>
<path id="Vector_91" d="M34.7447 16.4267C34.7447 16.4267 34.7447 16.3908 34.7447 16.3848C34.7194 16.3865 34.6953 16.3961 34.6758 16.4123C34.6563 16.4284 34.6424 16.4503 34.6361 16.4747C34.6329 16.5086 34.6329 16.5428 34.6361 16.5767H34.6844C34.7039 16.5569 34.7193 16.5334 34.7296 16.5077C34.74 16.482 34.7451 16.4545 34.7447 16.4267Z" fill="white"/>
<path id="Vector_92" d="M22.4716 15.4604H22.5138C22.538 15.45 22.5604 15.4358 22.5801 15.4184C22.5852 15.4028 22.5852 15.386 22.5801 15.3704C22.5776 15.3654 22.5738 15.3611 22.569 15.3581C22.5642 15.3551 22.5586 15.3535 22.553 15.3535C22.5473 15.3535 22.5418 15.3551 22.537 15.3581C22.5322 15.3611 22.5283 15.3654 22.5258 15.3704L22.4716 15.4604Z" fill="white"/>
<path id="Vector_93" d="M23.2073 15.0642C23.203 15.0736 23.2007 15.0838 23.2007 15.0941C23.2007 15.1045 23.203 15.1147 23.2073 15.1241C23.2073 15.1241 23.2073 15.1241 23.2435 15.1241C23.2797 15.1241 23.2797 15.0881 23.2978 15.0702V14.9922C23.2978 14.9922 23.2676 14.9922 23.2616 14.9922C23.237 15.0106 23.2182 15.0355 23.2073 15.0642Z" fill="white"/>
<path id="Vector_94" d="M22.5982 9.73403C22.5982 9.73403 22.556 9.70404 22.4896 9.73403C22.4233 9.76402 22.4896 9.77001 22.5982 9.73403Z" fill="white"/>
<path id="Vector_95" d="M22.4959 9.7151V9.70898H22.4898L22.4836 9.7151H22.4959Z" fill="white"/>
<path id="Vector_96" d="M45.4136 11.5379L45.498 11.5919C45.5047 11.5947 45.5119 11.5962 45.5191 11.5962C45.5264 11.5962 45.5335 11.5947 45.5402 11.5919C45.5402 11.5919 45.5402 11.5619 45.5402 11.5439C45.5132 11.5204 45.4795 11.5058 45.4437 11.502L45.4136 11.5379Z" fill="white"/>
</g>
</g>
<defs>
<radialGradient id="paint0_radial_1665_1604" cx="0" cy="0" r="1" gradientUnits="userSpaceOnUse" gradientTransform="translate(34.9622 24.7832) scale(25.3907 21.4831)">
<stop stop-color="#FED060"/>
<stop offset="0.08" stop-color="#FECF5A"/>
<stop offset="0.18" stop-color="#FECC4A"/>
<stop offset="0.3" stop-color="#FDC830"/>
<stop offset="0.43" stop-color="#FCC10C"/>
<stop offset="0.46" stop-color="#FCBF00"/>
<stop offset="0.56" stop-color="#FAB101"/>
<stop offset="0.74" stop-color="#F38C04"/>
<stop offset="0.99" stop-color="#E9500A"/>
<stop offset="1" stop-color="#E84C0A"/>
</radialGradient>
<clipPath id="clip0_1665_1604">
<rect width="168" height="51" fill="white"/>
</clipPath>
</defs>
</svg>
