<svg width="156" height="13" viewBox="0 0 156 13" fill="none" xmlns="http://www.w3.org/2000/svg">
<g id="LHG_Wordmark_blue" clip-path="url(#clip0_1665_1753)">
<g id="Ebene 2">
<g id="LHG Logo">
<path id="Vector" d="M135.34 0.820312V7.75031C135.34 10.5103 136.88 12.4203 140.34 12.4203C143.8 12.4203 145.34 10.5103 145.34 7.75031V0.820312H142.71V7.58031C142.71 9.32031 141.92 10.0803 140.33 10.0803C138.74 10.0803 138 9.32031 138 7.58031V0.820312H135.34Z" fill="#05164D"/>
<path id="Vector_2" d="M110.51 6.06008H105.82V8.35008H107.88V9.35008C107.127 9.85802 106.227 10.104 105.32 10.0501C103.05 10.0501 102.08 8.85008 102.08 6.46008C102.08 4.07008 103.08 2.87008 105.23 2.87008C106.8 2.87008 107.49 3.24008 107.84 4.36008H110.6C110.28 2.09008 108.72 0.580078 105.22 0.580078C101.1 0.580078 99.35 2.93008 99.35 6.50008C99.35 10.0701 101.1 12.4201 105.35 12.4201C107.237 12.4572 109.072 11.8028 110.51 10.5801V6.06008Z" fill="#05164D"/>
<path id="Vector_3" d="M83.9 4.17008C83.67 1.75008 82.23 0.580078 79.29 0.580078C76.13 0.580078 74.7 2.09008 74.7 4.13008C74.7 6.17008 75.9 7.26008 78 7.52008L79.61 7.71008C81.04 7.89008 81.41 8.26008 81.41 8.91008C81.41 9.56008 80.83 10.1301 79.25 10.1301C77.37 10.1301 77.03 9.40008 76.93 8.48008H74.24C74.42 10.8801 75.65 12.4201 79.24 12.4201C82.42 12.4201 84.11 11.1701 84.11 8.75008C84.11 6.50008 82.81 5.44008 80.43 5.15008L78.82 4.96008C77.77 4.83008 77.41 4.55008 77.41 3.96008C77.41 3.37008 77.83 2.82008 79.29 2.82008C80.75 2.82008 81.09 3.37008 81.22 4.17008H83.9Z" fill="#05164D"/>
<path id="Vector_4" d="M70.5299 7.86031L65.1599 0.820312H62.6899V12.1803H65.3199V5.14031L70.6899 12.1803H73.1499V0.820312H70.5299V7.86031Z" fill="#05164D"/>
<path id="Vector_5" d="M152.2 0.820312H146.94V12.1803H149.57V8.09031H152.2C154.71 8.09031 156 6.60031 156 4.46031C156 2.14031 154.7 0.830313 152.2 0.830313M151.78 5.83031H149.57V3.11031H151.78C152.83 3.11031 153.27 3.55031 153.27 4.46031C153.27 5.37031 152.83 5.81031 151.78 5.81031" fill="#05164D"/>
<path id="Vector_6" d="M128.17 0.580078C123.97 0.580078 122.25 3.09008 122.25 6.50008C122.25 9.91008 123.97 12.4201 128.17 12.4201C132.37 12.4201 134.09 9.91008 134.09 6.50008C134.09 3.09008 132.37 0.580078 128.17 0.580078ZM128.17 10.0901C125.96 10.0901 124.97 8.79008 124.97 6.50008C124.97 4.21008 125.97 2.91008 128.17 2.91008C130.37 2.91008 131.37 4.21008 131.37 6.50008C131.37 8.79008 130.37 10.0901 128.17 10.0901Z" fill="#05164D"/>
<path id="Vector_7" d="M121.31 10.5203C121.276 9.86372 121.091 9.22374 120.771 8.64982C120.45 8.0759 120.001 7.58338 119.46 7.21031C120.033 6.99753 120.52 6.60461 120.851 6.09064C121.181 5.57668 121.335 4.96946 121.29 4.36031C121.29 2.20031 120.01 0.820312 117.35 0.820312H112V12.1803H114.63V8.09031H116.25C117.65 8.09031 118.36 9.00031 118.6 10.7503L118.79 12.1803H121.5L121.31 10.5203ZM117 5.80031H114.65V3.11031H117C118 3.11031 118.54 3.55031 118.54 4.46031C118.54 5.37031 118.04 5.81031 117 5.81031" fill="#05164D"/>
<path id="Vector_8" d="M91.7 0.820312H88.49L84.37 12.1803H87.24L87.86 10.2703H92.32L93 12.1803H95.87L91.7 0.820312ZM88.59 8.04031L90.1 3.48031L91.59 8.04031H88.59Z" fill="#05164D"/>
<path id="Vector_9" d="M57.72 0.820312H54.51L50.38 12.1803H53.25L53.87 10.2703H58.33L59 12.1803H61.87L57.72 0.820312ZM54.6 8.04031L56.11 3.48031L57.6 8.04031H54.6Z" fill="#05164D"/>
<path id="Vector_10" d="M41.87 5.33031V0.820312H39.25V12.1803H41.87V7.62031H46.76V12.1803H49.38V0.820312H46.76V5.33031H41.87Z" fill="#05164D"/>
<path id="Vector_11" d="M32.29 3.11031V12.1803H34.92V3.11031H38.09V0.820312H29.11V3.11031H32.29Z" fill="#05164D"/>
<path id="Vector_12" d="M22.6999 12.1803V7.88031H27.6599V5.59031H22.6999V3.11031H27.9599V0.820312H20.0699V12.1803H22.6999Z" fill="#05164D"/>
<path id="Vector_13" d="M8.44995 0.820312V7.75031C8.44995 10.5103 9.98995 12.4203 13.45 12.4203C16.91 12.4203 18.45 10.5103 18.45 7.75031V0.820312H15.86V7.58031C15.86 9.32031 15.06 10.0803 13.48 10.0803C11.9 10.0803 11.08 9.32031 11.08 7.58031V0.820312H8.44995Z" fill="#05164D"/>
<path id="Vector_14" d="M0 0.820312V12.1803H7.82V9.89031H2.63V0.820312H0Z" fill="#05164D"/>
</g>
</g>
</g>
<defs>
<clipPath id="clip0_1665_1753">
<rect width="156" height="11.84" fill="white" transform="translate(0 0.580078)"/>
</clipPath>
</defs>
</svg>
