<svg width="158" height="43" viewBox="0 0 158 43" fill="none" xmlns="http://www.w3.org/2000/svg">
<g id="royal-caribbean-logo-no-border">
<g id="logo-no-border">
<path id="Fill-1_1_" d="M1 40.5992H156.5V2.19922H1V40.5992Z" fill="#0072BA"/>
<path id="Fill-2_1_" d="M1 40.5992H38.9V2.19922H1V40.5992Z" fill="#041556"/>
<path id="Fill-3_1_" d="M38.8999 40.5988H156.5V28.7988H38.8999V40.5988Z" fill="#FDBB11"/>
<path id="Fill-8_1_" d="M78 33.8996H78.6C79.3 33.8996 79.7 33.5996 79.7 33.0996C79.7 32.5996 79.3 32.2996 78.7 32.2996H78V33.8996ZM77.3 31.5996H78.6C79.6 31.5996 80.6 31.7996 80.6 32.9996C80.6 33.5996 80.1 34.0996 79.5 34.1996C79.7 34.2996 79.8 34.3996 80 34.6996L81 36.7996H80.2L79.4 34.9996C79.2 34.4996 78.9 34.4996 78.5 34.4996H78V36.7996H77.3V31.5996Z" fill="#041556"/>
<path id="Fill-10_1_" d="M85.8999 31.5996H86.8999L89.1999 35.8996V31.5996H89.9999V36.8996H88.9999L86.6999 32.5996H86.5999V36.8996H85.8999V31.5996Z" fill="#041556"/>
<path id="Fill-12_1_" d="M97.2999 32.3996L96.2999 34.9996H98.3999L97.2999 32.3996ZM96.9999 31.5996H97.7999L99.9999 36.8996H99.1999L98.6999 35.5996H96.1999L95.6999 36.8996H94.8999L96.9999 31.5996Z" fill="#041556"/>
<path id="Fill-14_1_" d="M105.2 32.2996H103.6V31.5996H107.6V32.2996H106V36.8996H105.2V32.2996Z" fill="#041556"/>
<path id="Fill-16_1_" d="M112.3 36.8996H113.1V31.5996H112.3V36.8996Z" fill="#041556"/>
<path id="Fill-18_1_" d="M120.7 36.2996C121.9 36.2996 122.4 35.2996 122.4 34.1996C122.4 33.0996 121.8 32.0996 120.7 32.0996C119.6 32.0996 119 33.0996 119 34.1996C119 35.2996 119.5 36.2996 120.7 36.2996ZM120.7 31.5996C122.3 31.5996 123.2 32.7996 123.2 34.2996C123.2 35.8996 122.3 36.9996 120.7 36.9996C119.1 36.9996 118.2 35.8996 118.2 34.2996C118.2 32.6996 119.1 31.5996 120.7 31.5996Z" fill="#041556"/>
<path id="Fill-19_1_" d="M128.3 31.5996H129.3L131.6 35.8996V31.5996H132.3V36.8996H131.4L129 32.5996V36.8996H128.3V31.5996Z" fill="#041556"/>
<path id="Fill-20_1_" d="M139.7 32.3996L138.7 34.9996H140.8L139.7 32.3996ZM139.3 31.5996H140.1L142.3 36.8996H141.5L141 35.5996H138.5L138 36.8996H137.2L139.3 31.5996Z" fill="#041556"/>
<path id="Fill-21_1_" d="M147.1 31.5996H147.8V36.1996H150V36.8996H147.1V31.5996Z" fill="#041556"/>
<path id="Fill-22_1_" d="M20 7.09961C21.4 8.39961 22.9001 9.79961 24.2001 11.1996L22.7 13.1996V13.2996L26.8 15.0996L29.6 13.1996L27.9 11.2996V11.1996C29.6 9.99961 31.1 8.79961 32.7001 7.69961L31.9 16.0996H8.10005L7.30005 7.69961C9.00005 8.79961 10.4 9.99961 12.1 11.1996V11.2996L10.4 13.1996L13.2 15.0996L17.3 13.2996V13.1996L15.8 11.1996C17 9.79961 18.6 8.39961 20 7.09961Z" fill="#FEFEFE"/>
<path id="Fill-23_1_" d="M31.7001 17.5996L31.5 20.3996H22.7V29.9996H27C28 29.9996 29 28.9996 28.8 28.2996C28.6 27.2996 27.7 26.6996 26.9 26.1996C27.1 26.1996 30 23.9996 31.4 23.0996C31.3 23.6996 30.4 31.5996 30.3 31.6996L20 35.5996H19.8L9.70005 31.6996C9.70005 31.5996 8.70005 23.6996 8.60005 23.0996C10 23.9996 12.9 26.1996 13.1 26.1996C12.3 26.6996 11.4 27.2996 11.2 28.2996C11 28.9996 12 29.9996 13 29.9996H17.3V20.3996H8.50005L8.30005 17.5996H31.7001Z" fill="#FEFEFE"/>
<path id="Fill-24_1_" d="M47.0001 14.8998C48.7001 14.8998 50.7001 14.0998 50.7001 12.0998C50.7001 9.99979 48.9001 9.19978 47.0001 9.19978V14.8998ZM45.4001 12.5998C45.4001 9.89979 45.3001 9.39978 43.3001 9.29978V8.99978L47.6001 8.89978C52.1001 8.79978 52.4001 10.9998 52.4001 11.7998C52.4001 13.2998 51.5001 14.1998 50.2001 14.6998L50.3001 14.7998C51.7001 17.1998 53.4001 20.2998 56.3001 20.8998L56.2001 21.1998C54.3001 21.0998 52.9001 21.1998 51.9001 20.0998C50.7001 18.8998 49.8001 17.2998 49.4001 16.4998C48.7001 14.9998 48.1001 15.3998 46.8001 15.1998V18.0998C46.8001 20.0998 46.8001 20.3998 49.3001 20.7998V21.0998H43.1001V20.7998C45.2001 20.4998 45.2001 19.9998 45.3001 18.0998L45.4001 12.5998Z" fill="#FEFEFE"/>
<path id="Fill-25_1_" d="M58.9 13.3984C57 13.3984 56.2 15.3984 56.2 17.0984C56.2 18.7984 57.1 20.8984 59 20.8984C60.8 20.8984 61.6 18.7984 61.6 17.2984C61.7 15.5984 60.9 13.3984 58.9 13.3984ZM58.9 21.1984C56.5 21.1984 54.5 19.5984 54.5 17.0984C54.5 14.5984 56.5 12.8984 58.9 12.8984C61.3 12.8984 63.2 14.4984 63.2 16.9984C63.3 19.4984 61.3 21.1984 58.9 21.1984Z" fill="#FEFEFE"/>
<path id="Fill-26_1_" d="M63.9001 14.7984C63.6001 13.9984 63.5001 13.7984 62.6001 13.6984V13.3984H66.3001V13.6984C65.0001 13.7984 65.3001 14.5984 65.7001 15.4984L67.4001 20.0984L68.5001 16.8984C69.3001 14.5984 69.4001 13.8984 68.1001 13.7984V13.4984H71.2001V13.7984C70.4001 13.8984 70.2001 14.1984 69.8001 14.8984L69.1001 16.4984L66.4001 23.3984C65.7001 25.0984 65.3001 25.5984 64.6001 25.5984C64.1001 25.5984 63.7001 25.1984 63.7001 24.6984C63.7001 24.2984 63.9001 23.9984 64.3001 23.8984C64.5001 23.9984 65.0001 24.3984 65.2001 24.3984C65.6001 24.3984 65.9001 23.3984 66.0001 23.1984L66.6001 21.7984L63.9001 14.7984Z" fill="#FEFEFE"/>
<path id="Fill-27_1_" d="M72.3001 18.2C72.2001 18.4 72.2001 18.7 72.2001 18.9C72.2001 19.7 72.6001 20.3 73.4001 20.3C73.9001 20.3 74.4001 20 74.7001 19.6V16.9L72.3001 18.2ZM74.7001 16.6C74.8001 14.6 74.3001 13.8 72.9001 13.8C71.7001 13.8 71.8001 14.4 71.8001 15.4L71.0001 15.5C70.9001 15.5 70.6001 15.5 70.6001 15.3C70.6001 14.8 72.6001 13 74.0001 13C75.6001 13 76.1001 14.3 76.1001 15.7V18.2C76.1001 19.8 76.0001 20.8 77.6001 20.5V20.9C76.9001 21.1 76.3001 21.2 75.8001 21.2C75.1001 21.2 74.8001 20.8 74.7001 20.1C74.1001 20.7 73.4001 21.3 72.4001 21.3C71.3001 21.3 70.6001 20.3 70.6001 19.3C70.6001 19 70.6001 18.8 70.7001 18.5L74.7001 16.6Z" fill="#FEFEFE"/>
<path id="Fill-28_1_" d="M76.8 21.0988V20.6988C78 20.5988 78.2 20.2988 78.2 19.0988V11.4988C78.2 10.6988 78.2 10.4988 77.3 9.89883V9.59883L79.3 8.79883L79.5 8.89883V18.9988C79.5 20.4988 79.6 20.5988 80.9 20.7988V21.0988H76.8Z" fill="#FEFEFE"/>
<path id="Fill-29_1_" d="M95.3001 18.2C95.2001 18.4 95.2001 18.7 95.2001 18.9C95.2001 19.7 95.6001 20.3 96.4001 20.3C96.9001 20.3 97.4001 20 97.7001 19.6V16.9L95.3001 18.2ZM97.7001 16.6C97.8001 14.6 97.3001 13.8 95.9001 13.8C94.7001 13.8 94.8001 14.4 94.8001 15.4L94.0001 15.5C93.9001 15.5 93.6001 15.5 93.6001 15.3C93.6001 14.8 95.5001 13 97.0001 13C98.6001 13 99.1001 14.3 99.1001 15.7V18.2C99.1001 19.8 98.9001 20.9 100.6 20.5V20.9C99.9001 21.1 99.3001 21.2 98.8001 21.2C98.1001 21.2 97.8001 20.8 97.7001 20.1C97.1001 20.7 96.4001 21.3 95.4001 21.3C94.3001 21.3 93.6001 20.3 93.6001 19.3C93.6001 19 93.6001 18.8 93.7001 18.5L97.7001 16.6Z" fill="#FEFEFE"/>
<path id="Fill-30_1_" d="M92.5 12.5992H92.2C91.9 10.5992 90.7 9.09922 88.6 9.09922C85.4 9.09922 83.5 11.7992 83.5 14.8992C83.5 18.3992 86.2 20.8992 88.7 20.8992C91 20.8992 91.9 19.1992 92.7 17.1992L92.9 17.2992C92.7 18.3992 92.4 19.4992 91.9 20.4992C90.8 21.0992 89.5 21.2992 88.3 21.2992C84.6 21.2992 81.3 19.0992 81.3 15.0992C81.3 11.8992 83.8 8.69922 88.4 8.69922C89.7 8.69922 91.1 8.99922 92.3 9.69922V12.5992H92.5Z" fill="#FEFEFE"/>
<path id="Fill-31_1_" d="M137.5 18.2C137.4 18.4 137.4 18.7 137.4 18.9C137.4 19.7 137.8 20.3 138.6 20.3C139.1 20.3 139.6 20 139.9 19.6V16.9L137.5 18.2ZM139.9 16.6C140 14.6 139.5 13.8 138.1 13.8C136.9 13.8 137 14.4 137 15.4L136.1 15.5C136 15.5 135.7 15.5 135.7 15.3C135.7 14.8 137.7 13 139.1 13C140.7 13 141.2 14.3 141.2 15.7V18.2C141.2 19.8 140.9 20.8 142.6 20.7V21C141.9 21.2 141.5 21.2 141 21.2C140.3 21.2 140 20.8 139.9 20.1C139.3 20.7 138.6 21.3 137.6 21.3C136.5 21.3 135.8 20.3 135.8 19.3C135.8 19 135.8 18.8 135.9 18.5L139.9 16.6Z" fill="#FEFEFE"/>
<path id="Fill-32_1_" d="M102.6 19C102.6 20.5 102.7 20.6 104.4 20.8V21.1H100V20.7C101.2 20.6 101.3 20.3 101.3 18.9V15.6C101.3 14.8 101.3 14.6 100.4 14V13.8L102.5 13L102.7 13.1L102.6 15.2C103 14.3 104 13 105.1 13C105.6 13 106 13.3 106 13.8C106 14.3 105.5 14.7 105.1 14.9C104.8 14.7 104.4 14.3 104 14.3C102.5 14.4 102.6 16.9 102.6 17.1V19Z" fill="#FEFEFE"/>
<path id="Fill-33_1_" d="M109.4 9.99961C109.4 10.4996 109 10.8996 108.5 10.8996C108 10.8996 107.6 10.4996 107.6 9.99961C107.6 9.49961 108 9.09961 108.5 9.09961C109 9.09961 109.4 9.49961 109.4 9.99961ZM106.5 21.0996V20.7996C107.8 20.5996 107.9 20.3996 107.9 18.9996V15.5996C107.9 14.7996 107.9 14.5996 106.8 13.9996V13.7996L109.1 12.9996L109.3 13.0996V18.9996C109.3 20.4996 109.4 20.5996 110.7 20.7996V21.0996H106.5Z" fill="#FEFEFE"/>
<path id="Fill-34_1_" d="M112.7 17.3988C112.7 19.0988 112.9 20.6988 114.9 20.6988C115.9 20.6988 117.5 19.8988 117.5 17.3988C117.5 15.1988 116.1 13.8988 114.4 13.8988C113.8 13.8988 113.3 14.0988 112.8 14.2988L112.7 17.3988ZM111.3 11.3988C111.3 10.5988 111.3 10.3988 110.4 9.79883V9.59883L112.4 8.79883L112.6 8.89883V13.9988C113.5 13.4988 114.6 12.9988 115.6 12.9988C117.6 12.9988 118.9 14.7988 118.9 16.6988C118.9 19.8988 116 21.2988 114.1 21.2988C113 21.2988 112.2 20.9988 111.3 20.5988V11.3988Z" fill="#FEFEFE"/>
<path id="Fill-35_1_" d="M121.2 17.3988C121.2 19.0988 121.4 20.6988 123.4 20.6988C124.4 20.6988 126 19.8988 126 17.3988C126 15.1988 124.6 13.8988 122.9 13.8988C122.3 13.8988 121.8 14.0988 121.3 14.2988L121.2 17.3988ZM119.8 11.3988C119.8 10.5988 119.8 10.3988 118.9 9.79883V9.59883L120.9 8.79883L121.1 8.89883V13.9988C122 13.4988 123.1 12.9988 124.1 12.9988C126.1 12.9988 127.4 14.7988 127.4 16.6988C127.4 19.8988 124.5 21.2988 122.6 21.2988C121.5 21.2988 120.7 20.9988 119.8 20.5988V11.3988Z" fill="#FEFEFE"/>
<path id="Fill-36_1_" d="M133.3 15.1C133.1 14.3 132.6 13.3 131.7 13.3C130.7 13.3 130.1 14.3 129.9 15.2L133.3 15.1ZM129.8 16.5C129.7 18.4 130.9 20.1 132.9 20.1C133.8 20.1 134.5 19.7 135 19L135.3 19.2C134.6 20.4 133.4 21.3 132 21.3C129.8 21.3 128.3 19.5 128.3 17.3C128.3 15 129.9 13 132.3 13C133.9 13 135 14 135 15.6H129.9L129.8 16.5Z" fill="#FEFEFE"/>
<path id="Fill-37_1_" d="M143.4 15.6C143.4 14.8 143.4 14.6 142.5 14V13.8L144.6 13L144.8 13.1L144.7 14.4C145.7 13.6 146.7 13 147.8 13C149.9 13 150 14.8 150 15.8V19C150 20.5 150.1 20.6 151.4 20.8V21.1H147.3V20.8C148.6 20.6 148.7 20.4 148.7 19V16.9C148.7 15.6 148.8 13.9 146.6 13.9C145.9 13.9 145.4 14.1 144.8 14.7V19C144.8 20.5 144.9 20.6 146.2 20.8V21.1H142V20.8C143.3 20.7 143.4 20.4 143.4 19V15.6Z" fill="#FEFEFE"/>
<path id="Fill-4_1_" d="M45.5 36.8996H46.2V31.5996H45.5V36.8996Z" fill="#041556"/>
<path id="Fill-5_1_" d="M51.6001 31.5996H52.6001L54.9001 35.8996V31.5996H55.7001V36.8996H54.7001L52.3001 32.5996V36.8996H51.6001V31.5996Z" fill="#041556"/>
<path id="Fill-6_1_" d="M61.9999 32.2996H60.3999V31.5996H64.3999V32.2996H62.7999V36.8996H61.9999V32.2996Z" fill="#041556"/>
<path id="Fill-7_1_" d="M69.2 31.5996H72.1V32.2996H69.9V33.7996H71.9V34.4996H69.9V36.1996H72.1V36.8996H69.2V31.5996Z" fill="#041556"/>
</g>
</g>
</svg>
