<svg width="81" height="51" viewBox="0 0 81 51" fill="none" xmlns="http://www.w3.org/2000/svg">
<path id="Union" fill-rule="evenodd" clip-rule="evenodd" d="M79.9482 1.70586H79.7164V1.33252H79.9482C80.1026 1.33252 80.1578 1.38584 80.1578 1.51917C80.1578 1.6525 80.1026 1.70586 79.9482 1.70586ZM80.1578 1.8525C80.2902 1.79917 80.3564 1.69252 80.3564 1.50586C80.3564 1.25252 80.235 1.13252 79.9482 1.13252H79.5288V2.27916H79.7164V1.89251H79.9592L80.1799 2.27916H80.4006L80.1578 1.8525ZM79.9371 2.67916C79.4957 2.67916 79.1426 2.23917 79.1426 1.71917C79.1426 1.18584 79.4957 0.75918 79.9371 0.75918C80.3785 0.75918 80.7316 1.19917 80.7316 1.71917C80.7316 2.2525 80.3675 2.67916 79.9371 2.67916ZM79.9261 2.93251C80.4778 2.93251 80.9302 2.38584 80.9302 1.71917C80.9302 1.03917 80.4888 0.505859 79.9261 0.505859C79.3744 0.505859 78.922 1.05251 78.922 1.71917C78.922 2.38584 79.3744 2.93251 79.9261 2.93251ZM1.38288 2.26554H76.4172V33.9321H1.38288V2.26554ZM0.0697784 35.5321H77.7523V0.678862H0.0697784V35.5321ZM20.8586 9.78549V26.3854L21.94 26.5588V27.5321H16.6104V26.5588L17.7579 26.3854V18.8255H10.9387V26.3854L11.9869 26.5588V27.5321H6.74556V26.5588L7.79383 26.3854V9.78549L6.74556 9.61215V8.6655H11.9869V9.61215L10.9387 9.78549V16.8788H17.7579V9.78549L16.6104 9.61215V8.6655H21.94V9.61215L20.8586 9.78549ZM29.1345 26.6788L28.1303 26.5055V14.1055H24.2352V14.9588L25.2393 15.1322V26.5055L24.2352 26.6788V27.5321H29.1345V26.6788ZM31.2641 26.7058L32.2462 26.5458V9.67917L31.2641 9.50587V8.67918H35.1593V26.5458L36.1634 26.7058V27.5458H31.2641V26.7058ZM44.7483 14.1057H42.1331V10.279L39.2862 11.3057V14.1057H37.1566V15.359H39.209V24.1189C39.209 26.4656 39.7276 27.6923 41.9786 27.6923C42.9828 27.6923 44.1745 27.439 45.5869 26.839V25.9189C45.1124 26.0656 44.6048 26.0656 44.031 26.0656C42.4752 26.0656 42.1221 25.4123 42.1221 23.3456V15.359H44.7483V14.1057ZM57.9344 20.9458C57.9344 25.1325 55.5951 27.9325 51.9096 27.9325C48.3454 27.9325 46.0723 26.1058 46.0723 20.9458C46.0723 16.6259 48.4116 13.7325 52.0972 13.7325C55.7385 13.7325 57.9344 16.3459 57.9344 20.9458ZM54.7344 20.8659C54.7344 16.6259 53.6861 14.7726 51.9868 14.7726C50.3316 14.7726 49.2834 16.5459 49.2834 20.8659C49.2834 25.1325 50.3316 26.9059 51.9868 26.9059C53.7523 26.9059 54.7344 25.2125 54.7344 20.8659ZM71.242 27.5321V26.6788L70.2378 26.5188V18.4388C70.2378 15.3988 69.2558 13.8521 67.0599 13.8521C65.4158 13.8521 64.2351 14.7988 63.0213 15.9722V14.1055H59.1041V15.0521L60.1082 15.2255V26.5055L59.1041 26.6788V27.5321H64.0255V26.6788L63.0213 26.5055V16.9188C63.7386 16.3188 64.7206 15.7988 65.3385 15.7988C66.6737 15.7988 67.3248 16.7455 67.3248 18.8655V26.5055L66.3427 26.6788V27.5321H71.242ZM28.2737 10.5587C28.2737 11.5987 27.5675 12.452 26.6958 12.452C25.8241 12.452 25.1179 11.6121 25.1179 10.5587C25.1179 9.51873 25.8241 8.6654 26.6958 8.6654C27.5675 8.6654 28.2737 9.51873 28.2737 10.5587ZM2.90563 50.3329H1.72494C1.59253 50.3329 1.52632 50.2529 1.52632 50.0929V42.3329C1.52632 42.1729 1.59253 42.0929 1.72494 42.0929H5.98424C6.11665 42.0929 6.18286 42.1729 6.18286 42.3329V43.5862C6.18286 43.7462 6.11665 43.8262 5.98424 43.8262H3.10425V45.8129H5.27804C5.41045 45.8129 5.47666 45.8929 5.47666 46.0529V47.2129C5.47666 47.3729 5.41045 47.4529 5.27804 47.4529H3.10425V50.1329C3.10425 50.2662 3.03804 50.3329 2.90563 50.3329ZM12.5276 47.4664C12.351 47.8397 12.1193 48.1331 11.8213 48.3464C11.5234 48.5597 11.2034 48.6664 10.8613 48.6664C10.5193 48.6664 10.1993 48.5597 9.90135 48.3464C9.60342 48.1331 9.36066 47.8397 9.18411 47.4664C9.00756 47.0931 8.91929 46.6797 8.91929 46.2264C8.91929 45.7731 9.00756 45.3597 9.18411 44.9864C9.36066 44.6131 9.59239 44.3197 9.89032 44.1064C10.1772 43.8931 10.5082 43.7864 10.8503 43.7864C11.1924 43.7864 11.5124 43.8931 11.8103 44.1064C12.1082 44.3197 12.351 44.6131 12.5276 44.9864C12.7041 45.3597 12.7924 45.7731 12.7924 46.2264C12.7924 46.6797 12.7041 47.0931 12.5276 47.4664ZM7.78274 48.3731C8.0917 49.0264 8.52205 49.5331 9.06273 49.9197C9.60342 50.2931 10.1993 50.4797 10.8613 50.4931C11.5124 50.4931 12.1082 50.3064 12.6489 49.9197C13.1896 49.5464 13.62 49.0264 13.9289 48.3731C14.2379 47.7064 14.3924 46.9997 14.3924 46.2131C14.3924 45.4397 14.2379 44.7197 13.9289 44.0664C13.62 43.4131 13.1896 42.8931 12.6489 42.5197C12.1082 42.1464 11.5124 41.9597 10.8613 41.9597C10.1993 41.9597 9.60342 42.1464 9.06273 42.5197C8.52205 42.9064 8.0917 43.4131 7.78274 44.0664C7.47377 44.7197 7.31929 45.4264 7.31929 46.2131C7.31929 46.9997 7.47377 47.7197 7.78274 48.3731ZM19.2144 45.8662C19.3579 45.7596 19.4682 45.6262 19.5455 45.4529C19.6227 45.2795 19.6669 45.0929 19.6669 44.8796C19.6669 44.6529 19.6227 44.4529 19.5455 44.2796C19.4682 44.1196 19.3579 43.9862 19.2144 43.9062C19.082 43.8262 18.9276 43.7862 18.751 43.7862H17.5593V46.0129H18.7289C18.9055 46.0129 19.071 45.9729 19.2144 45.8662ZM15.9924 50.1062V42.3462C15.9924 42.1862 16.0586 42.1062 16.191 42.1062H18.8834C19.3469 42.1062 19.7662 42.2262 20.1193 42.4529C20.4834 42.6929 20.7593 43.0129 20.9579 43.4262C21.1565 43.8396 21.2558 44.3196 21.2558 44.8662C21.2558 45.3996 21.1675 45.8529 20.98 46.2262C20.7924 46.5995 20.5386 46.9062 20.1965 47.1462L21.3882 50.0529C21.4103 50.1062 21.4213 50.1462 21.4213 50.1729C21.4213 50.2262 21.4103 50.2529 21.3772 50.2795C21.3441 50.3062 21.3 50.3195 21.2558 50.3195H19.8986C19.7882 50.3195 19.711 50.2662 19.6669 50.1462L18.6958 47.6262H17.5593V50.0795C17.5593 50.2395 17.4931 50.3195 17.3607 50.3195H16.18C16.0476 50.3329 15.9924 50.2662 15.9924 50.1062ZM28.1524 50.3329H29.3331C29.4655 50.3329 29.5317 50.2662 29.5207 50.0929V43.8663H31.231C31.3634 43.8663 31.4296 43.7862 31.4296 43.6262V42.3196C31.4296 42.1596 31.3634 42.0796 31.231 42.0796H26.2545C26.1221 42.0796 26.0559 42.1596 26.0559 42.3196V43.6262C26.0559 43.7862 26.1221 43.8663 26.2545 43.8663H27.9538V50.0929C27.9538 50.2529 28.02 50.3329 28.1524 50.3329ZM34.6296 50.3329H33.4489C33.3165 50.3329 33.2503 50.2529 33.2503 50.0929V42.3329C33.2503 42.1729 33.3165 42.0929 33.4489 42.0929H34.6296C34.762 42.0929 34.8283 42.1729 34.8283 42.3329V45.1329H37.5979V42.3329C37.5979 42.1729 37.6641 42.0929 37.7965 42.0929H38.9882C39.1207 42.0929 39.1869 42.1729 39.1869 42.3329V50.0929C39.1869 50.2529 39.1207 50.3329 38.9882 50.3329H37.7965C37.6641 50.3329 37.5979 50.2529 37.5979 50.0929V46.9462H34.8283V50.0929C34.8172 50.2662 34.762 50.3329 34.6296 50.3329ZM41.7248 50.3329H46.3262C46.4476 50.3329 46.5138 50.2662 46.5248 50.1329V48.8662C46.5248 48.7062 46.4586 48.6262 46.3262 48.6262H43.1041V46.9596H45.5317C45.6641 46.9596 45.7303 46.8796 45.7303 46.7196V45.5596C45.7303 45.3996 45.6641 45.3196 45.5317 45.3196H43.1041V43.8396H46.26C46.3924 43.8396 46.4586 43.7596 46.4586 43.5996V42.3329C46.4586 42.1729 46.3924 42.0929 46.26 42.0929H41.7248C41.5924 42.0929 41.5262 42.1729 41.5262 42.3329V50.0929C41.5262 50.2529 41.5924 50.3329 41.7248 50.3329ZM52.6599 50.1194C52.2075 49.8794 51.8103 49.5327 51.4682 49.0794C51.4241 49.0261 51.413 48.9727 51.413 48.9194C51.413 48.8661 51.4351 48.7994 51.4903 48.7461L52.2406 47.8794C52.2848 47.8261 52.3289 47.7994 52.373 47.7994C52.4282 47.7994 52.4723 47.8261 52.5165 47.8927C52.7372 48.1594 52.9799 48.3727 53.2558 48.5061C53.5317 48.6394 53.8185 48.7194 54.1054 48.7194C54.4144 48.7194 54.6572 48.6527 54.8227 48.5061C54.9882 48.3727 55.0765 48.1727 55.0765 47.9327C55.0765 47.7727 55.0434 47.6261 54.9661 47.5194C54.8889 47.3994 54.7565 47.2927 54.5689 47.1994C54.3813 47.0927 54.1165 46.9861 53.7744 46.8661C53.2117 46.6661 52.7261 46.3727 52.3068 45.9727C51.8986 45.5727 51.6889 45.0261 51.6889 44.3061C51.6889 43.8794 51.7772 43.4927 51.9648 43.1327C52.1413 42.7727 52.4172 42.4927 52.7813 42.2794C53.1454 42.0661 53.5868 41.9594 54.1054 41.9594C54.5468 41.9594 54.9661 42.0527 55.3744 42.2394C55.7716 42.4261 56.1358 42.6794 56.4558 43.0127C56.4999 43.0661 56.533 43.1194 56.533 43.1727C56.533 43.2261 56.511 43.2794 56.4779 43.3327L55.7937 44.2661C55.7496 44.3327 55.7054 44.3594 55.6503 44.3594C55.6061 44.3594 55.562 44.3327 55.5179 44.2927C55.3303 44.1194 55.1206 43.9727 54.8779 43.8527C54.6351 43.7327 54.4034 43.6794 54.1717 43.6794C53.9068 43.6794 53.6972 43.7327 53.5537 43.8394C53.3992 43.9461 53.333 44.1061 53.333 44.3061C53.333 44.4661 53.3772 44.5994 53.4654 44.7194C53.5537 44.8261 53.6641 44.9194 53.8075 44.9994C53.951 45.0794 54.1716 45.1727 54.4585 45.2794C54.4696 45.2794 54.5137 45.2927 54.5799 45.3327C55.0434 45.5194 55.4296 45.7194 55.7385 45.9327C56.0475 46.1461 56.2792 46.4127 56.4558 46.7327C56.6323 47.0527 56.7096 47.4394 56.7096 47.8927C56.7096 48.4127 56.5992 48.8661 56.3896 49.2527C56.1799 49.6394 55.882 49.9461 55.5068 50.1594C55.1206 50.3727 54.6903 50.4794 54.1827 50.4794C53.6089 50.4794 53.1123 50.3594 52.6599 50.1194ZM59.9868 50.3329H61.1674C61.2999 50.3329 61.3661 50.2662 61.355 50.0929V43.8663H63.0654C63.1978 43.8663 63.264 43.7862 63.264 43.6262V42.3196C63.264 42.1596 63.1978 42.0796 63.0654 42.0796H58.0888C57.9564 42.0796 57.8902 42.1596 57.8902 42.3196V43.6262C57.8902 43.7862 57.9564 43.8663 58.0888 43.8663H59.7881V50.0929C59.7881 50.2529 59.8543 50.3329 59.9868 50.3329ZM67.8102 47.3329L67.0378 44.6929L66.9606 44.3596L66.8944 44.6929L66.1219 47.3329H67.8102ZM70.2157 50.1729C70.2157 50.2262 70.2047 50.2662 70.1716 50.2929C70.1385 50.3196 70.1054 50.3329 70.0502 50.3329H68.8364C68.7261 50.3329 68.6488 50.2662 68.6157 50.1329L68.2516 48.9196H65.6585L65.3054 50.1329C65.2723 50.2662 65.1951 50.3329 65.0847 50.3329H63.8709C63.8157 50.3329 63.7826 50.3196 63.7495 50.2929C63.7164 50.2662 63.7054 50.2262 63.7054 50.1729C63.7054 50.1462 63.7054 50.1062 63.7164 50.0796L66.2213 42.2929C66.2654 42.1729 66.3316 42.1063 66.4419 42.1063H67.4902C67.6006 42.1063 67.6778 42.1729 67.7219 42.2929L70.2047 50.0796C70.2157 50.1062 70.2157 50.1329 70.2157 50.1729ZM72.875 50.3329H74.0667C74.1991 50.3329 74.2653 50.2662 74.2653 50.0929V47.1062L76.4943 42.3729C76.5164 42.3196 76.5274 42.2796 76.5274 42.2396C76.5274 42.1996 76.5164 42.1596 76.4833 42.1329C76.4501 42.1063 76.4171 42.0929 76.3619 42.0929H74.9605C74.8502 42.0929 74.7729 42.1463 74.7288 42.2663L73.4819 45.3462L72.2019 42.2663C72.1578 42.1463 72.0805 42.0929 71.9702 42.0929H70.5688C70.5136 42.0929 70.4805 42.1063 70.4474 42.1329C70.4143 42.1596 70.4033 42.1862 70.4033 42.2396C70.4033 42.2796 70.4143 42.3196 70.4364 42.3729L72.6764 47.1196V50.0929C72.6764 50.2529 72.7426 50.3329 72.875 50.3329ZM77.332 42.3016V42.1432H78.4382V42.3016H77.9744V43.6181H77.7958V42.3016H77.332ZM78.6692 42.1432H78.456V43.6181H78.6231V42.4975H78.6375L79.0984 43.6181H79.2597L79.7206 42.4975H79.735V43.6181H79.9021V42.1432H79.6889L79.1877 43.3674H79.1704L78.6692 42.1432Z" fill="black"/>
</svg>
