<svg width="151" height="150" viewBox="0 0 151 150" fill="none" xmlns="http://www.w3.org/2000/svg">
<g id="user-circle-stroke-rounded 1">
<path id="Vector" d="M75.5 137.5C110.018 137.5 138 109.518 138 75C138 40.4822 110.018 12.5 75.5 12.5C40.9822 12.5 13 40.4822 13 75C13 109.518 40.9822 137.5 75.5 137.5Z" stroke="#515151" stroke-width="4"/>
<path id="Vector_2" d="M35.5 111C56.2262 89.5833 94.5507 88.5748 115.5 111M97.6787 57.9236C97.6787 70.0316 87.7151 79.8472 75.4244 79.8472C63.1347 79.8472 53.1708 70.0316 53.1708 57.9236C53.1708 45.8156 63.1347 36 75.4244 36C87.7151 36 97.6787 45.8156 97.6787 57.9236Z" stroke="#515151" stroke-width="4" stroke-linecap="round"/>
</g>
</svg>
