<svg width="24" height="24" viewBox="0 0 24 24" fill="none" xmlns="http://www.w3.org/2000/svg">
<path d="M4.00055 2.17455C4.00055 2.17455 4.5 6 4 11.5C3.74694 14.2837 3.44334 16.6192 3.12859 17.5512M3.25536 17.0927C3.25536 17.0927 2.00067 18.5 2.50041 18.5M4.00055 2.5C3.50055 2.5 3.36554 2.0209 3.56426 2.06098C6.74438 2.70246 12.53 8.29421 13.0005 13.0001C13.4005 17.0001 11.5005 18.0001 10.5005 18.0001C9.16721 18.1668 7.00055 17.1001 9.00055 11.5001C10.6406 6.9079 14.4102 3.85063 17.0005 2.50014M17.5005 2.00031C19.5005 1.99817 18.7698 1.43892 18.5005 1.50089C18.1196 1.58856 17.5005 2 17.0005 2.50014M17.0005 2.50014C17.0005 4.27727 17.5005 8.00014 17.5005 10.5001C17.5005 13.0001 17.5005 17.0001 19.0005 18.0001C19.5889 18.3924 19.7334 17.5001 18.2334 17.0001M2.50041 18.5C3.00067 18.5 2.99328 17.9519 3.12859 17.5512M2.50041 18.5L3.12859 17.5512" stroke="#FD941A"/>
</svg>
