<svg width="22" height="20" viewBox="0 0 22 20" fill="none" xmlns="http://www.w3.org/2000/svg">
<path d="M8.55599 10C11.0413 10 13.056 7.98528 13.056 5.5C13.056 3.01472 11.0413 1 8.55599 1C6.07071 1 4.05599 3.01472 4.05599 5.5C4.05599 7.98528 6.07071 10 8.55599 10Z" stroke="#FD941A" stroke-linecap="round" stroke-linejoin="round"/>
<path d="M8.55599 13C5.72536 13 3.20953 14.5446 1.61522 16.9383C1.26595 17.4628 1.09132 17.725 1.11142 18.0599C1.12708 18.3207 1.29804 18.64 1.50643 18.7976C1.77407 19 2.14216 19 2.87835 19H14.2336C14.9698 19 15.3379 19 15.6056 18.7976C15.8139 18.64 15.9849 18.3207 16.0006 18.0599C16.0207 17.725 15.846 17.4628 15.4968 16.9383C13.9025 14.5446 11.3866 13 8.55599 13Z" stroke="#FD941A" stroke-linecap="round" stroke-linejoin="round"/>
<path d="M17.1099 14C18.4432 14.6667 20.1099 16.5 20.6099 17.5C21.1465 18.5733 20.7765 19 20.6099 19H19.1099" stroke="#FD941A" stroke-linecap="round"/>
<path d="M15.1099 1.5C15.9432 2 17.6099 3 17.6099 5.5C17.6099 8 15.9432 9 15.1099 9.5" stroke="#FD941A" stroke-linecap="round"/>
</svg>
