<svg width="22" height="18" viewBox="0 0 22 18" fill="none" xmlns="http://www.w3.org/2000/svg">
<path id="Vector" d="M16.2 3.5C17.8802 3.5 18.7202 3.5 19.362 3.82698C19.9265 4.1146 20.3854 4.57354 20.673 5.13803C21 5.77976 21 6.6198 21 8.3V12.7C21 14.3802 21 15.2202 20.673 15.862C20.3854 16.4265 19.9265 16.8854 19.362 17.173C18.7202 17.5 17.8802 17.5 16.2 17.5H5.8C4.11984 17.5 3.27976 17.5 2.63803 17.173C2.07354 16.8854 1.6146 16.4265 1.32698 15.862C1 15.2202 1 14.3802 1 12.7V8.3C1 6.6198 1 5.77976 1.32698 5.13803C1.6146 4.57354 2.07354 4.1146 2.63803 3.82698C3.27976 3.5 4.11984 3.5 5.8 3.5M16.2 3.5H5.8M16.2 3.5L15.2514 1.12861C15.0996 0.748951 14.7319 0.5 14.323 0.5H7.67703C7.26813 0.5 6.90042 0.74895 6.74856 1.12861L5.8 3.5M14.5 10.5C14.5 12.433 12.933 14 11 14C9.067 14 7.5 12.433 7.5 10.5C7.5 8.567 9.067 7 11 7C12.933 7 14.5 8.567 14.5 10.5ZM6 6.5C6 7.05228 5.55228 7.5 5 7.5C4.44772 7.5 4 7.05228 4 6.5C4 5.94772 4.44772 5.5 5 5.5C5.55228 5.5 6 5.94772 6 6.5Z" stroke="#515151" stroke-linecap="round" stroke-linejoin="round"/>
</svg>
