<svg width="34" height="32" viewBox="0 0 34 32" fill="none" xmlns="http://www.w3.org/2000/svg">
<path d="M30.9195 4.50908L30.4018 4.55222C30.6319 13.5551 30.9626 19.9549 31.3941 23.7517C31.5091 24.6721 31.9118 25.6069 32.6021 26.5561C33.3212 27.4765 33.6808 28.2675 33.6808 28.929C33.6808 29.5618 33.4794 30.1083 33.0767 30.5686C32.7028 31.0288 32.1851 31.2589 31.5235 31.2589C30.8907 31.2589 30.3442 30.8706 29.884 30.094C29.4526 29.2886 29.1937 28.4257 29.1074 27.5053C28.3596 17.8696 27.4967 10.6069 26.5187 5.71713C23.9013 7.04024 21.3413 9.32692 18.8389 12.5772C21.1112 16.1726 22.2474 19.2358 22.2474 21.767C22.2474 24.2694 21.3989 26.441 19.7018 28.2819C18.0048 30.094 16.4228 31 14.9559 31C13.489 31 12.3528 30.5254 11.5475 29.5762C10.7709 28.627 10.3826 27.4621 10.3826 26.0815C10.3826 24.6721 10.8428 22.9032 11.7632 20.7747C12.7124 18.6174 13.9492 16.3739 15.4737 14.0441C14.1218 12.0594 12.5829 10.3049 10.8572 8.78042C9.13136 7.2272 7.44872 6.16296 5.80921 5.5877C5.1189 10.4487 4.65868 14.116 4.42858 16.5896C4.22724 19.0345 4.06904 21.6951 3.95399 24.5714C3.83893 27.419 3.76702 29.0872 3.73826 29.5762C3.7095 30.0364 3.53692 30.4391 3.22052 30.7843C2.90413 31.1007 2.53021 31.2589 2.09876 31.2589C1.66731 31.2589 1.26462 31.1007 0.890703 30.7843C0.545545 30.4391 0.372965 29.9645 0.372965 29.3605C0.372965 28.7565 0.588689 27.0451 1.02014 24.2263C1.96932 18.3298 2.50144 11.9444 2.6165 5.06996C1.4372 4.81109 0.847558 4.07763 0.847558 2.86958C0.847558 2.32308 1.10643 1.87725 1.62417 1.53209C2.1419 1.15816 2.77469 0.971203 3.52254 0.971203C5.73731 0.971203 8.12465 1.92039 10.6846 3.81876C13.2733 5.68837 15.6031 8.04695 17.674 10.8945C19.86 7.98943 22.118 5.61646 24.4478 3.77562C26.7776 1.90601 28.9348 0.971203 30.9195 0.971203C32.2714 0.971203 32.9473 1.5177 32.9473 2.61071C32.9473 3.12844 32.7172 3.57427 32.257 3.9482C31.8255 4.32212 31.3797 4.50908 30.9195 4.50908ZM18.8389 23.2771C18.8389 21.0911 18.0767 18.6174 16.5523 15.8562C14.2225 19.5954 13.0575 22.4142 13.0575 24.3126C13.0575 25.348 13.3164 26.2541 13.8341 27.0307C14.3807 27.8073 15.0566 28.1956 15.862 28.1956C16.6673 28.1956 17.3576 27.6922 17.9329 26.6855C18.5369 25.65 18.8389 24.5139 18.8389 23.2771Z" fill="#08B1BD"/>
</svg>
